G04 #@! TF.GenerationSoftware,KiCad,Pcbnew,5.1.5*
G04 #@! TF.CreationDate,2020-02-20T21:28:11+01:00*
G04 #@! TF.ProjectId,cubet_leds,63756265-745f-46c6-9564-732e6b696361,rev?*
G04 #@! TF.SameCoordinates,Original*
G04 #@! TF.FileFunction,Legend,Top*
G04 #@! TF.FilePolarity,Positive*
%FSLAX46Y46*%
G04 Gerber Fmt 4.6, Leading zero omitted, Abs format (unit mm)*
G04 Created by KiCad (PCBNEW 5.1.5) date 2020-02-20 21:28:11*
%MOMM*%
%LPD*%
G04 APERTURE LIST*
%ADD10C,0.150000*%
%ADD11C,0.120000*%
G04 APERTURE END LIST*
D10*
X73504761Y-54657142D02*
X73457142Y-54704761D01*
X73314285Y-54752380D01*
X73219047Y-54752380D01*
X73076190Y-54704761D01*
X72980952Y-54609523D01*
X72933333Y-54514285D01*
X72885714Y-54323809D01*
X72885714Y-54180952D01*
X72933333Y-53990476D01*
X72980952Y-53895238D01*
X73076190Y-53800000D01*
X73219047Y-53752380D01*
X73314285Y-53752380D01*
X73457142Y-53800000D01*
X73504761Y-53847619D01*
X74361904Y-54085714D02*
X74361904Y-54752380D01*
X73933333Y-54085714D02*
X73933333Y-54609523D01*
X73980952Y-54704761D01*
X74076190Y-54752380D01*
X74219047Y-54752380D01*
X74314285Y-54704761D01*
X74361904Y-54657142D01*
X74838095Y-54752380D02*
X74838095Y-53752380D01*
X74838095Y-54133333D02*
X74933333Y-54085714D01*
X75123809Y-54085714D01*
X75219047Y-54133333D01*
X75266666Y-54180952D01*
X75314285Y-54276190D01*
X75314285Y-54561904D01*
X75266666Y-54657142D01*
X75219047Y-54704761D01*
X75123809Y-54752380D01*
X74933333Y-54752380D01*
X74838095Y-54704761D01*
X76123809Y-54704761D02*
X76028571Y-54752380D01*
X75838095Y-54752380D01*
X75742857Y-54704761D01*
X75695238Y-54609523D01*
X75695238Y-54228571D01*
X75742857Y-54133333D01*
X75838095Y-54085714D01*
X76028571Y-54085714D01*
X76123809Y-54133333D01*
X76171428Y-54228571D01*
X76171428Y-54323809D01*
X75695238Y-54419047D01*
X76457142Y-54085714D02*
X76838095Y-54085714D01*
X76600000Y-53752380D02*
X76600000Y-54609523D01*
X76647619Y-54704761D01*
X76742857Y-54752380D01*
X76838095Y-54752380D01*
X77838095Y-54085714D02*
X78076190Y-54752380D01*
X78314285Y-54085714D01*
X79219047Y-54752380D02*
X78647619Y-54752380D01*
X78933333Y-54752380D02*
X78933333Y-53752380D01*
X78838095Y-53895238D01*
X78742857Y-53990476D01*
X78647619Y-54038095D01*
X79647619Y-54657142D02*
X79695238Y-54704761D01*
X79647619Y-54752380D01*
X79600000Y-54704761D01*
X79647619Y-54657142D01*
X79647619Y-54752380D01*
X80314285Y-53752380D02*
X80409523Y-53752380D01*
X80504761Y-53800000D01*
X80552380Y-53847619D01*
X80600000Y-53942857D01*
X80647619Y-54133333D01*
X80647619Y-54371428D01*
X80600000Y-54561904D01*
X80552380Y-54657142D01*
X80504761Y-54704761D01*
X80409523Y-54752380D01*
X80314285Y-54752380D01*
X80219047Y-54704761D01*
X80171428Y-54657142D01*
X80123809Y-54561904D01*
X80076190Y-54371428D01*
X80076190Y-54133333D01*
X80123809Y-53942857D01*
X80171428Y-53847619D01*
X80219047Y-53800000D01*
X80314285Y-53752380D01*
X82552380Y-53704761D02*
X81695238Y-54990476D01*
X83599999Y-53847619D02*
X83647619Y-53800000D01*
X83742857Y-53752380D01*
X83980952Y-53752380D01*
X84076190Y-53800000D01*
X84123809Y-53847619D01*
X84171428Y-53942857D01*
X84171428Y-54038095D01*
X84123809Y-54180952D01*
X83552380Y-54752380D01*
X84171428Y-54752380D01*
X84790476Y-53752380D02*
X84885714Y-53752380D01*
X84980952Y-53800000D01*
X85028571Y-53847619D01*
X85076190Y-53942857D01*
X85123809Y-54133333D01*
X85123809Y-54371428D01*
X85076190Y-54561904D01*
X85028571Y-54657142D01*
X84980952Y-54704761D01*
X84885714Y-54752380D01*
X84790476Y-54752380D01*
X84695238Y-54704761D01*
X84647619Y-54657142D01*
X84599999Y-54561904D01*
X84552380Y-54371428D01*
X84552380Y-54133333D01*
X84599999Y-53942857D01*
X84647619Y-53847619D01*
X84695238Y-53800000D01*
X84790476Y-53752380D01*
X85552380Y-54371428D02*
X86314285Y-54371428D01*
X86980952Y-53752380D02*
X87076190Y-53752380D01*
X87171428Y-53800000D01*
X87219047Y-53847619D01*
X87266666Y-53942857D01*
X87314285Y-54133333D01*
X87314285Y-54371428D01*
X87266666Y-54561904D01*
X87219047Y-54657142D01*
X87171428Y-54704761D01*
X87076190Y-54752380D01*
X86980952Y-54752380D01*
X86885714Y-54704761D01*
X86838095Y-54657142D01*
X86790476Y-54561904D01*
X86742857Y-54371428D01*
X86742857Y-54133333D01*
X86790476Y-53942857D01*
X86838095Y-53847619D01*
X86885714Y-53800000D01*
X86980952Y-53752380D01*
X87695238Y-53847619D02*
X87742857Y-53800000D01*
X87838095Y-53752380D01*
X88076190Y-53752380D01*
X88171428Y-53800000D01*
X88219047Y-53847619D01*
X88266666Y-53942857D01*
X88266666Y-54038095D01*
X88219047Y-54180952D01*
X87647619Y-54752380D01*
X88266666Y-54752380D01*
X88695238Y-54371428D02*
X89457142Y-54371428D01*
X89885714Y-53847619D02*
X89933333Y-53800000D01*
X90028571Y-53752380D01*
X90266666Y-53752380D01*
X90361904Y-53800000D01*
X90409523Y-53847619D01*
X90457142Y-53942857D01*
X90457142Y-54038095D01*
X90409523Y-54180952D01*
X89838095Y-54752380D01*
X90457142Y-54752380D01*
X91076190Y-53752380D02*
X91171428Y-53752380D01*
X91266666Y-53800000D01*
X91314285Y-53847619D01*
X91361904Y-53942857D01*
X91409523Y-54133333D01*
X91409523Y-54371428D01*
X91361904Y-54561904D01*
X91314285Y-54657142D01*
X91266666Y-54704761D01*
X91171428Y-54752380D01*
X91076190Y-54752380D01*
X90980952Y-54704761D01*
X90933333Y-54657142D01*
X90885714Y-54561904D01*
X90838095Y-54371428D01*
X90838095Y-54133333D01*
X90885714Y-53942857D01*
X90933333Y-53847619D01*
X90980952Y-53800000D01*
X91076190Y-53752380D01*
X91790476Y-53847619D02*
X91838095Y-53800000D01*
X91933333Y-53752380D01*
X92171428Y-53752380D01*
X92266666Y-53800000D01*
X92314285Y-53847619D01*
X92361904Y-53942857D01*
X92361904Y-54038095D01*
X92314285Y-54180952D01*
X91742857Y-54752380D01*
X92361904Y-54752380D01*
X92980952Y-53752380D02*
X93076190Y-53752380D01*
X93171428Y-53800000D01*
X93219047Y-53847619D01*
X93266666Y-53942857D01*
X93314285Y-54133333D01*
X93314285Y-54371428D01*
X93266666Y-54561904D01*
X93219047Y-54657142D01*
X93171428Y-54704761D01*
X93076190Y-54752380D01*
X92980952Y-54752380D01*
X92885714Y-54704761D01*
X92838095Y-54657142D01*
X92790476Y-54561904D01*
X92742857Y-54371428D01*
X92742857Y-54133333D01*
X92790476Y-53942857D01*
X92838095Y-53847619D01*
X92885714Y-53800000D01*
X92980952Y-53752380D01*
D11*
X95460000Y-51800000D02*
X95460000Y-53130000D01*
X95460000Y-53130000D02*
X94700000Y-53130000D01*
X94065000Y-53130000D02*
X54635000Y-53130000D01*
X54635000Y-52107530D02*
X54635000Y-53130000D01*
X54635000Y-50470000D02*
X54635000Y-51492470D01*
X94065000Y-50470000D02*
X54635000Y-50470000D01*
X94065000Y-52560000D02*
X94065000Y-53130000D01*
X94065000Y-50470000D02*
X94065000Y-51040000D01*
X51800000Y-50390000D02*
X53130000Y-50390000D01*
X53130000Y-50390000D02*
X53130000Y-51150000D01*
X53130000Y-51785000D02*
X53130000Y-91215000D01*
X52107530Y-91215000D02*
X53130000Y-91215000D01*
X50470000Y-91215000D02*
X51492470Y-91215000D01*
X50470000Y-51785000D02*
X50470000Y-91215000D01*
X52560000Y-51785000D02*
X53130000Y-51785000D01*
X50470000Y-51785000D02*
X51040000Y-51785000D01*
X55900000Y-91710000D02*
G75*
G03X55900000Y-91710000I-700000J0D01*
G01*
X55900000Y-86710000D02*
G75*
G03X55900000Y-86710000I-700000J0D01*
G01*
X55900000Y-81710000D02*
G75*
G03X55900000Y-81710000I-700000J0D01*
G01*
X55900000Y-76710000D02*
G75*
G03X55900000Y-76710000I-700000J0D01*
G01*
X55900000Y-71710000D02*
G75*
G03X55900000Y-71710000I-700000J0D01*
G01*
X55900000Y-66710000D02*
G75*
G03X55900000Y-66710000I-700000J0D01*
G01*
X55900000Y-61710000D02*
G75*
G03X55900000Y-61710000I-700000J0D01*
G01*
X55900000Y-56710000D02*
G75*
G03X55900000Y-56710000I-700000J0D01*
G01*
X58235000Y-58300000D02*
X58235000Y-56015000D01*
X58235000Y-56015000D02*
X56765000Y-56015000D01*
X56765000Y-56015000D02*
X56765000Y-58300000D01*
X58235000Y-63300000D02*
X58235000Y-61015000D01*
X58235000Y-61015000D02*
X56765000Y-61015000D01*
X56765000Y-61015000D02*
X56765000Y-63300000D01*
X58235000Y-68300000D02*
X58235000Y-66015000D01*
X58235000Y-66015000D02*
X56765000Y-66015000D01*
X56765000Y-66015000D02*
X56765000Y-68300000D01*
X58235000Y-73300000D02*
X58235000Y-71015000D01*
X58235000Y-71015000D02*
X56765000Y-71015000D01*
X56765000Y-71015000D02*
X56765000Y-73300000D01*
X58235000Y-78300000D02*
X58235000Y-76015000D01*
X58235000Y-76015000D02*
X56765000Y-76015000D01*
X56765000Y-76015000D02*
X56765000Y-78300000D01*
X58235000Y-83300000D02*
X58235000Y-81015000D01*
X58235000Y-81015000D02*
X56765000Y-81015000D01*
X56765000Y-81015000D02*
X56765000Y-83300000D01*
X68235000Y-83300000D02*
X68235000Y-81015000D01*
X68235000Y-81015000D02*
X66765000Y-81015000D01*
X66765000Y-81015000D02*
X66765000Y-83300000D01*
X68235000Y-78300000D02*
X68235000Y-76015000D01*
X68235000Y-76015000D02*
X66765000Y-76015000D01*
X66765000Y-76015000D02*
X66765000Y-78300000D01*
X63235000Y-58300000D02*
X63235000Y-56015000D01*
X63235000Y-56015000D02*
X61765000Y-56015000D01*
X61765000Y-56015000D02*
X61765000Y-58300000D01*
X63235000Y-63300000D02*
X63235000Y-61015000D01*
X63235000Y-61015000D02*
X61765000Y-61015000D01*
X61765000Y-61015000D02*
X61765000Y-63300000D01*
X63235000Y-68300000D02*
X63235000Y-66015000D01*
X63235000Y-66015000D02*
X61765000Y-66015000D01*
X61765000Y-66015000D02*
X61765000Y-68300000D01*
X63235000Y-73300000D02*
X63235000Y-71015000D01*
X63235000Y-71015000D02*
X61765000Y-71015000D01*
X61765000Y-71015000D02*
X61765000Y-73300000D01*
X63235000Y-78300000D02*
X63235000Y-76015000D01*
X63235000Y-76015000D02*
X61765000Y-76015000D01*
X61765000Y-76015000D02*
X61765000Y-78300000D01*
X63235000Y-83300000D02*
X63235000Y-81015000D01*
X63235000Y-81015000D02*
X61765000Y-81015000D01*
X61765000Y-81015000D02*
X61765000Y-83300000D01*
X68235000Y-68300000D02*
X68235000Y-66015000D01*
X68235000Y-66015000D02*
X66765000Y-66015000D01*
X66765000Y-66015000D02*
X66765000Y-68300000D01*
X68235000Y-73300000D02*
X68235000Y-71015000D01*
X68235000Y-71015000D02*
X66765000Y-71015000D01*
X66765000Y-71015000D02*
X66765000Y-73300000D01*
X68235000Y-58300000D02*
X68235000Y-56015000D01*
X68235000Y-56015000D02*
X66765000Y-56015000D01*
X66765000Y-56015000D02*
X66765000Y-58300000D01*
X68235000Y-63300000D02*
X68235000Y-61015000D01*
X68235000Y-61015000D02*
X66765000Y-61015000D01*
X66765000Y-61015000D02*
X66765000Y-63300000D01*
X73235000Y-58300000D02*
X73235000Y-56015000D01*
X73235000Y-56015000D02*
X71765000Y-56015000D01*
X71765000Y-56015000D02*
X71765000Y-58300000D01*
X73235000Y-63300000D02*
X73235000Y-61015000D01*
X73235000Y-61015000D02*
X71765000Y-61015000D01*
X71765000Y-61015000D02*
X71765000Y-63300000D01*
X73235000Y-68300000D02*
X73235000Y-66015000D01*
X73235000Y-66015000D02*
X71765000Y-66015000D01*
X71765000Y-66015000D02*
X71765000Y-68300000D01*
X73235000Y-73300000D02*
X73235000Y-71015000D01*
X73235000Y-71015000D02*
X71765000Y-71015000D01*
X71765000Y-71015000D02*
X71765000Y-73300000D01*
X73235000Y-78300000D02*
X73235000Y-76015000D01*
X73235000Y-76015000D02*
X71765000Y-76015000D01*
X71765000Y-76015000D02*
X71765000Y-78300000D01*
X73235000Y-83300000D02*
X73235000Y-81015000D01*
X73235000Y-81015000D02*
X71765000Y-81015000D01*
X71765000Y-81015000D02*
X71765000Y-83300000D01*
X78235000Y-58300000D02*
X78235000Y-56015000D01*
X78235000Y-56015000D02*
X76765000Y-56015000D01*
X76765000Y-56015000D02*
X76765000Y-58300000D01*
X78235000Y-63300000D02*
X78235000Y-61015000D01*
X78235000Y-61015000D02*
X76765000Y-61015000D01*
X76765000Y-61015000D02*
X76765000Y-63300000D01*
X78235000Y-68300000D02*
X78235000Y-66015000D01*
X78235000Y-66015000D02*
X76765000Y-66015000D01*
X76765000Y-66015000D02*
X76765000Y-68300000D01*
X78235000Y-73300000D02*
X78235000Y-71015000D01*
X78235000Y-71015000D02*
X76765000Y-71015000D01*
X76765000Y-71015000D02*
X76765000Y-73300000D01*
X78235000Y-78300000D02*
X78235000Y-76015000D01*
X78235000Y-76015000D02*
X76765000Y-76015000D01*
X76765000Y-76015000D02*
X76765000Y-78300000D01*
X78235000Y-83300000D02*
X78235000Y-81015000D01*
X78235000Y-81015000D02*
X76765000Y-81015000D01*
X76765000Y-81015000D02*
X76765000Y-83300000D01*
X83235000Y-58300000D02*
X83235000Y-56015000D01*
X83235000Y-56015000D02*
X81765000Y-56015000D01*
X81765000Y-56015000D02*
X81765000Y-58300000D01*
X83235000Y-63300000D02*
X83235000Y-61015000D01*
X83235000Y-61015000D02*
X81765000Y-61015000D01*
X81765000Y-61015000D02*
X81765000Y-63300000D01*
X83235000Y-68300000D02*
X83235000Y-66015000D01*
X83235000Y-66015000D02*
X81765000Y-66015000D01*
X81765000Y-66015000D02*
X81765000Y-68300000D01*
X83235000Y-73300000D02*
X83235000Y-71015000D01*
X83235000Y-71015000D02*
X81765000Y-71015000D01*
X81765000Y-71015000D02*
X81765000Y-73300000D01*
X83235000Y-78300000D02*
X83235000Y-76015000D01*
X83235000Y-76015000D02*
X81765000Y-76015000D01*
X81765000Y-76015000D02*
X81765000Y-78300000D01*
X88235000Y-58300000D02*
X88235000Y-56015000D01*
X88235000Y-56015000D02*
X86765000Y-56015000D01*
X86765000Y-56015000D02*
X86765000Y-58300000D01*
X88235000Y-63300000D02*
X88235000Y-61015000D01*
X88235000Y-61015000D02*
X86765000Y-61015000D01*
X86765000Y-61015000D02*
X86765000Y-63300000D01*
X88235000Y-68300000D02*
X88235000Y-66015000D01*
X88235000Y-66015000D02*
X86765000Y-66015000D01*
X86765000Y-66015000D02*
X86765000Y-68300000D01*
X88235000Y-73300000D02*
X88235000Y-71015000D01*
X88235000Y-71015000D02*
X86765000Y-71015000D01*
X86765000Y-71015000D02*
X86765000Y-73300000D01*
X88235000Y-78300000D02*
X88235000Y-76015000D01*
X88235000Y-76015000D02*
X86765000Y-76015000D01*
X86765000Y-76015000D02*
X86765000Y-78300000D01*
X93235000Y-58300000D02*
X93235000Y-56015000D01*
X93235000Y-56015000D02*
X91765000Y-56015000D01*
X91765000Y-56015000D02*
X91765000Y-58300000D01*
X93235000Y-68300000D02*
X93235000Y-66015000D01*
X93235000Y-66015000D02*
X91765000Y-66015000D01*
X91765000Y-66015000D02*
X91765000Y-68300000D01*
X88235000Y-83300000D02*
X88235000Y-81015000D01*
X88235000Y-81015000D02*
X86765000Y-81015000D01*
X86765000Y-81015000D02*
X86765000Y-83300000D01*
X93235000Y-63300000D02*
X93235000Y-61015000D01*
X93235000Y-61015000D02*
X91765000Y-61015000D01*
X91765000Y-61015000D02*
X91765000Y-63300000D01*
X91765000Y-71015000D02*
X91765000Y-73300000D01*
X93235000Y-71015000D02*
X91765000Y-71015000D01*
X93235000Y-73300000D02*
X93235000Y-71015000D01*
X91765000Y-76015000D02*
X91765000Y-78300000D01*
X93235000Y-76015000D02*
X91765000Y-76015000D01*
X93235000Y-78300000D02*
X93235000Y-76015000D01*
X91765000Y-81015000D02*
X91765000Y-83300000D01*
X93235000Y-81015000D02*
X91765000Y-81015000D01*
X93235000Y-83300000D02*
X93235000Y-81015000D01*
X91765000Y-86015000D02*
X91765000Y-88300000D01*
X93235000Y-86015000D02*
X91765000Y-86015000D01*
X93235000Y-88300000D02*
X93235000Y-86015000D01*
X58235000Y-88300000D02*
X58235000Y-86015000D01*
X58235000Y-86015000D02*
X56765000Y-86015000D01*
X56765000Y-86015000D02*
X56765000Y-88300000D01*
X63235000Y-88300000D02*
X63235000Y-86015000D01*
X63235000Y-86015000D02*
X61765000Y-86015000D01*
X61765000Y-86015000D02*
X61765000Y-88300000D01*
X68235000Y-88300000D02*
X68235000Y-86015000D01*
X68235000Y-86015000D02*
X66765000Y-86015000D01*
X66765000Y-86015000D02*
X66765000Y-88300000D01*
X73235000Y-88300000D02*
X73235000Y-86015000D01*
X73235000Y-86015000D02*
X71765000Y-86015000D01*
X71765000Y-86015000D02*
X71765000Y-88300000D01*
X78235000Y-88300000D02*
X78235000Y-86015000D01*
X78235000Y-86015000D02*
X76765000Y-86015000D01*
X76765000Y-86015000D02*
X76765000Y-88300000D01*
X83235000Y-88300000D02*
X83235000Y-86015000D01*
X83235000Y-86015000D02*
X81765000Y-86015000D01*
X81765000Y-86015000D02*
X81765000Y-88300000D01*
X83235000Y-83300000D02*
X83235000Y-81015000D01*
X83235000Y-81015000D02*
X81765000Y-81015000D01*
X81765000Y-81015000D02*
X81765000Y-83300000D01*
X88235000Y-88300000D02*
X88235000Y-86015000D01*
X88235000Y-86015000D02*
X86765000Y-86015000D01*
X86765000Y-86015000D02*
X86765000Y-88300000D01*
X58235000Y-93300000D02*
X58235000Y-91015000D01*
X58235000Y-91015000D02*
X56765000Y-91015000D01*
X56765000Y-91015000D02*
X56765000Y-93300000D01*
X63235000Y-93300000D02*
X63235000Y-91015000D01*
X63235000Y-91015000D02*
X61765000Y-91015000D01*
X61765000Y-91015000D02*
X61765000Y-93300000D01*
X68235000Y-93300000D02*
X68235000Y-91015000D01*
X68235000Y-91015000D02*
X66765000Y-91015000D01*
X66765000Y-91015000D02*
X66765000Y-93300000D01*
X73235000Y-93300000D02*
X73235000Y-91015000D01*
X73235000Y-91015000D02*
X71765000Y-91015000D01*
X71765000Y-91015000D02*
X71765000Y-93300000D01*
X78235000Y-93300000D02*
X78235000Y-91015000D01*
X78235000Y-91015000D02*
X76765000Y-91015000D01*
X76765000Y-91015000D02*
X76765000Y-93300000D01*
X83235000Y-93300000D02*
X83235000Y-91015000D01*
X83235000Y-91015000D02*
X81765000Y-91015000D01*
X81765000Y-91015000D02*
X81765000Y-93300000D01*
X88235000Y-93300000D02*
X88235000Y-91015000D01*
X88235000Y-91015000D02*
X86765000Y-91015000D01*
X86765000Y-91015000D02*
X86765000Y-93300000D01*
X93235000Y-93300000D02*
X93235000Y-91015000D01*
X93235000Y-91015000D02*
X91765000Y-91015000D01*
X91765000Y-91015000D02*
X91765000Y-93300000D01*
X98200000Y-91310000D02*
X96870000Y-91310000D01*
X96870000Y-91310000D02*
X96870000Y-90550000D01*
X96870000Y-89915000D02*
X96870000Y-50485000D01*
X97892470Y-50485000D02*
X96870000Y-50485000D01*
X99530000Y-50485000D02*
X98507530Y-50485000D01*
X99530000Y-89915000D02*
X99530000Y-50485000D01*
X97440000Y-89915000D02*
X96870000Y-89915000D01*
X99530000Y-89915000D02*
X98960000Y-89915000D01*
D10*
X95652380Y-52233333D02*
X96366666Y-52233333D01*
X96509523Y-52280952D01*
X96604761Y-52376190D01*
X96652380Y-52519047D01*
X96652380Y-52614285D01*
X95652380Y-51852380D02*
X95652380Y-51233333D01*
X96033333Y-51566666D01*
X96033333Y-51423809D01*
X96080952Y-51328571D01*
X96128571Y-51280952D01*
X96223809Y-51233333D01*
X96461904Y-51233333D01*
X96557142Y-51280952D01*
X96604761Y-51328571D01*
X96652380Y-51423809D01*
X96652380Y-51709523D01*
X96604761Y-51804761D01*
X96557142Y-51852380D01*
X51566666Y-91652380D02*
X51566666Y-92366666D01*
X51519047Y-92509523D01*
X51423809Y-92604761D01*
X51280952Y-92652380D01*
X51185714Y-92652380D01*
X52471428Y-91985714D02*
X52471428Y-92652380D01*
X52233333Y-91604761D02*
X51995238Y-92319047D01*
X52614285Y-92319047D01*
X54752380Y-94509523D02*
X55466666Y-94509523D01*
X55609523Y-94557142D01*
X55704761Y-94652380D01*
X55752380Y-94795238D01*
X55752380Y-94890476D01*
X55752380Y-93509523D02*
X55752380Y-94080952D01*
X55752380Y-93795238D02*
X54752380Y-93795238D01*
X54895238Y-93890476D01*
X54990476Y-93985714D01*
X55038095Y-94080952D01*
X55752380Y-92557142D02*
X55752380Y-93128571D01*
X55752380Y-92842857D02*
X54752380Y-92842857D01*
X54895238Y-92938095D01*
X54990476Y-93033333D01*
X55038095Y-93128571D01*
X54752380Y-89609523D02*
X55466666Y-89609523D01*
X55609523Y-89657142D01*
X55704761Y-89752380D01*
X55752380Y-89895238D01*
X55752380Y-89990476D01*
X55752380Y-88609523D02*
X55752380Y-89180952D01*
X55752380Y-88895238D02*
X54752380Y-88895238D01*
X54895238Y-88990476D01*
X54990476Y-89085714D01*
X55038095Y-89180952D01*
X54752380Y-87990476D02*
X54752380Y-87895238D01*
X54800000Y-87800000D01*
X54847619Y-87752380D01*
X54942857Y-87704761D01*
X55133333Y-87657142D01*
X55371428Y-87657142D01*
X55561904Y-87704761D01*
X55657142Y-87752380D01*
X55704761Y-87800000D01*
X55752380Y-87895238D01*
X55752380Y-87990476D01*
X55704761Y-88085714D01*
X55657142Y-88133333D01*
X55561904Y-88180952D01*
X55371428Y-88228571D01*
X55133333Y-88228571D01*
X54942857Y-88180952D01*
X54847619Y-88133333D01*
X54800000Y-88085714D01*
X54752380Y-87990476D01*
X54752380Y-83733333D02*
X55466666Y-83733333D01*
X55609523Y-83780952D01*
X55704761Y-83876190D01*
X55752380Y-84019047D01*
X55752380Y-84114285D01*
X55752380Y-83209523D02*
X55752380Y-83019047D01*
X55704761Y-82923809D01*
X55657142Y-82876190D01*
X55514285Y-82780952D01*
X55323809Y-82733333D01*
X54942857Y-82733333D01*
X54847619Y-82780952D01*
X54800000Y-82828571D01*
X54752380Y-82923809D01*
X54752380Y-83114285D01*
X54800000Y-83209523D01*
X54847619Y-83257142D01*
X54942857Y-83304761D01*
X55180952Y-83304761D01*
X55276190Y-83257142D01*
X55323809Y-83209523D01*
X55371428Y-83114285D01*
X55371428Y-82923809D01*
X55323809Y-82828571D01*
X55276190Y-82780952D01*
X55180952Y-82733333D01*
X54752380Y-78733333D02*
X55466666Y-78733333D01*
X55609523Y-78780952D01*
X55704761Y-78876190D01*
X55752380Y-79019047D01*
X55752380Y-79114285D01*
X55180952Y-78114285D02*
X55133333Y-78209523D01*
X55085714Y-78257142D01*
X54990476Y-78304761D01*
X54942857Y-78304761D01*
X54847619Y-78257142D01*
X54800000Y-78209523D01*
X54752380Y-78114285D01*
X54752380Y-77923809D01*
X54800000Y-77828571D01*
X54847619Y-77780952D01*
X54942857Y-77733333D01*
X54990476Y-77733333D01*
X55085714Y-77780952D01*
X55133333Y-77828571D01*
X55180952Y-77923809D01*
X55180952Y-78114285D01*
X55228571Y-78209523D01*
X55276190Y-78257142D01*
X55371428Y-78304761D01*
X55561904Y-78304761D01*
X55657142Y-78257142D01*
X55704761Y-78209523D01*
X55752380Y-78114285D01*
X55752380Y-77923809D01*
X55704761Y-77828571D01*
X55657142Y-77780952D01*
X55561904Y-77733333D01*
X55371428Y-77733333D01*
X55276190Y-77780952D01*
X55228571Y-77828571D01*
X55180952Y-77923809D01*
X54852380Y-70633333D02*
X55566666Y-70633333D01*
X55709523Y-70680952D01*
X55804761Y-70776190D01*
X55852380Y-70919047D01*
X55852380Y-71014285D01*
X54852380Y-70252380D02*
X54852380Y-69585714D01*
X55852380Y-70014285D01*
X54852380Y-68733333D02*
X55566666Y-68733333D01*
X55709523Y-68780952D01*
X55804761Y-68876190D01*
X55852380Y-69019047D01*
X55852380Y-69114285D01*
X54852380Y-67828571D02*
X54852380Y-68019047D01*
X54900000Y-68114285D01*
X54947619Y-68161904D01*
X55090476Y-68257142D01*
X55280952Y-68304761D01*
X55661904Y-68304761D01*
X55757142Y-68257142D01*
X55804761Y-68209523D01*
X55852380Y-68114285D01*
X55852380Y-67923809D01*
X55804761Y-67828571D01*
X55757142Y-67780952D01*
X55661904Y-67733333D01*
X55423809Y-67733333D01*
X55328571Y-67780952D01*
X55280952Y-67828571D01*
X55233333Y-67923809D01*
X55233333Y-68114285D01*
X55280952Y-68209523D01*
X55328571Y-68257142D01*
X55423809Y-68304761D01*
X54852380Y-63833333D02*
X55566666Y-63833333D01*
X55709523Y-63880952D01*
X55804761Y-63976190D01*
X55852380Y-64119047D01*
X55852380Y-64214285D01*
X54852380Y-62880952D02*
X54852380Y-63357142D01*
X55328571Y-63404761D01*
X55280952Y-63357142D01*
X55233333Y-63261904D01*
X55233333Y-63023809D01*
X55280952Y-62928571D01*
X55328571Y-62880952D01*
X55423809Y-62833333D01*
X55661904Y-62833333D01*
X55757142Y-62880952D01*
X55804761Y-62928571D01*
X55852380Y-63023809D01*
X55852380Y-63261904D01*
X55804761Y-63357142D01*
X55757142Y-63404761D01*
X55352380Y-58433333D02*
X56066666Y-58433333D01*
X56209523Y-58480952D01*
X56304761Y-58576190D01*
X56352380Y-58719047D01*
X56352380Y-58814285D01*
X56352380Y-57433333D02*
X56352380Y-58004761D01*
X56352380Y-57719047D02*
X55352380Y-57719047D01*
X55495238Y-57814285D01*
X55590476Y-57909523D01*
X55638095Y-58004761D01*
X59382380Y-58714285D02*
X58382380Y-58714285D01*
X58382380Y-58476190D01*
X58430000Y-58333333D01*
X58525238Y-58238095D01*
X58620476Y-58190476D01*
X58810952Y-58142857D01*
X58953809Y-58142857D01*
X59144285Y-58190476D01*
X59239523Y-58238095D01*
X59334761Y-58333333D01*
X59382380Y-58476190D01*
X59382380Y-58714285D01*
X58382380Y-57285714D02*
X58382380Y-57476190D01*
X58430000Y-57571428D01*
X58477619Y-57619047D01*
X58620476Y-57714285D01*
X58810952Y-57761904D01*
X59191904Y-57761904D01*
X59287142Y-57714285D01*
X59334761Y-57666666D01*
X59382380Y-57571428D01*
X59382380Y-57380952D01*
X59334761Y-57285714D01*
X59287142Y-57238095D01*
X59191904Y-57190476D01*
X58953809Y-57190476D01*
X58858571Y-57238095D01*
X58810952Y-57285714D01*
X58763333Y-57380952D01*
X58763333Y-57571428D01*
X58810952Y-57666666D01*
X58858571Y-57714285D01*
X58953809Y-57761904D01*
X58715714Y-56333333D02*
X59382380Y-56333333D01*
X58334761Y-56571428D02*
X59049047Y-56809523D01*
X59049047Y-56190476D01*
X59382380Y-63714285D02*
X58382380Y-63714285D01*
X58382380Y-63476190D01*
X58430000Y-63333333D01*
X58525238Y-63238095D01*
X58620476Y-63190476D01*
X58810952Y-63142857D01*
X58953809Y-63142857D01*
X59144285Y-63190476D01*
X59239523Y-63238095D01*
X59334761Y-63333333D01*
X59382380Y-63476190D01*
X59382380Y-63714285D01*
X58382380Y-62285714D02*
X58382380Y-62476190D01*
X58430000Y-62571428D01*
X58477619Y-62619047D01*
X58620476Y-62714285D01*
X58810952Y-62761904D01*
X59191904Y-62761904D01*
X59287142Y-62714285D01*
X59334761Y-62666666D01*
X59382380Y-62571428D01*
X59382380Y-62380952D01*
X59334761Y-62285714D01*
X59287142Y-62238095D01*
X59191904Y-62190476D01*
X58953809Y-62190476D01*
X58858571Y-62238095D01*
X58810952Y-62285714D01*
X58763333Y-62380952D01*
X58763333Y-62571428D01*
X58810952Y-62666666D01*
X58858571Y-62714285D01*
X58953809Y-62761904D01*
X58382380Y-61857142D02*
X58382380Y-61238095D01*
X58763333Y-61571428D01*
X58763333Y-61428571D01*
X58810952Y-61333333D01*
X58858571Y-61285714D01*
X58953809Y-61238095D01*
X59191904Y-61238095D01*
X59287142Y-61285714D01*
X59334761Y-61333333D01*
X59382380Y-61428571D01*
X59382380Y-61714285D01*
X59334761Y-61809523D01*
X59287142Y-61857142D01*
X59382380Y-68714285D02*
X58382380Y-68714285D01*
X58382380Y-68476190D01*
X58430000Y-68333333D01*
X58525238Y-68238095D01*
X58620476Y-68190476D01*
X58810952Y-68142857D01*
X58953809Y-68142857D01*
X59144285Y-68190476D01*
X59239523Y-68238095D01*
X59334761Y-68333333D01*
X59382380Y-68476190D01*
X59382380Y-68714285D01*
X58382380Y-67285714D02*
X58382380Y-67476190D01*
X58430000Y-67571428D01*
X58477619Y-67619047D01*
X58620476Y-67714285D01*
X58810952Y-67761904D01*
X59191904Y-67761904D01*
X59287142Y-67714285D01*
X59334761Y-67666666D01*
X59382380Y-67571428D01*
X59382380Y-67380952D01*
X59334761Y-67285714D01*
X59287142Y-67238095D01*
X59191904Y-67190476D01*
X58953809Y-67190476D01*
X58858571Y-67238095D01*
X58810952Y-67285714D01*
X58763333Y-67380952D01*
X58763333Y-67571428D01*
X58810952Y-67666666D01*
X58858571Y-67714285D01*
X58953809Y-67761904D01*
X58477619Y-66809523D02*
X58430000Y-66761904D01*
X58382380Y-66666666D01*
X58382380Y-66428571D01*
X58430000Y-66333333D01*
X58477619Y-66285714D01*
X58572857Y-66238095D01*
X58668095Y-66238095D01*
X58810952Y-66285714D01*
X59382380Y-66857142D01*
X59382380Y-66238095D01*
X59382380Y-73714285D02*
X58382380Y-73714285D01*
X58382380Y-73476190D01*
X58430000Y-73333333D01*
X58525238Y-73238095D01*
X58620476Y-73190476D01*
X58810952Y-73142857D01*
X58953809Y-73142857D01*
X59144285Y-73190476D01*
X59239523Y-73238095D01*
X59334761Y-73333333D01*
X59382380Y-73476190D01*
X59382380Y-73714285D01*
X58382380Y-72285714D02*
X58382380Y-72476190D01*
X58430000Y-72571428D01*
X58477619Y-72619047D01*
X58620476Y-72714285D01*
X58810952Y-72761904D01*
X59191904Y-72761904D01*
X59287142Y-72714285D01*
X59334761Y-72666666D01*
X59382380Y-72571428D01*
X59382380Y-72380952D01*
X59334761Y-72285714D01*
X59287142Y-72238095D01*
X59191904Y-72190476D01*
X58953809Y-72190476D01*
X58858571Y-72238095D01*
X58810952Y-72285714D01*
X58763333Y-72380952D01*
X58763333Y-72571428D01*
X58810952Y-72666666D01*
X58858571Y-72714285D01*
X58953809Y-72761904D01*
X59382380Y-71238095D02*
X59382380Y-71809523D01*
X59382380Y-71523809D02*
X58382380Y-71523809D01*
X58525238Y-71619047D01*
X58620476Y-71714285D01*
X58668095Y-71809523D01*
X59382380Y-78714285D02*
X58382380Y-78714285D01*
X58382380Y-78476190D01*
X58430000Y-78333333D01*
X58525238Y-78238095D01*
X58620476Y-78190476D01*
X58810952Y-78142857D01*
X58953809Y-78142857D01*
X59144285Y-78190476D01*
X59239523Y-78238095D01*
X59334761Y-78333333D01*
X59382380Y-78476190D01*
X59382380Y-78714285D01*
X58382380Y-77285714D02*
X58382380Y-77476190D01*
X58430000Y-77571428D01*
X58477619Y-77619047D01*
X58620476Y-77714285D01*
X58810952Y-77761904D01*
X59191904Y-77761904D01*
X59287142Y-77714285D01*
X59334761Y-77666666D01*
X59382380Y-77571428D01*
X59382380Y-77380952D01*
X59334761Y-77285714D01*
X59287142Y-77238095D01*
X59191904Y-77190476D01*
X58953809Y-77190476D01*
X58858571Y-77238095D01*
X58810952Y-77285714D01*
X58763333Y-77380952D01*
X58763333Y-77571428D01*
X58810952Y-77666666D01*
X58858571Y-77714285D01*
X58953809Y-77761904D01*
X58382380Y-76571428D02*
X58382380Y-76476190D01*
X58430000Y-76380952D01*
X58477619Y-76333333D01*
X58572857Y-76285714D01*
X58763333Y-76238095D01*
X59001428Y-76238095D01*
X59191904Y-76285714D01*
X59287142Y-76333333D01*
X59334761Y-76380952D01*
X59382380Y-76476190D01*
X59382380Y-76571428D01*
X59334761Y-76666666D01*
X59287142Y-76714285D01*
X59191904Y-76761904D01*
X59001428Y-76809523D01*
X58763333Y-76809523D01*
X58572857Y-76761904D01*
X58477619Y-76714285D01*
X58430000Y-76666666D01*
X58382380Y-76571428D01*
X59382380Y-83714285D02*
X58382380Y-83714285D01*
X58382380Y-83476190D01*
X58430000Y-83333333D01*
X58525238Y-83238095D01*
X58620476Y-83190476D01*
X58810952Y-83142857D01*
X58953809Y-83142857D01*
X59144285Y-83190476D01*
X59239523Y-83238095D01*
X59334761Y-83333333D01*
X59382380Y-83476190D01*
X59382380Y-83714285D01*
X58382380Y-82238095D02*
X58382380Y-82714285D01*
X58858571Y-82761904D01*
X58810952Y-82714285D01*
X58763333Y-82619047D01*
X58763333Y-82380952D01*
X58810952Y-82285714D01*
X58858571Y-82238095D01*
X58953809Y-82190476D01*
X59191904Y-82190476D01*
X59287142Y-82238095D01*
X59334761Y-82285714D01*
X59382380Y-82380952D01*
X59382380Y-82619047D01*
X59334761Y-82714285D01*
X59287142Y-82761904D01*
X59382380Y-81714285D02*
X59382380Y-81523809D01*
X59334761Y-81428571D01*
X59287142Y-81380952D01*
X59144285Y-81285714D01*
X58953809Y-81238095D01*
X58572857Y-81238095D01*
X58477619Y-81285714D01*
X58430000Y-81333333D01*
X58382380Y-81428571D01*
X58382380Y-81619047D01*
X58430000Y-81714285D01*
X58477619Y-81761904D01*
X58572857Y-81809523D01*
X58810952Y-81809523D01*
X58906190Y-81761904D01*
X58953809Y-81714285D01*
X59001428Y-81619047D01*
X59001428Y-81428571D01*
X58953809Y-81333333D01*
X58906190Y-81285714D01*
X58810952Y-81238095D01*
X69382380Y-83714285D02*
X68382380Y-83714285D01*
X68382380Y-83476190D01*
X68430000Y-83333333D01*
X68525238Y-83238095D01*
X68620476Y-83190476D01*
X68810952Y-83142857D01*
X68953809Y-83142857D01*
X69144285Y-83190476D01*
X69239523Y-83238095D01*
X69334761Y-83333333D01*
X69382380Y-83476190D01*
X69382380Y-83714285D01*
X68382380Y-82238095D02*
X68382380Y-82714285D01*
X68858571Y-82761904D01*
X68810952Y-82714285D01*
X68763333Y-82619047D01*
X68763333Y-82380952D01*
X68810952Y-82285714D01*
X68858571Y-82238095D01*
X68953809Y-82190476D01*
X69191904Y-82190476D01*
X69287142Y-82238095D01*
X69334761Y-82285714D01*
X69382380Y-82380952D01*
X69382380Y-82619047D01*
X69334761Y-82714285D01*
X69287142Y-82761904D01*
X68810952Y-81619047D02*
X68763333Y-81714285D01*
X68715714Y-81761904D01*
X68620476Y-81809523D01*
X68572857Y-81809523D01*
X68477619Y-81761904D01*
X68430000Y-81714285D01*
X68382380Y-81619047D01*
X68382380Y-81428571D01*
X68430000Y-81333333D01*
X68477619Y-81285714D01*
X68572857Y-81238095D01*
X68620476Y-81238095D01*
X68715714Y-81285714D01*
X68763333Y-81333333D01*
X68810952Y-81428571D01*
X68810952Y-81619047D01*
X68858571Y-81714285D01*
X68906190Y-81761904D01*
X69001428Y-81809523D01*
X69191904Y-81809523D01*
X69287142Y-81761904D01*
X69334761Y-81714285D01*
X69382380Y-81619047D01*
X69382380Y-81428571D01*
X69334761Y-81333333D01*
X69287142Y-81285714D01*
X69191904Y-81238095D01*
X69001428Y-81238095D01*
X68906190Y-81285714D01*
X68858571Y-81333333D01*
X68810952Y-81428571D01*
X69382380Y-78714285D02*
X68382380Y-78714285D01*
X68382380Y-78476190D01*
X68430000Y-78333333D01*
X68525238Y-78238095D01*
X68620476Y-78190476D01*
X68810952Y-78142857D01*
X68953809Y-78142857D01*
X69144285Y-78190476D01*
X69239523Y-78238095D01*
X69334761Y-78333333D01*
X69382380Y-78476190D01*
X69382380Y-78714285D01*
X68382380Y-77238095D02*
X68382380Y-77714285D01*
X68858571Y-77761904D01*
X68810952Y-77714285D01*
X68763333Y-77619047D01*
X68763333Y-77380952D01*
X68810952Y-77285714D01*
X68858571Y-77238095D01*
X68953809Y-77190476D01*
X69191904Y-77190476D01*
X69287142Y-77238095D01*
X69334761Y-77285714D01*
X69382380Y-77380952D01*
X69382380Y-77619047D01*
X69334761Y-77714285D01*
X69287142Y-77761904D01*
X68382380Y-76857142D02*
X68382380Y-76190476D01*
X69382380Y-76619047D01*
X64382380Y-58714285D02*
X63382380Y-58714285D01*
X63382380Y-58476190D01*
X63430000Y-58333333D01*
X63525238Y-58238095D01*
X63620476Y-58190476D01*
X63810952Y-58142857D01*
X63953809Y-58142857D01*
X64144285Y-58190476D01*
X64239523Y-58238095D01*
X64334761Y-58333333D01*
X64382380Y-58476190D01*
X64382380Y-58714285D01*
X63382380Y-57238095D02*
X63382380Y-57714285D01*
X63858571Y-57761904D01*
X63810952Y-57714285D01*
X63763333Y-57619047D01*
X63763333Y-57380952D01*
X63810952Y-57285714D01*
X63858571Y-57238095D01*
X63953809Y-57190476D01*
X64191904Y-57190476D01*
X64287142Y-57238095D01*
X64334761Y-57285714D01*
X64382380Y-57380952D01*
X64382380Y-57619047D01*
X64334761Y-57714285D01*
X64287142Y-57761904D01*
X63382380Y-56333333D02*
X63382380Y-56523809D01*
X63430000Y-56619047D01*
X63477619Y-56666666D01*
X63620476Y-56761904D01*
X63810952Y-56809523D01*
X64191904Y-56809523D01*
X64287142Y-56761904D01*
X64334761Y-56714285D01*
X64382380Y-56619047D01*
X64382380Y-56428571D01*
X64334761Y-56333333D01*
X64287142Y-56285714D01*
X64191904Y-56238095D01*
X63953809Y-56238095D01*
X63858571Y-56285714D01*
X63810952Y-56333333D01*
X63763333Y-56428571D01*
X63763333Y-56619047D01*
X63810952Y-56714285D01*
X63858571Y-56761904D01*
X63953809Y-56809523D01*
X64382380Y-63714285D02*
X63382380Y-63714285D01*
X63382380Y-63476190D01*
X63430000Y-63333333D01*
X63525238Y-63238095D01*
X63620476Y-63190476D01*
X63810952Y-63142857D01*
X63953809Y-63142857D01*
X64144285Y-63190476D01*
X64239523Y-63238095D01*
X64334761Y-63333333D01*
X64382380Y-63476190D01*
X64382380Y-63714285D01*
X63382380Y-62238095D02*
X63382380Y-62714285D01*
X63858571Y-62761904D01*
X63810952Y-62714285D01*
X63763333Y-62619047D01*
X63763333Y-62380952D01*
X63810952Y-62285714D01*
X63858571Y-62238095D01*
X63953809Y-62190476D01*
X64191904Y-62190476D01*
X64287142Y-62238095D01*
X64334761Y-62285714D01*
X64382380Y-62380952D01*
X64382380Y-62619047D01*
X64334761Y-62714285D01*
X64287142Y-62761904D01*
X63382380Y-61285714D02*
X63382380Y-61761904D01*
X63858571Y-61809523D01*
X63810952Y-61761904D01*
X63763333Y-61666666D01*
X63763333Y-61428571D01*
X63810952Y-61333333D01*
X63858571Y-61285714D01*
X63953809Y-61238095D01*
X64191904Y-61238095D01*
X64287142Y-61285714D01*
X64334761Y-61333333D01*
X64382380Y-61428571D01*
X64382380Y-61666666D01*
X64334761Y-61761904D01*
X64287142Y-61809523D01*
X64382380Y-68714285D02*
X63382380Y-68714285D01*
X63382380Y-68476190D01*
X63430000Y-68333333D01*
X63525238Y-68238095D01*
X63620476Y-68190476D01*
X63810952Y-68142857D01*
X63953809Y-68142857D01*
X64144285Y-68190476D01*
X64239523Y-68238095D01*
X64334761Y-68333333D01*
X64382380Y-68476190D01*
X64382380Y-68714285D01*
X63382380Y-67238095D02*
X63382380Y-67714285D01*
X63858571Y-67761904D01*
X63810952Y-67714285D01*
X63763333Y-67619047D01*
X63763333Y-67380952D01*
X63810952Y-67285714D01*
X63858571Y-67238095D01*
X63953809Y-67190476D01*
X64191904Y-67190476D01*
X64287142Y-67238095D01*
X64334761Y-67285714D01*
X64382380Y-67380952D01*
X64382380Y-67619047D01*
X64334761Y-67714285D01*
X64287142Y-67761904D01*
X63715714Y-66333333D02*
X64382380Y-66333333D01*
X63334761Y-66571428D02*
X64049047Y-66809523D01*
X64049047Y-66190476D01*
X64382380Y-73714285D02*
X63382380Y-73714285D01*
X63382380Y-73476190D01*
X63430000Y-73333333D01*
X63525238Y-73238095D01*
X63620476Y-73190476D01*
X63810952Y-73142857D01*
X63953809Y-73142857D01*
X64144285Y-73190476D01*
X64239523Y-73238095D01*
X64334761Y-73333333D01*
X64382380Y-73476190D01*
X64382380Y-73714285D01*
X63382380Y-72238095D02*
X63382380Y-72714285D01*
X63858571Y-72761904D01*
X63810952Y-72714285D01*
X63763333Y-72619047D01*
X63763333Y-72380952D01*
X63810952Y-72285714D01*
X63858571Y-72238095D01*
X63953809Y-72190476D01*
X64191904Y-72190476D01*
X64287142Y-72238095D01*
X64334761Y-72285714D01*
X64382380Y-72380952D01*
X64382380Y-72619047D01*
X64334761Y-72714285D01*
X64287142Y-72761904D01*
X63382380Y-71857142D02*
X63382380Y-71238095D01*
X63763333Y-71571428D01*
X63763333Y-71428571D01*
X63810952Y-71333333D01*
X63858571Y-71285714D01*
X63953809Y-71238095D01*
X64191904Y-71238095D01*
X64287142Y-71285714D01*
X64334761Y-71333333D01*
X64382380Y-71428571D01*
X64382380Y-71714285D01*
X64334761Y-71809523D01*
X64287142Y-71857142D01*
X64382380Y-78714285D02*
X63382380Y-78714285D01*
X63382380Y-78476190D01*
X63430000Y-78333333D01*
X63525238Y-78238095D01*
X63620476Y-78190476D01*
X63810952Y-78142857D01*
X63953809Y-78142857D01*
X64144285Y-78190476D01*
X64239523Y-78238095D01*
X64334761Y-78333333D01*
X64382380Y-78476190D01*
X64382380Y-78714285D01*
X63382380Y-77238095D02*
X63382380Y-77714285D01*
X63858571Y-77761904D01*
X63810952Y-77714285D01*
X63763333Y-77619047D01*
X63763333Y-77380952D01*
X63810952Y-77285714D01*
X63858571Y-77238095D01*
X63953809Y-77190476D01*
X64191904Y-77190476D01*
X64287142Y-77238095D01*
X64334761Y-77285714D01*
X64382380Y-77380952D01*
X64382380Y-77619047D01*
X64334761Y-77714285D01*
X64287142Y-77761904D01*
X63477619Y-76809523D02*
X63430000Y-76761904D01*
X63382380Y-76666666D01*
X63382380Y-76428571D01*
X63430000Y-76333333D01*
X63477619Y-76285714D01*
X63572857Y-76238095D01*
X63668095Y-76238095D01*
X63810952Y-76285714D01*
X64382380Y-76857142D01*
X64382380Y-76238095D01*
X64382380Y-83714285D02*
X63382380Y-83714285D01*
X63382380Y-83476190D01*
X63430000Y-83333333D01*
X63525238Y-83238095D01*
X63620476Y-83190476D01*
X63810952Y-83142857D01*
X63953809Y-83142857D01*
X64144285Y-83190476D01*
X64239523Y-83238095D01*
X64334761Y-83333333D01*
X64382380Y-83476190D01*
X64382380Y-83714285D01*
X63382380Y-82238095D02*
X63382380Y-82714285D01*
X63858571Y-82761904D01*
X63810952Y-82714285D01*
X63763333Y-82619047D01*
X63763333Y-82380952D01*
X63810952Y-82285714D01*
X63858571Y-82238095D01*
X63953809Y-82190476D01*
X64191904Y-82190476D01*
X64287142Y-82238095D01*
X64334761Y-82285714D01*
X64382380Y-82380952D01*
X64382380Y-82619047D01*
X64334761Y-82714285D01*
X64287142Y-82761904D01*
X64382380Y-81238095D02*
X64382380Y-81809523D01*
X64382380Y-81523809D02*
X63382380Y-81523809D01*
X63525238Y-81619047D01*
X63620476Y-81714285D01*
X63668095Y-81809523D01*
X69382380Y-68714285D02*
X68382380Y-68714285D01*
X68382380Y-68476190D01*
X68430000Y-68333333D01*
X68525238Y-68238095D01*
X68620476Y-68190476D01*
X68810952Y-68142857D01*
X68953809Y-68142857D01*
X69144285Y-68190476D01*
X69239523Y-68238095D01*
X69334761Y-68333333D01*
X69382380Y-68476190D01*
X69382380Y-68714285D01*
X68382380Y-67238095D02*
X68382380Y-67714285D01*
X68858571Y-67761904D01*
X68810952Y-67714285D01*
X68763333Y-67619047D01*
X68763333Y-67380952D01*
X68810952Y-67285714D01*
X68858571Y-67238095D01*
X68953809Y-67190476D01*
X69191904Y-67190476D01*
X69287142Y-67238095D01*
X69334761Y-67285714D01*
X69382380Y-67380952D01*
X69382380Y-67619047D01*
X69334761Y-67714285D01*
X69287142Y-67761904D01*
X68382380Y-66571428D02*
X68382380Y-66476190D01*
X68430000Y-66380952D01*
X68477619Y-66333333D01*
X68572857Y-66285714D01*
X68763333Y-66238095D01*
X69001428Y-66238095D01*
X69191904Y-66285714D01*
X69287142Y-66333333D01*
X69334761Y-66380952D01*
X69382380Y-66476190D01*
X69382380Y-66571428D01*
X69334761Y-66666666D01*
X69287142Y-66714285D01*
X69191904Y-66761904D01*
X69001428Y-66809523D01*
X68763333Y-66809523D01*
X68572857Y-66761904D01*
X68477619Y-66714285D01*
X68430000Y-66666666D01*
X68382380Y-66571428D01*
X69382380Y-73714285D02*
X68382380Y-73714285D01*
X68382380Y-73476190D01*
X68430000Y-73333333D01*
X68525238Y-73238095D01*
X68620476Y-73190476D01*
X68810952Y-73142857D01*
X68953809Y-73142857D01*
X69144285Y-73190476D01*
X69239523Y-73238095D01*
X69334761Y-73333333D01*
X69382380Y-73476190D01*
X69382380Y-73714285D01*
X68715714Y-72285714D02*
X69382380Y-72285714D01*
X68334761Y-72523809D02*
X69049047Y-72761904D01*
X69049047Y-72142857D01*
X69382380Y-71714285D02*
X69382380Y-71523809D01*
X69334761Y-71428571D01*
X69287142Y-71380952D01*
X69144285Y-71285714D01*
X68953809Y-71238095D01*
X68572857Y-71238095D01*
X68477619Y-71285714D01*
X68430000Y-71333333D01*
X68382380Y-71428571D01*
X68382380Y-71619047D01*
X68430000Y-71714285D01*
X68477619Y-71761904D01*
X68572857Y-71809523D01*
X68810952Y-71809523D01*
X68906190Y-71761904D01*
X68953809Y-71714285D01*
X69001428Y-71619047D01*
X69001428Y-71428571D01*
X68953809Y-71333333D01*
X68906190Y-71285714D01*
X68810952Y-71238095D01*
X69382380Y-58714285D02*
X68382380Y-58714285D01*
X68382380Y-58476190D01*
X68430000Y-58333333D01*
X68525238Y-58238095D01*
X68620476Y-58190476D01*
X68810952Y-58142857D01*
X68953809Y-58142857D01*
X69144285Y-58190476D01*
X69239523Y-58238095D01*
X69334761Y-58333333D01*
X69382380Y-58476190D01*
X69382380Y-58714285D01*
X68715714Y-57285714D02*
X69382380Y-57285714D01*
X68334761Y-57523809D02*
X69049047Y-57761904D01*
X69049047Y-57142857D01*
X68810952Y-56619047D02*
X68763333Y-56714285D01*
X68715714Y-56761904D01*
X68620476Y-56809523D01*
X68572857Y-56809523D01*
X68477619Y-56761904D01*
X68430000Y-56714285D01*
X68382380Y-56619047D01*
X68382380Y-56428571D01*
X68430000Y-56333333D01*
X68477619Y-56285714D01*
X68572857Y-56238095D01*
X68620476Y-56238095D01*
X68715714Y-56285714D01*
X68763333Y-56333333D01*
X68810952Y-56428571D01*
X68810952Y-56619047D01*
X68858571Y-56714285D01*
X68906190Y-56761904D01*
X69001428Y-56809523D01*
X69191904Y-56809523D01*
X69287142Y-56761904D01*
X69334761Y-56714285D01*
X69382380Y-56619047D01*
X69382380Y-56428571D01*
X69334761Y-56333333D01*
X69287142Y-56285714D01*
X69191904Y-56238095D01*
X69001428Y-56238095D01*
X68906190Y-56285714D01*
X68858571Y-56333333D01*
X68810952Y-56428571D01*
X69382380Y-63714285D02*
X68382380Y-63714285D01*
X68382380Y-63476190D01*
X68430000Y-63333333D01*
X68525238Y-63238095D01*
X68620476Y-63190476D01*
X68810952Y-63142857D01*
X68953809Y-63142857D01*
X69144285Y-63190476D01*
X69239523Y-63238095D01*
X69334761Y-63333333D01*
X69382380Y-63476190D01*
X69382380Y-63714285D01*
X68715714Y-62285714D02*
X69382380Y-62285714D01*
X68334761Y-62523809D02*
X69049047Y-62761904D01*
X69049047Y-62142857D01*
X68382380Y-61857142D02*
X68382380Y-61190476D01*
X69382380Y-61619047D01*
X74382380Y-58714285D02*
X73382380Y-58714285D01*
X73382380Y-58476190D01*
X73430000Y-58333333D01*
X73525238Y-58238095D01*
X73620476Y-58190476D01*
X73810952Y-58142857D01*
X73953809Y-58142857D01*
X74144285Y-58190476D01*
X74239523Y-58238095D01*
X74334761Y-58333333D01*
X74382380Y-58476190D01*
X74382380Y-58714285D01*
X73715714Y-57285714D02*
X74382380Y-57285714D01*
X73334761Y-57523809D02*
X74049047Y-57761904D01*
X74049047Y-57142857D01*
X73382380Y-56333333D02*
X73382380Y-56523809D01*
X73430000Y-56619047D01*
X73477619Y-56666666D01*
X73620476Y-56761904D01*
X73810952Y-56809523D01*
X74191904Y-56809523D01*
X74287142Y-56761904D01*
X74334761Y-56714285D01*
X74382380Y-56619047D01*
X74382380Y-56428571D01*
X74334761Y-56333333D01*
X74287142Y-56285714D01*
X74191904Y-56238095D01*
X73953809Y-56238095D01*
X73858571Y-56285714D01*
X73810952Y-56333333D01*
X73763333Y-56428571D01*
X73763333Y-56619047D01*
X73810952Y-56714285D01*
X73858571Y-56761904D01*
X73953809Y-56809523D01*
X74382380Y-63714285D02*
X73382380Y-63714285D01*
X73382380Y-63476190D01*
X73430000Y-63333333D01*
X73525238Y-63238095D01*
X73620476Y-63190476D01*
X73810952Y-63142857D01*
X73953809Y-63142857D01*
X74144285Y-63190476D01*
X74239523Y-63238095D01*
X74334761Y-63333333D01*
X74382380Y-63476190D01*
X74382380Y-63714285D01*
X73715714Y-62285714D02*
X74382380Y-62285714D01*
X73334761Y-62523809D02*
X74049047Y-62761904D01*
X74049047Y-62142857D01*
X73382380Y-61285714D02*
X73382380Y-61761904D01*
X73858571Y-61809523D01*
X73810952Y-61761904D01*
X73763333Y-61666666D01*
X73763333Y-61428571D01*
X73810952Y-61333333D01*
X73858571Y-61285714D01*
X73953809Y-61238095D01*
X74191904Y-61238095D01*
X74287142Y-61285714D01*
X74334761Y-61333333D01*
X74382380Y-61428571D01*
X74382380Y-61666666D01*
X74334761Y-61761904D01*
X74287142Y-61809523D01*
X74382380Y-68714285D02*
X73382380Y-68714285D01*
X73382380Y-68476190D01*
X73430000Y-68333333D01*
X73525238Y-68238095D01*
X73620476Y-68190476D01*
X73810952Y-68142857D01*
X73953809Y-68142857D01*
X74144285Y-68190476D01*
X74239523Y-68238095D01*
X74334761Y-68333333D01*
X74382380Y-68476190D01*
X74382380Y-68714285D01*
X73715714Y-67285714D02*
X74382380Y-67285714D01*
X73334761Y-67523809D02*
X74049047Y-67761904D01*
X74049047Y-67142857D01*
X73715714Y-66333333D02*
X74382380Y-66333333D01*
X73334761Y-66571428D02*
X74049047Y-66809523D01*
X74049047Y-66190476D01*
X74382380Y-73714285D02*
X73382380Y-73714285D01*
X73382380Y-73476190D01*
X73430000Y-73333333D01*
X73525238Y-73238095D01*
X73620476Y-73190476D01*
X73810952Y-73142857D01*
X73953809Y-73142857D01*
X74144285Y-73190476D01*
X74239523Y-73238095D01*
X74334761Y-73333333D01*
X74382380Y-73476190D01*
X74382380Y-73714285D01*
X73715714Y-72285714D02*
X74382380Y-72285714D01*
X73334761Y-72523809D02*
X74049047Y-72761904D01*
X74049047Y-72142857D01*
X73382380Y-71857142D02*
X73382380Y-71238095D01*
X73763333Y-71571428D01*
X73763333Y-71428571D01*
X73810952Y-71333333D01*
X73858571Y-71285714D01*
X73953809Y-71238095D01*
X74191904Y-71238095D01*
X74287142Y-71285714D01*
X74334761Y-71333333D01*
X74382380Y-71428571D01*
X74382380Y-71714285D01*
X74334761Y-71809523D01*
X74287142Y-71857142D01*
X74382380Y-78714285D02*
X73382380Y-78714285D01*
X73382380Y-78476190D01*
X73430000Y-78333333D01*
X73525238Y-78238095D01*
X73620476Y-78190476D01*
X73810952Y-78142857D01*
X73953809Y-78142857D01*
X74144285Y-78190476D01*
X74239523Y-78238095D01*
X74334761Y-78333333D01*
X74382380Y-78476190D01*
X74382380Y-78714285D01*
X73715714Y-77285714D02*
X74382380Y-77285714D01*
X73334761Y-77523809D02*
X74049047Y-77761904D01*
X74049047Y-77142857D01*
X73477619Y-76809523D02*
X73430000Y-76761904D01*
X73382380Y-76666666D01*
X73382380Y-76428571D01*
X73430000Y-76333333D01*
X73477619Y-76285714D01*
X73572857Y-76238095D01*
X73668095Y-76238095D01*
X73810952Y-76285714D01*
X74382380Y-76857142D01*
X74382380Y-76238095D01*
X74382380Y-83714285D02*
X73382380Y-83714285D01*
X73382380Y-83476190D01*
X73430000Y-83333333D01*
X73525238Y-83238095D01*
X73620476Y-83190476D01*
X73810952Y-83142857D01*
X73953809Y-83142857D01*
X74144285Y-83190476D01*
X74239523Y-83238095D01*
X74334761Y-83333333D01*
X74382380Y-83476190D01*
X74382380Y-83714285D01*
X73715714Y-82285714D02*
X74382380Y-82285714D01*
X73334761Y-82523809D02*
X74049047Y-82761904D01*
X74049047Y-82142857D01*
X74382380Y-81238095D02*
X74382380Y-81809523D01*
X74382380Y-81523809D02*
X73382380Y-81523809D01*
X73525238Y-81619047D01*
X73620476Y-81714285D01*
X73668095Y-81809523D01*
X79382380Y-58714285D02*
X78382380Y-58714285D01*
X78382380Y-58476190D01*
X78430000Y-58333333D01*
X78525238Y-58238095D01*
X78620476Y-58190476D01*
X78810952Y-58142857D01*
X78953809Y-58142857D01*
X79144285Y-58190476D01*
X79239523Y-58238095D01*
X79334761Y-58333333D01*
X79382380Y-58476190D01*
X79382380Y-58714285D01*
X78715714Y-57285714D02*
X79382380Y-57285714D01*
X78334761Y-57523809D02*
X79049047Y-57761904D01*
X79049047Y-57142857D01*
X78382380Y-56571428D02*
X78382380Y-56476190D01*
X78430000Y-56380952D01*
X78477619Y-56333333D01*
X78572857Y-56285714D01*
X78763333Y-56238095D01*
X79001428Y-56238095D01*
X79191904Y-56285714D01*
X79287142Y-56333333D01*
X79334761Y-56380952D01*
X79382380Y-56476190D01*
X79382380Y-56571428D01*
X79334761Y-56666666D01*
X79287142Y-56714285D01*
X79191904Y-56761904D01*
X79001428Y-56809523D01*
X78763333Y-56809523D01*
X78572857Y-56761904D01*
X78477619Y-56714285D01*
X78430000Y-56666666D01*
X78382380Y-56571428D01*
X79382380Y-63714285D02*
X78382380Y-63714285D01*
X78382380Y-63476190D01*
X78430000Y-63333333D01*
X78525238Y-63238095D01*
X78620476Y-63190476D01*
X78810952Y-63142857D01*
X78953809Y-63142857D01*
X79144285Y-63190476D01*
X79239523Y-63238095D01*
X79334761Y-63333333D01*
X79382380Y-63476190D01*
X79382380Y-63714285D01*
X78382380Y-62809523D02*
X78382380Y-62190476D01*
X78763333Y-62523809D01*
X78763333Y-62380952D01*
X78810952Y-62285714D01*
X78858571Y-62238095D01*
X78953809Y-62190476D01*
X79191904Y-62190476D01*
X79287142Y-62238095D01*
X79334761Y-62285714D01*
X79382380Y-62380952D01*
X79382380Y-62666666D01*
X79334761Y-62761904D01*
X79287142Y-62809523D01*
X79382380Y-61714285D02*
X79382380Y-61523809D01*
X79334761Y-61428571D01*
X79287142Y-61380952D01*
X79144285Y-61285714D01*
X78953809Y-61238095D01*
X78572857Y-61238095D01*
X78477619Y-61285714D01*
X78430000Y-61333333D01*
X78382380Y-61428571D01*
X78382380Y-61619047D01*
X78430000Y-61714285D01*
X78477619Y-61761904D01*
X78572857Y-61809523D01*
X78810952Y-61809523D01*
X78906190Y-61761904D01*
X78953809Y-61714285D01*
X79001428Y-61619047D01*
X79001428Y-61428571D01*
X78953809Y-61333333D01*
X78906190Y-61285714D01*
X78810952Y-61238095D01*
X79382380Y-68714285D02*
X78382380Y-68714285D01*
X78382380Y-68476190D01*
X78430000Y-68333333D01*
X78525238Y-68238095D01*
X78620476Y-68190476D01*
X78810952Y-68142857D01*
X78953809Y-68142857D01*
X79144285Y-68190476D01*
X79239523Y-68238095D01*
X79334761Y-68333333D01*
X79382380Y-68476190D01*
X79382380Y-68714285D01*
X78382380Y-67809523D02*
X78382380Y-67190476D01*
X78763333Y-67523809D01*
X78763333Y-67380952D01*
X78810952Y-67285714D01*
X78858571Y-67238095D01*
X78953809Y-67190476D01*
X79191904Y-67190476D01*
X79287142Y-67238095D01*
X79334761Y-67285714D01*
X79382380Y-67380952D01*
X79382380Y-67666666D01*
X79334761Y-67761904D01*
X79287142Y-67809523D01*
X78810952Y-66619047D02*
X78763333Y-66714285D01*
X78715714Y-66761904D01*
X78620476Y-66809523D01*
X78572857Y-66809523D01*
X78477619Y-66761904D01*
X78430000Y-66714285D01*
X78382380Y-66619047D01*
X78382380Y-66428571D01*
X78430000Y-66333333D01*
X78477619Y-66285714D01*
X78572857Y-66238095D01*
X78620476Y-66238095D01*
X78715714Y-66285714D01*
X78763333Y-66333333D01*
X78810952Y-66428571D01*
X78810952Y-66619047D01*
X78858571Y-66714285D01*
X78906190Y-66761904D01*
X79001428Y-66809523D01*
X79191904Y-66809523D01*
X79287142Y-66761904D01*
X79334761Y-66714285D01*
X79382380Y-66619047D01*
X79382380Y-66428571D01*
X79334761Y-66333333D01*
X79287142Y-66285714D01*
X79191904Y-66238095D01*
X79001428Y-66238095D01*
X78906190Y-66285714D01*
X78858571Y-66333333D01*
X78810952Y-66428571D01*
X79382380Y-73714285D02*
X78382380Y-73714285D01*
X78382380Y-73476190D01*
X78430000Y-73333333D01*
X78525238Y-73238095D01*
X78620476Y-73190476D01*
X78810952Y-73142857D01*
X78953809Y-73142857D01*
X79144285Y-73190476D01*
X79239523Y-73238095D01*
X79334761Y-73333333D01*
X79382380Y-73476190D01*
X79382380Y-73714285D01*
X78382380Y-72809523D02*
X78382380Y-72190476D01*
X78763333Y-72523809D01*
X78763333Y-72380952D01*
X78810952Y-72285714D01*
X78858571Y-72238095D01*
X78953809Y-72190476D01*
X79191904Y-72190476D01*
X79287142Y-72238095D01*
X79334761Y-72285714D01*
X79382380Y-72380952D01*
X79382380Y-72666666D01*
X79334761Y-72761904D01*
X79287142Y-72809523D01*
X78382380Y-71857142D02*
X78382380Y-71190476D01*
X79382380Y-71619047D01*
X79382380Y-78714285D02*
X78382380Y-78714285D01*
X78382380Y-78476190D01*
X78430000Y-78333333D01*
X78525238Y-78238095D01*
X78620476Y-78190476D01*
X78810952Y-78142857D01*
X78953809Y-78142857D01*
X79144285Y-78190476D01*
X79239523Y-78238095D01*
X79334761Y-78333333D01*
X79382380Y-78476190D01*
X79382380Y-78714285D01*
X78382380Y-77809523D02*
X78382380Y-77190476D01*
X78763333Y-77523809D01*
X78763333Y-77380952D01*
X78810952Y-77285714D01*
X78858571Y-77238095D01*
X78953809Y-77190476D01*
X79191904Y-77190476D01*
X79287142Y-77238095D01*
X79334761Y-77285714D01*
X79382380Y-77380952D01*
X79382380Y-77666666D01*
X79334761Y-77761904D01*
X79287142Y-77809523D01*
X78382380Y-76333333D02*
X78382380Y-76523809D01*
X78430000Y-76619047D01*
X78477619Y-76666666D01*
X78620476Y-76761904D01*
X78810952Y-76809523D01*
X79191904Y-76809523D01*
X79287142Y-76761904D01*
X79334761Y-76714285D01*
X79382380Y-76619047D01*
X79382380Y-76428571D01*
X79334761Y-76333333D01*
X79287142Y-76285714D01*
X79191904Y-76238095D01*
X78953809Y-76238095D01*
X78858571Y-76285714D01*
X78810952Y-76333333D01*
X78763333Y-76428571D01*
X78763333Y-76619047D01*
X78810952Y-76714285D01*
X78858571Y-76761904D01*
X78953809Y-76809523D01*
X79382380Y-83714285D02*
X78382380Y-83714285D01*
X78382380Y-83476190D01*
X78430000Y-83333333D01*
X78525238Y-83238095D01*
X78620476Y-83190476D01*
X78810952Y-83142857D01*
X78953809Y-83142857D01*
X79144285Y-83190476D01*
X79239523Y-83238095D01*
X79334761Y-83333333D01*
X79382380Y-83476190D01*
X79382380Y-83714285D01*
X78382380Y-82809523D02*
X78382380Y-82190476D01*
X78763333Y-82523809D01*
X78763333Y-82380952D01*
X78810952Y-82285714D01*
X78858571Y-82238095D01*
X78953809Y-82190476D01*
X79191904Y-82190476D01*
X79287142Y-82238095D01*
X79334761Y-82285714D01*
X79382380Y-82380952D01*
X79382380Y-82666666D01*
X79334761Y-82761904D01*
X79287142Y-82809523D01*
X78382380Y-81285714D02*
X78382380Y-81761904D01*
X78858571Y-81809523D01*
X78810952Y-81761904D01*
X78763333Y-81666666D01*
X78763333Y-81428571D01*
X78810952Y-81333333D01*
X78858571Y-81285714D01*
X78953809Y-81238095D01*
X79191904Y-81238095D01*
X79287142Y-81285714D01*
X79334761Y-81333333D01*
X79382380Y-81428571D01*
X79382380Y-81666666D01*
X79334761Y-81761904D01*
X79287142Y-81809523D01*
X84382380Y-58714285D02*
X83382380Y-58714285D01*
X83382380Y-58476190D01*
X83430000Y-58333333D01*
X83525238Y-58238095D01*
X83620476Y-58190476D01*
X83810952Y-58142857D01*
X83953809Y-58142857D01*
X84144285Y-58190476D01*
X84239523Y-58238095D01*
X84334761Y-58333333D01*
X84382380Y-58476190D01*
X84382380Y-58714285D01*
X83382380Y-57809523D02*
X83382380Y-57190476D01*
X83763333Y-57523809D01*
X83763333Y-57380952D01*
X83810952Y-57285714D01*
X83858571Y-57238095D01*
X83953809Y-57190476D01*
X84191904Y-57190476D01*
X84287142Y-57238095D01*
X84334761Y-57285714D01*
X84382380Y-57380952D01*
X84382380Y-57666666D01*
X84334761Y-57761904D01*
X84287142Y-57809523D01*
X83715714Y-56333333D02*
X84382380Y-56333333D01*
X83334761Y-56571428D02*
X84049047Y-56809523D01*
X84049047Y-56190476D01*
X84382380Y-63714285D02*
X83382380Y-63714285D01*
X83382380Y-63476190D01*
X83430000Y-63333333D01*
X83525238Y-63238095D01*
X83620476Y-63190476D01*
X83810952Y-63142857D01*
X83953809Y-63142857D01*
X84144285Y-63190476D01*
X84239523Y-63238095D01*
X84334761Y-63333333D01*
X84382380Y-63476190D01*
X84382380Y-63714285D01*
X83382380Y-62809523D02*
X83382380Y-62190476D01*
X83763333Y-62523809D01*
X83763333Y-62380952D01*
X83810952Y-62285714D01*
X83858571Y-62238095D01*
X83953809Y-62190476D01*
X84191904Y-62190476D01*
X84287142Y-62238095D01*
X84334761Y-62285714D01*
X84382380Y-62380952D01*
X84382380Y-62666666D01*
X84334761Y-62761904D01*
X84287142Y-62809523D01*
X83382380Y-61857142D02*
X83382380Y-61238095D01*
X83763333Y-61571428D01*
X83763333Y-61428571D01*
X83810952Y-61333333D01*
X83858571Y-61285714D01*
X83953809Y-61238095D01*
X84191904Y-61238095D01*
X84287142Y-61285714D01*
X84334761Y-61333333D01*
X84382380Y-61428571D01*
X84382380Y-61714285D01*
X84334761Y-61809523D01*
X84287142Y-61857142D01*
X84382380Y-68714285D02*
X83382380Y-68714285D01*
X83382380Y-68476190D01*
X83430000Y-68333333D01*
X83525238Y-68238095D01*
X83620476Y-68190476D01*
X83810952Y-68142857D01*
X83953809Y-68142857D01*
X84144285Y-68190476D01*
X84239523Y-68238095D01*
X84334761Y-68333333D01*
X84382380Y-68476190D01*
X84382380Y-68714285D01*
X83382380Y-67809523D02*
X83382380Y-67190476D01*
X83763333Y-67523809D01*
X83763333Y-67380952D01*
X83810952Y-67285714D01*
X83858571Y-67238095D01*
X83953809Y-67190476D01*
X84191904Y-67190476D01*
X84287142Y-67238095D01*
X84334761Y-67285714D01*
X84382380Y-67380952D01*
X84382380Y-67666666D01*
X84334761Y-67761904D01*
X84287142Y-67809523D01*
X83477619Y-66809523D02*
X83430000Y-66761904D01*
X83382380Y-66666666D01*
X83382380Y-66428571D01*
X83430000Y-66333333D01*
X83477619Y-66285714D01*
X83572857Y-66238095D01*
X83668095Y-66238095D01*
X83810952Y-66285714D01*
X84382380Y-66857142D01*
X84382380Y-66238095D01*
X84382380Y-73714285D02*
X83382380Y-73714285D01*
X83382380Y-73476190D01*
X83430000Y-73333333D01*
X83525238Y-73238095D01*
X83620476Y-73190476D01*
X83810952Y-73142857D01*
X83953809Y-73142857D01*
X84144285Y-73190476D01*
X84239523Y-73238095D01*
X84334761Y-73333333D01*
X84382380Y-73476190D01*
X84382380Y-73714285D01*
X83382380Y-72809523D02*
X83382380Y-72190476D01*
X83763333Y-72523809D01*
X83763333Y-72380952D01*
X83810952Y-72285714D01*
X83858571Y-72238095D01*
X83953809Y-72190476D01*
X84191904Y-72190476D01*
X84287142Y-72238095D01*
X84334761Y-72285714D01*
X84382380Y-72380952D01*
X84382380Y-72666666D01*
X84334761Y-72761904D01*
X84287142Y-72809523D01*
X84382380Y-71238095D02*
X84382380Y-71809523D01*
X84382380Y-71523809D02*
X83382380Y-71523809D01*
X83525238Y-71619047D01*
X83620476Y-71714285D01*
X83668095Y-71809523D01*
X84382380Y-78714285D02*
X83382380Y-78714285D01*
X83382380Y-78476190D01*
X83430000Y-78333333D01*
X83525238Y-78238095D01*
X83620476Y-78190476D01*
X83810952Y-78142857D01*
X83953809Y-78142857D01*
X84144285Y-78190476D01*
X84239523Y-78238095D01*
X84334761Y-78333333D01*
X84382380Y-78476190D01*
X84382380Y-78714285D01*
X83382380Y-77809523D02*
X83382380Y-77190476D01*
X83763333Y-77523809D01*
X83763333Y-77380952D01*
X83810952Y-77285714D01*
X83858571Y-77238095D01*
X83953809Y-77190476D01*
X84191904Y-77190476D01*
X84287142Y-77238095D01*
X84334761Y-77285714D01*
X84382380Y-77380952D01*
X84382380Y-77666666D01*
X84334761Y-77761904D01*
X84287142Y-77809523D01*
X83382380Y-76571428D02*
X83382380Y-76476190D01*
X83430000Y-76380952D01*
X83477619Y-76333333D01*
X83572857Y-76285714D01*
X83763333Y-76238095D01*
X84001428Y-76238095D01*
X84191904Y-76285714D01*
X84287142Y-76333333D01*
X84334761Y-76380952D01*
X84382380Y-76476190D01*
X84382380Y-76571428D01*
X84334761Y-76666666D01*
X84287142Y-76714285D01*
X84191904Y-76761904D01*
X84001428Y-76809523D01*
X83763333Y-76809523D01*
X83572857Y-76761904D01*
X83477619Y-76714285D01*
X83430000Y-76666666D01*
X83382380Y-76571428D01*
X89382380Y-58714285D02*
X88382380Y-58714285D01*
X88382380Y-58476190D01*
X88430000Y-58333333D01*
X88525238Y-58238095D01*
X88620476Y-58190476D01*
X88810952Y-58142857D01*
X88953809Y-58142857D01*
X89144285Y-58190476D01*
X89239523Y-58238095D01*
X89334761Y-58333333D01*
X89382380Y-58476190D01*
X89382380Y-58714285D01*
X88477619Y-57761904D02*
X88430000Y-57714285D01*
X88382380Y-57619047D01*
X88382380Y-57380952D01*
X88430000Y-57285714D01*
X88477619Y-57238095D01*
X88572857Y-57190476D01*
X88668095Y-57190476D01*
X88810952Y-57238095D01*
X89382380Y-57809523D01*
X89382380Y-57190476D01*
X89382380Y-56714285D02*
X89382380Y-56523809D01*
X89334761Y-56428571D01*
X89287142Y-56380952D01*
X89144285Y-56285714D01*
X88953809Y-56238095D01*
X88572857Y-56238095D01*
X88477619Y-56285714D01*
X88430000Y-56333333D01*
X88382380Y-56428571D01*
X88382380Y-56619047D01*
X88430000Y-56714285D01*
X88477619Y-56761904D01*
X88572857Y-56809523D01*
X88810952Y-56809523D01*
X88906190Y-56761904D01*
X88953809Y-56714285D01*
X89001428Y-56619047D01*
X89001428Y-56428571D01*
X88953809Y-56333333D01*
X88906190Y-56285714D01*
X88810952Y-56238095D01*
X89382380Y-63714285D02*
X88382380Y-63714285D01*
X88382380Y-63476190D01*
X88430000Y-63333333D01*
X88525238Y-63238095D01*
X88620476Y-63190476D01*
X88810952Y-63142857D01*
X88953809Y-63142857D01*
X89144285Y-63190476D01*
X89239523Y-63238095D01*
X89334761Y-63333333D01*
X89382380Y-63476190D01*
X89382380Y-63714285D01*
X88477619Y-62761904D02*
X88430000Y-62714285D01*
X88382380Y-62619047D01*
X88382380Y-62380952D01*
X88430000Y-62285714D01*
X88477619Y-62238095D01*
X88572857Y-62190476D01*
X88668095Y-62190476D01*
X88810952Y-62238095D01*
X89382380Y-62809523D01*
X89382380Y-62190476D01*
X88810952Y-61619047D02*
X88763333Y-61714285D01*
X88715714Y-61761904D01*
X88620476Y-61809523D01*
X88572857Y-61809523D01*
X88477619Y-61761904D01*
X88430000Y-61714285D01*
X88382380Y-61619047D01*
X88382380Y-61428571D01*
X88430000Y-61333333D01*
X88477619Y-61285714D01*
X88572857Y-61238095D01*
X88620476Y-61238095D01*
X88715714Y-61285714D01*
X88763333Y-61333333D01*
X88810952Y-61428571D01*
X88810952Y-61619047D01*
X88858571Y-61714285D01*
X88906190Y-61761904D01*
X89001428Y-61809523D01*
X89191904Y-61809523D01*
X89287142Y-61761904D01*
X89334761Y-61714285D01*
X89382380Y-61619047D01*
X89382380Y-61428571D01*
X89334761Y-61333333D01*
X89287142Y-61285714D01*
X89191904Y-61238095D01*
X89001428Y-61238095D01*
X88906190Y-61285714D01*
X88858571Y-61333333D01*
X88810952Y-61428571D01*
X89382380Y-68714285D02*
X88382380Y-68714285D01*
X88382380Y-68476190D01*
X88430000Y-68333333D01*
X88525238Y-68238095D01*
X88620476Y-68190476D01*
X88810952Y-68142857D01*
X88953809Y-68142857D01*
X89144285Y-68190476D01*
X89239523Y-68238095D01*
X89334761Y-68333333D01*
X89382380Y-68476190D01*
X89382380Y-68714285D01*
X88477619Y-67761904D02*
X88430000Y-67714285D01*
X88382380Y-67619047D01*
X88382380Y-67380952D01*
X88430000Y-67285714D01*
X88477619Y-67238095D01*
X88572857Y-67190476D01*
X88668095Y-67190476D01*
X88810952Y-67238095D01*
X89382380Y-67809523D01*
X89382380Y-67190476D01*
X88382380Y-66857142D02*
X88382380Y-66190476D01*
X89382380Y-66619047D01*
X89382380Y-73714285D02*
X88382380Y-73714285D01*
X88382380Y-73476190D01*
X88430000Y-73333333D01*
X88525238Y-73238095D01*
X88620476Y-73190476D01*
X88810952Y-73142857D01*
X88953809Y-73142857D01*
X89144285Y-73190476D01*
X89239523Y-73238095D01*
X89334761Y-73333333D01*
X89382380Y-73476190D01*
X89382380Y-73714285D01*
X88477619Y-72761904D02*
X88430000Y-72714285D01*
X88382380Y-72619047D01*
X88382380Y-72380952D01*
X88430000Y-72285714D01*
X88477619Y-72238095D01*
X88572857Y-72190476D01*
X88668095Y-72190476D01*
X88810952Y-72238095D01*
X89382380Y-72809523D01*
X89382380Y-72190476D01*
X88382380Y-71333333D02*
X88382380Y-71523809D01*
X88430000Y-71619047D01*
X88477619Y-71666666D01*
X88620476Y-71761904D01*
X88810952Y-71809523D01*
X89191904Y-71809523D01*
X89287142Y-71761904D01*
X89334761Y-71714285D01*
X89382380Y-71619047D01*
X89382380Y-71428571D01*
X89334761Y-71333333D01*
X89287142Y-71285714D01*
X89191904Y-71238095D01*
X88953809Y-71238095D01*
X88858571Y-71285714D01*
X88810952Y-71333333D01*
X88763333Y-71428571D01*
X88763333Y-71619047D01*
X88810952Y-71714285D01*
X88858571Y-71761904D01*
X88953809Y-71809523D01*
X89382380Y-78714285D02*
X88382380Y-78714285D01*
X88382380Y-78476190D01*
X88430000Y-78333333D01*
X88525238Y-78238095D01*
X88620476Y-78190476D01*
X88810952Y-78142857D01*
X88953809Y-78142857D01*
X89144285Y-78190476D01*
X89239523Y-78238095D01*
X89334761Y-78333333D01*
X89382380Y-78476190D01*
X89382380Y-78714285D01*
X88477619Y-77761904D02*
X88430000Y-77714285D01*
X88382380Y-77619047D01*
X88382380Y-77380952D01*
X88430000Y-77285714D01*
X88477619Y-77238095D01*
X88572857Y-77190476D01*
X88668095Y-77190476D01*
X88810952Y-77238095D01*
X89382380Y-77809523D01*
X89382380Y-77190476D01*
X88382380Y-76285714D02*
X88382380Y-76761904D01*
X88858571Y-76809523D01*
X88810952Y-76761904D01*
X88763333Y-76666666D01*
X88763333Y-76428571D01*
X88810952Y-76333333D01*
X88858571Y-76285714D01*
X88953809Y-76238095D01*
X89191904Y-76238095D01*
X89287142Y-76285714D01*
X89334761Y-76333333D01*
X89382380Y-76428571D01*
X89382380Y-76666666D01*
X89334761Y-76761904D01*
X89287142Y-76809523D01*
X94382380Y-58714285D02*
X93382380Y-58714285D01*
X93382380Y-58476190D01*
X93430000Y-58333333D01*
X93525238Y-58238095D01*
X93620476Y-58190476D01*
X93810952Y-58142857D01*
X93953809Y-58142857D01*
X94144285Y-58190476D01*
X94239523Y-58238095D01*
X94334761Y-58333333D01*
X94382380Y-58476190D01*
X94382380Y-58714285D01*
X93477619Y-57761904D02*
X93430000Y-57714285D01*
X93382380Y-57619047D01*
X93382380Y-57380952D01*
X93430000Y-57285714D01*
X93477619Y-57238095D01*
X93572857Y-57190476D01*
X93668095Y-57190476D01*
X93810952Y-57238095D01*
X94382380Y-57809523D01*
X94382380Y-57190476D01*
X93715714Y-56333333D02*
X94382380Y-56333333D01*
X93334761Y-56571428D02*
X94049047Y-56809523D01*
X94049047Y-56190476D01*
X94382380Y-68714285D02*
X93382380Y-68714285D01*
X93382380Y-68476190D01*
X93430000Y-68333333D01*
X93525238Y-68238095D01*
X93620476Y-68190476D01*
X93810952Y-68142857D01*
X93953809Y-68142857D01*
X94144285Y-68190476D01*
X94239523Y-68238095D01*
X94334761Y-68333333D01*
X94382380Y-68476190D01*
X94382380Y-68714285D01*
X93477619Y-67761904D02*
X93430000Y-67714285D01*
X93382380Y-67619047D01*
X93382380Y-67380952D01*
X93430000Y-67285714D01*
X93477619Y-67238095D01*
X93572857Y-67190476D01*
X93668095Y-67190476D01*
X93810952Y-67238095D01*
X94382380Y-67809523D01*
X94382380Y-67190476D01*
X93382380Y-66857142D02*
X93382380Y-66238095D01*
X93763333Y-66571428D01*
X93763333Y-66428571D01*
X93810952Y-66333333D01*
X93858571Y-66285714D01*
X93953809Y-66238095D01*
X94191904Y-66238095D01*
X94287142Y-66285714D01*
X94334761Y-66333333D01*
X94382380Y-66428571D01*
X94382380Y-66714285D01*
X94334761Y-66809523D01*
X94287142Y-66857142D01*
X89382380Y-83714285D02*
X88382380Y-83714285D01*
X88382380Y-83476190D01*
X88430000Y-83333333D01*
X88525238Y-83238095D01*
X88620476Y-83190476D01*
X88810952Y-83142857D01*
X88953809Y-83142857D01*
X89144285Y-83190476D01*
X89239523Y-83238095D01*
X89334761Y-83333333D01*
X89382380Y-83476190D01*
X89382380Y-83714285D01*
X88477619Y-82761904D02*
X88430000Y-82714285D01*
X88382380Y-82619047D01*
X88382380Y-82380952D01*
X88430000Y-82285714D01*
X88477619Y-82238095D01*
X88572857Y-82190476D01*
X88668095Y-82190476D01*
X88810952Y-82238095D01*
X89382380Y-82809523D01*
X89382380Y-82190476D01*
X88477619Y-81809523D02*
X88430000Y-81761904D01*
X88382380Y-81666666D01*
X88382380Y-81428571D01*
X88430000Y-81333333D01*
X88477619Y-81285714D01*
X88572857Y-81238095D01*
X88668095Y-81238095D01*
X88810952Y-81285714D01*
X89382380Y-81857142D01*
X89382380Y-81238095D01*
X94382380Y-63714285D02*
X93382380Y-63714285D01*
X93382380Y-63476190D01*
X93430000Y-63333333D01*
X93525238Y-63238095D01*
X93620476Y-63190476D01*
X93810952Y-63142857D01*
X93953809Y-63142857D01*
X94144285Y-63190476D01*
X94239523Y-63238095D01*
X94334761Y-63333333D01*
X94382380Y-63476190D01*
X94382380Y-63714285D01*
X93477619Y-62761904D02*
X93430000Y-62714285D01*
X93382380Y-62619047D01*
X93382380Y-62380952D01*
X93430000Y-62285714D01*
X93477619Y-62238095D01*
X93572857Y-62190476D01*
X93668095Y-62190476D01*
X93810952Y-62238095D01*
X94382380Y-62809523D01*
X94382380Y-62190476D01*
X94382380Y-61238095D02*
X94382380Y-61809523D01*
X94382380Y-61523809D02*
X93382380Y-61523809D01*
X93525238Y-61619047D01*
X93620476Y-61714285D01*
X93668095Y-61809523D01*
X94382380Y-73714285D02*
X93382380Y-73714285D01*
X93382380Y-73476190D01*
X93430000Y-73333333D01*
X93525238Y-73238095D01*
X93620476Y-73190476D01*
X93810952Y-73142857D01*
X93953809Y-73142857D01*
X94144285Y-73190476D01*
X94239523Y-73238095D01*
X94334761Y-73333333D01*
X94382380Y-73476190D01*
X94382380Y-73714285D01*
X93477619Y-72761904D02*
X93430000Y-72714285D01*
X93382380Y-72619047D01*
X93382380Y-72380952D01*
X93430000Y-72285714D01*
X93477619Y-72238095D01*
X93572857Y-72190476D01*
X93668095Y-72190476D01*
X93810952Y-72238095D01*
X94382380Y-72809523D01*
X94382380Y-72190476D01*
X93382380Y-71571428D02*
X93382380Y-71476190D01*
X93430000Y-71380952D01*
X93477619Y-71333333D01*
X93572857Y-71285714D01*
X93763333Y-71238095D01*
X94001428Y-71238095D01*
X94191904Y-71285714D01*
X94287142Y-71333333D01*
X94334761Y-71380952D01*
X94382380Y-71476190D01*
X94382380Y-71571428D01*
X94334761Y-71666666D01*
X94287142Y-71714285D01*
X94191904Y-71761904D01*
X94001428Y-71809523D01*
X93763333Y-71809523D01*
X93572857Y-71761904D01*
X93477619Y-71714285D01*
X93430000Y-71666666D01*
X93382380Y-71571428D01*
X94382380Y-78714285D02*
X93382380Y-78714285D01*
X93382380Y-78476190D01*
X93430000Y-78333333D01*
X93525238Y-78238095D01*
X93620476Y-78190476D01*
X93810952Y-78142857D01*
X93953809Y-78142857D01*
X94144285Y-78190476D01*
X94239523Y-78238095D01*
X94334761Y-78333333D01*
X94382380Y-78476190D01*
X94382380Y-78714285D01*
X94382380Y-77190476D02*
X94382380Y-77761904D01*
X94382380Y-77476190D02*
X93382380Y-77476190D01*
X93525238Y-77571428D01*
X93620476Y-77666666D01*
X93668095Y-77761904D01*
X94382380Y-76714285D02*
X94382380Y-76523809D01*
X94334761Y-76428571D01*
X94287142Y-76380952D01*
X94144285Y-76285714D01*
X93953809Y-76238095D01*
X93572857Y-76238095D01*
X93477619Y-76285714D01*
X93430000Y-76333333D01*
X93382380Y-76428571D01*
X93382380Y-76619047D01*
X93430000Y-76714285D01*
X93477619Y-76761904D01*
X93572857Y-76809523D01*
X93810952Y-76809523D01*
X93906190Y-76761904D01*
X93953809Y-76714285D01*
X94001428Y-76619047D01*
X94001428Y-76428571D01*
X93953809Y-76333333D01*
X93906190Y-76285714D01*
X93810952Y-76238095D01*
X94382380Y-83714285D02*
X93382380Y-83714285D01*
X93382380Y-83476190D01*
X93430000Y-83333333D01*
X93525238Y-83238095D01*
X93620476Y-83190476D01*
X93810952Y-83142857D01*
X93953809Y-83142857D01*
X94144285Y-83190476D01*
X94239523Y-83238095D01*
X94334761Y-83333333D01*
X94382380Y-83476190D01*
X94382380Y-83714285D01*
X94382380Y-82190476D02*
X94382380Y-82761904D01*
X94382380Y-82476190D02*
X93382380Y-82476190D01*
X93525238Y-82571428D01*
X93620476Y-82666666D01*
X93668095Y-82761904D01*
X93810952Y-81619047D02*
X93763333Y-81714285D01*
X93715714Y-81761904D01*
X93620476Y-81809523D01*
X93572857Y-81809523D01*
X93477619Y-81761904D01*
X93430000Y-81714285D01*
X93382380Y-81619047D01*
X93382380Y-81428571D01*
X93430000Y-81333333D01*
X93477619Y-81285714D01*
X93572857Y-81238095D01*
X93620476Y-81238095D01*
X93715714Y-81285714D01*
X93763333Y-81333333D01*
X93810952Y-81428571D01*
X93810952Y-81619047D01*
X93858571Y-81714285D01*
X93906190Y-81761904D01*
X94001428Y-81809523D01*
X94191904Y-81809523D01*
X94287142Y-81761904D01*
X94334761Y-81714285D01*
X94382380Y-81619047D01*
X94382380Y-81428571D01*
X94334761Y-81333333D01*
X94287142Y-81285714D01*
X94191904Y-81238095D01*
X94001428Y-81238095D01*
X93906190Y-81285714D01*
X93858571Y-81333333D01*
X93810952Y-81428571D01*
X94382380Y-88714285D02*
X93382380Y-88714285D01*
X93382380Y-88476190D01*
X93430000Y-88333333D01*
X93525238Y-88238095D01*
X93620476Y-88190476D01*
X93810952Y-88142857D01*
X93953809Y-88142857D01*
X94144285Y-88190476D01*
X94239523Y-88238095D01*
X94334761Y-88333333D01*
X94382380Y-88476190D01*
X94382380Y-88714285D01*
X94382380Y-87190476D02*
X94382380Y-87761904D01*
X94382380Y-87476190D02*
X93382380Y-87476190D01*
X93525238Y-87571428D01*
X93620476Y-87666666D01*
X93668095Y-87761904D01*
X93382380Y-86857142D02*
X93382380Y-86190476D01*
X94382380Y-86619047D01*
X59382380Y-88714285D02*
X58382380Y-88714285D01*
X58382380Y-88476190D01*
X58430000Y-88333333D01*
X58525238Y-88238095D01*
X58620476Y-88190476D01*
X58810952Y-88142857D01*
X58953809Y-88142857D01*
X59144285Y-88190476D01*
X59239523Y-88238095D01*
X59334761Y-88333333D01*
X59382380Y-88476190D01*
X59382380Y-88714285D01*
X59382380Y-87190476D02*
X59382380Y-87761904D01*
X59382380Y-87476190D02*
X58382380Y-87476190D01*
X58525238Y-87571428D01*
X58620476Y-87666666D01*
X58668095Y-87761904D01*
X58382380Y-86333333D02*
X58382380Y-86523809D01*
X58430000Y-86619047D01*
X58477619Y-86666666D01*
X58620476Y-86761904D01*
X58810952Y-86809523D01*
X59191904Y-86809523D01*
X59287142Y-86761904D01*
X59334761Y-86714285D01*
X59382380Y-86619047D01*
X59382380Y-86428571D01*
X59334761Y-86333333D01*
X59287142Y-86285714D01*
X59191904Y-86238095D01*
X58953809Y-86238095D01*
X58858571Y-86285714D01*
X58810952Y-86333333D01*
X58763333Y-86428571D01*
X58763333Y-86619047D01*
X58810952Y-86714285D01*
X58858571Y-86761904D01*
X58953809Y-86809523D01*
X64382380Y-88714285D02*
X63382380Y-88714285D01*
X63382380Y-88476190D01*
X63430000Y-88333333D01*
X63525238Y-88238095D01*
X63620476Y-88190476D01*
X63810952Y-88142857D01*
X63953809Y-88142857D01*
X64144285Y-88190476D01*
X64239523Y-88238095D01*
X64334761Y-88333333D01*
X64382380Y-88476190D01*
X64382380Y-88714285D01*
X64382380Y-87190476D02*
X64382380Y-87761904D01*
X64382380Y-87476190D02*
X63382380Y-87476190D01*
X63525238Y-87571428D01*
X63620476Y-87666666D01*
X63668095Y-87761904D01*
X63382380Y-86285714D02*
X63382380Y-86761904D01*
X63858571Y-86809523D01*
X63810952Y-86761904D01*
X63763333Y-86666666D01*
X63763333Y-86428571D01*
X63810952Y-86333333D01*
X63858571Y-86285714D01*
X63953809Y-86238095D01*
X64191904Y-86238095D01*
X64287142Y-86285714D01*
X64334761Y-86333333D01*
X64382380Y-86428571D01*
X64382380Y-86666666D01*
X64334761Y-86761904D01*
X64287142Y-86809523D01*
X69382380Y-88714285D02*
X68382380Y-88714285D01*
X68382380Y-88476190D01*
X68430000Y-88333333D01*
X68525238Y-88238095D01*
X68620476Y-88190476D01*
X68810952Y-88142857D01*
X68953809Y-88142857D01*
X69144285Y-88190476D01*
X69239523Y-88238095D01*
X69334761Y-88333333D01*
X69382380Y-88476190D01*
X69382380Y-88714285D01*
X69382380Y-87190476D02*
X69382380Y-87761904D01*
X69382380Y-87476190D02*
X68382380Y-87476190D01*
X68525238Y-87571428D01*
X68620476Y-87666666D01*
X68668095Y-87761904D01*
X68715714Y-86333333D02*
X69382380Y-86333333D01*
X68334761Y-86571428D02*
X69049047Y-86809523D01*
X69049047Y-86190476D01*
X74382380Y-88714285D02*
X73382380Y-88714285D01*
X73382380Y-88476190D01*
X73430000Y-88333333D01*
X73525238Y-88238095D01*
X73620476Y-88190476D01*
X73810952Y-88142857D01*
X73953809Y-88142857D01*
X74144285Y-88190476D01*
X74239523Y-88238095D01*
X74334761Y-88333333D01*
X74382380Y-88476190D01*
X74382380Y-88714285D01*
X74382380Y-87190476D02*
X74382380Y-87761904D01*
X74382380Y-87476190D02*
X73382380Y-87476190D01*
X73525238Y-87571428D01*
X73620476Y-87666666D01*
X73668095Y-87761904D01*
X73382380Y-86857142D02*
X73382380Y-86238095D01*
X73763333Y-86571428D01*
X73763333Y-86428571D01*
X73810952Y-86333333D01*
X73858571Y-86285714D01*
X73953809Y-86238095D01*
X74191904Y-86238095D01*
X74287142Y-86285714D01*
X74334761Y-86333333D01*
X74382380Y-86428571D01*
X74382380Y-86714285D01*
X74334761Y-86809523D01*
X74287142Y-86857142D01*
X79382380Y-88714285D02*
X78382380Y-88714285D01*
X78382380Y-88476190D01*
X78430000Y-88333333D01*
X78525238Y-88238095D01*
X78620476Y-88190476D01*
X78810952Y-88142857D01*
X78953809Y-88142857D01*
X79144285Y-88190476D01*
X79239523Y-88238095D01*
X79334761Y-88333333D01*
X79382380Y-88476190D01*
X79382380Y-88714285D01*
X79382380Y-87190476D02*
X79382380Y-87761904D01*
X79382380Y-87476190D02*
X78382380Y-87476190D01*
X78525238Y-87571428D01*
X78620476Y-87666666D01*
X78668095Y-87761904D01*
X78477619Y-86809523D02*
X78430000Y-86761904D01*
X78382380Y-86666666D01*
X78382380Y-86428571D01*
X78430000Y-86333333D01*
X78477619Y-86285714D01*
X78572857Y-86238095D01*
X78668095Y-86238095D01*
X78810952Y-86285714D01*
X79382380Y-86857142D01*
X79382380Y-86238095D01*
X84382380Y-88714285D02*
X83382380Y-88714285D01*
X83382380Y-88476190D01*
X83430000Y-88333333D01*
X83525238Y-88238095D01*
X83620476Y-88190476D01*
X83810952Y-88142857D01*
X83953809Y-88142857D01*
X84144285Y-88190476D01*
X84239523Y-88238095D01*
X84334761Y-88333333D01*
X84382380Y-88476190D01*
X84382380Y-88714285D01*
X84382380Y-87190476D02*
X84382380Y-87761904D01*
X84382380Y-87476190D02*
X83382380Y-87476190D01*
X83525238Y-87571428D01*
X83620476Y-87666666D01*
X83668095Y-87761904D01*
X84382380Y-86238095D02*
X84382380Y-86809523D01*
X84382380Y-86523809D02*
X83382380Y-86523809D01*
X83525238Y-86619047D01*
X83620476Y-86714285D01*
X83668095Y-86809523D01*
X84382380Y-83714285D02*
X83382380Y-83714285D01*
X83382380Y-83476190D01*
X83430000Y-83333333D01*
X83525238Y-83238095D01*
X83620476Y-83190476D01*
X83810952Y-83142857D01*
X83953809Y-83142857D01*
X84144285Y-83190476D01*
X84239523Y-83238095D01*
X84334761Y-83333333D01*
X84382380Y-83476190D01*
X84382380Y-83714285D01*
X84382380Y-82190476D02*
X84382380Y-82761904D01*
X84382380Y-82476190D02*
X83382380Y-82476190D01*
X83525238Y-82571428D01*
X83620476Y-82666666D01*
X83668095Y-82761904D01*
X83382380Y-81571428D02*
X83382380Y-81476190D01*
X83430000Y-81380952D01*
X83477619Y-81333333D01*
X83572857Y-81285714D01*
X83763333Y-81238095D01*
X84001428Y-81238095D01*
X84191904Y-81285714D01*
X84287142Y-81333333D01*
X84334761Y-81380952D01*
X84382380Y-81476190D01*
X84382380Y-81571428D01*
X84334761Y-81666666D01*
X84287142Y-81714285D01*
X84191904Y-81761904D01*
X84001428Y-81809523D01*
X83763333Y-81809523D01*
X83572857Y-81761904D01*
X83477619Y-81714285D01*
X83430000Y-81666666D01*
X83382380Y-81571428D01*
X89382380Y-88238095D02*
X88382380Y-88238095D01*
X88382380Y-88000000D01*
X88430000Y-87857142D01*
X88525238Y-87761904D01*
X88620476Y-87714285D01*
X88810952Y-87666666D01*
X88953809Y-87666666D01*
X89144285Y-87714285D01*
X89239523Y-87761904D01*
X89334761Y-87857142D01*
X89382380Y-88000000D01*
X89382380Y-88238095D01*
X89382380Y-87190476D02*
X89382380Y-87000000D01*
X89334761Y-86904761D01*
X89287142Y-86857142D01*
X89144285Y-86761904D01*
X88953809Y-86714285D01*
X88572857Y-86714285D01*
X88477619Y-86761904D01*
X88430000Y-86809523D01*
X88382380Y-86904761D01*
X88382380Y-87095238D01*
X88430000Y-87190476D01*
X88477619Y-87238095D01*
X88572857Y-87285714D01*
X88810952Y-87285714D01*
X88906190Y-87238095D01*
X88953809Y-87190476D01*
X89001428Y-87095238D01*
X89001428Y-86904761D01*
X88953809Y-86809523D01*
X88906190Y-86761904D01*
X88810952Y-86714285D01*
X59382380Y-93238095D02*
X58382380Y-93238095D01*
X58382380Y-93000000D01*
X58430000Y-92857142D01*
X58525238Y-92761904D01*
X58620476Y-92714285D01*
X58810952Y-92666666D01*
X58953809Y-92666666D01*
X59144285Y-92714285D01*
X59239523Y-92761904D01*
X59334761Y-92857142D01*
X59382380Y-93000000D01*
X59382380Y-93238095D01*
X58810952Y-92095238D02*
X58763333Y-92190476D01*
X58715714Y-92238095D01*
X58620476Y-92285714D01*
X58572857Y-92285714D01*
X58477619Y-92238095D01*
X58430000Y-92190476D01*
X58382380Y-92095238D01*
X58382380Y-91904761D01*
X58430000Y-91809523D01*
X58477619Y-91761904D01*
X58572857Y-91714285D01*
X58620476Y-91714285D01*
X58715714Y-91761904D01*
X58763333Y-91809523D01*
X58810952Y-91904761D01*
X58810952Y-92095238D01*
X58858571Y-92190476D01*
X58906190Y-92238095D01*
X59001428Y-92285714D01*
X59191904Y-92285714D01*
X59287142Y-92238095D01*
X59334761Y-92190476D01*
X59382380Y-92095238D01*
X59382380Y-91904761D01*
X59334761Y-91809523D01*
X59287142Y-91761904D01*
X59191904Y-91714285D01*
X59001428Y-91714285D01*
X58906190Y-91761904D01*
X58858571Y-91809523D01*
X58810952Y-91904761D01*
X64382380Y-93238095D02*
X63382380Y-93238095D01*
X63382380Y-93000000D01*
X63430000Y-92857142D01*
X63525238Y-92761904D01*
X63620476Y-92714285D01*
X63810952Y-92666666D01*
X63953809Y-92666666D01*
X64144285Y-92714285D01*
X64239523Y-92761904D01*
X64334761Y-92857142D01*
X64382380Y-93000000D01*
X64382380Y-93238095D01*
X63382380Y-92333333D02*
X63382380Y-91666666D01*
X64382380Y-92095238D01*
X69382380Y-93238095D02*
X68382380Y-93238095D01*
X68382380Y-93000000D01*
X68430000Y-92857142D01*
X68525238Y-92761904D01*
X68620476Y-92714285D01*
X68810952Y-92666666D01*
X68953809Y-92666666D01*
X69144285Y-92714285D01*
X69239523Y-92761904D01*
X69334761Y-92857142D01*
X69382380Y-93000000D01*
X69382380Y-93238095D01*
X68382380Y-91809523D02*
X68382380Y-92000000D01*
X68430000Y-92095238D01*
X68477619Y-92142857D01*
X68620476Y-92238095D01*
X68810952Y-92285714D01*
X69191904Y-92285714D01*
X69287142Y-92238095D01*
X69334761Y-92190476D01*
X69382380Y-92095238D01*
X69382380Y-91904761D01*
X69334761Y-91809523D01*
X69287142Y-91761904D01*
X69191904Y-91714285D01*
X68953809Y-91714285D01*
X68858571Y-91761904D01*
X68810952Y-91809523D01*
X68763333Y-91904761D01*
X68763333Y-92095238D01*
X68810952Y-92190476D01*
X68858571Y-92238095D01*
X68953809Y-92285714D01*
X74382380Y-93238095D02*
X73382380Y-93238095D01*
X73382380Y-93000000D01*
X73430000Y-92857142D01*
X73525238Y-92761904D01*
X73620476Y-92714285D01*
X73810952Y-92666666D01*
X73953809Y-92666666D01*
X74144285Y-92714285D01*
X74239523Y-92761904D01*
X74334761Y-92857142D01*
X74382380Y-93000000D01*
X74382380Y-93238095D01*
X73382380Y-91761904D02*
X73382380Y-92238095D01*
X73858571Y-92285714D01*
X73810952Y-92238095D01*
X73763333Y-92142857D01*
X73763333Y-91904761D01*
X73810952Y-91809523D01*
X73858571Y-91761904D01*
X73953809Y-91714285D01*
X74191904Y-91714285D01*
X74287142Y-91761904D01*
X74334761Y-91809523D01*
X74382380Y-91904761D01*
X74382380Y-92142857D01*
X74334761Y-92238095D01*
X74287142Y-92285714D01*
X79382380Y-93238095D02*
X78382380Y-93238095D01*
X78382380Y-93000000D01*
X78430000Y-92857142D01*
X78525238Y-92761904D01*
X78620476Y-92714285D01*
X78810952Y-92666666D01*
X78953809Y-92666666D01*
X79144285Y-92714285D01*
X79239523Y-92761904D01*
X79334761Y-92857142D01*
X79382380Y-93000000D01*
X79382380Y-93238095D01*
X78715714Y-91809523D02*
X79382380Y-91809523D01*
X78334761Y-92047619D02*
X79049047Y-92285714D01*
X79049047Y-91666666D01*
X84382380Y-93238095D02*
X83382380Y-93238095D01*
X83382380Y-93000000D01*
X83430000Y-92857142D01*
X83525238Y-92761904D01*
X83620476Y-92714285D01*
X83810952Y-92666666D01*
X83953809Y-92666666D01*
X84144285Y-92714285D01*
X84239523Y-92761904D01*
X84334761Y-92857142D01*
X84382380Y-93000000D01*
X84382380Y-93238095D01*
X83382380Y-92333333D02*
X83382380Y-91714285D01*
X83763333Y-92047619D01*
X83763333Y-91904761D01*
X83810952Y-91809523D01*
X83858571Y-91761904D01*
X83953809Y-91714285D01*
X84191904Y-91714285D01*
X84287142Y-91761904D01*
X84334761Y-91809523D01*
X84382380Y-91904761D01*
X84382380Y-92190476D01*
X84334761Y-92285714D01*
X84287142Y-92333333D01*
X89382380Y-93238095D02*
X88382380Y-93238095D01*
X88382380Y-93000000D01*
X88430000Y-92857142D01*
X88525238Y-92761904D01*
X88620476Y-92714285D01*
X88810952Y-92666666D01*
X88953809Y-92666666D01*
X89144285Y-92714285D01*
X89239523Y-92761904D01*
X89334761Y-92857142D01*
X89382380Y-93000000D01*
X89382380Y-93238095D01*
X88477619Y-92285714D02*
X88430000Y-92238095D01*
X88382380Y-92142857D01*
X88382380Y-91904761D01*
X88430000Y-91809523D01*
X88477619Y-91761904D01*
X88572857Y-91714285D01*
X88668095Y-91714285D01*
X88810952Y-91761904D01*
X89382380Y-92333333D01*
X89382380Y-91714285D01*
X94382380Y-93238095D02*
X93382380Y-93238095D01*
X93382380Y-93000000D01*
X93430000Y-92857142D01*
X93525238Y-92761904D01*
X93620476Y-92714285D01*
X93810952Y-92666666D01*
X93953809Y-92666666D01*
X94144285Y-92714285D01*
X94239523Y-92761904D01*
X94334761Y-92857142D01*
X94382380Y-93000000D01*
X94382380Y-93238095D01*
X94382380Y-91714285D02*
X94382380Y-92285714D01*
X94382380Y-92000000D02*
X93382380Y-92000000D01*
X93525238Y-92095238D01*
X93620476Y-92190476D01*
X93668095Y-92285714D01*
X97966666Y-92052380D02*
X97966666Y-92766666D01*
X97919047Y-92909523D01*
X97823809Y-93004761D01*
X97680952Y-93052380D01*
X97585714Y-93052380D01*
X98395238Y-92147619D02*
X98442857Y-92100000D01*
X98538095Y-92052380D01*
X98776190Y-92052380D01*
X98871428Y-92100000D01*
X98919047Y-92147619D01*
X98966666Y-92242857D01*
X98966666Y-92338095D01*
X98919047Y-92480952D01*
X98347619Y-93052380D01*
X98966666Y-93052380D01*
M02*
