M48
; DRILL file {KiCad 5.1.5} date Thu 20 Feb 2020 21:23:19 CET
; FORMAT={-:-/ absolute / metric / decimal}
; #@! TF.CreationDate,2020-02-20T21:23:19+01:00
; #@! TF.GenerationSoftware,Kicad,Pcbnew,5.1.5
FMAT,2
METRIC
T1C0.300
T2C0.400
T3C0.500
T4C0.700
T5C0.730
%
G90
G05
T1
X72.5Y-73.287
X57.5Y-68.287
X87.5Y-83.287
X67.5Y-83.287
X62.5Y-78.287
X87.5Y-68.287
X92.5Y-88.287
X67.5Y-63.287
X92.5Y-93.287
X72.5Y-93.287
X77.5Y-68.287
X72.5Y-78.287
X92.5Y-63.287
X67.5Y-78.287
X62.5Y-83.287
X87.5Y-73.287
X82.5Y-73.287
X87.5Y-88.287
X77.5Y-88.287
X57.5Y-88.287
X77.5Y-93.287
X77.5Y-73.287
X92.5Y-73.287
X72.5Y-58.287
X62.5Y-58.287
X92.5Y-58.287
X67.5Y-68.287
X87.5Y-78.287
X57.5Y-63.287
X82.5Y-78.287
X82.5Y-58.287
X57.5Y-93.287
X57.5Y-73.287
X82.5Y-88.287
X72.5Y-83.287
X77.5Y-83.287
X62.5Y-68.287
X57.5Y-83.287
X77.5Y-78.287
X62.5Y-88.287
X92.5Y-78.287
X57.5Y-58.287
X72.5Y-63.287
X62.5Y-63.287
X67.5Y-73.287
X87.5Y-58.287
X82.5Y-63.287
X82.5Y-93.287
X82.5Y-83.287
X77.5Y-58.287
X62.5Y-73.287
X62.5Y-93.287
X67.5Y-88.287
X92.5Y-83.287
X72.5Y-68.287
X92.5Y-68.287
X87.5Y-63.287
X87.5Y-93.287
X77.5Y-63.287
X67.5Y-58.287
X82.5Y-68.287
X57.5Y-78.287
X67.5Y-93.287
X72.5Y-88.287
T2
X53.355Y-72.066
X53.459Y-60.967
X53.944Y-68.997
X54.044Y-73.428
X54.201Y-58.062
X55.339Y-59.958
X55.495Y-73.735
X56.374Y-62.549
X57.735Y-70.546
X58.661Y-60.434
X60.739Y-79.011
X60.899Y-62.597
X60.957Y-71.734
X61.277Y-76.829
X62.535Y-59.891
X64.301Y-59.86
X66.234Y-91.323
X68.014Y-85.464
X69.435Y-53.533
X70.109Y-54.886
X72.974Y-60.049
X77.274Y-55.662
X78.304Y-60.0
X80.199Y-86.316
X83.752Y-64.531
X85.604Y-86.349
X86.285Y-78.244
X89.218Y-80.019
X89.577Y-60.049
X90.125Y-71.079
X90.32Y-79.891
X90.343Y-75.942
X90.599Y-86.946
X95.373Y-86.724
T3
X55.2Y-81.71
X55.2Y-66.71
X55.2Y-86.71
X55.2Y-71.71
X55.2Y-76.71
X55.2Y-56.71
X55.2Y-61.71
X55.2Y-91.71
T4
X98.2Y-51.18
X98.2Y-52.45
X98.2Y-53.72
X98.2Y-54.99
X98.2Y-56.26
X98.2Y-57.53
X98.2Y-58.8
X98.2Y-60.07
X98.2Y-61.34
X98.2Y-62.61
X98.2Y-63.88
X98.2Y-65.15
X98.2Y-66.42
X98.2Y-67.69
X98.2Y-68.96
X98.2Y-70.23
X98.2Y-71.5
X98.2Y-72.77
X98.2Y-74.04
X98.2Y-75.31
X98.2Y-76.58
X98.2Y-77.85
X98.2Y-79.12
X98.2Y-80.39
X98.2Y-81.66
X98.2Y-82.93
X98.2Y-84.2
X98.2Y-85.47
X98.2Y-86.74
X98.2Y-88.01
X98.2Y-89.28
X98.2Y-90.55
X51.8Y-51.15
X51.8Y-52.42
X51.8Y-53.69
X51.8Y-54.96
X51.8Y-56.23
X51.8Y-57.5
X51.8Y-58.77
X51.8Y-60.04
X51.8Y-61.31
X51.8Y-62.58
X51.8Y-63.85
X51.8Y-65.12
X51.8Y-66.39
X51.8Y-67.66
X51.8Y-68.93
X51.8Y-70.2
X51.8Y-71.47
X51.8Y-72.74
X51.8Y-74.01
X51.8Y-75.28
X51.8Y-76.55
X51.8Y-77.82
X51.8Y-79.09
X51.8Y-80.36
X51.8Y-81.63
X51.8Y-82.9
X51.8Y-84.17
X51.8Y-85.44
X51.8Y-86.71
X51.8Y-87.98
X51.8Y-89.25
X51.8Y-90.52
X55.33Y-51.8
X56.6Y-51.8
X57.87Y-51.8
X59.14Y-51.8
X60.41Y-51.8
X61.68Y-51.8
X62.95Y-51.8
X64.22Y-51.8
X65.49Y-51.8
X66.76Y-51.8
X68.03Y-51.8
X69.3Y-51.8
X70.57Y-51.8
X71.84Y-51.8
X73.11Y-51.8
X74.38Y-51.8
X75.65Y-51.8
X76.92Y-51.8
X78.19Y-51.8
X79.46Y-51.8
X80.73Y-51.8
X82.0Y-51.8
X83.27Y-51.8
X84.54Y-51.8
X85.81Y-51.8
X87.08Y-51.8
X88.35Y-51.8
X89.62Y-51.8
X90.89Y-51.8
X92.16Y-51.8
X93.43Y-51.8
X94.7Y-51.8
T5
X50.0Y-97.6
X57.5Y-97.5
X62.5Y-97.5
X67.5Y-97.5
X72.5Y-97.5
X77.5Y-97.5
X82.5Y-97.5
X87.5Y-97.5
X92.5Y-97.5
X100.0Y-97.5
T0
M30
