G04 #@! TF.GenerationSoftware,KiCad,Pcbnew,5.1.5*
G04 #@! TF.CreationDate,2020-02-20T21:28:11+01:00*
G04 #@! TF.ProjectId,cubet_leds,63756265-745f-46c6-9564-732e6b696361,rev?*
G04 #@! TF.SameCoordinates,Original*
G04 #@! TF.FileFunction,Legend,Bot*
G04 #@! TF.FilePolarity,Positive*
%FSLAX46Y46*%
G04 Gerber Fmt 4.6, Leading zero omitted, Abs format (unit mm)*
G04 Created by KiCad (PCBNEW 5.1.5) date 2020-02-20 21:28:11*
%MOMM*%
%LPD*%
G04 APERTURE LIST*
%ADD10C,0.150000*%
%ADD11C,0.120000*%
G04 APERTURE END LIST*
D10*
X99095238Y-99557142D02*
X99142857Y-99604761D01*
X99285714Y-99652380D01*
X99380952Y-99652380D01*
X99523809Y-99604761D01*
X99619047Y-99509523D01*
X99666666Y-99414285D01*
X99714285Y-99223809D01*
X99714285Y-99080952D01*
X99666666Y-98890476D01*
X99619047Y-98795238D01*
X99523809Y-98700000D01*
X99380952Y-98652380D01*
X99285714Y-98652380D01*
X99142857Y-98700000D01*
X99095238Y-98747619D01*
X98238095Y-98985714D02*
X98238095Y-99652380D01*
X98666666Y-98985714D02*
X98666666Y-99509523D01*
X98619047Y-99604761D01*
X98523809Y-99652380D01*
X98380952Y-99652380D01*
X98285714Y-99604761D01*
X98238095Y-99557142D01*
X97761904Y-99652380D02*
X97761904Y-98652380D01*
X97761904Y-99033333D02*
X97666666Y-98985714D01*
X97476190Y-98985714D01*
X97380952Y-99033333D01*
X97333333Y-99080952D01*
X97285714Y-99176190D01*
X97285714Y-99461904D01*
X97333333Y-99557142D01*
X97380952Y-99604761D01*
X97476190Y-99652380D01*
X97666666Y-99652380D01*
X97761904Y-99604761D01*
X96476190Y-99604761D02*
X96571428Y-99652380D01*
X96761904Y-99652380D01*
X96857142Y-99604761D01*
X96904761Y-99509523D01*
X96904761Y-99128571D01*
X96857142Y-99033333D01*
X96761904Y-98985714D01*
X96571428Y-98985714D01*
X96476190Y-99033333D01*
X96428571Y-99128571D01*
X96428571Y-99223809D01*
X96904761Y-99319047D01*
X96142857Y-98985714D02*
X95761904Y-98985714D01*
X96000000Y-98652380D02*
X96000000Y-99509523D01*
X95952380Y-99604761D01*
X95857142Y-99652380D01*
X95761904Y-99652380D01*
X94761904Y-98985714D02*
X94523809Y-99652380D01*
X94285714Y-98985714D01*
X93380952Y-99652380D02*
X93952380Y-99652380D01*
X93666666Y-99652380D02*
X93666666Y-98652380D01*
X93761904Y-98795238D01*
X93857142Y-98890476D01*
X93952380Y-98938095D01*
X92952380Y-99557142D02*
X92904761Y-99604761D01*
X92952380Y-99652380D01*
X93000000Y-99604761D01*
X92952380Y-99557142D01*
X92952380Y-99652380D01*
X92285714Y-98652380D02*
X92190476Y-98652380D01*
X92095238Y-98700000D01*
X92047619Y-98747619D01*
X92000000Y-98842857D01*
X91952380Y-99033333D01*
X91952380Y-99271428D01*
X92000000Y-99461904D01*
X92047619Y-99557142D01*
X92095238Y-99604761D01*
X92190476Y-99652380D01*
X92285714Y-99652380D01*
X92380952Y-99604761D01*
X92428571Y-99557142D01*
X92476190Y-99461904D01*
X92523809Y-99271428D01*
X92523809Y-99033333D01*
X92476190Y-98842857D01*
X92428571Y-98747619D01*
X92380952Y-98700000D01*
X92285714Y-98652380D01*
X90047619Y-98604761D02*
X90904761Y-99890476D01*
X89000000Y-98747619D02*
X88952380Y-98700000D01*
X88857142Y-98652380D01*
X88619047Y-98652380D01*
X88523809Y-98700000D01*
X88476190Y-98747619D01*
X88428571Y-98842857D01*
X88428571Y-98938095D01*
X88476190Y-99080952D01*
X89047619Y-99652380D01*
X88428571Y-99652380D01*
X87809523Y-98652380D02*
X87714285Y-98652380D01*
X87619047Y-98700000D01*
X87571428Y-98747619D01*
X87523809Y-98842857D01*
X87476190Y-99033333D01*
X87476190Y-99271428D01*
X87523809Y-99461904D01*
X87571428Y-99557142D01*
X87619047Y-99604761D01*
X87714285Y-99652380D01*
X87809523Y-99652380D01*
X87904761Y-99604761D01*
X87952380Y-99557142D01*
X88000000Y-99461904D01*
X88047619Y-99271428D01*
X88047619Y-99033333D01*
X88000000Y-98842857D01*
X87952380Y-98747619D01*
X87904761Y-98700000D01*
X87809523Y-98652380D01*
X87047619Y-99271428D02*
X86285714Y-99271428D01*
X85619047Y-98652380D02*
X85523809Y-98652380D01*
X85428571Y-98700000D01*
X85380952Y-98747619D01*
X85333333Y-98842857D01*
X85285714Y-99033333D01*
X85285714Y-99271428D01*
X85333333Y-99461904D01*
X85380952Y-99557142D01*
X85428571Y-99604761D01*
X85523809Y-99652380D01*
X85619047Y-99652380D01*
X85714285Y-99604761D01*
X85761904Y-99557142D01*
X85809523Y-99461904D01*
X85857142Y-99271428D01*
X85857142Y-99033333D01*
X85809523Y-98842857D01*
X85761904Y-98747619D01*
X85714285Y-98700000D01*
X85619047Y-98652380D01*
X84904761Y-98747619D02*
X84857142Y-98700000D01*
X84761904Y-98652380D01*
X84523809Y-98652380D01*
X84428571Y-98700000D01*
X84380952Y-98747619D01*
X84333333Y-98842857D01*
X84333333Y-98938095D01*
X84380952Y-99080952D01*
X84952380Y-99652380D01*
X84333333Y-99652380D01*
X83904761Y-99271428D02*
X83142857Y-99271428D01*
X82714285Y-98747619D02*
X82666666Y-98700000D01*
X82571428Y-98652380D01*
X82333333Y-98652380D01*
X82238095Y-98700000D01*
X82190476Y-98747619D01*
X82142857Y-98842857D01*
X82142857Y-98938095D01*
X82190476Y-99080952D01*
X82761904Y-99652380D01*
X82142857Y-99652380D01*
X81523809Y-98652380D02*
X81428571Y-98652380D01*
X81333333Y-98700000D01*
X81285714Y-98747619D01*
X81238095Y-98842857D01*
X81190476Y-99033333D01*
X81190476Y-99271428D01*
X81238095Y-99461904D01*
X81285714Y-99557142D01*
X81333333Y-99604761D01*
X81428571Y-99652380D01*
X81523809Y-99652380D01*
X81619047Y-99604761D01*
X81666666Y-99557142D01*
X81714285Y-99461904D01*
X81761904Y-99271428D01*
X81761904Y-99033333D01*
X81714285Y-98842857D01*
X81666666Y-98747619D01*
X81619047Y-98700000D01*
X81523809Y-98652380D01*
X80809523Y-98747619D02*
X80761904Y-98700000D01*
X80666666Y-98652380D01*
X80428571Y-98652380D01*
X80333333Y-98700000D01*
X80285714Y-98747619D01*
X80238095Y-98842857D01*
X80238095Y-98938095D01*
X80285714Y-99080952D01*
X80857142Y-99652380D01*
X80238095Y-99652380D01*
X79619047Y-98652380D02*
X79523809Y-98652380D01*
X79428571Y-98700000D01*
X79380952Y-98747619D01*
X79333333Y-98842857D01*
X79285714Y-99033333D01*
X79285714Y-99271428D01*
X79333333Y-99461904D01*
X79380952Y-99557142D01*
X79428571Y-99604761D01*
X79523809Y-99652380D01*
X79619047Y-99652380D01*
X79714285Y-99604761D01*
X79761904Y-99557142D01*
X79809523Y-99461904D01*
X79857142Y-99271428D01*
X79857142Y-99033333D01*
X79809523Y-98842857D01*
X79761904Y-98747619D01*
X79714285Y-98700000D01*
X79619047Y-98652380D01*
D11*
X58490000Y-57662779D02*
X58490000Y-57337221D01*
X59510000Y-57662779D02*
X59510000Y-57337221D01*
X58490000Y-62650279D02*
X58490000Y-62324721D01*
X59510000Y-62650279D02*
X59510000Y-62324721D01*
X58490000Y-67662779D02*
X58490000Y-67337221D01*
X59510000Y-67662779D02*
X59510000Y-67337221D01*
X58490000Y-72662779D02*
X58490000Y-72337221D01*
X59510000Y-72662779D02*
X59510000Y-72337221D01*
X58490000Y-77662779D02*
X58490000Y-77337221D01*
X59510000Y-77662779D02*
X59510000Y-77337221D01*
X58490000Y-82662779D02*
X58490000Y-82337221D01*
X59510000Y-82662779D02*
X59510000Y-82337221D01*
X68490000Y-82675279D02*
X68490000Y-82349721D01*
X69510000Y-82675279D02*
X69510000Y-82349721D01*
X68490000Y-77650279D02*
X68490000Y-77324721D01*
X69510000Y-77650279D02*
X69510000Y-77324721D01*
X63490000Y-57662779D02*
X63490000Y-57337221D01*
X64510000Y-57662779D02*
X64510000Y-57337221D01*
X63490000Y-62662779D02*
X63490000Y-62337221D01*
X64510000Y-62662779D02*
X64510000Y-62337221D01*
X63490000Y-67662779D02*
X63490000Y-67337221D01*
X64510000Y-67662779D02*
X64510000Y-67337221D01*
X63490000Y-72662779D02*
X63490000Y-72337221D01*
X64510000Y-72662779D02*
X64510000Y-72337221D01*
X63490000Y-77675279D02*
X63490000Y-77349721D01*
X64510000Y-77675279D02*
X64510000Y-77349721D01*
X63490000Y-82662779D02*
X63490000Y-82337221D01*
X64510000Y-82662779D02*
X64510000Y-82337221D01*
X68490000Y-67662779D02*
X68490000Y-67337221D01*
X69510000Y-67662779D02*
X69510000Y-67337221D01*
X68490000Y-72662779D02*
X68490000Y-72337221D01*
X69510000Y-72662779D02*
X69510000Y-72337221D01*
X68490000Y-57662779D02*
X68490000Y-57337221D01*
X69510000Y-57662779D02*
X69510000Y-57337221D01*
X68490000Y-62675279D02*
X68490000Y-62349721D01*
X69510000Y-62675279D02*
X69510000Y-62349721D01*
X73490000Y-57650279D02*
X73490000Y-57324721D01*
X74510000Y-57650279D02*
X74510000Y-57324721D01*
X73490000Y-62650279D02*
X73490000Y-62324721D01*
X74510000Y-62650279D02*
X74510000Y-62324721D01*
X73490000Y-67662779D02*
X73490000Y-67337221D01*
X74510000Y-67662779D02*
X74510000Y-67337221D01*
X73490000Y-72662779D02*
X73490000Y-72337221D01*
X74510000Y-72662779D02*
X74510000Y-72337221D01*
X73490000Y-77662779D02*
X73490000Y-77337221D01*
X74510000Y-77662779D02*
X74510000Y-77337221D01*
X73490000Y-82650279D02*
X73490000Y-82324721D01*
X74510000Y-82650279D02*
X74510000Y-82324721D01*
X78490000Y-57662779D02*
X78490000Y-57337221D01*
X79510000Y-57662779D02*
X79510000Y-57337221D01*
X78490000Y-62662779D02*
X78490000Y-62337221D01*
X79510000Y-62662779D02*
X79510000Y-62337221D01*
X78490000Y-67662779D02*
X78490000Y-67337221D01*
X79510000Y-67662779D02*
X79510000Y-67337221D01*
X78490000Y-72662779D02*
X78490000Y-72337221D01*
X79510000Y-72662779D02*
X79510000Y-72337221D01*
X78490000Y-77650279D02*
X78490000Y-77324721D01*
X79510000Y-77650279D02*
X79510000Y-77324721D01*
X78490000Y-82662779D02*
X78490000Y-82337221D01*
X79510000Y-82662779D02*
X79510000Y-82337221D01*
X83490000Y-57650279D02*
X83490000Y-57324721D01*
X84510000Y-57650279D02*
X84510000Y-57324721D01*
X83590000Y-62650279D02*
X83590000Y-62324721D01*
X84610000Y-62650279D02*
X84610000Y-62324721D01*
X83490000Y-67662779D02*
X83490000Y-67337221D01*
X84510000Y-67662779D02*
X84510000Y-67337221D01*
X83490000Y-72650279D02*
X83490000Y-72324721D01*
X84510000Y-72650279D02*
X84510000Y-72324721D01*
X83490000Y-77675279D02*
X83490000Y-77349721D01*
X84510000Y-77675279D02*
X84510000Y-77349721D01*
X88490000Y-57662779D02*
X88490000Y-57337221D01*
X89510000Y-57662779D02*
X89510000Y-57337221D01*
X88490000Y-62662779D02*
X88490000Y-62337221D01*
X89510000Y-62662779D02*
X89510000Y-62337221D01*
X88490000Y-67662779D02*
X88490000Y-67337221D01*
X89510000Y-67662779D02*
X89510000Y-67337221D01*
X88490000Y-72662779D02*
X88490000Y-72337221D01*
X89510000Y-72662779D02*
X89510000Y-72337221D01*
X88490000Y-77662779D02*
X88490000Y-77337221D01*
X89510000Y-77662779D02*
X89510000Y-77337221D01*
X93490000Y-57662779D02*
X93490000Y-57337221D01*
X94510000Y-57662779D02*
X94510000Y-57337221D01*
X93490000Y-67662779D02*
X93490000Y-67337221D01*
X94510000Y-67662779D02*
X94510000Y-67337221D01*
X88490000Y-82662779D02*
X88490000Y-82337221D01*
X89510000Y-82662779D02*
X89510000Y-82337221D01*
X93490000Y-62650279D02*
X93490000Y-62324721D01*
X94510000Y-62650279D02*
X94510000Y-62324721D01*
X94510000Y-72662779D02*
X94510000Y-72337221D01*
X93490000Y-72662779D02*
X93490000Y-72337221D01*
X94510000Y-77662779D02*
X94510000Y-77337221D01*
X93490000Y-77662779D02*
X93490000Y-77337221D01*
X94510000Y-82662779D02*
X94510000Y-82337221D01*
X93490000Y-82662779D02*
X93490000Y-82337221D01*
X94510000Y-87650279D02*
X94510000Y-87324721D01*
X93490000Y-87650279D02*
X93490000Y-87324721D01*
X58490000Y-87662779D02*
X58490000Y-87337221D01*
X59510000Y-87662779D02*
X59510000Y-87337221D01*
X63490000Y-87675279D02*
X63490000Y-87349721D01*
X64510000Y-87675279D02*
X64510000Y-87349721D01*
X68490000Y-87662779D02*
X68490000Y-87337221D01*
X69510000Y-87662779D02*
X69510000Y-87337221D01*
X73490000Y-87662779D02*
X73490000Y-87337221D01*
X74510000Y-87662779D02*
X74510000Y-87337221D01*
X78490000Y-87662779D02*
X78490000Y-87337221D01*
X79510000Y-87662779D02*
X79510000Y-87337221D01*
X83490000Y-87662779D02*
X83490000Y-87337221D01*
X84510000Y-87662779D02*
X84510000Y-87337221D01*
X83490000Y-82650279D02*
X83490000Y-82324721D01*
X84510000Y-82650279D02*
X84510000Y-82324721D01*
X88490000Y-87662779D02*
X88490000Y-87337221D01*
X89510000Y-87662779D02*
X89510000Y-87337221D01*
X58490000Y-92662779D02*
X58490000Y-92337221D01*
X59510000Y-92662779D02*
X59510000Y-92337221D01*
X63490000Y-92662779D02*
X63490000Y-92337221D01*
X64510000Y-92662779D02*
X64510000Y-92337221D01*
X68490000Y-92650279D02*
X68490000Y-92324721D01*
X69510000Y-92650279D02*
X69510000Y-92324721D01*
X73490000Y-92662779D02*
X73490000Y-92337221D01*
X74510000Y-92662779D02*
X74510000Y-92337221D01*
X78690000Y-92662779D02*
X78690000Y-92337221D01*
X79710000Y-92662779D02*
X79710000Y-92337221D01*
X83490000Y-92662779D02*
X83490000Y-92337221D01*
X84510000Y-92662779D02*
X84510000Y-92337221D01*
X88490000Y-92650279D02*
X88490000Y-92324721D01*
X89510000Y-92650279D02*
X89510000Y-92324721D01*
X93490000Y-92662779D02*
X93490000Y-92337221D01*
X94510000Y-92662779D02*
X94510000Y-92337221D01*
D10*
X60882380Y-56857142D02*
X60406190Y-56523809D01*
X60882380Y-56285714D02*
X59882380Y-56285714D01*
X59882380Y-56666666D01*
X59930000Y-56761904D01*
X59977619Y-56809523D01*
X60072857Y-56857142D01*
X60215714Y-56857142D01*
X60310952Y-56809523D01*
X60358571Y-56761904D01*
X60406190Y-56666666D01*
X60406190Y-56285714D01*
X59882380Y-57714285D02*
X59882380Y-57523809D01*
X59930000Y-57428571D01*
X59977619Y-57380952D01*
X60120476Y-57285714D01*
X60310952Y-57238095D01*
X60691904Y-57238095D01*
X60787142Y-57285714D01*
X60834761Y-57333333D01*
X60882380Y-57428571D01*
X60882380Y-57619047D01*
X60834761Y-57714285D01*
X60787142Y-57761904D01*
X60691904Y-57809523D01*
X60453809Y-57809523D01*
X60358571Y-57761904D01*
X60310952Y-57714285D01*
X60263333Y-57619047D01*
X60263333Y-57428571D01*
X60310952Y-57333333D01*
X60358571Y-57285714D01*
X60453809Y-57238095D01*
X60215714Y-58666666D02*
X60882380Y-58666666D01*
X59834761Y-58428571D02*
X60549047Y-58190476D01*
X60549047Y-58809523D01*
X60882380Y-61844642D02*
X60406190Y-61511309D01*
X60882380Y-61273214D02*
X59882380Y-61273214D01*
X59882380Y-61654166D01*
X59930000Y-61749404D01*
X59977619Y-61797023D01*
X60072857Y-61844642D01*
X60215714Y-61844642D01*
X60310952Y-61797023D01*
X60358571Y-61749404D01*
X60406190Y-61654166D01*
X60406190Y-61273214D01*
X59882380Y-62701785D02*
X59882380Y-62511309D01*
X59930000Y-62416071D01*
X59977619Y-62368452D01*
X60120476Y-62273214D01*
X60310952Y-62225595D01*
X60691904Y-62225595D01*
X60787142Y-62273214D01*
X60834761Y-62320833D01*
X60882380Y-62416071D01*
X60882380Y-62606547D01*
X60834761Y-62701785D01*
X60787142Y-62749404D01*
X60691904Y-62797023D01*
X60453809Y-62797023D01*
X60358571Y-62749404D01*
X60310952Y-62701785D01*
X60263333Y-62606547D01*
X60263333Y-62416071D01*
X60310952Y-62320833D01*
X60358571Y-62273214D01*
X60453809Y-62225595D01*
X59882380Y-63130357D02*
X59882380Y-63749404D01*
X60263333Y-63416071D01*
X60263333Y-63558928D01*
X60310952Y-63654166D01*
X60358571Y-63701785D01*
X60453809Y-63749404D01*
X60691904Y-63749404D01*
X60787142Y-63701785D01*
X60834761Y-63654166D01*
X60882380Y-63558928D01*
X60882380Y-63273214D01*
X60834761Y-63177976D01*
X60787142Y-63130357D01*
X60882380Y-66857142D02*
X60406190Y-66523809D01*
X60882380Y-66285714D02*
X59882380Y-66285714D01*
X59882380Y-66666666D01*
X59930000Y-66761904D01*
X59977619Y-66809523D01*
X60072857Y-66857142D01*
X60215714Y-66857142D01*
X60310952Y-66809523D01*
X60358571Y-66761904D01*
X60406190Y-66666666D01*
X60406190Y-66285714D01*
X59882380Y-67714285D02*
X59882380Y-67523809D01*
X59930000Y-67428571D01*
X59977619Y-67380952D01*
X60120476Y-67285714D01*
X60310952Y-67238095D01*
X60691904Y-67238095D01*
X60787142Y-67285714D01*
X60834761Y-67333333D01*
X60882380Y-67428571D01*
X60882380Y-67619047D01*
X60834761Y-67714285D01*
X60787142Y-67761904D01*
X60691904Y-67809523D01*
X60453809Y-67809523D01*
X60358571Y-67761904D01*
X60310952Y-67714285D01*
X60263333Y-67619047D01*
X60263333Y-67428571D01*
X60310952Y-67333333D01*
X60358571Y-67285714D01*
X60453809Y-67238095D01*
X59977619Y-68190476D02*
X59930000Y-68238095D01*
X59882380Y-68333333D01*
X59882380Y-68571428D01*
X59930000Y-68666666D01*
X59977619Y-68714285D01*
X60072857Y-68761904D01*
X60168095Y-68761904D01*
X60310952Y-68714285D01*
X60882380Y-68142857D01*
X60882380Y-68761904D01*
X60882380Y-71857142D02*
X60406190Y-71523809D01*
X60882380Y-71285714D02*
X59882380Y-71285714D01*
X59882380Y-71666666D01*
X59930000Y-71761904D01*
X59977619Y-71809523D01*
X60072857Y-71857142D01*
X60215714Y-71857142D01*
X60310952Y-71809523D01*
X60358571Y-71761904D01*
X60406190Y-71666666D01*
X60406190Y-71285714D01*
X59882380Y-72714285D02*
X59882380Y-72523809D01*
X59930000Y-72428571D01*
X59977619Y-72380952D01*
X60120476Y-72285714D01*
X60310952Y-72238095D01*
X60691904Y-72238095D01*
X60787142Y-72285714D01*
X60834761Y-72333333D01*
X60882380Y-72428571D01*
X60882380Y-72619047D01*
X60834761Y-72714285D01*
X60787142Y-72761904D01*
X60691904Y-72809523D01*
X60453809Y-72809523D01*
X60358571Y-72761904D01*
X60310952Y-72714285D01*
X60263333Y-72619047D01*
X60263333Y-72428571D01*
X60310952Y-72333333D01*
X60358571Y-72285714D01*
X60453809Y-72238095D01*
X60882380Y-73761904D02*
X60882380Y-73190476D01*
X60882380Y-73476190D02*
X59882380Y-73476190D01*
X60025238Y-73380952D01*
X60120476Y-73285714D01*
X60168095Y-73190476D01*
X60882380Y-76857142D02*
X60406190Y-76523809D01*
X60882380Y-76285714D02*
X59882380Y-76285714D01*
X59882380Y-76666666D01*
X59930000Y-76761904D01*
X59977619Y-76809523D01*
X60072857Y-76857142D01*
X60215714Y-76857142D01*
X60310952Y-76809523D01*
X60358571Y-76761904D01*
X60406190Y-76666666D01*
X60406190Y-76285714D01*
X59882380Y-77714285D02*
X59882380Y-77523809D01*
X59930000Y-77428571D01*
X59977619Y-77380952D01*
X60120476Y-77285714D01*
X60310952Y-77238095D01*
X60691904Y-77238095D01*
X60787142Y-77285714D01*
X60834761Y-77333333D01*
X60882380Y-77428571D01*
X60882380Y-77619047D01*
X60834761Y-77714285D01*
X60787142Y-77761904D01*
X60691904Y-77809523D01*
X60453809Y-77809523D01*
X60358571Y-77761904D01*
X60310952Y-77714285D01*
X60263333Y-77619047D01*
X60263333Y-77428571D01*
X60310952Y-77333333D01*
X60358571Y-77285714D01*
X60453809Y-77238095D01*
X59882380Y-78428571D02*
X59882380Y-78523809D01*
X59930000Y-78619047D01*
X59977619Y-78666666D01*
X60072857Y-78714285D01*
X60263333Y-78761904D01*
X60501428Y-78761904D01*
X60691904Y-78714285D01*
X60787142Y-78666666D01*
X60834761Y-78619047D01*
X60882380Y-78523809D01*
X60882380Y-78428571D01*
X60834761Y-78333333D01*
X60787142Y-78285714D01*
X60691904Y-78238095D01*
X60501428Y-78190476D01*
X60263333Y-78190476D01*
X60072857Y-78238095D01*
X59977619Y-78285714D01*
X59930000Y-78333333D01*
X59882380Y-78428571D01*
X60882380Y-81857142D02*
X60406190Y-81523809D01*
X60882380Y-81285714D02*
X59882380Y-81285714D01*
X59882380Y-81666666D01*
X59930000Y-81761904D01*
X59977619Y-81809523D01*
X60072857Y-81857142D01*
X60215714Y-81857142D01*
X60310952Y-81809523D01*
X60358571Y-81761904D01*
X60406190Y-81666666D01*
X60406190Y-81285714D01*
X59882380Y-82761904D02*
X59882380Y-82285714D01*
X60358571Y-82238095D01*
X60310952Y-82285714D01*
X60263333Y-82380952D01*
X60263333Y-82619047D01*
X60310952Y-82714285D01*
X60358571Y-82761904D01*
X60453809Y-82809523D01*
X60691904Y-82809523D01*
X60787142Y-82761904D01*
X60834761Y-82714285D01*
X60882380Y-82619047D01*
X60882380Y-82380952D01*
X60834761Y-82285714D01*
X60787142Y-82238095D01*
X60882380Y-83285714D02*
X60882380Y-83476190D01*
X60834761Y-83571428D01*
X60787142Y-83619047D01*
X60644285Y-83714285D01*
X60453809Y-83761904D01*
X60072857Y-83761904D01*
X59977619Y-83714285D01*
X59930000Y-83666666D01*
X59882380Y-83571428D01*
X59882380Y-83380952D01*
X59930000Y-83285714D01*
X59977619Y-83238095D01*
X60072857Y-83190476D01*
X60310952Y-83190476D01*
X60406190Y-83238095D01*
X60453809Y-83285714D01*
X60501428Y-83380952D01*
X60501428Y-83571428D01*
X60453809Y-83666666D01*
X60406190Y-83714285D01*
X60310952Y-83761904D01*
X70882380Y-81869642D02*
X70406190Y-81536309D01*
X70882380Y-81298214D02*
X69882380Y-81298214D01*
X69882380Y-81679166D01*
X69930000Y-81774404D01*
X69977619Y-81822023D01*
X70072857Y-81869642D01*
X70215714Y-81869642D01*
X70310952Y-81822023D01*
X70358571Y-81774404D01*
X70406190Y-81679166D01*
X70406190Y-81298214D01*
X69882380Y-82774404D02*
X69882380Y-82298214D01*
X70358571Y-82250595D01*
X70310952Y-82298214D01*
X70263333Y-82393452D01*
X70263333Y-82631547D01*
X70310952Y-82726785D01*
X70358571Y-82774404D01*
X70453809Y-82822023D01*
X70691904Y-82822023D01*
X70787142Y-82774404D01*
X70834761Y-82726785D01*
X70882380Y-82631547D01*
X70882380Y-82393452D01*
X70834761Y-82298214D01*
X70787142Y-82250595D01*
X70310952Y-83393452D02*
X70263333Y-83298214D01*
X70215714Y-83250595D01*
X70120476Y-83202976D01*
X70072857Y-83202976D01*
X69977619Y-83250595D01*
X69930000Y-83298214D01*
X69882380Y-83393452D01*
X69882380Y-83583928D01*
X69930000Y-83679166D01*
X69977619Y-83726785D01*
X70072857Y-83774404D01*
X70120476Y-83774404D01*
X70215714Y-83726785D01*
X70263333Y-83679166D01*
X70310952Y-83583928D01*
X70310952Y-83393452D01*
X70358571Y-83298214D01*
X70406190Y-83250595D01*
X70501428Y-83202976D01*
X70691904Y-83202976D01*
X70787142Y-83250595D01*
X70834761Y-83298214D01*
X70882380Y-83393452D01*
X70882380Y-83583928D01*
X70834761Y-83679166D01*
X70787142Y-83726785D01*
X70691904Y-83774404D01*
X70501428Y-83774404D01*
X70406190Y-83726785D01*
X70358571Y-83679166D01*
X70310952Y-83583928D01*
X70882380Y-76844642D02*
X70406190Y-76511309D01*
X70882380Y-76273214D02*
X69882380Y-76273214D01*
X69882380Y-76654166D01*
X69930000Y-76749404D01*
X69977619Y-76797023D01*
X70072857Y-76844642D01*
X70215714Y-76844642D01*
X70310952Y-76797023D01*
X70358571Y-76749404D01*
X70406190Y-76654166D01*
X70406190Y-76273214D01*
X69882380Y-77749404D02*
X69882380Y-77273214D01*
X70358571Y-77225595D01*
X70310952Y-77273214D01*
X70263333Y-77368452D01*
X70263333Y-77606547D01*
X70310952Y-77701785D01*
X70358571Y-77749404D01*
X70453809Y-77797023D01*
X70691904Y-77797023D01*
X70787142Y-77749404D01*
X70834761Y-77701785D01*
X70882380Y-77606547D01*
X70882380Y-77368452D01*
X70834761Y-77273214D01*
X70787142Y-77225595D01*
X69882380Y-78130357D02*
X69882380Y-78797023D01*
X70882380Y-78368452D01*
X65882380Y-56857142D02*
X65406190Y-56523809D01*
X65882380Y-56285714D02*
X64882380Y-56285714D01*
X64882380Y-56666666D01*
X64930000Y-56761904D01*
X64977619Y-56809523D01*
X65072857Y-56857142D01*
X65215714Y-56857142D01*
X65310952Y-56809523D01*
X65358571Y-56761904D01*
X65406190Y-56666666D01*
X65406190Y-56285714D01*
X64882380Y-57761904D02*
X64882380Y-57285714D01*
X65358571Y-57238095D01*
X65310952Y-57285714D01*
X65263333Y-57380952D01*
X65263333Y-57619047D01*
X65310952Y-57714285D01*
X65358571Y-57761904D01*
X65453809Y-57809523D01*
X65691904Y-57809523D01*
X65787142Y-57761904D01*
X65834761Y-57714285D01*
X65882380Y-57619047D01*
X65882380Y-57380952D01*
X65834761Y-57285714D01*
X65787142Y-57238095D01*
X64882380Y-58666666D02*
X64882380Y-58476190D01*
X64930000Y-58380952D01*
X64977619Y-58333333D01*
X65120476Y-58238095D01*
X65310952Y-58190476D01*
X65691904Y-58190476D01*
X65787142Y-58238095D01*
X65834761Y-58285714D01*
X65882380Y-58380952D01*
X65882380Y-58571428D01*
X65834761Y-58666666D01*
X65787142Y-58714285D01*
X65691904Y-58761904D01*
X65453809Y-58761904D01*
X65358571Y-58714285D01*
X65310952Y-58666666D01*
X65263333Y-58571428D01*
X65263333Y-58380952D01*
X65310952Y-58285714D01*
X65358571Y-58238095D01*
X65453809Y-58190476D01*
X65882380Y-61857142D02*
X65406190Y-61523809D01*
X65882380Y-61285714D02*
X64882380Y-61285714D01*
X64882380Y-61666666D01*
X64930000Y-61761904D01*
X64977619Y-61809523D01*
X65072857Y-61857142D01*
X65215714Y-61857142D01*
X65310952Y-61809523D01*
X65358571Y-61761904D01*
X65406190Y-61666666D01*
X65406190Y-61285714D01*
X64882380Y-62761904D02*
X64882380Y-62285714D01*
X65358571Y-62238095D01*
X65310952Y-62285714D01*
X65263333Y-62380952D01*
X65263333Y-62619047D01*
X65310952Y-62714285D01*
X65358571Y-62761904D01*
X65453809Y-62809523D01*
X65691904Y-62809523D01*
X65787142Y-62761904D01*
X65834761Y-62714285D01*
X65882380Y-62619047D01*
X65882380Y-62380952D01*
X65834761Y-62285714D01*
X65787142Y-62238095D01*
X64882380Y-63714285D02*
X64882380Y-63238095D01*
X65358571Y-63190476D01*
X65310952Y-63238095D01*
X65263333Y-63333333D01*
X65263333Y-63571428D01*
X65310952Y-63666666D01*
X65358571Y-63714285D01*
X65453809Y-63761904D01*
X65691904Y-63761904D01*
X65787142Y-63714285D01*
X65834761Y-63666666D01*
X65882380Y-63571428D01*
X65882380Y-63333333D01*
X65834761Y-63238095D01*
X65787142Y-63190476D01*
X65882380Y-66857142D02*
X65406190Y-66523809D01*
X65882380Y-66285714D02*
X64882380Y-66285714D01*
X64882380Y-66666666D01*
X64930000Y-66761904D01*
X64977619Y-66809523D01*
X65072857Y-66857142D01*
X65215714Y-66857142D01*
X65310952Y-66809523D01*
X65358571Y-66761904D01*
X65406190Y-66666666D01*
X65406190Y-66285714D01*
X64882380Y-67761904D02*
X64882380Y-67285714D01*
X65358571Y-67238095D01*
X65310952Y-67285714D01*
X65263333Y-67380952D01*
X65263333Y-67619047D01*
X65310952Y-67714285D01*
X65358571Y-67761904D01*
X65453809Y-67809523D01*
X65691904Y-67809523D01*
X65787142Y-67761904D01*
X65834761Y-67714285D01*
X65882380Y-67619047D01*
X65882380Y-67380952D01*
X65834761Y-67285714D01*
X65787142Y-67238095D01*
X65215714Y-68666666D02*
X65882380Y-68666666D01*
X64834761Y-68428571D02*
X65549047Y-68190476D01*
X65549047Y-68809523D01*
X65882380Y-71857142D02*
X65406190Y-71523809D01*
X65882380Y-71285714D02*
X64882380Y-71285714D01*
X64882380Y-71666666D01*
X64930000Y-71761904D01*
X64977619Y-71809523D01*
X65072857Y-71857142D01*
X65215714Y-71857142D01*
X65310952Y-71809523D01*
X65358571Y-71761904D01*
X65406190Y-71666666D01*
X65406190Y-71285714D01*
X64882380Y-72761904D02*
X64882380Y-72285714D01*
X65358571Y-72238095D01*
X65310952Y-72285714D01*
X65263333Y-72380952D01*
X65263333Y-72619047D01*
X65310952Y-72714285D01*
X65358571Y-72761904D01*
X65453809Y-72809523D01*
X65691904Y-72809523D01*
X65787142Y-72761904D01*
X65834761Y-72714285D01*
X65882380Y-72619047D01*
X65882380Y-72380952D01*
X65834761Y-72285714D01*
X65787142Y-72238095D01*
X64882380Y-73142857D02*
X64882380Y-73761904D01*
X65263333Y-73428571D01*
X65263333Y-73571428D01*
X65310952Y-73666666D01*
X65358571Y-73714285D01*
X65453809Y-73761904D01*
X65691904Y-73761904D01*
X65787142Y-73714285D01*
X65834761Y-73666666D01*
X65882380Y-73571428D01*
X65882380Y-73285714D01*
X65834761Y-73190476D01*
X65787142Y-73142857D01*
X65882380Y-76869642D02*
X65406190Y-76536309D01*
X65882380Y-76298214D02*
X64882380Y-76298214D01*
X64882380Y-76679166D01*
X64930000Y-76774404D01*
X64977619Y-76822023D01*
X65072857Y-76869642D01*
X65215714Y-76869642D01*
X65310952Y-76822023D01*
X65358571Y-76774404D01*
X65406190Y-76679166D01*
X65406190Y-76298214D01*
X64882380Y-77774404D02*
X64882380Y-77298214D01*
X65358571Y-77250595D01*
X65310952Y-77298214D01*
X65263333Y-77393452D01*
X65263333Y-77631547D01*
X65310952Y-77726785D01*
X65358571Y-77774404D01*
X65453809Y-77822023D01*
X65691904Y-77822023D01*
X65787142Y-77774404D01*
X65834761Y-77726785D01*
X65882380Y-77631547D01*
X65882380Y-77393452D01*
X65834761Y-77298214D01*
X65787142Y-77250595D01*
X64977619Y-78202976D02*
X64930000Y-78250595D01*
X64882380Y-78345833D01*
X64882380Y-78583928D01*
X64930000Y-78679166D01*
X64977619Y-78726785D01*
X65072857Y-78774404D01*
X65168095Y-78774404D01*
X65310952Y-78726785D01*
X65882380Y-78155357D01*
X65882380Y-78774404D01*
X65882380Y-81857142D02*
X65406190Y-81523809D01*
X65882380Y-81285714D02*
X64882380Y-81285714D01*
X64882380Y-81666666D01*
X64930000Y-81761904D01*
X64977619Y-81809523D01*
X65072857Y-81857142D01*
X65215714Y-81857142D01*
X65310952Y-81809523D01*
X65358571Y-81761904D01*
X65406190Y-81666666D01*
X65406190Y-81285714D01*
X64882380Y-82761904D02*
X64882380Y-82285714D01*
X65358571Y-82238095D01*
X65310952Y-82285714D01*
X65263333Y-82380952D01*
X65263333Y-82619047D01*
X65310952Y-82714285D01*
X65358571Y-82761904D01*
X65453809Y-82809523D01*
X65691904Y-82809523D01*
X65787142Y-82761904D01*
X65834761Y-82714285D01*
X65882380Y-82619047D01*
X65882380Y-82380952D01*
X65834761Y-82285714D01*
X65787142Y-82238095D01*
X65882380Y-83761904D02*
X65882380Y-83190476D01*
X65882380Y-83476190D02*
X64882380Y-83476190D01*
X65025238Y-83380952D01*
X65120476Y-83285714D01*
X65168095Y-83190476D01*
X70882380Y-66857142D02*
X70406190Y-66523809D01*
X70882380Y-66285714D02*
X69882380Y-66285714D01*
X69882380Y-66666666D01*
X69930000Y-66761904D01*
X69977619Y-66809523D01*
X70072857Y-66857142D01*
X70215714Y-66857142D01*
X70310952Y-66809523D01*
X70358571Y-66761904D01*
X70406190Y-66666666D01*
X70406190Y-66285714D01*
X69882380Y-67761904D02*
X69882380Y-67285714D01*
X70358571Y-67238095D01*
X70310952Y-67285714D01*
X70263333Y-67380952D01*
X70263333Y-67619047D01*
X70310952Y-67714285D01*
X70358571Y-67761904D01*
X70453809Y-67809523D01*
X70691904Y-67809523D01*
X70787142Y-67761904D01*
X70834761Y-67714285D01*
X70882380Y-67619047D01*
X70882380Y-67380952D01*
X70834761Y-67285714D01*
X70787142Y-67238095D01*
X69882380Y-68428571D02*
X69882380Y-68523809D01*
X69930000Y-68619047D01*
X69977619Y-68666666D01*
X70072857Y-68714285D01*
X70263333Y-68761904D01*
X70501428Y-68761904D01*
X70691904Y-68714285D01*
X70787142Y-68666666D01*
X70834761Y-68619047D01*
X70882380Y-68523809D01*
X70882380Y-68428571D01*
X70834761Y-68333333D01*
X70787142Y-68285714D01*
X70691904Y-68238095D01*
X70501428Y-68190476D01*
X70263333Y-68190476D01*
X70072857Y-68238095D01*
X69977619Y-68285714D01*
X69930000Y-68333333D01*
X69882380Y-68428571D01*
X70882380Y-71857142D02*
X70406190Y-71523809D01*
X70882380Y-71285714D02*
X69882380Y-71285714D01*
X69882380Y-71666666D01*
X69930000Y-71761904D01*
X69977619Y-71809523D01*
X70072857Y-71857142D01*
X70215714Y-71857142D01*
X70310952Y-71809523D01*
X70358571Y-71761904D01*
X70406190Y-71666666D01*
X70406190Y-71285714D01*
X70215714Y-72714285D02*
X70882380Y-72714285D01*
X69834761Y-72476190D02*
X70549047Y-72238095D01*
X70549047Y-72857142D01*
X70882380Y-73285714D02*
X70882380Y-73476190D01*
X70834761Y-73571428D01*
X70787142Y-73619047D01*
X70644285Y-73714285D01*
X70453809Y-73761904D01*
X70072857Y-73761904D01*
X69977619Y-73714285D01*
X69930000Y-73666666D01*
X69882380Y-73571428D01*
X69882380Y-73380952D01*
X69930000Y-73285714D01*
X69977619Y-73238095D01*
X70072857Y-73190476D01*
X70310952Y-73190476D01*
X70406190Y-73238095D01*
X70453809Y-73285714D01*
X70501428Y-73380952D01*
X70501428Y-73571428D01*
X70453809Y-73666666D01*
X70406190Y-73714285D01*
X70310952Y-73761904D01*
X70882380Y-56857142D02*
X70406190Y-56523809D01*
X70882380Y-56285714D02*
X69882380Y-56285714D01*
X69882380Y-56666666D01*
X69930000Y-56761904D01*
X69977619Y-56809523D01*
X70072857Y-56857142D01*
X70215714Y-56857142D01*
X70310952Y-56809523D01*
X70358571Y-56761904D01*
X70406190Y-56666666D01*
X70406190Y-56285714D01*
X70215714Y-57714285D02*
X70882380Y-57714285D01*
X69834761Y-57476190D02*
X70549047Y-57238095D01*
X70549047Y-57857142D01*
X70310952Y-58380952D02*
X70263333Y-58285714D01*
X70215714Y-58238095D01*
X70120476Y-58190476D01*
X70072857Y-58190476D01*
X69977619Y-58238095D01*
X69930000Y-58285714D01*
X69882380Y-58380952D01*
X69882380Y-58571428D01*
X69930000Y-58666666D01*
X69977619Y-58714285D01*
X70072857Y-58761904D01*
X70120476Y-58761904D01*
X70215714Y-58714285D01*
X70263333Y-58666666D01*
X70310952Y-58571428D01*
X70310952Y-58380952D01*
X70358571Y-58285714D01*
X70406190Y-58238095D01*
X70501428Y-58190476D01*
X70691904Y-58190476D01*
X70787142Y-58238095D01*
X70834761Y-58285714D01*
X70882380Y-58380952D01*
X70882380Y-58571428D01*
X70834761Y-58666666D01*
X70787142Y-58714285D01*
X70691904Y-58761904D01*
X70501428Y-58761904D01*
X70406190Y-58714285D01*
X70358571Y-58666666D01*
X70310952Y-58571428D01*
X70882380Y-61869642D02*
X70406190Y-61536309D01*
X70882380Y-61298214D02*
X69882380Y-61298214D01*
X69882380Y-61679166D01*
X69930000Y-61774404D01*
X69977619Y-61822023D01*
X70072857Y-61869642D01*
X70215714Y-61869642D01*
X70310952Y-61822023D01*
X70358571Y-61774404D01*
X70406190Y-61679166D01*
X70406190Y-61298214D01*
X70215714Y-62726785D02*
X70882380Y-62726785D01*
X69834761Y-62488690D02*
X70549047Y-62250595D01*
X70549047Y-62869642D01*
X69882380Y-63155357D02*
X69882380Y-63822023D01*
X70882380Y-63393452D01*
X75882380Y-56844642D02*
X75406190Y-56511309D01*
X75882380Y-56273214D02*
X74882380Y-56273214D01*
X74882380Y-56654166D01*
X74930000Y-56749404D01*
X74977619Y-56797023D01*
X75072857Y-56844642D01*
X75215714Y-56844642D01*
X75310952Y-56797023D01*
X75358571Y-56749404D01*
X75406190Y-56654166D01*
X75406190Y-56273214D01*
X75215714Y-57701785D02*
X75882380Y-57701785D01*
X74834761Y-57463690D02*
X75549047Y-57225595D01*
X75549047Y-57844642D01*
X74882380Y-58654166D02*
X74882380Y-58463690D01*
X74930000Y-58368452D01*
X74977619Y-58320833D01*
X75120476Y-58225595D01*
X75310952Y-58177976D01*
X75691904Y-58177976D01*
X75787142Y-58225595D01*
X75834761Y-58273214D01*
X75882380Y-58368452D01*
X75882380Y-58558928D01*
X75834761Y-58654166D01*
X75787142Y-58701785D01*
X75691904Y-58749404D01*
X75453809Y-58749404D01*
X75358571Y-58701785D01*
X75310952Y-58654166D01*
X75263333Y-58558928D01*
X75263333Y-58368452D01*
X75310952Y-58273214D01*
X75358571Y-58225595D01*
X75453809Y-58177976D01*
X75882380Y-61844642D02*
X75406190Y-61511309D01*
X75882380Y-61273214D02*
X74882380Y-61273214D01*
X74882380Y-61654166D01*
X74930000Y-61749404D01*
X74977619Y-61797023D01*
X75072857Y-61844642D01*
X75215714Y-61844642D01*
X75310952Y-61797023D01*
X75358571Y-61749404D01*
X75406190Y-61654166D01*
X75406190Y-61273214D01*
X75215714Y-62701785D02*
X75882380Y-62701785D01*
X74834761Y-62463690D02*
X75549047Y-62225595D01*
X75549047Y-62844642D01*
X74882380Y-63701785D02*
X74882380Y-63225595D01*
X75358571Y-63177976D01*
X75310952Y-63225595D01*
X75263333Y-63320833D01*
X75263333Y-63558928D01*
X75310952Y-63654166D01*
X75358571Y-63701785D01*
X75453809Y-63749404D01*
X75691904Y-63749404D01*
X75787142Y-63701785D01*
X75834761Y-63654166D01*
X75882380Y-63558928D01*
X75882380Y-63320833D01*
X75834761Y-63225595D01*
X75787142Y-63177976D01*
X75882380Y-66857142D02*
X75406190Y-66523809D01*
X75882380Y-66285714D02*
X74882380Y-66285714D01*
X74882380Y-66666666D01*
X74930000Y-66761904D01*
X74977619Y-66809523D01*
X75072857Y-66857142D01*
X75215714Y-66857142D01*
X75310952Y-66809523D01*
X75358571Y-66761904D01*
X75406190Y-66666666D01*
X75406190Y-66285714D01*
X75215714Y-67714285D02*
X75882380Y-67714285D01*
X74834761Y-67476190D02*
X75549047Y-67238095D01*
X75549047Y-67857142D01*
X75215714Y-68666666D02*
X75882380Y-68666666D01*
X74834761Y-68428571D02*
X75549047Y-68190476D01*
X75549047Y-68809523D01*
X75882380Y-71857142D02*
X75406190Y-71523809D01*
X75882380Y-71285714D02*
X74882380Y-71285714D01*
X74882380Y-71666666D01*
X74930000Y-71761904D01*
X74977619Y-71809523D01*
X75072857Y-71857142D01*
X75215714Y-71857142D01*
X75310952Y-71809523D01*
X75358571Y-71761904D01*
X75406190Y-71666666D01*
X75406190Y-71285714D01*
X75215714Y-72714285D02*
X75882380Y-72714285D01*
X74834761Y-72476190D02*
X75549047Y-72238095D01*
X75549047Y-72857142D01*
X74882380Y-73142857D02*
X74882380Y-73761904D01*
X75263333Y-73428571D01*
X75263333Y-73571428D01*
X75310952Y-73666666D01*
X75358571Y-73714285D01*
X75453809Y-73761904D01*
X75691904Y-73761904D01*
X75787142Y-73714285D01*
X75834761Y-73666666D01*
X75882380Y-73571428D01*
X75882380Y-73285714D01*
X75834761Y-73190476D01*
X75787142Y-73142857D01*
X75882380Y-76857142D02*
X75406190Y-76523809D01*
X75882380Y-76285714D02*
X74882380Y-76285714D01*
X74882380Y-76666666D01*
X74930000Y-76761904D01*
X74977619Y-76809523D01*
X75072857Y-76857142D01*
X75215714Y-76857142D01*
X75310952Y-76809523D01*
X75358571Y-76761904D01*
X75406190Y-76666666D01*
X75406190Y-76285714D01*
X75215714Y-77714285D02*
X75882380Y-77714285D01*
X74834761Y-77476190D02*
X75549047Y-77238095D01*
X75549047Y-77857142D01*
X74977619Y-78190476D02*
X74930000Y-78238095D01*
X74882380Y-78333333D01*
X74882380Y-78571428D01*
X74930000Y-78666666D01*
X74977619Y-78714285D01*
X75072857Y-78761904D01*
X75168095Y-78761904D01*
X75310952Y-78714285D01*
X75882380Y-78142857D01*
X75882380Y-78761904D01*
X75882380Y-81844642D02*
X75406190Y-81511309D01*
X75882380Y-81273214D02*
X74882380Y-81273214D01*
X74882380Y-81654166D01*
X74930000Y-81749404D01*
X74977619Y-81797023D01*
X75072857Y-81844642D01*
X75215714Y-81844642D01*
X75310952Y-81797023D01*
X75358571Y-81749404D01*
X75406190Y-81654166D01*
X75406190Y-81273214D01*
X75215714Y-82701785D02*
X75882380Y-82701785D01*
X74834761Y-82463690D02*
X75549047Y-82225595D01*
X75549047Y-82844642D01*
X75882380Y-83749404D02*
X75882380Y-83177976D01*
X75882380Y-83463690D02*
X74882380Y-83463690D01*
X75025238Y-83368452D01*
X75120476Y-83273214D01*
X75168095Y-83177976D01*
X80882380Y-56857142D02*
X80406190Y-56523809D01*
X80882380Y-56285714D02*
X79882380Y-56285714D01*
X79882380Y-56666666D01*
X79930000Y-56761904D01*
X79977619Y-56809523D01*
X80072857Y-56857142D01*
X80215714Y-56857142D01*
X80310952Y-56809523D01*
X80358571Y-56761904D01*
X80406190Y-56666666D01*
X80406190Y-56285714D01*
X80215714Y-57714285D02*
X80882380Y-57714285D01*
X79834761Y-57476190D02*
X80549047Y-57238095D01*
X80549047Y-57857142D01*
X79882380Y-58428571D02*
X79882380Y-58523809D01*
X79930000Y-58619047D01*
X79977619Y-58666666D01*
X80072857Y-58714285D01*
X80263333Y-58761904D01*
X80501428Y-58761904D01*
X80691904Y-58714285D01*
X80787142Y-58666666D01*
X80834761Y-58619047D01*
X80882380Y-58523809D01*
X80882380Y-58428571D01*
X80834761Y-58333333D01*
X80787142Y-58285714D01*
X80691904Y-58238095D01*
X80501428Y-58190476D01*
X80263333Y-58190476D01*
X80072857Y-58238095D01*
X79977619Y-58285714D01*
X79930000Y-58333333D01*
X79882380Y-58428571D01*
X80882380Y-61857142D02*
X80406190Y-61523809D01*
X80882380Y-61285714D02*
X79882380Y-61285714D01*
X79882380Y-61666666D01*
X79930000Y-61761904D01*
X79977619Y-61809523D01*
X80072857Y-61857142D01*
X80215714Y-61857142D01*
X80310952Y-61809523D01*
X80358571Y-61761904D01*
X80406190Y-61666666D01*
X80406190Y-61285714D01*
X79882380Y-62190476D02*
X79882380Y-62809523D01*
X80263333Y-62476190D01*
X80263333Y-62619047D01*
X80310952Y-62714285D01*
X80358571Y-62761904D01*
X80453809Y-62809523D01*
X80691904Y-62809523D01*
X80787142Y-62761904D01*
X80834761Y-62714285D01*
X80882380Y-62619047D01*
X80882380Y-62333333D01*
X80834761Y-62238095D01*
X80787142Y-62190476D01*
X80882380Y-63285714D02*
X80882380Y-63476190D01*
X80834761Y-63571428D01*
X80787142Y-63619047D01*
X80644285Y-63714285D01*
X80453809Y-63761904D01*
X80072857Y-63761904D01*
X79977619Y-63714285D01*
X79930000Y-63666666D01*
X79882380Y-63571428D01*
X79882380Y-63380952D01*
X79930000Y-63285714D01*
X79977619Y-63238095D01*
X80072857Y-63190476D01*
X80310952Y-63190476D01*
X80406190Y-63238095D01*
X80453809Y-63285714D01*
X80501428Y-63380952D01*
X80501428Y-63571428D01*
X80453809Y-63666666D01*
X80406190Y-63714285D01*
X80310952Y-63761904D01*
X80882380Y-66857142D02*
X80406190Y-66523809D01*
X80882380Y-66285714D02*
X79882380Y-66285714D01*
X79882380Y-66666666D01*
X79930000Y-66761904D01*
X79977619Y-66809523D01*
X80072857Y-66857142D01*
X80215714Y-66857142D01*
X80310952Y-66809523D01*
X80358571Y-66761904D01*
X80406190Y-66666666D01*
X80406190Y-66285714D01*
X79882380Y-67190476D02*
X79882380Y-67809523D01*
X80263333Y-67476190D01*
X80263333Y-67619047D01*
X80310952Y-67714285D01*
X80358571Y-67761904D01*
X80453809Y-67809523D01*
X80691904Y-67809523D01*
X80787142Y-67761904D01*
X80834761Y-67714285D01*
X80882380Y-67619047D01*
X80882380Y-67333333D01*
X80834761Y-67238095D01*
X80787142Y-67190476D01*
X80310952Y-68380952D02*
X80263333Y-68285714D01*
X80215714Y-68238095D01*
X80120476Y-68190476D01*
X80072857Y-68190476D01*
X79977619Y-68238095D01*
X79930000Y-68285714D01*
X79882380Y-68380952D01*
X79882380Y-68571428D01*
X79930000Y-68666666D01*
X79977619Y-68714285D01*
X80072857Y-68761904D01*
X80120476Y-68761904D01*
X80215714Y-68714285D01*
X80263333Y-68666666D01*
X80310952Y-68571428D01*
X80310952Y-68380952D01*
X80358571Y-68285714D01*
X80406190Y-68238095D01*
X80501428Y-68190476D01*
X80691904Y-68190476D01*
X80787142Y-68238095D01*
X80834761Y-68285714D01*
X80882380Y-68380952D01*
X80882380Y-68571428D01*
X80834761Y-68666666D01*
X80787142Y-68714285D01*
X80691904Y-68761904D01*
X80501428Y-68761904D01*
X80406190Y-68714285D01*
X80358571Y-68666666D01*
X80310952Y-68571428D01*
X80882380Y-71857142D02*
X80406190Y-71523809D01*
X80882380Y-71285714D02*
X79882380Y-71285714D01*
X79882380Y-71666666D01*
X79930000Y-71761904D01*
X79977619Y-71809523D01*
X80072857Y-71857142D01*
X80215714Y-71857142D01*
X80310952Y-71809523D01*
X80358571Y-71761904D01*
X80406190Y-71666666D01*
X80406190Y-71285714D01*
X79882380Y-72190476D02*
X79882380Y-72809523D01*
X80263333Y-72476190D01*
X80263333Y-72619047D01*
X80310952Y-72714285D01*
X80358571Y-72761904D01*
X80453809Y-72809523D01*
X80691904Y-72809523D01*
X80787142Y-72761904D01*
X80834761Y-72714285D01*
X80882380Y-72619047D01*
X80882380Y-72333333D01*
X80834761Y-72238095D01*
X80787142Y-72190476D01*
X79882380Y-73142857D02*
X79882380Y-73809523D01*
X80882380Y-73380952D01*
X80882380Y-76844642D02*
X80406190Y-76511309D01*
X80882380Y-76273214D02*
X79882380Y-76273214D01*
X79882380Y-76654166D01*
X79930000Y-76749404D01*
X79977619Y-76797023D01*
X80072857Y-76844642D01*
X80215714Y-76844642D01*
X80310952Y-76797023D01*
X80358571Y-76749404D01*
X80406190Y-76654166D01*
X80406190Y-76273214D01*
X79882380Y-77177976D02*
X79882380Y-77797023D01*
X80263333Y-77463690D01*
X80263333Y-77606547D01*
X80310952Y-77701785D01*
X80358571Y-77749404D01*
X80453809Y-77797023D01*
X80691904Y-77797023D01*
X80787142Y-77749404D01*
X80834761Y-77701785D01*
X80882380Y-77606547D01*
X80882380Y-77320833D01*
X80834761Y-77225595D01*
X80787142Y-77177976D01*
X79882380Y-78654166D02*
X79882380Y-78463690D01*
X79930000Y-78368452D01*
X79977619Y-78320833D01*
X80120476Y-78225595D01*
X80310952Y-78177976D01*
X80691904Y-78177976D01*
X80787142Y-78225595D01*
X80834761Y-78273214D01*
X80882380Y-78368452D01*
X80882380Y-78558928D01*
X80834761Y-78654166D01*
X80787142Y-78701785D01*
X80691904Y-78749404D01*
X80453809Y-78749404D01*
X80358571Y-78701785D01*
X80310952Y-78654166D01*
X80263333Y-78558928D01*
X80263333Y-78368452D01*
X80310952Y-78273214D01*
X80358571Y-78225595D01*
X80453809Y-78177976D01*
X80882380Y-81857142D02*
X80406190Y-81523809D01*
X80882380Y-81285714D02*
X79882380Y-81285714D01*
X79882380Y-81666666D01*
X79930000Y-81761904D01*
X79977619Y-81809523D01*
X80072857Y-81857142D01*
X80215714Y-81857142D01*
X80310952Y-81809523D01*
X80358571Y-81761904D01*
X80406190Y-81666666D01*
X80406190Y-81285714D01*
X79882380Y-82190476D02*
X79882380Y-82809523D01*
X80263333Y-82476190D01*
X80263333Y-82619047D01*
X80310952Y-82714285D01*
X80358571Y-82761904D01*
X80453809Y-82809523D01*
X80691904Y-82809523D01*
X80787142Y-82761904D01*
X80834761Y-82714285D01*
X80882380Y-82619047D01*
X80882380Y-82333333D01*
X80834761Y-82238095D01*
X80787142Y-82190476D01*
X79882380Y-83714285D02*
X79882380Y-83238095D01*
X80358571Y-83190476D01*
X80310952Y-83238095D01*
X80263333Y-83333333D01*
X80263333Y-83571428D01*
X80310952Y-83666666D01*
X80358571Y-83714285D01*
X80453809Y-83761904D01*
X80691904Y-83761904D01*
X80787142Y-83714285D01*
X80834761Y-83666666D01*
X80882380Y-83571428D01*
X80882380Y-83333333D01*
X80834761Y-83238095D01*
X80787142Y-83190476D01*
X85882380Y-56844642D02*
X85406190Y-56511309D01*
X85882380Y-56273214D02*
X84882380Y-56273214D01*
X84882380Y-56654166D01*
X84930000Y-56749404D01*
X84977619Y-56797023D01*
X85072857Y-56844642D01*
X85215714Y-56844642D01*
X85310952Y-56797023D01*
X85358571Y-56749404D01*
X85406190Y-56654166D01*
X85406190Y-56273214D01*
X84882380Y-57177976D02*
X84882380Y-57797023D01*
X85263333Y-57463690D01*
X85263333Y-57606547D01*
X85310952Y-57701785D01*
X85358571Y-57749404D01*
X85453809Y-57797023D01*
X85691904Y-57797023D01*
X85787142Y-57749404D01*
X85834761Y-57701785D01*
X85882380Y-57606547D01*
X85882380Y-57320833D01*
X85834761Y-57225595D01*
X85787142Y-57177976D01*
X85215714Y-58654166D02*
X85882380Y-58654166D01*
X84834761Y-58416071D02*
X85549047Y-58177976D01*
X85549047Y-58797023D01*
X85982380Y-61844642D02*
X85506190Y-61511309D01*
X85982380Y-61273214D02*
X84982380Y-61273214D01*
X84982380Y-61654166D01*
X85030000Y-61749404D01*
X85077619Y-61797023D01*
X85172857Y-61844642D01*
X85315714Y-61844642D01*
X85410952Y-61797023D01*
X85458571Y-61749404D01*
X85506190Y-61654166D01*
X85506190Y-61273214D01*
X84982380Y-62177976D02*
X84982380Y-62797023D01*
X85363333Y-62463690D01*
X85363333Y-62606547D01*
X85410952Y-62701785D01*
X85458571Y-62749404D01*
X85553809Y-62797023D01*
X85791904Y-62797023D01*
X85887142Y-62749404D01*
X85934761Y-62701785D01*
X85982380Y-62606547D01*
X85982380Y-62320833D01*
X85934761Y-62225595D01*
X85887142Y-62177976D01*
X84982380Y-63130357D02*
X84982380Y-63749404D01*
X85363333Y-63416071D01*
X85363333Y-63558928D01*
X85410952Y-63654166D01*
X85458571Y-63701785D01*
X85553809Y-63749404D01*
X85791904Y-63749404D01*
X85887142Y-63701785D01*
X85934761Y-63654166D01*
X85982380Y-63558928D01*
X85982380Y-63273214D01*
X85934761Y-63177976D01*
X85887142Y-63130357D01*
X85882380Y-66857142D02*
X85406190Y-66523809D01*
X85882380Y-66285714D02*
X84882380Y-66285714D01*
X84882380Y-66666666D01*
X84930000Y-66761904D01*
X84977619Y-66809523D01*
X85072857Y-66857142D01*
X85215714Y-66857142D01*
X85310952Y-66809523D01*
X85358571Y-66761904D01*
X85406190Y-66666666D01*
X85406190Y-66285714D01*
X84882380Y-67190476D02*
X84882380Y-67809523D01*
X85263333Y-67476190D01*
X85263333Y-67619047D01*
X85310952Y-67714285D01*
X85358571Y-67761904D01*
X85453809Y-67809523D01*
X85691904Y-67809523D01*
X85787142Y-67761904D01*
X85834761Y-67714285D01*
X85882380Y-67619047D01*
X85882380Y-67333333D01*
X85834761Y-67238095D01*
X85787142Y-67190476D01*
X84977619Y-68190476D02*
X84930000Y-68238095D01*
X84882380Y-68333333D01*
X84882380Y-68571428D01*
X84930000Y-68666666D01*
X84977619Y-68714285D01*
X85072857Y-68761904D01*
X85168095Y-68761904D01*
X85310952Y-68714285D01*
X85882380Y-68142857D01*
X85882380Y-68761904D01*
X85882380Y-71844642D02*
X85406190Y-71511309D01*
X85882380Y-71273214D02*
X84882380Y-71273214D01*
X84882380Y-71654166D01*
X84930000Y-71749404D01*
X84977619Y-71797023D01*
X85072857Y-71844642D01*
X85215714Y-71844642D01*
X85310952Y-71797023D01*
X85358571Y-71749404D01*
X85406190Y-71654166D01*
X85406190Y-71273214D01*
X84882380Y-72177976D02*
X84882380Y-72797023D01*
X85263333Y-72463690D01*
X85263333Y-72606547D01*
X85310952Y-72701785D01*
X85358571Y-72749404D01*
X85453809Y-72797023D01*
X85691904Y-72797023D01*
X85787142Y-72749404D01*
X85834761Y-72701785D01*
X85882380Y-72606547D01*
X85882380Y-72320833D01*
X85834761Y-72225595D01*
X85787142Y-72177976D01*
X85882380Y-73749404D02*
X85882380Y-73177976D01*
X85882380Y-73463690D02*
X84882380Y-73463690D01*
X85025238Y-73368452D01*
X85120476Y-73273214D01*
X85168095Y-73177976D01*
X85882380Y-76869642D02*
X85406190Y-76536309D01*
X85882380Y-76298214D02*
X84882380Y-76298214D01*
X84882380Y-76679166D01*
X84930000Y-76774404D01*
X84977619Y-76822023D01*
X85072857Y-76869642D01*
X85215714Y-76869642D01*
X85310952Y-76822023D01*
X85358571Y-76774404D01*
X85406190Y-76679166D01*
X85406190Y-76298214D01*
X84882380Y-77202976D02*
X84882380Y-77822023D01*
X85263333Y-77488690D01*
X85263333Y-77631547D01*
X85310952Y-77726785D01*
X85358571Y-77774404D01*
X85453809Y-77822023D01*
X85691904Y-77822023D01*
X85787142Y-77774404D01*
X85834761Y-77726785D01*
X85882380Y-77631547D01*
X85882380Y-77345833D01*
X85834761Y-77250595D01*
X85787142Y-77202976D01*
X84882380Y-78441071D02*
X84882380Y-78536309D01*
X84930000Y-78631547D01*
X84977619Y-78679166D01*
X85072857Y-78726785D01*
X85263333Y-78774404D01*
X85501428Y-78774404D01*
X85691904Y-78726785D01*
X85787142Y-78679166D01*
X85834761Y-78631547D01*
X85882380Y-78536309D01*
X85882380Y-78441071D01*
X85834761Y-78345833D01*
X85787142Y-78298214D01*
X85691904Y-78250595D01*
X85501428Y-78202976D01*
X85263333Y-78202976D01*
X85072857Y-78250595D01*
X84977619Y-78298214D01*
X84930000Y-78345833D01*
X84882380Y-78441071D01*
X90882380Y-56857142D02*
X90406190Y-56523809D01*
X90882380Y-56285714D02*
X89882380Y-56285714D01*
X89882380Y-56666666D01*
X89930000Y-56761904D01*
X89977619Y-56809523D01*
X90072857Y-56857142D01*
X90215714Y-56857142D01*
X90310952Y-56809523D01*
X90358571Y-56761904D01*
X90406190Y-56666666D01*
X90406190Y-56285714D01*
X89977619Y-57238095D02*
X89930000Y-57285714D01*
X89882380Y-57380952D01*
X89882380Y-57619047D01*
X89930000Y-57714285D01*
X89977619Y-57761904D01*
X90072857Y-57809523D01*
X90168095Y-57809523D01*
X90310952Y-57761904D01*
X90882380Y-57190476D01*
X90882380Y-57809523D01*
X90882380Y-58285714D02*
X90882380Y-58476190D01*
X90834761Y-58571428D01*
X90787142Y-58619047D01*
X90644285Y-58714285D01*
X90453809Y-58761904D01*
X90072857Y-58761904D01*
X89977619Y-58714285D01*
X89930000Y-58666666D01*
X89882380Y-58571428D01*
X89882380Y-58380952D01*
X89930000Y-58285714D01*
X89977619Y-58238095D01*
X90072857Y-58190476D01*
X90310952Y-58190476D01*
X90406190Y-58238095D01*
X90453809Y-58285714D01*
X90501428Y-58380952D01*
X90501428Y-58571428D01*
X90453809Y-58666666D01*
X90406190Y-58714285D01*
X90310952Y-58761904D01*
X90882380Y-61857142D02*
X90406190Y-61523809D01*
X90882380Y-61285714D02*
X89882380Y-61285714D01*
X89882380Y-61666666D01*
X89930000Y-61761904D01*
X89977619Y-61809523D01*
X90072857Y-61857142D01*
X90215714Y-61857142D01*
X90310952Y-61809523D01*
X90358571Y-61761904D01*
X90406190Y-61666666D01*
X90406190Y-61285714D01*
X89977619Y-62238095D02*
X89930000Y-62285714D01*
X89882380Y-62380952D01*
X89882380Y-62619047D01*
X89930000Y-62714285D01*
X89977619Y-62761904D01*
X90072857Y-62809523D01*
X90168095Y-62809523D01*
X90310952Y-62761904D01*
X90882380Y-62190476D01*
X90882380Y-62809523D01*
X90310952Y-63380952D02*
X90263333Y-63285714D01*
X90215714Y-63238095D01*
X90120476Y-63190476D01*
X90072857Y-63190476D01*
X89977619Y-63238095D01*
X89930000Y-63285714D01*
X89882380Y-63380952D01*
X89882380Y-63571428D01*
X89930000Y-63666666D01*
X89977619Y-63714285D01*
X90072857Y-63761904D01*
X90120476Y-63761904D01*
X90215714Y-63714285D01*
X90263333Y-63666666D01*
X90310952Y-63571428D01*
X90310952Y-63380952D01*
X90358571Y-63285714D01*
X90406190Y-63238095D01*
X90501428Y-63190476D01*
X90691904Y-63190476D01*
X90787142Y-63238095D01*
X90834761Y-63285714D01*
X90882380Y-63380952D01*
X90882380Y-63571428D01*
X90834761Y-63666666D01*
X90787142Y-63714285D01*
X90691904Y-63761904D01*
X90501428Y-63761904D01*
X90406190Y-63714285D01*
X90358571Y-63666666D01*
X90310952Y-63571428D01*
X90882380Y-66857142D02*
X90406190Y-66523809D01*
X90882380Y-66285714D02*
X89882380Y-66285714D01*
X89882380Y-66666666D01*
X89930000Y-66761904D01*
X89977619Y-66809523D01*
X90072857Y-66857142D01*
X90215714Y-66857142D01*
X90310952Y-66809523D01*
X90358571Y-66761904D01*
X90406190Y-66666666D01*
X90406190Y-66285714D01*
X89977619Y-67238095D02*
X89930000Y-67285714D01*
X89882380Y-67380952D01*
X89882380Y-67619047D01*
X89930000Y-67714285D01*
X89977619Y-67761904D01*
X90072857Y-67809523D01*
X90168095Y-67809523D01*
X90310952Y-67761904D01*
X90882380Y-67190476D01*
X90882380Y-67809523D01*
X89882380Y-68142857D02*
X89882380Y-68809523D01*
X90882380Y-68380952D01*
X90882380Y-71857142D02*
X90406190Y-71523809D01*
X90882380Y-71285714D02*
X89882380Y-71285714D01*
X89882380Y-71666666D01*
X89930000Y-71761904D01*
X89977619Y-71809523D01*
X90072857Y-71857142D01*
X90215714Y-71857142D01*
X90310952Y-71809523D01*
X90358571Y-71761904D01*
X90406190Y-71666666D01*
X90406190Y-71285714D01*
X89977619Y-72238095D02*
X89930000Y-72285714D01*
X89882380Y-72380952D01*
X89882380Y-72619047D01*
X89930000Y-72714285D01*
X89977619Y-72761904D01*
X90072857Y-72809523D01*
X90168095Y-72809523D01*
X90310952Y-72761904D01*
X90882380Y-72190476D01*
X90882380Y-72809523D01*
X89882380Y-73666666D02*
X89882380Y-73476190D01*
X89930000Y-73380952D01*
X89977619Y-73333333D01*
X90120476Y-73238095D01*
X90310952Y-73190476D01*
X90691904Y-73190476D01*
X90787142Y-73238095D01*
X90834761Y-73285714D01*
X90882380Y-73380952D01*
X90882380Y-73571428D01*
X90834761Y-73666666D01*
X90787142Y-73714285D01*
X90691904Y-73761904D01*
X90453809Y-73761904D01*
X90358571Y-73714285D01*
X90310952Y-73666666D01*
X90263333Y-73571428D01*
X90263333Y-73380952D01*
X90310952Y-73285714D01*
X90358571Y-73238095D01*
X90453809Y-73190476D01*
X90882380Y-76857142D02*
X90406190Y-76523809D01*
X90882380Y-76285714D02*
X89882380Y-76285714D01*
X89882380Y-76666666D01*
X89930000Y-76761904D01*
X89977619Y-76809523D01*
X90072857Y-76857142D01*
X90215714Y-76857142D01*
X90310952Y-76809523D01*
X90358571Y-76761904D01*
X90406190Y-76666666D01*
X90406190Y-76285714D01*
X89977619Y-77238095D02*
X89930000Y-77285714D01*
X89882380Y-77380952D01*
X89882380Y-77619047D01*
X89930000Y-77714285D01*
X89977619Y-77761904D01*
X90072857Y-77809523D01*
X90168095Y-77809523D01*
X90310952Y-77761904D01*
X90882380Y-77190476D01*
X90882380Y-77809523D01*
X89882380Y-78714285D02*
X89882380Y-78238095D01*
X90358571Y-78190476D01*
X90310952Y-78238095D01*
X90263333Y-78333333D01*
X90263333Y-78571428D01*
X90310952Y-78666666D01*
X90358571Y-78714285D01*
X90453809Y-78761904D01*
X90691904Y-78761904D01*
X90787142Y-78714285D01*
X90834761Y-78666666D01*
X90882380Y-78571428D01*
X90882380Y-78333333D01*
X90834761Y-78238095D01*
X90787142Y-78190476D01*
X95882380Y-56857142D02*
X95406190Y-56523809D01*
X95882380Y-56285714D02*
X94882380Y-56285714D01*
X94882380Y-56666666D01*
X94930000Y-56761904D01*
X94977619Y-56809523D01*
X95072857Y-56857142D01*
X95215714Y-56857142D01*
X95310952Y-56809523D01*
X95358571Y-56761904D01*
X95406190Y-56666666D01*
X95406190Y-56285714D01*
X94977619Y-57238095D02*
X94930000Y-57285714D01*
X94882380Y-57380952D01*
X94882380Y-57619047D01*
X94930000Y-57714285D01*
X94977619Y-57761904D01*
X95072857Y-57809523D01*
X95168095Y-57809523D01*
X95310952Y-57761904D01*
X95882380Y-57190476D01*
X95882380Y-57809523D01*
X95215714Y-58666666D02*
X95882380Y-58666666D01*
X94834761Y-58428571D02*
X95549047Y-58190476D01*
X95549047Y-58809523D01*
X95882380Y-66857142D02*
X95406190Y-66523809D01*
X95882380Y-66285714D02*
X94882380Y-66285714D01*
X94882380Y-66666666D01*
X94930000Y-66761904D01*
X94977619Y-66809523D01*
X95072857Y-66857142D01*
X95215714Y-66857142D01*
X95310952Y-66809523D01*
X95358571Y-66761904D01*
X95406190Y-66666666D01*
X95406190Y-66285714D01*
X94977619Y-67238095D02*
X94930000Y-67285714D01*
X94882380Y-67380952D01*
X94882380Y-67619047D01*
X94930000Y-67714285D01*
X94977619Y-67761904D01*
X95072857Y-67809523D01*
X95168095Y-67809523D01*
X95310952Y-67761904D01*
X95882380Y-67190476D01*
X95882380Y-67809523D01*
X94882380Y-68142857D02*
X94882380Y-68761904D01*
X95263333Y-68428571D01*
X95263333Y-68571428D01*
X95310952Y-68666666D01*
X95358571Y-68714285D01*
X95453809Y-68761904D01*
X95691904Y-68761904D01*
X95787142Y-68714285D01*
X95834761Y-68666666D01*
X95882380Y-68571428D01*
X95882380Y-68285714D01*
X95834761Y-68190476D01*
X95787142Y-68142857D01*
X90882380Y-81857142D02*
X90406190Y-81523809D01*
X90882380Y-81285714D02*
X89882380Y-81285714D01*
X89882380Y-81666666D01*
X89930000Y-81761904D01*
X89977619Y-81809523D01*
X90072857Y-81857142D01*
X90215714Y-81857142D01*
X90310952Y-81809523D01*
X90358571Y-81761904D01*
X90406190Y-81666666D01*
X90406190Y-81285714D01*
X89977619Y-82238095D02*
X89930000Y-82285714D01*
X89882380Y-82380952D01*
X89882380Y-82619047D01*
X89930000Y-82714285D01*
X89977619Y-82761904D01*
X90072857Y-82809523D01*
X90168095Y-82809523D01*
X90310952Y-82761904D01*
X90882380Y-82190476D01*
X90882380Y-82809523D01*
X89977619Y-83190476D02*
X89930000Y-83238095D01*
X89882380Y-83333333D01*
X89882380Y-83571428D01*
X89930000Y-83666666D01*
X89977619Y-83714285D01*
X90072857Y-83761904D01*
X90168095Y-83761904D01*
X90310952Y-83714285D01*
X90882380Y-83142857D01*
X90882380Y-83761904D01*
X95882380Y-61844642D02*
X95406190Y-61511309D01*
X95882380Y-61273214D02*
X94882380Y-61273214D01*
X94882380Y-61654166D01*
X94930000Y-61749404D01*
X94977619Y-61797023D01*
X95072857Y-61844642D01*
X95215714Y-61844642D01*
X95310952Y-61797023D01*
X95358571Y-61749404D01*
X95406190Y-61654166D01*
X95406190Y-61273214D01*
X94977619Y-62225595D02*
X94930000Y-62273214D01*
X94882380Y-62368452D01*
X94882380Y-62606547D01*
X94930000Y-62701785D01*
X94977619Y-62749404D01*
X95072857Y-62797023D01*
X95168095Y-62797023D01*
X95310952Y-62749404D01*
X95882380Y-62177976D01*
X95882380Y-62797023D01*
X95882380Y-63749404D02*
X95882380Y-63177976D01*
X95882380Y-63463690D02*
X94882380Y-63463690D01*
X95025238Y-63368452D01*
X95120476Y-63273214D01*
X95168095Y-63177976D01*
X95882380Y-71857142D02*
X95406190Y-71523809D01*
X95882380Y-71285714D02*
X94882380Y-71285714D01*
X94882380Y-71666666D01*
X94930000Y-71761904D01*
X94977619Y-71809523D01*
X95072857Y-71857142D01*
X95215714Y-71857142D01*
X95310952Y-71809523D01*
X95358571Y-71761904D01*
X95406190Y-71666666D01*
X95406190Y-71285714D01*
X94977619Y-72238095D02*
X94930000Y-72285714D01*
X94882380Y-72380952D01*
X94882380Y-72619047D01*
X94930000Y-72714285D01*
X94977619Y-72761904D01*
X95072857Y-72809523D01*
X95168095Y-72809523D01*
X95310952Y-72761904D01*
X95882380Y-72190476D01*
X95882380Y-72809523D01*
X94882380Y-73428571D02*
X94882380Y-73523809D01*
X94930000Y-73619047D01*
X94977619Y-73666666D01*
X95072857Y-73714285D01*
X95263333Y-73761904D01*
X95501428Y-73761904D01*
X95691904Y-73714285D01*
X95787142Y-73666666D01*
X95834761Y-73619047D01*
X95882380Y-73523809D01*
X95882380Y-73428571D01*
X95834761Y-73333333D01*
X95787142Y-73285714D01*
X95691904Y-73238095D01*
X95501428Y-73190476D01*
X95263333Y-73190476D01*
X95072857Y-73238095D01*
X94977619Y-73285714D01*
X94930000Y-73333333D01*
X94882380Y-73428571D01*
X95882380Y-76857142D02*
X95406190Y-76523809D01*
X95882380Y-76285714D02*
X94882380Y-76285714D01*
X94882380Y-76666666D01*
X94930000Y-76761904D01*
X94977619Y-76809523D01*
X95072857Y-76857142D01*
X95215714Y-76857142D01*
X95310952Y-76809523D01*
X95358571Y-76761904D01*
X95406190Y-76666666D01*
X95406190Y-76285714D01*
X95882380Y-77809523D02*
X95882380Y-77238095D01*
X95882380Y-77523809D02*
X94882380Y-77523809D01*
X95025238Y-77428571D01*
X95120476Y-77333333D01*
X95168095Y-77238095D01*
X95882380Y-78285714D02*
X95882380Y-78476190D01*
X95834761Y-78571428D01*
X95787142Y-78619047D01*
X95644285Y-78714285D01*
X95453809Y-78761904D01*
X95072857Y-78761904D01*
X94977619Y-78714285D01*
X94930000Y-78666666D01*
X94882380Y-78571428D01*
X94882380Y-78380952D01*
X94930000Y-78285714D01*
X94977619Y-78238095D01*
X95072857Y-78190476D01*
X95310952Y-78190476D01*
X95406190Y-78238095D01*
X95453809Y-78285714D01*
X95501428Y-78380952D01*
X95501428Y-78571428D01*
X95453809Y-78666666D01*
X95406190Y-78714285D01*
X95310952Y-78761904D01*
X95882380Y-81857142D02*
X95406190Y-81523809D01*
X95882380Y-81285714D02*
X94882380Y-81285714D01*
X94882380Y-81666666D01*
X94930000Y-81761904D01*
X94977619Y-81809523D01*
X95072857Y-81857142D01*
X95215714Y-81857142D01*
X95310952Y-81809523D01*
X95358571Y-81761904D01*
X95406190Y-81666666D01*
X95406190Y-81285714D01*
X95882380Y-82809523D02*
X95882380Y-82238095D01*
X95882380Y-82523809D02*
X94882380Y-82523809D01*
X95025238Y-82428571D01*
X95120476Y-82333333D01*
X95168095Y-82238095D01*
X95310952Y-83380952D02*
X95263333Y-83285714D01*
X95215714Y-83238095D01*
X95120476Y-83190476D01*
X95072857Y-83190476D01*
X94977619Y-83238095D01*
X94930000Y-83285714D01*
X94882380Y-83380952D01*
X94882380Y-83571428D01*
X94930000Y-83666666D01*
X94977619Y-83714285D01*
X95072857Y-83761904D01*
X95120476Y-83761904D01*
X95215714Y-83714285D01*
X95263333Y-83666666D01*
X95310952Y-83571428D01*
X95310952Y-83380952D01*
X95358571Y-83285714D01*
X95406190Y-83238095D01*
X95501428Y-83190476D01*
X95691904Y-83190476D01*
X95787142Y-83238095D01*
X95834761Y-83285714D01*
X95882380Y-83380952D01*
X95882380Y-83571428D01*
X95834761Y-83666666D01*
X95787142Y-83714285D01*
X95691904Y-83761904D01*
X95501428Y-83761904D01*
X95406190Y-83714285D01*
X95358571Y-83666666D01*
X95310952Y-83571428D01*
X95882380Y-86844642D02*
X95406190Y-86511309D01*
X95882380Y-86273214D02*
X94882380Y-86273214D01*
X94882380Y-86654166D01*
X94930000Y-86749404D01*
X94977619Y-86797023D01*
X95072857Y-86844642D01*
X95215714Y-86844642D01*
X95310952Y-86797023D01*
X95358571Y-86749404D01*
X95406190Y-86654166D01*
X95406190Y-86273214D01*
X95882380Y-87797023D02*
X95882380Y-87225595D01*
X95882380Y-87511309D02*
X94882380Y-87511309D01*
X95025238Y-87416071D01*
X95120476Y-87320833D01*
X95168095Y-87225595D01*
X94882380Y-88130357D02*
X94882380Y-88797023D01*
X95882380Y-88368452D01*
X60882380Y-86857142D02*
X60406190Y-86523809D01*
X60882380Y-86285714D02*
X59882380Y-86285714D01*
X59882380Y-86666666D01*
X59930000Y-86761904D01*
X59977619Y-86809523D01*
X60072857Y-86857142D01*
X60215714Y-86857142D01*
X60310952Y-86809523D01*
X60358571Y-86761904D01*
X60406190Y-86666666D01*
X60406190Y-86285714D01*
X60882380Y-87809523D02*
X60882380Y-87238095D01*
X60882380Y-87523809D02*
X59882380Y-87523809D01*
X60025238Y-87428571D01*
X60120476Y-87333333D01*
X60168095Y-87238095D01*
X59882380Y-88666666D02*
X59882380Y-88476190D01*
X59930000Y-88380952D01*
X59977619Y-88333333D01*
X60120476Y-88238095D01*
X60310952Y-88190476D01*
X60691904Y-88190476D01*
X60787142Y-88238095D01*
X60834761Y-88285714D01*
X60882380Y-88380952D01*
X60882380Y-88571428D01*
X60834761Y-88666666D01*
X60787142Y-88714285D01*
X60691904Y-88761904D01*
X60453809Y-88761904D01*
X60358571Y-88714285D01*
X60310952Y-88666666D01*
X60263333Y-88571428D01*
X60263333Y-88380952D01*
X60310952Y-88285714D01*
X60358571Y-88238095D01*
X60453809Y-88190476D01*
X65882380Y-86869642D02*
X65406190Y-86536309D01*
X65882380Y-86298214D02*
X64882380Y-86298214D01*
X64882380Y-86679166D01*
X64930000Y-86774404D01*
X64977619Y-86822023D01*
X65072857Y-86869642D01*
X65215714Y-86869642D01*
X65310952Y-86822023D01*
X65358571Y-86774404D01*
X65406190Y-86679166D01*
X65406190Y-86298214D01*
X65882380Y-87822023D02*
X65882380Y-87250595D01*
X65882380Y-87536309D02*
X64882380Y-87536309D01*
X65025238Y-87441071D01*
X65120476Y-87345833D01*
X65168095Y-87250595D01*
X64882380Y-88726785D02*
X64882380Y-88250595D01*
X65358571Y-88202976D01*
X65310952Y-88250595D01*
X65263333Y-88345833D01*
X65263333Y-88583928D01*
X65310952Y-88679166D01*
X65358571Y-88726785D01*
X65453809Y-88774404D01*
X65691904Y-88774404D01*
X65787142Y-88726785D01*
X65834761Y-88679166D01*
X65882380Y-88583928D01*
X65882380Y-88345833D01*
X65834761Y-88250595D01*
X65787142Y-88202976D01*
X70882380Y-86857142D02*
X70406190Y-86523809D01*
X70882380Y-86285714D02*
X69882380Y-86285714D01*
X69882380Y-86666666D01*
X69930000Y-86761904D01*
X69977619Y-86809523D01*
X70072857Y-86857142D01*
X70215714Y-86857142D01*
X70310952Y-86809523D01*
X70358571Y-86761904D01*
X70406190Y-86666666D01*
X70406190Y-86285714D01*
X70882380Y-87809523D02*
X70882380Y-87238095D01*
X70882380Y-87523809D02*
X69882380Y-87523809D01*
X70025238Y-87428571D01*
X70120476Y-87333333D01*
X70168095Y-87238095D01*
X70215714Y-88666666D02*
X70882380Y-88666666D01*
X69834761Y-88428571D02*
X70549047Y-88190476D01*
X70549047Y-88809523D01*
X75882380Y-86857142D02*
X75406190Y-86523809D01*
X75882380Y-86285714D02*
X74882380Y-86285714D01*
X74882380Y-86666666D01*
X74930000Y-86761904D01*
X74977619Y-86809523D01*
X75072857Y-86857142D01*
X75215714Y-86857142D01*
X75310952Y-86809523D01*
X75358571Y-86761904D01*
X75406190Y-86666666D01*
X75406190Y-86285714D01*
X75882380Y-87809523D02*
X75882380Y-87238095D01*
X75882380Y-87523809D02*
X74882380Y-87523809D01*
X75025238Y-87428571D01*
X75120476Y-87333333D01*
X75168095Y-87238095D01*
X74882380Y-88142857D02*
X74882380Y-88761904D01*
X75263333Y-88428571D01*
X75263333Y-88571428D01*
X75310952Y-88666666D01*
X75358571Y-88714285D01*
X75453809Y-88761904D01*
X75691904Y-88761904D01*
X75787142Y-88714285D01*
X75834761Y-88666666D01*
X75882380Y-88571428D01*
X75882380Y-88285714D01*
X75834761Y-88190476D01*
X75787142Y-88142857D01*
X80882380Y-86857142D02*
X80406190Y-86523809D01*
X80882380Y-86285714D02*
X79882380Y-86285714D01*
X79882380Y-86666666D01*
X79930000Y-86761904D01*
X79977619Y-86809523D01*
X80072857Y-86857142D01*
X80215714Y-86857142D01*
X80310952Y-86809523D01*
X80358571Y-86761904D01*
X80406190Y-86666666D01*
X80406190Y-86285714D01*
X80882380Y-87809523D02*
X80882380Y-87238095D01*
X80882380Y-87523809D02*
X79882380Y-87523809D01*
X80025238Y-87428571D01*
X80120476Y-87333333D01*
X80168095Y-87238095D01*
X79977619Y-88190476D02*
X79930000Y-88238095D01*
X79882380Y-88333333D01*
X79882380Y-88571428D01*
X79930000Y-88666666D01*
X79977619Y-88714285D01*
X80072857Y-88761904D01*
X80168095Y-88761904D01*
X80310952Y-88714285D01*
X80882380Y-88142857D01*
X80882380Y-88761904D01*
X85882380Y-86857142D02*
X85406190Y-86523809D01*
X85882380Y-86285714D02*
X84882380Y-86285714D01*
X84882380Y-86666666D01*
X84930000Y-86761904D01*
X84977619Y-86809523D01*
X85072857Y-86857142D01*
X85215714Y-86857142D01*
X85310952Y-86809523D01*
X85358571Y-86761904D01*
X85406190Y-86666666D01*
X85406190Y-86285714D01*
X85882380Y-87809523D02*
X85882380Y-87238095D01*
X85882380Y-87523809D02*
X84882380Y-87523809D01*
X85025238Y-87428571D01*
X85120476Y-87333333D01*
X85168095Y-87238095D01*
X85882380Y-88761904D02*
X85882380Y-88190476D01*
X85882380Y-88476190D02*
X84882380Y-88476190D01*
X85025238Y-88380952D01*
X85120476Y-88285714D01*
X85168095Y-88190476D01*
X85882380Y-81844642D02*
X85406190Y-81511309D01*
X85882380Y-81273214D02*
X84882380Y-81273214D01*
X84882380Y-81654166D01*
X84930000Y-81749404D01*
X84977619Y-81797023D01*
X85072857Y-81844642D01*
X85215714Y-81844642D01*
X85310952Y-81797023D01*
X85358571Y-81749404D01*
X85406190Y-81654166D01*
X85406190Y-81273214D01*
X85882380Y-82797023D02*
X85882380Y-82225595D01*
X85882380Y-82511309D02*
X84882380Y-82511309D01*
X85025238Y-82416071D01*
X85120476Y-82320833D01*
X85168095Y-82225595D01*
X84882380Y-83416071D02*
X84882380Y-83511309D01*
X84930000Y-83606547D01*
X84977619Y-83654166D01*
X85072857Y-83701785D01*
X85263333Y-83749404D01*
X85501428Y-83749404D01*
X85691904Y-83701785D01*
X85787142Y-83654166D01*
X85834761Y-83606547D01*
X85882380Y-83511309D01*
X85882380Y-83416071D01*
X85834761Y-83320833D01*
X85787142Y-83273214D01*
X85691904Y-83225595D01*
X85501428Y-83177976D01*
X85263333Y-83177976D01*
X85072857Y-83225595D01*
X84977619Y-83273214D01*
X84930000Y-83320833D01*
X84882380Y-83416071D01*
X90882380Y-87333333D02*
X90406190Y-87000000D01*
X90882380Y-86761904D02*
X89882380Y-86761904D01*
X89882380Y-87142857D01*
X89930000Y-87238095D01*
X89977619Y-87285714D01*
X90072857Y-87333333D01*
X90215714Y-87333333D01*
X90310952Y-87285714D01*
X90358571Y-87238095D01*
X90406190Y-87142857D01*
X90406190Y-86761904D01*
X90882380Y-87809523D02*
X90882380Y-88000000D01*
X90834761Y-88095238D01*
X90787142Y-88142857D01*
X90644285Y-88238095D01*
X90453809Y-88285714D01*
X90072857Y-88285714D01*
X89977619Y-88238095D01*
X89930000Y-88190476D01*
X89882380Y-88095238D01*
X89882380Y-87904761D01*
X89930000Y-87809523D01*
X89977619Y-87761904D01*
X90072857Y-87714285D01*
X90310952Y-87714285D01*
X90406190Y-87761904D01*
X90453809Y-87809523D01*
X90501428Y-87904761D01*
X90501428Y-88095238D01*
X90453809Y-88190476D01*
X90406190Y-88238095D01*
X90310952Y-88285714D01*
X60882380Y-92333333D02*
X60406190Y-92000000D01*
X60882380Y-91761904D02*
X59882380Y-91761904D01*
X59882380Y-92142857D01*
X59930000Y-92238095D01*
X59977619Y-92285714D01*
X60072857Y-92333333D01*
X60215714Y-92333333D01*
X60310952Y-92285714D01*
X60358571Y-92238095D01*
X60406190Y-92142857D01*
X60406190Y-91761904D01*
X60310952Y-92904761D02*
X60263333Y-92809523D01*
X60215714Y-92761904D01*
X60120476Y-92714285D01*
X60072857Y-92714285D01*
X59977619Y-92761904D01*
X59930000Y-92809523D01*
X59882380Y-92904761D01*
X59882380Y-93095238D01*
X59930000Y-93190476D01*
X59977619Y-93238095D01*
X60072857Y-93285714D01*
X60120476Y-93285714D01*
X60215714Y-93238095D01*
X60263333Y-93190476D01*
X60310952Y-93095238D01*
X60310952Y-92904761D01*
X60358571Y-92809523D01*
X60406190Y-92761904D01*
X60501428Y-92714285D01*
X60691904Y-92714285D01*
X60787142Y-92761904D01*
X60834761Y-92809523D01*
X60882380Y-92904761D01*
X60882380Y-93095238D01*
X60834761Y-93190476D01*
X60787142Y-93238095D01*
X60691904Y-93285714D01*
X60501428Y-93285714D01*
X60406190Y-93238095D01*
X60358571Y-93190476D01*
X60310952Y-93095238D01*
X65882380Y-92333333D02*
X65406190Y-92000000D01*
X65882380Y-91761904D02*
X64882380Y-91761904D01*
X64882380Y-92142857D01*
X64930000Y-92238095D01*
X64977619Y-92285714D01*
X65072857Y-92333333D01*
X65215714Y-92333333D01*
X65310952Y-92285714D01*
X65358571Y-92238095D01*
X65406190Y-92142857D01*
X65406190Y-91761904D01*
X64882380Y-92666666D02*
X64882380Y-93333333D01*
X65882380Y-92904761D01*
X70882380Y-92320833D02*
X70406190Y-91987500D01*
X70882380Y-91749404D02*
X69882380Y-91749404D01*
X69882380Y-92130357D01*
X69930000Y-92225595D01*
X69977619Y-92273214D01*
X70072857Y-92320833D01*
X70215714Y-92320833D01*
X70310952Y-92273214D01*
X70358571Y-92225595D01*
X70406190Y-92130357D01*
X70406190Y-91749404D01*
X69882380Y-93177976D02*
X69882380Y-92987500D01*
X69930000Y-92892261D01*
X69977619Y-92844642D01*
X70120476Y-92749404D01*
X70310952Y-92701785D01*
X70691904Y-92701785D01*
X70787142Y-92749404D01*
X70834761Y-92797023D01*
X70882380Y-92892261D01*
X70882380Y-93082738D01*
X70834761Y-93177976D01*
X70787142Y-93225595D01*
X70691904Y-93273214D01*
X70453809Y-93273214D01*
X70358571Y-93225595D01*
X70310952Y-93177976D01*
X70263333Y-93082738D01*
X70263333Y-92892261D01*
X70310952Y-92797023D01*
X70358571Y-92749404D01*
X70453809Y-92701785D01*
X75882380Y-92333333D02*
X75406190Y-92000000D01*
X75882380Y-91761904D02*
X74882380Y-91761904D01*
X74882380Y-92142857D01*
X74930000Y-92238095D01*
X74977619Y-92285714D01*
X75072857Y-92333333D01*
X75215714Y-92333333D01*
X75310952Y-92285714D01*
X75358571Y-92238095D01*
X75406190Y-92142857D01*
X75406190Y-91761904D01*
X74882380Y-93238095D02*
X74882380Y-92761904D01*
X75358571Y-92714285D01*
X75310952Y-92761904D01*
X75263333Y-92857142D01*
X75263333Y-93095238D01*
X75310952Y-93190476D01*
X75358571Y-93238095D01*
X75453809Y-93285714D01*
X75691904Y-93285714D01*
X75787142Y-93238095D01*
X75834761Y-93190476D01*
X75882380Y-93095238D01*
X75882380Y-92857142D01*
X75834761Y-92761904D01*
X75787142Y-92714285D01*
X81082380Y-92333333D02*
X80606190Y-92000000D01*
X81082380Y-91761904D02*
X80082380Y-91761904D01*
X80082380Y-92142857D01*
X80130000Y-92238095D01*
X80177619Y-92285714D01*
X80272857Y-92333333D01*
X80415714Y-92333333D01*
X80510952Y-92285714D01*
X80558571Y-92238095D01*
X80606190Y-92142857D01*
X80606190Y-91761904D01*
X80415714Y-93190476D02*
X81082380Y-93190476D01*
X80034761Y-92952380D02*
X80749047Y-92714285D01*
X80749047Y-93333333D01*
X85882380Y-92333333D02*
X85406190Y-92000000D01*
X85882380Y-91761904D02*
X84882380Y-91761904D01*
X84882380Y-92142857D01*
X84930000Y-92238095D01*
X84977619Y-92285714D01*
X85072857Y-92333333D01*
X85215714Y-92333333D01*
X85310952Y-92285714D01*
X85358571Y-92238095D01*
X85406190Y-92142857D01*
X85406190Y-91761904D01*
X84882380Y-92666666D02*
X84882380Y-93285714D01*
X85263333Y-92952380D01*
X85263333Y-93095238D01*
X85310952Y-93190476D01*
X85358571Y-93238095D01*
X85453809Y-93285714D01*
X85691904Y-93285714D01*
X85787142Y-93238095D01*
X85834761Y-93190476D01*
X85882380Y-93095238D01*
X85882380Y-92809523D01*
X85834761Y-92714285D01*
X85787142Y-92666666D01*
X90882380Y-92320833D02*
X90406190Y-91987500D01*
X90882380Y-91749404D02*
X89882380Y-91749404D01*
X89882380Y-92130357D01*
X89930000Y-92225595D01*
X89977619Y-92273214D01*
X90072857Y-92320833D01*
X90215714Y-92320833D01*
X90310952Y-92273214D01*
X90358571Y-92225595D01*
X90406190Y-92130357D01*
X90406190Y-91749404D01*
X89977619Y-92701785D02*
X89930000Y-92749404D01*
X89882380Y-92844642D01*
X89882380Y-93082738D01*
X89930000Y-93177976D01*
X89977619Y-93225595D01*
X90072857Y-93273214D01*
X90168095Y-93273214D01*
X90310952Y-93225595D01*
X90882380Y-92654166D01*
X90882380Y-93273214D01*
X95882380Y-92333333D02*
X95406190Y-92000000D01*
X95882380Y-91761904D02*
X94882380Y-91761904D01*
X94882380Y-92142857D01*
X94930000Y-92238095D01*
X94977619Y-92285714D01*
X95072857Y-92333333D01*
X95215714Y-92333333D01*
X95310952Y-92285714D01*
X95358571Y-92238095D01*
X95406190Y-92142857D01*
X95406190Y-91761904D01*
X95882380Y-93285714D02*
X95882380Y-92714285D01*
X95882380Y-93000000D02*
X94882380Y-93000000D01*
X95025238Y-92904761D01*
X95120476Y-92809523D01*
X95168095Y-92714285D01*
M02*
