M48
; DRILL file {KiCad 5.1.4} date Wed 13 Nov 2019 17:35:58 CET
; FORMAT={-:-/ absolute / metric / decimal}
; #@! TF.CreationDate,2019-11-13T17:35:58+01:00
; #@! TF.GenerationSoftware,Kicad,Pcbnew,5.1.4
FMAT,2
METRIC
T1C0.400
T2C0.650
T3C0.700
%
G90
G05
T1
X51.075Y-98.175
X51.1Y-99.25
X52.125Y-98.175
X52.2Y-99.225
X54.61Y-76.2
X54.61Y-78.486
X54.675Y-94.262
X55.15Y-82.65
X55.19Y-86.22
X55.21Y-89.9
X57.75Y-95.837
X58.654Y-62.3
X59.108Y-70.744
X59.436Y-57.404
X59.436Y-58.42
X59.436Y-59.436
X59.641Y-79.966
X59.641Y-83.566
X59.641Y-87.166
X59.641Y-90.866
X60.9Y-82.15
X61.416Y-56.007
X61.416Y-59.817
X61.416Y-61.087
X61.416Y-62.357
X61.416Y-66.929
X61.416Y-70.739
X61.416Y-72.009
X62.2Y-76.5
X62.9Y-58.55
X63.3Y-68.5
X63.3Y-69.5
X63.312Y-63.6
X63.65Y-72.725
X63.65Y-73.995
X64.5Y-68.5
X64.5Y-69.5
X65.504Y-72.7
X65.609Y-99.14
X65.803Y-77.8
X66.167Y-61.67
X66.241Y-83.566
X66.275Y-90.625
X66.3Y-87.025
X66.503Y-77.078
X67.25Y-75.808
X67.437Y-61.67
X67.439Y-59.362
X68.1Y-74.0
X68.376Y-97.307
X68.8Y-72.75
X69.73Y-89.9
X70.02Y-92.74
X71.247Y-61.67
X72.5Y-58.908
X72.517Y-61.67
X74.76Y-90.17
X74.76Y-92.07
X74.972Y-95.991
X75.0Y-66.2
X75.8Y-58.908
X75.819Y-61.67
X76.023Y-68.2
X76.8Y-58.302
X76.8Y-63.2
X76.96Y-92.07
X77.023Y-68.2
X77.562Y-76.8
X78.15Y-81.6
X78.15Y-83.9
X78.359Y-61.67
X78.361Y-59.362
X79.453Y-67.495
X80.453Y-67.475
X80.8Y-77.6
X80.901Y-70.901
X81.601Y-70.188
X82.0Y-80.25
X82.169Y-61.67
X82.25Y-84.1
X83.095Y-92.924
X83.175Y-77.725
X83.225Y-94.212
X83.4Y-58.908
X83.439Y-61.67
X84.475Y-75.175
X84.853Y-73.5
X85.004Y-92.574
X85.064Y-63.475
X85.75Y-71.35
X86.723Y-58.908
X86.725Y-61.65
X86.908Y-77.853
X87.995Y-61.65
X88.444Y-66.929
X88.444Y-68.199
X88.444Y-72.009
X88.444Y-73.279
X88.444Y-76.581
X88.444Y-79.121
X88.444Y-82.931
X88.444Y-84.201
X88.444Y-87.503
X88.444Y-93.853
X89.265Y-61.65
X90.752Y-79.121
X90.843Y-68.228
X91.206Y-76.6
X91.206Y-84.201
X91.206Y-87.503
X91.297Y-73.3
X93.075Y-61.65
X93.3Y-87.5
X93.3Y-88.775
X93.475Y-79.1
X93.475Y-80.4
X93.973Y-58.2
X94.9Y-99.375
X98.806Y-95.758
T2
X59.77Y-94.8
X61.04Y-94.8
X62.31Y-94.8
X63.58Y-94.8
T3
X51.8Y-51.15
X51.8Y-52.42
X51.8Y-53.69
X51.8Y-54.96
X51.8Y-56.23
X51.8Y-57.5
X51.8Y-58.77
X51.8Y-60.04
X51.8Y-61.31
X51.8Y-62.58
X51.8Y-63.85
X51.8Y-65.12
X51.8Y-66.39
X51.8Y-67.66
X51.8Y-68.93
X51.8Y-70.2
X51.8Y-71.47
X51.8Y-72.74
X51.8Y-74.01
X51.8Y-75.28
X51.8Y-76.55
X51.8Y-77.82
X51.8Y-79.09
X51.8Y-80.36
X51.8Y-81.63
X51.8Y-82.9
X51.8Y-84.17
X51.8Y-85.44
X51.8Y-86.71
X51.8Y-87.98
X51.8Y-89.25
X51.8Y-90.52
X98.2Y-51.18
X98.2Y-52.45
X98.2Y-53.72
X98.2Y-54.99
X98.2Y-56.26
X98.2Y-57.53
X98.2Y-58.8
X98.2Y-60.07
X98.2Y-61.34
X98.2Y-62.61
X98.2Y-63.88
X98.2Y-65.15
X98.2Y-66.42
X98.2Y-67.69
X98.2Y-68.96
X98.2Y-70.23
X98.2Y-71.5
X98.2Y-72.77
X98.2Y-74.04
X98.2Y-75.31
X98.2Y-76.58
X98.2Y-77.85
X98.2Y-79.12
X98.2Y-80.39
X98.2Y-81.66
X98.2Y-82.93
X98.2Y-84.2
X98.2Y-85.47
X98.2Y-86.74
X98.2Y-88.01
X98.2Y-89.28
X98.2Y-90.55
X55.33Y-51.8
X56.6Y-51.8
X57.87Y-51.8
X59.14Y-51.8
X60.41Y-51.8
X61.68Y-51.8
X62.95Y-51.8
X64.22Y-51.8
X65.49Y-51.8
X66.76Y-51.8
X68.03Y-51.8
X69.3Y-51.8
X70.57Y-51.8
X71.84Y-51.8
X73.11Y-51.8
X74.38Y-51.8
X75.65Y-51.8
X76.92Y-51.8
X78.19Y-51.8
X79.46Y-51.8
X80.73Y-51.8
X82.0Y-51.8
X83.27Y-51.8
X84.54Y-51.8
X85.81Y-51.8
X87.08Y-51.8
X88.35Y-51.8
X89.62Y-51.8
X90.89Y-51.8
X92.16Y-51.8
X93.43Y-51.8
X94.7Y-51.8
T2
G00X72.555Y-94.72
M15
G01X72.555Y-94.32
M16
G05
G00X77.395Y-94.72
M15
G01X77.395Y-94.32
M16
G05
T3
G00X72.245Y-97.77
M15
G01X72.245Y-97.27
M16
G05
G00X77.705Y-97.77
M15
G01X77.705Y-97.27
M16
G05
T0
M30
