G04 #@! TF.GenerationSoftware,KiCad,Pcbnew,5.1.4*
G04 #@! TF.CreationDate,2019-11-13T17:36:06+01:00*
G04 #@! TF.ProjectId,cubet_hw,63756265-745f-4687-972e-6b696361645f,rev?*
G04 #@! TF.SameCoordinates,Original*
G04 #@! TF.FileFunction,Soldermask,Bot*
G04 #@! TF.FilePolarity,Negative*
%FSLAX46Y46*%
G04 Gerber Fmt 4.6, Leading zero omitted, Abs format (unit mm)*
G04 Created by KiCad (PCBNEW 5.1.4) date 2019-11-13 17:36:06*
%MOMM*%
%LPD*%
G04 APERTURE LIST*
%ADD10C,0.100000*%
G04 APERTURE END LIST*
D10*
G36*
X72387320Y-96629505D02*
G01*
X72524171Y-96671019D01*
X72524174Y-96671020D01*
X72650293Y-96738432D01*
X72760843Y-96829158D01*
X72851568Y-96939706D01*
X72918980Y-97065825D01*
X72918980Y-97065826D01*
X72918981Y-97065828D01*
X72960495Y-97202679D01*
X72971000Y-97309341D01*
X72971000Y-97730658D01*
X72960495Y-97837320D01*
X72929783Y-97938564D01*
X72918980Y-97974176D01*
X72851568Y-98100294D01*
X72760843Y-98210843D01*
X72650294Y-98301568D01*
X72524175Y-98368980D01*
X72524172Y-98368981D01*
X72387321Y-98410495D01*
X72245000Y-98424512D01*
X72102680Y-98410495D01*
X71965829Y-98368981D01*
X71965826Y-98368980D01*
X71839707Y-98301568D01*
X71729158Y-98210843D01*
X71638432Y-98100294D01*
X71571020Y-97974175D01*
X71571019Y-97974172D01*
X71529505Y-97837321D01*
X71519000Y-97730659D01*
X71519000Y-97309342D01*
X71529505Y-97202680D01*
X71571019Y-97065829D01*
X71571020Y-97065826D01*
X71638432Y-96939707D01*
X71729158Y-96829157D01*
X71839706Y-96738432D01*
X71965825Y-96671020D01*
X71965828Y-96671019D01*
X72102679Y-96629505D01*
X72245000Y-96615488D01*
X72387320Y-96629505D01*
X72387320Y-96629505D01*
G37*
G36*
X77847320Y-96629505D02*
G01*
X77984171Y-96671019D01*
X77984174Y-96671020D01*
X78110293Y-96738432D01*
X78220843Y-96829158D01*
X78311568Y-96939706D01*
X78378980Y-97065825D01*
X78378980Y-97065826D01*
X78378981Y-97065828D01*
X78420495Y-97202679D01*
X78431000Y-97309341D01*
X78431000Y-97730658D01*
X78420495Y-97837320D01*
X78389783Y-97938564D01*
X78378980Y-97974176D01*
X78311568Y-98100294D01*
X78220843Y-98210843D01*
X78110294Y-98301568D01*
X77984175Y-98368980D01*
X77984172Y-98368981D01*
X77847321Y-98410495D01*
X77705000Y-98424512D01*
X77562680Y-98410495D01*
X77425829Y-98368981D01*
X77425826Y-98368980D01*
X77299707Y-98301568D01*
X77189158Y-98210843D01*
X77098432Y-98100294D01*
X77031020Y-97974175D01*
X77031019Y-97974172D01*
X76989505Y-97837321D01*
X76979000Y-97730659D01*
X76979000Y-97309342D01*
X76989505Y-97202680D01*
X77031019Y-97065829D01*
X77031020Y-97065826D01*
X77098432Y-96939707D01*
X77189158Y-96829157D01*
X77299706Y-96738432D01*
X77425825Y-96671020D01*
X77425828Y-96671019D01*
X77562679Y-96629505D01*
X77705000Y-96615488D01*
X77847320Y-96629505D01*
X77847320Y-96629505D01*
G37*
G36*
X59878015Y-94256973D02*
G01*
X59981879Y-94288479D01*
X60009055Y-94303005D01*
X60077600Y-94339643D01*
X60161501Y-94408499D01*
X60230357Y-94492400D01*
X60241662Y-94513551D01*
X60281521Y-94588121D01*
X60285388Y-94600869D01*
X60294760Y-94623496D01*
X60308374Y-94643870D01*
X60325701Y-94661197D01*
X60346075Y-94674811D01*
X60368714Y-94684188D01*
X60392747Y-94688969D01*
X60417251Y-94688969D01*
X60441285Y-94684189D01*
X60463924Y-94674812D01*
X60484298Y-94661198D01*
X60501625Y-94643871D01*
X60515239Y-94623497D01*
X60524612Y-94600869D01*
X60528479Y-94588121D01*
X60568338Y-94513551D01*
X60579643Y-94492400D01*
X60648499Y-94408499D01*
X60732400Y-94339643D01*
X60800945Y-94303005D01*
X60828121Y-94288479D01*
X60931985Y-94256973D01*
X61012933Y-94249000D01*
X61067067Y-94249000D01*
X61148015Y-94256973D01*
X61251879Y-94288479D01*
X61279055Y-94303005D01*
X61347600Y-94339643D01*
X61431501Y-94408499D01*
X61500357Y-94492400D01*
X61511662Y-94513551D01*
X61551521Y-94588121D01*
X61555388Y-94600869D01*
X61564760Y-94623496D01*
X61578374Y-94643870D01*
X61595701Y-94661197D01*
X61616075Y-94674811D01*
X61638714Y-94684188D01*
X61662747Y-94688969D01*
X61687251Y-94688969D01*
X61711285Y-94684189D01*
X61733924Y-94674812D01*
X61754298Y-94661198D01*
X61771625Y-94643871D01*
X61785239Y-94623497D01*
X61794612Y-94600869D01*
X61798479Y-94588121D01*
X61838338Y-94513551D01*
X61849643Y-94492400D01*
X61918499Y-94408499D01*
X62002400Y-94339643D01*
X62070945Y-94303005D01*
X62098121Y-94288479D01*
X62201985Y-94256973D01*
X62282933Y-94249000D01*
X62337067Y-94249000D01*
X62418015Y-94256973D01*
X62521879Y-94288479D01*
X62549055Y-94303005D01*
X62617600Y-94339643D01*
X62701501Y-94408499D01*
X62770356Y-94492400D01*
X62793764Y-94536193D01*
X62807375Y-94556563D01*
X62824702Y-94573890D01*
X62845076Y-94587504D01*
X62867715Y-94596881D01*
X62891748Y-94601662D01*
X62916252Y-94601662D01*
X62940286Y-94596882D01*
X62962924Y-94587505D01*
X62983299Y-94573891D01*
X63000626Y-94556564D01*
X63014240Y-94536190D01*
X63023617Y-94513551D01*
X63028398Y-94489518D01*
X63029000Y-94477265D01*
X63029000Y-94249000D01*
X64131000Y-94249000D01*
X64131000Y-95351000D01*
X63029000Y-95351000D01*
X63029000Y-95122735D01*
X63026598Y-95098349D01*
X63019485Y-95074900D01*
X63007934Y-95053289D01*
X62992389Y-95034347D01*
X62973447Y-95018802D01*
X62951836Y-95007251D01*
X62928387Y-95000138D01*
X62904001Y-94997736D01*
X62879615Y-95000138D01*
X62856166Y-95007251D01*
X62834555Y-95018802D01*
X62815613Y-95034347D01*
X62800068Y-95053289D01*
X62793767Y-95063802D01*
X62770356Y-95107600D01*
X62770355Y-95107601D01*
X62701501Y-95191501D01*
X62617600Y-95260357D01*
X62549055Y-95296995D01*
X62521879Y-95311521D01*
X62418015Y-95343027D01*
X62337067Y-95351000D01*
X62282933Y-95351000D01*
X62201985Y-95343027D01*
X62098121Y-95311521D01*
X62070945Y-95296995D01*
X62002400Y-95260357D01*
X61918499Y-95191501D01*
X61849643Y-95107600D01*
X61810489Y-95034347D01*
X61798479Y-95011879D01*
X61794612Y-94999131D01*
X61785240Y-94976504D01*
X61771626Y-94956130D01*
X61754299Y-94938803D01*
X61733925Y-94925189D01*
X61711286Y-94915812D01*
X61687253Y-94911031D01*
X61662749Y-94911031D01*
X61638715Y-94915811D01*
X61616076Y-94925188D01*
X61595702Y-94938802D01*
X61578375Y-94956129D01*
X61564761Y-94976503D01*
X61555388Y-94999131D01*
X61551521Y-95011879D01*
X61539511Y-95034347D01*
X61500357Y-95107600D01*
X61431501Y-95191501D01*
X61347600Y-95260357D01*
X61279055Y-95296995D01*
X61251879Y-95311521D01*
X61148015Y-95343027D01*
X61067067Y-95351000D01*
X61012933Y-95351000D01*
X60931985Y-95343027D01*
X60828121Y-95311521D01*
X60800945Y-95296995D01*
X60732400Y-95260357D01*
X60648499Y-95191501D01*
X60579643Y-95107600D01*
X60540489Y-95034347D01*
X60528479Y-95011879D01*
X60524612Y-94999131D01*
X60515240Y-94976504D01*
X60501626Y-94956130D01*
X60484299Y-94938803D01*
X60463925Y-94925189D01*
X60441286Y-94915812D01*
X60417253Y-94911031D01*
X60392749Y-94911031D01*
X60368715Y-94915811D01*
X60346076Y-94925188D01*
X60325702Y-94938802D01*
X60308375Y-94956129D01*
X60294761Y-94976503D01*
X60285388Y-94999131D01*
X60281521Y-95011879D01*
X60269511Y-95034347D01*
X60230357Y-95107600D01*
X60161501Y-95191501D01*
X60077600Y-95260357D01*
X60009055Y-95296995D01*
X59981879Y-95311521D01*
X59878015Y-95343027D01*
X59797067Y-95351000D01*
X59742933Y-95351000D01*
X59661985Y-95343027D01*
X59558121Y-95311521D01*
X59530945Y-95296995D01*
X59462400Y-95260357D01*
X59378499Y-95191501D01*
X59309643Y-95107600D01*
X59270489Y-95034347D01*
X59258479Y-95011879D01*
X59226973Y-94908015D01*
X59216334Y-94800000D01*
X59226973Y-94691985D01*
X59258479Y-94588121D01*
X59298338Y-94513551D01*
X59309643Y-94492400D01*
X59378499Y-94408499D01*
X59462400Y-94339643D01*
X59530945Y-94303005D01*
X59558121Y-94288479D01*
X59661985Y-94256973D01*
X59742933Y-94249000D01*
X59797067Y-94249000D01*
X59878015Y-94256973D01*
X59878015Y-94256973D01*
G37*
G36*
X77512817Y-93727696D02*
G01*
X77626104Y-93762062D01*
X77730511Y-93817869D01*
X77730513Y-93817870D01*
X77730512Y-93817870D01*
X77822027Y-93892973D01*
X77885711Y-93970572D01*
X77897131Y-93984488D01*
X77952938Y-94088895D01*
X77987304Y-94202182D01*
X77996000Y-94290481D01*
X77996000Y-94749518D01*
X77987304Y-94837818D01*
X77952938Y-94951105D01*
X77897131Y-95055512D01*
X77822027Y-95147027D01*
X77730512Y-95222131D01*
X77626105Y-95277938D01*
X77512818Y-95312304D01*
X77395000Y-95323907D01*
X77277183Y-95312304D01*
X77163896Y-95277938D01*
X77059489Y-95222131D01*
X76967974Y-95147027D01*
X76892869Y-95055512D01*
X76837062Y-94951105D01*
X76802696Y-94837818D01*
X76794000Y-94749519D01*
X76794000Y-94290482D01*
X76802696Y-94202183D01*
X76837062Y-94088896D01*
X76892869Y-93984489D01*
X76906338Y-93968077D01*
X76967973Y-93892973D01*
X77059487Y-93817870D01*
X77059486Y-93817870D01*
X77059488Y-93817869D01*
X77163895Y-93762062D01*
X77277182Y-93727696D01*
X77395000Y-93716093D01*
X77512817Y-93727696D01*
X77512817Y-93727696D01*
G37*
G36*
X72672817Y-93727696D02*
G01*
X72786104Y-93762062D01*
X72890511Y-93817869D01*
X72890513Y-93817870D01*
X72890512Y-93817870D01*
X72982027Y-93892973D01*
X73045711Y-93970572D01*
X73057131Y-93984488D01*
X73112938Y-94088895D01*
X73147304Y-94202182D01*
X73156000Y-94290481D01*
X73156000Y-94749518D01*
X73147304Y-94837818D01*
X73112938Y-94951105D01*
X73057131Y-95055512D01*
X72982027Y-95147027D01*
X72890512Y-95222131D01*
X72786105Y-95277938D01*
X72672818Y-95312304D01*
X72555000Y-95323907D01*
X72437183Y-95312304D01*
X72323896Y-95277938D01*
X72219489Y-95222131D01*
X72127974Y-95147027D01*
X72052869Y-95055512D01*
X71997062Y-94951105D01*
X71962696Y-94837818D01*
X71954000Y-94749519D01*
X71954000Y-94290482D01*
X71962696Y-94202183D01*
X71997062Y-94088896D01*
X72052869Y-93984489D01*
X72066338Y-93968077D01*
X72127973Y-93892973D01*
X72219487Y-93817870D01*
X72219486Y-93817870D01*
X72219488Y-93817869D01*
X72323895Y-93762062D01*
X72437182Y-93727696D01*
X72555000Y-93716093D01*
X72672817Y-93727696D01*
X72672817Y-93727696D01*
G37*
G36*
X98308015Y-50636973D02*
G01*
X98411879Y-50668479D01*
X98439055Y-50683005D01*
X98507600Y-50719643D01*
X98591501Y-50788499D01*
X98660357Y-50872400D01*
X98696995Y-50940945D01*
X98711521Y-50968121D01*
X98743027Y-51071985D01*
X98753666Y-51180000D01*
X98743027Y-51288015D01*
X98711521Y-51391879D01*
X98711519Y-51391882D01*
X98660357Y-51487600D01*
X98591501Y-51571501D01*
X98507600Y-51640357D01*
X98443141Y-51674811D01*
X98411879Y-51691521D01*
X98399131Y-51695388D01*
X98376504Y-51704760D01*
X98356130Y-51718374D01*
X98338803Y-51735701D01*
X98325189Y-51756075D01*
X98315812Y-51778714D01*
X98311031Y-51802747D01*
X98311031Y-51827251D01*
X98315811Y-51851285D01*
X98325188Y-51873924D01*
X98338802Y-51894298D01*
X98356129Y-51911625D01*
X98376503Y-51925239D01*
X98399131Y-51934612D01*
X98411879Y-51938479D01*
X98439055Y-51953005D01*
X98507600Y-51989643D01*
X98591501Y-52058499D01*
X98660357Y-52142400D01*
X98686602Y-52191501D01*
X98711521Y-52238121D01*
X98743027Y-52341985D01*
X98753666Y-52450000D01*
X98743027Y-52558015D01*
X98711521Y-52661879D01*
X98711519Y-52661882D01*
X98660357Y-52757600D01*
X98591501Y-52841501D01*
X98507600Y-52910357D01*
X98460779Y-52935383D01*
X98411879Y-52961521D01*
X98399131Y-52965388D01*
X98376504Y-52974760D01*
X98356130Y-52988374D01*
X98338803Y-53005701D01*
X98325189Y-53026075D01*
X98315812Y-53048714D01*
X98311031Y-53072747D01*
X98311031Y-53097251D01*
X98315811Y-53121285D01*
X98325188Y-53143924D01*
X98338802Y-53164298D01*
X98356129Y-53181625D01*
X98376503Y-53195239D01*
X98399131Y-53204612D01*
X98411879Y-53208479D01*
X98439055Y-53223005D01*
X98507600Y-53259643D01*
X98591501Y-53328499D01*
X98660357Y-53412400D01*
X98695484Y-53478118D01*
X98711521Y-53508121D01*
X98743027Y-53611985D01*
X98753666Y-53720000D01*
X98743027Y-53828015D01*
X98711521Y-53931879D01*
X98711519Y-53931882D01*
X98660357Y-54027600D01*
X98591501Y-54111501D01*
X98507600Y-54180357D01*
X98460779Y-54205383D01*
X98411879Y-54231521D01*
X98399131Y-54235388D01*
X98376504Y-54244760D01*
X98356130Y-54258374D01*
X98338803Y-54275701D01*
X98325189Y-54296075D01*
X98315812Y-54318714D01*
X98311031Y-54342747D01*
X98311031Y-54367251D01*
X98315811Y-54391285D01*
X98325188Y-54413924D01*
X98338802Y-54434298D01*
X98356129Y-54451625D01*
X98376503Y-54465239D01*
X98399131Y-54474612D01*
X98411879Y-54478479D01*
X98439055Y-54493005D01*
X98507600Y-54529643D01*
X98591501Y-54598499D01*
X98660357Y-54682400D01*
X98695484Y-54748118D01*
X98711521Y-54778121D01*
X98743027Y-54881985D01*
X98753666Y-54990000D01*
X98743027Y-55098015D01*
X98711521Y-55201879D01*
X98711519Y-55201882D01*
X98660357Y-55297600D01*
X98591501Y-55381501D01*
X98507600Y-55450357D01*
X98460779Y-55475383D01*
X98411879Y-55501521D01*
X98399131Y-55505388D01*
X98376504Y-55514760D01*
X98356130Y-55528374D01*
X98338803Y-55545701D01*
X98325189Y-55566075D01*
X98315812Y-55588714D01*
X98311031Y-55612747D01*
X98311031Y-55637251D01*
X98315811Y-55661285D01*
X98325188Y-55683924D01*
X98338802Y-55704298D01*
X98356129Y-55721625D01*
X98376503Y-55735239D01*
X98399131Y-55744612D01*
X98411879Y-55748479D01*
X98439055Y-55763005D01*
X98507600Y-55799643D01*
X98591501Y-55868499D01*
X98660357Y-55952400D01*
X98695484Y-56018118D01*
X98711521Y-56048121D01*
X98743027Y-56151985D01*
X98753666Y-56260000D01*
X98743027Y-56368015D01*
X98711521Y-56471879D01*
X98711519Y-56471882D01*
X98660357Y-56567600D01*
X98591501Y-56651501D01*
X98507600Y-56720357D01*
X98460779Y-56745383D01*
X98411879Y-56771521D01*
X98399131Y-56775388D01*
X98376504Y-56784760D01*
X98356130Y-56798374D01*
X98338803Y-56815701D01*
X98325189Y-56836075D01*
X98315812Y-56858714D01*
X98311031Y-56882747D01*
X98311031Y-56907251D01*
X98315811Y-56931285D01*
X98325188Y-56953924D01*
X98338802Y-56974298D01*
X98356129Y-56991625D01*
X98376503Y-57005239D01*
X98399131Y-57014612D01*
X98411879Y-57018479D01*
X98439055Y-57033005D01*
X98507600Y-57069643D01*
X98591501Y-57138499D01*
X98660357Y-57222400D01*
X98695484Y-57288118D01*
X98711521Y-57318121D01*
X98743027Y-57421985D01*
X98753666Y-57530000D01*
X98743027Y-57638015D01*
X98711521Y-57741879D01*
X98711519Y-57741882D01*
X98660357Y-57837600D01*
X98591501Y-57921501D01*
X98507600Y-57990357D01*
X98460779Y-58015383D01*
X98411879Y-58041521D01*
X98399131Y-58045388D01*
X98376504Y-58054760D01*
X98356130Y-58068374D01*
X98338803Y-58085701D01*
X98325189Y-58106075D01*
X98315812Y-58128714D01*
X98311031Y-58152747D01*
X98311031Y-58177251D01*
X98315811Y-58201285D01*
X98325188Y-58223924D01*
X98338802Y-58244298D01*
X98356129Y-58261625D01*
X98376503Y-58275239D01*
X98399131Y-58284612D01*
X98411879Y-58288479D01*
X98439055Y-58303005D01*
X98507600Y-58339643D01*
X98591501Y-58408499D01*
X98660357Y-58492400D01*
X98695484Y-58558118D01*
X98711521Y-58588121D01*
X98743027Y-58691985D01*
X98753666Y-58800000D01*
X98743027Y-58908015D01*
X98711521Y-59011879D01*
X98711519Y-59011882D01*
X98660357Y-59107600D01*
X98591501Y-59191501D01*
X98507600Y-59260357D01*
X98460779Y-59285383D01*
X98411879Y-59311521D01*
X98399131Y-59315388D01*
X98376504Y-59324760D01*
X98356130Y-59338374D01*
X98338803Y-59355701D01*
X98325189Y-59376075D01*
X98315812Y-59398714D01*
X98311031Y-59422747D01*
X98311031Y-59447251D01*
X98315811Y-59471285D01*
X98325188Y-59493924D01*
X98338802Y-59514298D01*
X98356129Y-59531625D01*
X98376503Y-59545239D01*
X98399131Y-59554612D01*
X98411879Y-59558479D01*
X98439055Y-59573005D01*
X98507600Y-59609643D01*
X98591501Y-59678499D01*
X98660357Y-59762400D01*
X98695484Y-59828118D01*
X98711521Y-59858121D01*
X98743027Y-59961985D01*
X98753666Y-60070000D01*
X98743027Y-60178015D01*
X98711521Y-60281879D01*
X98711519Y-60281882D01*
X98660357Y-60377600D01*
X98591501Y-60461501D01*
X98507600Y-60530357D01*
X98460779Y-60555383D01*
X98411879Y-60581521D01*
X98399131Y-60585388D01*
X98376504Y-60594760D01*
X98356130Y-60608374D01*
X98338803Y-60625701D01*
X98325189Y-60646075D01*
X98315812Y-60668714D01*
X98311031Y-60692747D01*
X98311031Y-60717251D01*
X98315811Y-60741285D01*
X98325188Y-60763924D01*
X98338802Y-60784298D01*
X98356129Y-60801625D01*
X98376503Y-60815239D01*
X98399131Y-60824612D01*
X98411879Y-60828479D01*
X98439055Y-60843005D01*
X98507600Y-60879643D01*
X98591501Y-60948499D01*
X98660357Y-61032400D01*
X98695484Y-61098118D01*
X98711521Y-61128121D01*
X98743027Y-61231985D01*
X98753666Y-61340000D01*
X98743027Y-61448015D01*
X98711521Y-61551879D01*
X98711519Y-61551882D01*
X98660357Y-61647600D01*
X98591501Y-61731501D01*
X98507600Y-61800357D01*
X98460779Y-61825383D01*
X98411879Y-61851521D01*
X98399131Y-61855388D01*
X98376504Y-61864760D01*
X98356130Y-61878374D01*
X98338803Y-61895701D01*
X98325189Y-61916075D01*
X98315812Y-61938714D01*
X98311031Y-61962747D01*
X98311031Y-61987251D01*
X98315811Y-62011285D01*
X98325188Y-62033924D01*
X98338802Y-62054298D01*
X98356129Y-62071625D01*
X98376503Y-62085239D01*
X98399131Y-62094612D01*
X98411879Y-62098479D01*
X98439055Y-62113005D01*
X98507600Y-62149643D01*
X98591501Y-62218499D01*
X98660357Y-62302400D01*
X98695484Y-62368118D01*
X98711521Y-62398121D01*
X98743027Y-62501985D01*
X98753666Y-62610000D01*
X98743027Y-62718015D01*
X98711521Y-62821879D01*
X98711519Y-62821882D01*
X98660357Y-62917600D01*
X98591501Y-63001501D01*
X98507600Y-63070357D01*
X98460779Y-63095383D01*
X98411879Y-63121521D01*
X98399131Y-63125388D01*
X98376504Y-63134760D01*
X98356130Y-63148374D01*
X98338803Y-63165701D01*
X98325189Y-63186075D01*
X98315812Y-63208714D01*
X98311031Y-63232747D01*
X98311031Y-63257251D01*
X98315811Y-63281285D01*
X98325188Y-63303924D01*
X98338802Y-63324298D01*
X98356129Y-63341625D01*
X98376503Y-63355239D01*
X98399131Y-63364612D01*
X98411879Y-63368479D01*
X98439055Y-63383005D01*
X98507600Y-63419643D01*
X98591501Y-63488499D01*
X98660357Y-63572400D01*
X98695484Y-63638118D01*
X98711521Y-63668121D01*
X98743027Y-63771985D01*
X98753666Y-63880000D01*
X98743027Y-63988015D01*
X98711521Y-64091879D01*
X98711519Y-64091882D01*
X98660357Y-64187600D01*
X98591501Y-64271501D01*
X98507600Y-64340357D01*
X98460779Y-64365383D01*
X98411879Y-64391521D01*
X98399131Y-64395388D01*
X98376504Y-64404760D01*
X98356130Y-64418374D01*
X98338803Y-64435701D01*
X98325189Y-64456075D01*
X98315812Y-64478714D01*
X98311031Y-64502747D01*
X98311031Y-64527251D01*
X98315811Y-64551285D01*
X98325188Y-64573924D01*
X98338802Y-64594298D01*
X98356129Y-64611625D01*
X98376503Y-64625239D01*
X98399131Y-64634612D01*
X98411879Y-64638479D01*
X98439055Y-64653005D01*
X98507600Y-64689643D01*
X98591501Y-64758499D01*
X98660357Y-64842400D01*
X98695484Y-64908118D01*
X98711521Y-64938121D01*
X98743027Y-65041985D01*
X98753666Y-65150000D01*
X98743027Y-65258015D01*
X98711521Y-65361879D01*
X98711519Y-65361882D01*
X98660357Y-65457600D01*
X98591501Y-65541501D01*
X98507600Y-65610357D01*
X98460779Y-65635383D01*
X98411879Y-65661521D01*
X98399131Y-65665388D01*
X98376504Y-65674760D01*
X98356130Y-65688374D01*
X98338803Y-65705701D01*
X98325189Y-65726075D01*
X98315812Y-65748714D01*
X98311031Y-65772747D01*
X98311031Y-65797251D01*
X98315811Y-65821285D01*
X98325188Y-65843924D01*
X98338802Y-65864298D01*
X98356129Y-65881625D01*
X98376503Y-65895239D01*
X98399131Y-65904612D01*
X98411879Y-65908479D01*
X98439055Y-65923005D01*
X98507600Y-65959643D01*
X98591501Y-66028499D01*
X98660357Y-66112400D01*
X98695484Y-66178118D01*
X98711521Y-66208121D01*
X98743027Y-66311985D01*
X98753666Y-66420000D01*
X98743027Y-66528015D01*
X98711521Y-66631879D01*
X98711519Y-66631882D01*
X98660357Y-66727600D01*
X98591501Y-66811501D01*
X98507600Y-66880357D01*
X98460779Y-66905383D01*
X98411879Y-66931521D01*
X98399131Y-66935388D01*
X98376504Y-66944760D01*
X98356130Y-66958374D01*
X98338803Y-66975701D01*
X98325189Y-66996075D01*
X98315812Y-67018714D01*
X98311031Y-67042747D01*
X98311031Y-67067251D01*
X98315811Y-67091285D01*
X98325188Y-67113924D01*
X98338802Y-67134298D01*
X98356129Y-67151625D01*
X98376503Y-67165239D01*
X98399131Y-67174612D01*
X98411879Y-67178479D01*
X98439055Y-67193005D01*
X98507600Y-67229643D01*
X98591501Y-67298499D01*
X98660357Y-67382400D01*
X98695484Y-67448118D01*
X98711521Y-67478121D01*
X98743027Y-67581985D01*
X98753666Y-67690000D01*
X98743027Y-67798015D01*
X98711521Y-67901879D01*
X98711519Y-67901882D01*
X98660357Y-67997600D01*
X98591501Y-68081501D01*
X98507600Y-68150357D01*
X98460779Y-68175383D01*
X98411879Y-68201521D01*
X98399131Y-68205388D01*
X98376504Y-68214760D01*
X98356130Y-68228374D01*
X98338803Y-68245701D01*
X98325189Y-68266075D01*
X98315812Y-68288714D01*
X98311031Y-68312747D01*
X98311031Y-68337251D01*
X98315811Y-68361285D01*
X98325188Y-68383924D01*
X98338802Y-68404298D01*
X98356129Y-68421625D01*
X98376503Y-68435239D01*
X98399131Y-68444612D01*
X98411879Y-68448479D01*
X98439055Y-68463005D01*
X98507600Y-68499643D01*
X98591501Y-68568499D01*
X98660357Y-68652400D01*
X98695484Y-68718118D01*
X98711521Y-68748121D01*
X98743027Y-68851985D01*
X98753666Y-68960000D01*
X98743027Y-69068015D01*
X98711521Y-69171879D01*
X98711519Y-69171882D01*
X98660357Y-69267600D01*
X98591501Y-69351501D01*
X98507600Y-69420357D01*
X98460779Y-69445383D01*
X98411879Y-69471521D01*
X98399131Y-69475388D01*
X98376504Y-69484760D01*
X98356130Y-69498374D01*
X98338803Y-69515701D01*
X98325189Y-69536075D01*
X98315812Y-69558714D01*
X98311031Y-69582747D01*
X98311031Y-69607251D01*
X98315811Y-69631285D01*
X98325188Y-69653924D01*
X98338802Y-69674298D01*
X98356129Y-69691625D01*
X98376503Y-69705239D01*
X98399131Y-69714612D01*
X98411879Y-69718479D01*
X98439055Y-69733005D01*
X98507600Y-69769643D01*
X98591501Y-69838499D01*
X98660357Y-69922400D01*
X98695484Y-69988118D01*
X98711521Y-70018121D01*
X98743027Y-70121985D01*
X98753666Y-70230000D01*
X98743027Y-70338015D01*
X98711521Y-70441879D01*
X98711519Y-70441882D01*
X98660357Y-70537600D01*
X98591501Y-70621501D01*
X98507600Y-70690357D01*
X98460779Y-70715383D01*
X98411879Y-70741521D01*
X98399131Y-70745388D01*
X98376504Y-70754760D01*
X98356130Y-70768374D01*
X98338803Y-70785701D01*
X98325189Y-70806075D01*
X98315812Y-70828714D01*
X98311031Y-70852747D01*
X98311031Y-70877251D01*
X98315811Y-70901285D01*
X98325188Y-70923924D01*
X98338802Y-70944298D01*
X98356129Y-70961625D01*
X98376503Y-70975239D01*
X98399131Y-70984612D01*
X98411879Y-70988479D01*
X98439055Y-71003005D01*
X98507600Y-71039643D01*
X98591501Y-71108499D01*
X98660357Y-71192400D01*
X98695484Y-71258118D01*
X98711521Y-71288121D01*
X98743027Y-71391985D01*
X98753666Y-71500000D01*
X98743027Y-71608015D01*
X98711521Y-71711879D01*
X98711519Y-71711882D01*
X98660357Y-71807600D01*
X98591501Y-71891501D01*
X98507600Y-71960357D01*
X98460779Y-71985383D01*
X98411879Y-72011521D01*
X98399131Y-72015388D01*
X98376504Y-72024760D01*
X98356130Y-72038374D01*
X98338803Y-72055701D01*
X98325189Y-72076075D01*
X98315812Y-72098714D01*
X98311031Y-72122747D01*
X98311031Y-72147251D01*
X98315811Y-72171285D01*
X98325188Y-72193924D01*
X98338802Y-72214298D01*
X98356129Y-72231625D01*
X98376503Y-72245239D01*
X98399131Y-72254612D01*
X98411879Y-72258479D01*
X98439055Y-72273005D01*
X98507600Y-72309643D01*
X98591501Y-72378499D01*
X98660357Y-72462400D01*
X98695484Y-72528118D01*
X98711521Y-72558121D01*
X98743027Y-72661985D01*
X98753666Y-72770000D01*
X98743027Y-72878015D01*
X98711521Y-72981879D01*
X98711519Y-72981882D01*
X98660357Y-73077600D01*
X98591501Y-73161501D01*
X98507600Y-73230357D01*
X98460779Y-73255383D01*
X98411879Y-73281521D01*
X98399131Y-73285388D01*
X98376504Y-73294760D01*
X98356130Y-73308374D01*
X98338803Y-73325701D01*
X98325189Y-73346075D01*
X98315812Y-73368714D01*
X98311031Y-73392747D01*
X98311031Y-73417251D01*
X98315811Y-73441285D01*
X98325188Y-73463924D01*
X98338802Y-73484298D01*
X98356129Y-73501625D01*
X98376503Y-73515239D01*
X98399131Y-73524612D01*
X98411879Y-73528479D01*
X98439055Y-73543005D01*
X98507600Y-73579643D01*
X98591501Y-73648499D01*
X98660357Y-73732400D01*
X98695484Y-73798118D01*
X98711521Y-73828121D01*
X98743027Y-73931985D01*
X98753666Y-74040000D01*
X98743027Y-74148015D01*
X98711521Y-74251879D01*
X98711519Y-74251882D01*
X98660357Y-74347600D01*
X98591501Y-74431501D01*
X98507600Y-74500357D01*
X98460779Y-74525383D01*
X98411879Y-74551521D01*
X98399131Y-74555388D01*
X98376504Y-74564760D01*
X98356130Y-74578374D01*
X98338803Y-74595701D01*
X98325189Y-74616075D01*
X98315812Y-74638714D01*
X98311031Y-74662747D01*
X98311031Y-74687251D01*
X98315811Y-74711285D01*
X98325188Y-74733924D01*
X98338802Y-74754298D01*
X98356129Y-74771625D01*
X98376503Y-74785239D01*
X98399131Y-74794612D01*
X98411879Y-74798479D01*
X98439055Y-74813005D01*
X98507600Y-74849643D01*
X98591501Y-74918499D01*
X98660357Y-75002400D01*
X98695484Y-75068118D01*
X98711521Y-75098121D01*
X98743027Y-75201985D01*
X98753666Y-75310000D01*
X98743027Y-75418015D01*
X98711521Y-75521879D01*
X98711519Y-75521882D01*
X98660357Y-75617600D01*
X98591501Y-75701501D01*
X98507600Y-75770357D01*
X98460779Y-75795383D01*
X98411879Y-75821521D01*
X98399131Y-75825388D01*
X98376504Y-75834760D01*
X98356130Y-75848374D01*
X98338803Y-75865701D01*
X98325189Y-75886075D01*
X98315812Y-75908714D01*
X98311031Y-75932747D01*
X98311031Y-75957251D01*
X98315811Y-75981285D01*
X98325188Y-76003924D01*
X98338802Y-76024298D01*
X98356129Y-76041625D01*
X98376503Y-76055239D01*
X98399131Y-76064612D01*
X98411879Y-76068479D01*
X98439055Y-76083005D01*
X98507600Y-76119643D01*
X98591501Y-76188499D01*
X98660357Y-76272400D01*
X98695484Y-76338118D01*
X98711521Y-76368121D01*
X98743027Y-76471985D01*
X98753666Y-76580000D01*
X98743027Y-76688015D01*
X98711521Y-76791879D01*
X98711519Y-76791882D01*
X98660357Y-76887600D01*
X98591501Y-76971501D01*
X98507600Y-77040357D01*
X98460779Y-77065383D01*
X98411879Y-77091521D01*
X98399131Y-77095388D01*
X98376504Y-77104760D01*
X98356130Y-77118374D01*
X98338803Y-77135701D01*
X98325189Y-77156075D01*
X98315812Y-77178714D01*
X98311031Y-77202747D01*
X98311031Y-77227251D01*
X98315811Y-77251285D01*
X98325188Y-77273924D01*
X98338802Y-77294298D01*
X98356129Y-77311625D01*
X98376503Y-77325239D01*
X98399131Y-77334612D01*
X98411879Y-77338479D01*
X98439055Y-77353005D01*
X98507600Y-77389643D01*
X98591501Y-77458499D01*
X98660357Y-77542400D01*
X98695484Y-77608118D01*
X98711521Y-77638121D01*
X98743027Y-77741985D01*
X98753666Y-77850000D01*
X98743027Y-77958015D01*
X98711521Y-78061879D01*
X98711519Y-78061882D01*
X98660357Y-78157600D01*
X98591501Y-78241501D01*
X98507600Y-78310357D01*
X98460779Y-78335383D01*
X98411879Y-78361521D01*
X98399131Y-78365388D01*
X98376504Y-78374760D01*
X98356130Y-78388374D01*
X98338803Y-78405701D01*
X98325189Y-78426075D01*
X98315812Y-78448714D01*
X98311031Y-78472747D01*
X98311031Y-78497251D01*
X98315811Y-78521285D01*
X98325188Y-78543924D01*
X98338802Y-78564298D01*
X98356129Y-78581625D01*
X98376503Y-78595239D01*
X98399131Y-78604612D01*
X98411879Y-78608479D01*
X98439055Y-78623005D01*
X98507600Y-78659643D01*
X98591501Y-78728499D01*
X98660357Y-78812400D01*
X98695484Y-78878118D01*
X98711521Y-78908121D01*
X98743027Y-79011985D01*
X98753666Y-79120000D01*
X98743027Y-79228015D01*
X98711521Y-79331879D01*
X98711519Y-79331882D01*
X98660357Y-79427600D01*
X98591501Y-79511501D01*
X98507600Y-79580357D01*
X98460779Y-79605383D01*
X98411879Y-79631521D01*
X98399131Y-79635388D01*
X98376504Y-79644760D01*
X98356130Y-79658374D01*
X98338803Y-79675701D01*
X98325189Y-79696075D01*
X98315812Y-79718714D01*
X98311031Y-79742747D01*
X98311031Y-79767251D01*
X98315811Y-79791285D01*
X98325188Y-79813924D01*
X98338802Y-79834298D01*
X98356129Y-79851625D01*
X98376503Y-79865239D01*
X98399131Y-79874612D01*
X98411879Y-79878479D01*
X98439055Y-79893005D01*
X98507600Y-79929643D01*
X98591501Y-79998499D01*
X98660357Y-80082400D01*
X98695484Y-80148118D01*
X98711521Y-80178121D01*
X98743027Y-80281985D01*
X98753666Y-80390000D01*
X98743027Y-80498015D01*
X98711521Y-80601879D01*
X98711519Y-80601882D01*
X98660357Y-80697600D01*
X98591501Y-80781501D01*
X98507600Y-80850357D01*
X98460779Y-80875383D01*
X98411879Y-80901521D01*
X98399131Y-80905388D01*
X98376504Y-80914760D01*
X98356130Y-80928374D01*
X98338803Y-80945701D01*
X98325189Y-80966075D01*
X98315812Y-80988714D01*
X98311031Y-81012747D01*
X98311031Y-81037251D01*
X98315811Y-81061285D01*
X98325188Y-81083924D01*
X98338802Y-81104298D01*
X98356129Y-81121625D01*
X98376503Y-81135239D01*
X98399131Y-81144612D01*
X98411879Y-81148479D01*
X98439055Y-81163005D01*
X98507600Y-81199643D01*
X98591501Y-81268499D01*
X98660357Y-81352400D01*
X98695484Y-81418118D01*
X98711521Y-81448121D01*
X98743027Y-81551985D01*
X98753666Y-81660000D01*
X98743027Y-81768015D01*
X98711521Y-81871879D01*
X98711519Y-81871882D01*
X98660357Y-81967600D01*
X98591501Y-82051501D01*
X98507600Y-82120357D01*
X98460779Y-82145383D01*
X98411879Y-82171521D01*
X98399131Y-82175388D01*
X98376504Y-82184760D01*
X98356130Y-82198374D01*
X98338803Y-82215701D01*
X98325189Y-82236075D01*
X98315812Y-82258714D01*
X98311031Y-82282747D01*
X98311031Y-82307251D01*
X98315811Y-82331285D01*
X98325188Y-82353924D01*
X98338802Y-82374298D01*
X98356129Y-82391625D01*
X98376503Y-82405239D01*
X98399131Y-82414612D01*
X98411879Y-82418479D01*
X98439055Y-82433005D01*
X98507600Y-82469643D01*
X98591501Y-82538499D01*
X98660357Y-82622400D01*
X98695484Y-82688118D01*
X98711521Y-82718121D01*
X98743027Y-82821985D01*
X98753666Y-82930000D01*
X98743027Y-83038015D01*
X98711521Y-83141879D01*
X98711519Y-83141882D01*
X98660357Y-83237600D01*
X98591501Y-83321501D01*
X98507600Y-83390357D01*
X98460779Y-83415383D01*
X98411879Y-83441521D01*
X98399131Y-83445388D01*
X98376504Y-83454760D01*
X98356130Y-83468374D01*
X98338803Y-83485701D01*
X98325189Y-83506075D01*
X98315812Y-83528714D01*
X98311031Y-83552747D01*
X98311031Y-83577251D01*
X98315811Y-83601285D01*
X98325188Y-83623924D01*
X98338802Y-83644298D01*
X98356129Y-83661625D01*
X98376503Y-83675239D01*
X98399131Y-83684612D01*
X98411879Y-83688479D01*
X98439055Y-83703005D01*
X98507600Y-83739643D01*
X98591501Y-83808499D01*
X98660357Y-83892400D01*
X98695484Y-83958118D01*
X98711521Y-83988121D01*
X98743027Y-84091985D01*
X98753666Y-84200000D01*
X98743027Y-84308015D01*
X98711521Y-84411879D01*
X98711519Y-84411882D01*
X98660357Y-84507600D01*
X98591501Y-84591501D01*
X98507600Y-84660357D01*
X98460779Y-84685383D01*
X98411879Y-84711521D01*
X98399131Y-84715388D01*
X98376504Y-84724760D01*
X98356130Y-84738374D01*
X98338803Y-84755701D01*
X98325189Y-84776075D01*
X98315812Y-84798714D01*
X98311031Y-84822747D01*
X98311031Y-84847251D01*
X98315811Y-84871285D01*
X98325188Y-84893924D01*
X98338802Y-84914298D01*
X98356129Y-84931625D01*
X98376503Y-84945239D01*
X98399131Y-84954612D01*
X98411879Y-84958479D01*
X98439055Y-84973005D01*
X98507600Y-85009643D01*
X98591501Y-85078499D01*
X98660357Y-85162400D01*
X98695484Y-85228118D01*
X98711521Y-85258121D01*
X98743027Y-85361985D01*
X98753666Y-85470000D01*
X98743027Y-85578015D01*
X98711521Y-85681879D01*
X98711519Y-85681882D01*
X98660357Y-85777600D01*
X98591501Y-85861501D01*
X98507600Y-85930357D01*
X98460779Y-85955383D01*
X98411879Y-85981521D01*
X98399131Y-85985388D01*
X98376504Y-85994760D01*
X98356130Y-86008374D01*
X98338803Y-86025701D01*
X98325189Y-86046075D01*
X98315812Y-86068714D01*
X98311031Y-86092747D01*
X98311031Y-86117251D01*
X98315811Y-86141285D01*
X98325188Y-86163924D01*
X98338802Y-86184298D01*
X98356129Y-86201625D01*
X98376503Y-86215239D01*
X98399131Y-86224612D01*
X98411879Y-86228479D01*
X98439055Y-86243005D01*
X98507600Y-86279643D01*
X98591501Y-86348499D01*
X98660357Y-86432400D01*
X98695484Y-86498118D01*
X98711521Y-86528121D01*
X98743027Y-86631985D01*
X98753666Y-86740000D01*
X98743027Y-86848015D01*
X98711521Y-86951879D01*
X98711519Y-86951882D01*
X98660357Y-87047600D01*
X98591501Y-87131501D01*
X98507600Y-87200357D01*
X98460779Y-87225383D01*
X98411879Y-87251521D01*
X98399131Y-87255388D01*
X98376504Y-87264760D01*
X98356130Y-87278374D01*
X98338803Y-87295701D01*
X98325189Y-87316075D01*
X98315812Y-87338714D01*
X98311031Y-87362747D01*
X98311031Y-87387251D01*
X98315811Y-87411285D01*
X98325188Y-87433924D01*
X98338802Y-87454298D01*
X98356129Y-87471625D01*
X98376503Y-87485239D01*
X98399131Y-87494612D01*
X98411879Y-87498479D01*
X98439055Y-87513005D01*
X98507600Y-87549643D01*
X98591501Y-87618499D01*
X98660357Y-87702400D01*
X98695484Y-87768118D01*
X98711521Y-87798121D01*
X98743027Y-87901985D01*
X98753666Y-88010000D01*
X98743027Y-88118015D01*
X98711521Y-88221879D01*
X98711519Y-88221882D01*
X98660357Y-88317600D01*
X98591501Y-88401501D01*
X98507600Y-88470357D01*
X98460779Y-88495383D01*
X98411879Y-88521521D01*
X98399131Y-88525388D01*
X98376504Y-88534760D01*
X98356130Y-88548374D01*
X98338803Y-88565701D01*
X98325189Y-88586075D01*
X98315812Y-88608714D01*
X98311031Y-88632747D01*
X98311031Y-88657251D01*
X98315811Y-88681285D01*
X98325188Y-88703924D01*
X98338802Y-88724298D01*
X98356129Y-88741625D01*
X98376503Y-88755239D01*
X98399131Y-88764612D01*
X98411879Y-88768479D01*
X98439055Y-88783005D01*
X98507600Y-88819643D01*
X98591501Y-88888499D01*
X98660357Y-88972400D01*
X98695484Y-89038118D01*
X98711521Y-89068121D01*
X98743027Y-89171985D01*
X98753666Y-89280000D01*
X98743027Y-89388015D01*
X98711521Y-89491879D01*
X98711519Y-89491882D01*
X98660357Y-89587600D01*
X98616121Y-89641501D01*
X98591501Y-89671501D01*
X98507600Y-89740356D01*
X98463807Y-89763764D01*
X98443437Y-89777375D01*
X98426110Y-89794702D01*
X98412496Y-89815076D01*
X98403119Y-89837715D01*
X98398338Y-89861748D01*
X98398338Y-89886252D01*
X98403118Y-89910286D01*
X98412495Y-89932924D01*
X98426109Y-89953299D01*
X98443436Y-89970626D01*
X98463810Y-89984240D01*
X98486449Y-89993617D01*
X98510482Y-89998398D01*
X98522735Y-89999000D01*
X98751000Y-89999000D01*
X98751000Y-91101000D01*
X97649000Y-91101000D01*
X97649000Y-89999000D01*
X97877265Y-89999000D01*
X97901651Y-89996598D01*
X97925100Y-89989485D01*
X97946711Y-89977934D01*
X97965653Y-89962389D01*
X97981198Y-89943447D01*
X97992749Y-89921836D01*
X97999862Y-89898387D01*
X98002264Y-89874001D01*
X97999862Y-89849615D01*
X97992749Y-89826166D01*
X97981198Y-89804555D01*
X97965653Y-89785613D01*
X97946711Y-89770068D01*
X97936198Y-89763767D01*
X97892400Y-89740356D01*
X97808499Y-89671501D01*
X97783879Y-89641501D01*
X97739643Y-89587600D01*
X97688481Y-89491882D01*
X97688479Y-89491879D01*
X97656973Y-89388015D01*
X97646334Y-89280000D01*
X97656973Y-89171985D01*
X97688479Y-89068121D01*
X97704516Y-89038118D01*
X97739643Y-88972400D01*
X97808499Y-88888499D01*
X97892400Y-88819643D01*
X97960945Y-88783005D01*
X97988121Y-88768479D01*
X98000869Y-88764612D01*
X98023496Y-88755240D01*
X98043870Y-88741626D01*
X98061197Y-88724299D01*
X98074811Y-88703925D01*
X98084188Y-88681286D01*
X98088969Y-88657253D01*
X98088969Y-88632749D01*
X98084189Y-88608715D01*
X98074812Y-88586076D01*
X98061198Y-88565702D01*
X98043871Y-88548375D01*
X98023497Y-88534761D01*
X98000869Y-88525388D01*
X97988121Y-88521521D01*
X97939221Y-88495383D01*
X97892400Y-88470357D01*
X97808499Y-88401501D01*
X97739643Y-88317600D01*
X97688481Y-88221882D01*
X97688479Y-88221879D01*
X97656973Y-88118015D01*
X97646334Y-88010000D01*
X97656973Y-87901985D01*
X97688479Y-87798121D01*
X97704516Y-87768118D01*
X97739643Y-87702400D01*
X97808499Y-87618499D01*
X97892400Y-87549643D01*
X97960945Y-87513005D01*
X97988121Y-87498479D01*
X98000869Y-87494612D01*
X98023496Y-87485240D01*
X98043870Y-87471626D01*
X98061197Y-87454299D01*
X98074811Y-87433925D01*
X98084188Y-87411286D01*
X98088969Y-87387253D01*
X98088969Y-87362749D01*
X98084189Y-87338715D01*
X98074812Y-87316076D01*
X98061198Y-87295702D01*
X98043871Y-87278375D01*
X98023497Y-87264761D01*
X98000869Y-87255388D01*
X97988121Y-87251521D01*
X97939221Y-87225383D01*
X97892400Y-87200357D01*
X97808499Y-87131501D01*
X97739643Y-87047600D01*
X97688481Y-86951882D01*
X97688479Y-86951879D01*
X97656973Y-86848015D01*
X97646334Y-86740000D01*
X97656973Y-86631985D01*
X97688479Y-86528121D01*
X97704516Y-86498118D01*
X97739643Y-86432400D01*
X97808499Y-86348499D01*
X97892400Y-86279643D01*
X97960945Y-86243005D01*
X97988121Y-86228479D01*
X98000869Y-86224612D01*
X98023496Y-86215240D01*
X98043870Y-86201626D01*
X98061197Y-86184299D01*
X98074811Y-86163925D01*
X98084188Y-86141286D01*
X98088969Y-86117253D01*
X98088969Y-86092749D01*
X98084189Y-86068715D01*
X98074812Y-86046076D01*
X98061198Y-86025702D01*
X98043871Y-86008375D01*
X98023497Y-85994761D01*
X98000869Y-85985388D01*
X97988121Y-85981521D01*
X97939221Y-85955383D01*
X97892400Y-85930357D01*
X97808499Y-85861501D01*
X97739643Y-85777600D01*
X97688481Y-85681882D01*
X97688479Y-85681879D01*
X97656973Y-85578015D01*
X97646334Y-85470000D01*
X97656973Y-85361985D01*
X97688479Y-85258121D01*
X97704516Y-85228118D01*
X97739643Y-85162400D01*
X97808499Y-85078499D01*
X97892400Y-85009643D01*
X97960945Y-84973005D01*
X97988121Y-84958479D01*
X98000869Y-84954612D01*
X98023496Y-84945240D01*
X98043870Y-84931626D01*
X98061197Y-84914299D01*
X98074811Y-84893925D01*
X98084188Y-84871286D01*
X98088969Y-84847253D01*
X98088969Y-84822749D01*
X98084189Y-84798715D01*
X98074812Y-84776076D01*
X98061198Y-84755702D01*
X98043871Y-84738375D01*
X98023497Y-84724761D01*
X98000869Y-84715388D01*
X97988121Y-84711521D01*
X97939221Y-84685383D01*
X97892400Y-84660357D01*
X97808499Y-84591501D01*
X97739643Y-84507600D01*
X97688481Y-84411882D01*
X97688479Y-84411879D01*
X97656973Y-84308015D01*
X97646334Y-84200000D01*
X97656973Y-84091985D01*
X97688479Y-83988121D01*
X97704516Y-83958118D01*
X97739643Y-83892400D01*
X97808499Y-83808499D01*
X97892400Y-83739643D01*
X97960945Y-83703005D01*
X97988121Y-83688479D01*
X98000869Y-83684612D01*
X98023496Y-83675240D01*
X98043870Y-83661626D01*
X98061197Y-83644299D01*
X98074811Y-83623925D01*
X98084188Y-83601286D01*
X98088969Y-83577253D01*
X98088969Y-83552749D01*
X98084189Y-83528715D01*
X98074812Y-83506076D01*
X98061198Y-83485702D01*
X98043871Y-83468375D01*
X98023497Y-83454761D01*
X98000869Y-83445388D01*
X97988121Y-83441521D01*
X97939221Y-83415383D01*
X97892400Y-83390357D01*
X97808499Y-83321501D01*
X97739643Y-83237600D01*
X97688481Y-83141882D01*
X97688479Y-83141879D01*
X97656973Y-83038015D01*
X97646334Y-82930000D01*
X97656973Y-82821985D01*
X97688479Y-82718121D01*
X97704516Y-82688118D01*
X97739643Y-82622400D01*
X97808499Y-82538499D01*
X97892400Y-82469643D01*
X97960945Y-82433005D01*
X97988121Y-82418479D01*
X98000869Y-82414612D01*
X98023496Y-82405240D01*
X98043870Y-82391626D01*
X98061197Y-82374299D01*
X98074811Y-82353925D01*
X98084188Y-82331286D01*
X98088969Y-82307253D01*
X98088969Y-82282749D01*
X98084189Y-82258715D01*
X98074812Y-82236076D01*
X98061198Y-82215702D01*
X98043871Y-82198375D01*
X98023497Y-82184761D01*
X98000869Y-82175388D01*
X97988121Y-82171521D01*
X97939221Y-82145383D01*
X97892400Y-82120357D01*
X97808499Y-82051501D01*
X97739643Y-81967600D01*
X97688481Y-81871882D01*
X97688479Y-81871879D01*
X97656973Y-81768015D01*
X97646334Y-81660000D01*
X97656973Y-81551985D01*
X97688479Y-81448121D01*
X97704516Y-81418118D01*
X97739643Y-81352400D01*
X97808499Y-81268499D01*
X97892400Y-81199643D01*
X97960945Y-81163005D01*
X97988121Y-81148479D01*
X98000869Y-81144612D01*
X98023496Y-81135240D01*
X98043870Y-81121626D01*
X98061197Y-81104299D01*
X98074811Y-81083925D01*
X98084188Y-81061286D01*
X98088969Y-81037253D01*
X98088969Y-81012749D01*
X98084189Y-80988715D01*
X98074812Y-80966076D01*
X98061198Y-80945702D01*
X98043871Y-80928375D01*
X98023497Y-80914761D01*
X98000869Y-80905388D01*
X97988121Y-80901521D01*
X97939221Y-80875383D01*
X97892400Y-80850357D01*
X97808499Y-80781501D01*
X97739643Y-80697600D01*
X97688481Y-80601882D01*
X97688479Y-80601879D01*
X97656973Y-80498015D01*
X97646334Y-80390000D01*
X97656973Y-80281985D01*
X97688479Y-80178121D01*
X97704516Y-80148118D01*
X97739643Y-80082400D01*
X97808499Y-79998499D01*
X97892400Y-79929643D01*
X97960945Y-79893005D01*
X97988121Y-79878479D01*
X98000869Y-79874612D01*
X98023496Y-79865240D01*
X98043870Y-79851626D01*
X98061197Y-79834299D01*
X98074811Y-79813925D01*
X98084188Y-79791286D01*
X98088969Y-79767253D01*
X98088969Y-79742749D01*
X98084189Y-79718715D01*
X98074812Y-79696076D01*
X98061198Y-79675702D01*
X98043871Y-79658375D01*
X98023497Y-79644761D01*
X98000869Y-79635388D01*
X97988121Y-79631521D01*
X97939221Y-79605383D01*
X97892400Y-79580357D01*
X97808499Y-79511501D01*
X97739643Y-79427600D01*
X97688481Y-79331882D01*
X97688479Y-79331879D01*
X97656973Y-79228015D01*
X97646334Y-79120000D01*
X97656973Y-79011985D01*
X97688479Y-78908121D01*
X97704516Y-78878118D01*
X97739643Y-78812400D01*
X97808499Y-78728499D01*
X97892400Y-78659643D01*
X97960945Y-78623005D01*
X97988121Y-78608479D01*
X98000869Y-78604612D01*
X98023496Y-78595240D01*
X98043870Y-78581626D01*
X98061197Y-78564299D01*
X98074811Y-78543925D01*
X98084188Y-78521286D01*
X98088969Y-78497253D01*
X98088969Y-78472749D01*
X98084189Y-78448715D01*
X98074812Y-78426076D01*
X98061198Y-78405702D01*
X98043871Y-78388375D01*
X98023497Y-78374761D01*
X98000869Y-78365388D01*
X97988121Y-78361521D01*
X97939221Y-78335383D01*
X97892400Y-78310357D01*
X97808499Y-78241501D01*
X97739643Y-78157600D01*
X97688481Y-78061882D01*
X97688479Y-78061879D01*
X97656973Y-77958015D01*
X97646334Y-77850000D01*
X97656973Y-77741985D01*
X97688479Y-77638121D01*
X97704516Y-77608118D01*
X97739643Y-77542400D01*
X97808499Y-77458499D01*
X97892400Y-77389643D01*
X97960945Y-77353005D01*
X97988121Y-77338479D01*
X98000869Y-77334612D01*
X98023496Y-77325240D01*
X98043870Y-77311626D01*
X98061197Y-77294299D01*
X98074811Y-77273925D01*
X98084188Y-77251286D01*
X98088969Y-77227253D01*
X98088969Y-77202749D01*
X98084189Y-77178715D01*
X98074812Y-77156076D01*
X98061198Y-77135702D01*
X98043871Y-77118375D01*
X98023497Y-77104761D01*
X98000869Y-77095388D01*
X97988121Y-77091521D01*
X97939221Y-77065383D01*
X97892400Y-77040357D01*
X97808499Y-76971501D01*
X97739643Y-76887600D01*
X97688481Y-76791882D01*
X97688479Y-76791879D01*
X97656973Y-76688015D01*
X97646334Y-76580000D01*
X97656973Y-76471985D01*
X97688479Y-76368121D01*
X97704516Y-76338118D01*
X97739643Y-76272400D01*
X97808499Y-76188499D01*
X97892400Y-76119643D01*
X97960945Y-76083005D01*
X97988121Y-76068479D01*
X98000869Y-76064612D01*
X98023496Y-76055240D01*
X98043870Y-76041626D01*
X98061197Y-76024299D01*
X98074811Y-76003925D01*
X98084188Y-75981286D01*
X98088969Y-75957253D01*
X98088969Y-75932749D01*
X98084189Y-75908715D01*
X98074812Y-75886076D01*
X98061198Y-75865702D01*
X98043871Y-75848375D01*
X98023497Y-75834761D01*
X98000869Y-75825388D01*
X97988121Y-75821521D01*
X97939221Y-75795383D01*
X97892400Y-75770357D01*
X97808499Y-75701501D01*
X97739643Y-75617600D01*
X97688481Y-75521882D01*
X97688479Y-75521879D01*
X97656973Y-75418015D01*
X97646334Y-75310000D01*
X97656973Y-75201985D01*
X97688479Y-75098121D01*
X97704516Y-75068118D01*
X97739643Y-75002400D01*
X97808499Y-74918499D01*
X97892400Y-74849643D01*
X97960945Y-74813005D01*
X97988121Y-74798479D01*
X98000869Y-74794612D01*
X98023496Y-74785240D01*
X98043870Y-74771626D01*
X98061197Y-74754299D01*
X98074811Y-74733925D01*
X98084188Y-74711286D01*
X98088969Y-74687253D01*
X98088969Y-74662749D01*
X98084189Y-74638715D01*
X98074812Y-74616076D01*
X98061198Y-74595702D01*
X98043871Y-74578375D01*
X98023497Y-74564761D01*
X98000869Y-74555388D01*
X97988121Y-74551521D01*
X97939221Y-74525383D01*
X97892400Y-74500357D01*
X97808499Y-74431501D01*
X97739643Y-74347600D01*
X97688481Y-74251882D01*
X97688479Y-74251879D01*
X97656973Y-74148015D01*
X97646334Y-74040000D01*
X97656973Y-73931985D01*
X97688479Y-73828121D01*
X97704516Y-73798118D01*
X97739643Y-73732400D01*
X97808499Y-73648499D01*
X97892400Y-73579643D01*
X97960945Y-73543005D01*
X97988121Y-73528479D01*
X98000869Y-73524612D01*
X98023496Y-73515240D01*
X98043870Y-73501626D01*
X98061197Y-73484299D01*
X98074811Y-73463925D01*
X98084188Y-73441286D01*
X98088969Y-73417253D01*
X98088969Y-73392749D01*
X98084189Y-73368715D01*
X98074812Y-73346076D01*
X98061198Y-73325702D01*
X98043871Y-73308375D01*
X98023497Y-73294761D01*
X98000869Y-73285388D01*
X97988121Y-73281521D01*
X97939221Y-73255383D01*
X97892400Y-73230357D01*
X97808499Y-73161501D01*
X97739643Y-73077600D01*
X97688481Y-72981882D01*
X97688479Y-72981879D01*
X97656973Y-72878015D01*
X97646334Y-72770000D01*
X97656973Y-72661985D01*
X97688479Y-72558121D01*
X97704516Y-72528118D01*
X97739643Y-72462400D01*
X97808499Y-72378499D01*
X97892400Y-72309643D01*
X97960945Y-72273005D01*
X97988121Y-72258479D01*
X98000869Y-72254612D01*
X98023496Y-72245240D01*
X98043870Y-72231626D01*
X98061197Y-72214299D01*
X98074811Y-72193925D01*
X98084188Y-72171286D01*
X98088969Y-72147253D01*
X98088969Y-72122749D01*
X98084189Y-72098715D01*
X98074812Y-72076076D01*
X98061198Y-72055702D01*
X98043871Y-72038375D01*
X98023497Y-72024761D01*
X98000869Y-72015388D01*
X97988121Y-72011521D01*
X97939221Y-71985383D01*
X97892400Y-71960357D01*
X97808499Y-71891501D01*
X97739643Y-71807600D01*
X97688481Y-71711882D01*
X97688479Y-71711879D01*
X97656973Y-71608015D01*
X97646334Y-71500000D01*
X97656973Y-71391985D01*
X97688479Y-71288121D01*
X97704516Y-71258118D01*
X97739643Y-71192400D01*
X97808499Y-71108499D01*
X97892400Y-71039643D01*
X97960945Y-71003005D01*
X97988121Y-70988479D01*
X98000869Y-70984612D01*
X98023496Y-70975240D01*
X98043870Y-70961626D01*
X98061197Y-70944299D01*
X98074811Y-70923925D01*
X98084188Y-70901286D01*
X98088969Y-70877253D01*
X98088969Y-70852749D01*
X98084189Y-70828715D01*
X98074812Y-70806076D01*
X98061198Y-70785702D01*
X98043871Y-70768375D01*
X98023497Y-70754761D01*
X98000869Y-70745388D01*
X97988121Y-70741521D01*
X97939221Y-70715383D01*
X97892400Y-70690357D01*
X97808499Y-70621501D01*
X97739643Y-70537600D01*
X97688481Y-70441882D01*
X97688479Y-70441879D01*
X97656973Y-70338015D01*
X97646334Y-70230000D01*
X97656973Y-70121985D01*
X97688479Y-70018121D01*
X97704516Y-69988118D01*
X97739643Y-69922400D01*
X97808499Y-69838499D01*
X97892400Y-69769643D01*
X97960945Y-69733005D01*
X97988121Y-69718479D01*
X98000869Y-69714612D01*
X98023496Y-69705240D01*
X98043870Y-69691626D01*
X98061197Y-69674299D01*
X98074811Y-69653925D01*
X98084188Y-69631286D01*
X98088969Y-69607253D01*
X98088969Y-69582749D01*
X98084189Y-69558715D01*
X98074812Y-69536076D01*
X98061198Y-69515702D01*
X98043871Y-69498375D01*
X98023497Y-69484761D01*
X98000869Y-69475388D01*
X97988121Y-69471521D01*
X97939221Y-69445383D01*
X97892400Y-69420357D01*
X97808499Y-69351501D01*
X97739643Y-69267600D01*
X97688481Y-69171882D01*
X97688479Y-69171879D01*
X97656973Y-69068015D01*
X97646334Y-68960000D01*
X97656973Y-68851985D01*
X97688479Y-68748121D01*
X97704516Y-68718118D01*
X97739643Y-68652400D01*
X97808499Y-68568499D01*
X97892400Y-68499643D01*
X97960945Y-68463005D01*
X97988121Y-68448479D01*
X98000869Y-68444612D01*
X98023496Y-68435240D01*
X98043870Y-68421626D01*
X98061197Y-68404299D01*
X98074811Y-68383925D01*
X98084188Y-68361286D01*
X98088969Y-68337253D01*
X98088969Y-68312749D01*
X98084189Y-68288715D01*
X98074812Y-68266076D01*
X98061198Y-68245702D01*
X98043871Y-68228375D01*
X98023497Y-68214761D01*
X98000869Y-68205388D01*
X97988121Y-68201521D01*
X97939221Y-68175383D01*
X97892400Y-68150357D01*
X97808499Y-68081501D01*
X97739643Y-67997600D01*
X97688481Y-67901882D01*
X97688479Y-67901879D01*
X97656973Y-67798015D01*
X97646334Y-67690000D01*
X97656973Y-67581985D01*
X97688479Y-67478121D01*
X97704516Y-67448118D01*
X97739643Y-67382400D01*
X97808499Y-67298499D01*
X97892400Y-67229643D01*
X97960945Y-67193005D01*
X97988121Y-67178479D01*
X98000869Y-67174612D01*
X98023496Y-67165240D01*
X98043870Y-67151626D01*
X98061197Y-67134299D01*
X98074811Y-67113925D01*
X98084188Y-67091286D01*
X98088969Y-67067253D01*
X98088969Y-67042749D01*
X98084189Y-67018715D01*
X98074812Y-66996076D01*
X98061198Y-66975702D01*
X98043871Y-66958375D01*
X98023497Y-66944761D01*
X98000869Y-66935388D01*
X97988121Y-66931521D01*
X97939221Y-66905383D01*
X97892400Y-66880357D01*
X97808499Y-66811501D01*
X97739643Y-66727600D01*
X97688481Y-66631882D01*
X97688479Y-66631879D01*
X97656973Y-66528015D01*
X97646334Y-66420000D01*
X97656973Y-66311985D01*
X97688479Y-66208121D01*
X97704516Y-66178118D01*
X97739643Y-66112400D01*
X97808499Y-66028499D01*
X97892400Y-65959643D01*
X97960945Y-65923005D01*
X97988121Y-65908479D01*
X98000869Y-65904612D01*
X98023496Y-65895240D01*
X98043870Y-65881626D01*
X98061197Y-65864299D01*
X98074811Y-65843925D01*
X98084188Y-65821286D01*
X98088969Y-65797253D01*
X98088969Y-65772749D01*
X98084189Y-65748715D01*
X98074812Y-65726076D01*
X98061198Y-65705702D01*
X98043871Y-65688375D01*
X98023497Y-65674761D01*
X98000869Y-65665388D01*
X97988121Y-65661521D01*
X97939221Y-65635383D01*
X97892400Y-65610357D01*
X97808499Y-65541501D01*
X97739643Y-65457600D01*
X97688481Y-65361882D01*
X97688479Y-65361879D01*
X97656973Y-65258015D01*
X97646334Y-65150000D01*
X97656973Y-65041985D01*
X97688479Y-64938121D01*
X97704516Y-64908118D01*
X97739643Y-64842400D01*
X97808499Y-64758499D01*
X97892400Y-64689643D01*
X97960945Y-64653005D01*
X97988121Y-64638479D01*
X98000869Y-64634612D01*
X98023496Y-64625240D01*
X98043870Y-64611626D01*
X98061197Y-64594299D01*
X98074811Y-64573925D01*
X98084188Y-64551286D01*
X98088969Y-64527253D01*
X98088969Y-64502749D01*
X98084189Y-64478715D01*
X98074812Y-64456076D01*
X98061198Y-64435702D01*
X98043871Y-64418375D01*
X98023497Y-64404761D01*
X98000869Y-64395388D01*
X97988121Y-64391521D01*
X97939221Y-64365383D01*
X97892400Y-64340357D01*
X97808499Y-64271501D01*
X97739643Y-64187600D01*
X97688481Y-64091882D01*
X97688479Y-64091879D01*
X97656973Y-63988015D01*
X97646334Y-63880000D01*
X97656973Y-63771985D01*
X97688479Y-63668121D01*
X97704516Y-63638118D01*
X97739643Y-63572400D01*
X97808499Y-63488499D01*
X97892400Y-63419643D01*
X97960945Y-63383005D01*
X97988121Y-63368479D01*
X98000869Y-63364612D01*
X98023496Y-63355240D01*
X98043870Y-63341626D01*
X98061197Y-63324299D01*
X98074811Y-63303925D01*
X98084188Y-63281286D01*
X98088969Y-63257253D01*
X98088969Y-63232749D01*
X98084189Y-63208715D01*
X98074812Y-63186076D01*
X98061198Y-63165702D01*
X98043871Y-63148375D01*
X98023497Y-63134761D01*
X98000869Y-63125388D01*
X97988121Y-63121521D01*
X97939221Y-63095383D01*
X97892400Y-63070357D01*
X97808499Y-63001501D01*
X97739643Y-62917600D01*
X97688481Y-62821882D01*
X97688479Y-62821879D01*
X97656973Y-62718015D01*
X97646334Y-62610000D01*
X97656973Y-62501985D01*
X97688479Y-62398121D01*
X97704516Y-62368118D01*
X97739643Y-62302400D01*
X97808499Y-62218499D01*
X97892400Y-62149643D01*
X97960945Y-62113005D01*
X97988121Y-62098479D01*
X98000869Y-62094612D01*
X98023496Y-62085240D01*
X98043870Y-62071626D01*
X98061197Y-62054299D01*
X98074811Y-62033925D01*
X98084188Y-62011286D01*
X98088969Y-61987253D01*
X98088969Y-61962749D01*
X98084189Y-61938715D01*
X98074812Y-61916076D01*
X98061198Y-61895702D01*
X98043871Y-61878375D01*
X98023497Y-61864761D01*
X98000869Y-61855388D01*
X97988121Y-61851521D01*
X97939221Y-61825383D01*
X97892400Y-61800357D01*
X97808499Y-61731501D01*
X97739643Y-61647600D01*
X97688481Y-61551882D01*
X97688479Y-61551879D01*
X97656973Y-61448015D01*
X97646334Y-61340000D01*
X97656973Y-61231985D01*
X97688479Y-61128121D01*
X97704516Y-61098118D01*
X97739643Y-61032400D01*
X97808499Y-60948499D01*
X97892400Y-60879643D01*
X97960945Y-60843005D01*
X97988121Y-60828479D01*
X98000869Y-60824612D01*
X98023496Y-60815240D01*
X98043870Y-60801626D01*
X98061197Y-60784299D01*
X98074811Y-60763925D01*
X98084188Y-60741286D01*
X98088969Y-60717253D01*
X98088969Y-60692749D01*
X98084189Y-60668715D01*
X98074812Y-60646076D01*
X98061198Y-60625702D01*
X98043871Y-60608375D01*
X98023497Y-60594761D01*
X98000869Y-60585388D01*
X97988121Y-60581521D01*
X97939221Y-60555383D01*
X97892400Y-60530357D01*
X97808499Y-60461501D01*
X97739643Y-60377600D01*
X97688481Y-60281882D01*
X97688479Y-60281879D01*
X97656973Y-60178015D01*
X97646334Y-60070000D01*
X97656973Y-59961985D01*
X97688479Y-59858121D01*
X97704516Y-59828118D01*
X97739643Y-59762400D01*
X97808499Y-59678499D01*
X97892400Y-59609643D01*
X97960945Y-59573005D01*
X97988121Y-59558479D01*
X98000869Y-59554612D01*
X98023496Y-59545240D01*
X98043870Y-59531626D01*
X98061197Y-59514299D01*
X98074811Y-59493925D01*
X98084188Y-59471286D01*
X98088969Y-59447253D01*
X98088969Y-59422749D01*
X98084189Y-59398715D01*
X98074812Y-59376076D01*
X98061198Y-59355702D01*
X98043871Y-59338375D01*
X98023497Y-59324761D01*
X98000869Y-59315388D01*
X97988121Y-59311521D01*
X97939221Y-59285383D01*
X97892400Y-59260357D01*
X97808499Y-59191501D01*
X97739643Y-59107600D01*
X97688481Y-59011882D01*
X97688479Y-59011879D01*
X97656973Y-58908015D01*
X97646334Y-58800000D01*
X97656973Y-58691985D01*
X97688479Y-58588121D01*
X97704516Y-58558118D01*
X97739643Y-58492400D01*
X97808499Y-58408499D01*
X97892400Y-58339643D01*
X97960945Y-58303005D01*
X97988121Y-58288479D01*
X98000869Y-58284612D01*
X98023496Y-58275240D01*
X98043870Y-58261626D01*
X98061197Y-58244299D01*
X98074811Y-58223925D01*
X98084188Y-58201286D01*
X98088969Y-58177253D01*
X98088969Y-58152749D01*
X98084189Y-58128715D01*
X98074812Y-58106076D01*
X98061198Y-58085702D01*
X98043871Y-58068375D01*
X98023497Y-58054761D01*
X98000869Y-58045388D01*
X97988121Y-58041521D01*
X97939221Y-58015383D01*
X97892400Y-57990357D01*
X97808499Y-57921501D01*
X97739643Y-57837600D01*
X97688481Y-57741882D01*
X97688479Y-57741879D01*
X97656973Y-57638015D01*
X97646334Y-57530000D01*
X97656973Y-57421985D01*
X97688479Y-57318121D01*
X97704516Y-57288118D01*
X97739643Y-57222400D01*
X97808499Y-57138499D01*
X97892400Y-57069643D01*
X97960945Y-57033005D01*
X97988121Y-57018479D01*
X98000869Y-57014612D01*
X98023496Y-57005240D01*
X98043870Y-56991626D01*
X98061197Y-56974299D01*
X98074811Y-56953925D01*
X98084188Y-56931286D01*
X98088969Y-56907253D01*
X98088969Y-56882749D01*
X98084189Y-56858715D01*
X98074812Y-56836076D01*
X98061198Y-56815702D01*
X98043871Y-56798375D01*
X98023497Y-56784761D01*
X98000869Y-56775388D01*
X97988121Y-56771521D01*
X97939221Y-56745383D01*
X97892400Y-56720357D01*
X97808499Y-56651501D01*
X97739643Y-56567600D01*
X97688481Y-56471882D01*
X97688479Y-56471879D01*
X97656973Y-56368015D01*
X97646334Y-56260000D01*
X97656973Y-56151985D01*
X97688479Y-56048121D01*
X97704516Y-56018118D01*
X97739643Y-55952400D01*
X97808499Y-55868499D01*
X97892400Y-55799643D01*
X97960945Y-55763005D01*
X97988121Y-55748479D01*
X98000869Y-55744612D01*
X98023496Y-55735240D01*
X98043870Y-55721626D01*
X98061197Y-55704299D01*
X98074811Y-55683925D01*
X98084188Y-55661286D01*
X98088969Y-55637253D01*
X98088969Y-55612749D01*
X98084189Y-55588715D01*
X98074812Y-55566076D01*
X98061198Y-55545702D01*
X98043871Y-55528375D01*
X98023497Y-55514761D01*
X98000869Y-55505388D01*
X97988121Y-55501521D01*
X97939221Y-55475383D01*
X97892400Y-55450357D01*
X97808499Y-55381501D01*
X97739643Y-55297600D01*
X97688481Y-55201882D01*
X97688479Y-55201879D01*
X97656973Y-55098015D01*
X97646334Y-54990000D01*
X97656973Y-54881985D01*
X97688479Y-54778121D01*
X97704516Y-54748118D01*
X97739643Y-54682400D01*
X97808499Y-54598499D01*
X97892400Y-54529643D01*
X97960945Y-54493005D01*
X97988121Y-54478479D01*
X98000869Y-54474612D01*
X98023496Y-54465240D01*
X98043870Y-54451626D01*
X98061197Y-54434299D01*
X98074811Y-54413925D01*
X98084188Y-54391286D01*
X98088969Y-54367253D01*
X98088969Y-54342749D01*
X98084189Y-54318715D01*
X98074812Y-54296076D01*
X98061198Y-54275702D01*
X98043871Y-54258375D01*
X98023497Y-54244761D01*
X98000869Y-54235388D01*
X97988121Y-54231521D01*
X97939221Y-54205383D01*
X97892400Y-54180357D01*
X97808499Y-54111501D01*
X97739643Y-54027600D01*
X97688481Y-53931882D01*
X97688479Y-53931879D01*
X97656973Y-53828015D01*
X97646334Y-53720000D01*
X97656973Y-53611985D01*
X97688479Y-53508121D01*
X97704516Y-53478118D01*
X97739643Y-53412400D01*
X97808499Y-53328499D01*
X97892400Y-53259643D01*
X97960945Y-53223005D01*
X97988121Y-53208479D01*
X98000869Y-53204612D01*
X98023496Y-53195240D01*
X98043870Y-53181626D01*
X98061197Y-53164299D01*
X98074811Y-53143925D01*
X98084188Y-53121286D01*
X98088969Y-53097253D01*
X98088969Y-53072749D01*
X98084189Y-53048715D01*
X98074812Y-53026076D01*
X98061198Y-53005702D01*
X98043871Y-52988375D01*
X98023497Y-52974761D01*
X98000869Y-52965388D01*
X97988121Y-52961521D01*
X97939221Y-52935383D01*
X97892400Y-52910357D01*
X97808499Y-52841501D01*
X97739643Y-52757600D01*
X97688481Y-52661882D01*
X97688479Y-52661879D01*
X97656973Y-52558015D01*
X97646334Y-52450000D01*
X97656973Y-52341985D01*
X97688479Y-52238121D01*
X97713398Y-52191501D01*
X97739643Y-52142400D01*
X97808499Y-52058499D01*
X97892400Y-51989643D01*
X97960945Y-51953005D01*
X97988121Y-51938479D01*
X98000869Y-51934612D01*
X98023496Y-51925240D01*
X98043870Y-51911626D01*
X98061197Y-51894299D01*
X98074811Y-51873925D01*
X98084188Y-51851286D01*
X98088969Y-51827253D01*
X98088969Y-51802749D01*
X98084189Y-51778715D01*
X98074812Y-51756076D01*
X98061198Y-51735702D01*
X98043871Y-51718375D01*
X98023497Y-51704761D01*
X98000869Y-51695388D01*
X97988121Y-51691521D01*
X97956859Y-51674811D01*
X97892400Y-51640357D01*
X97808499Y-51571501D01*
X97739643Y-51487600D01*
X97688481Y-51391882D01*
X97688479Y-51391879D01*
X97656973Y-51288015D01*
X97646334Y-51180000D01*
X97656973Y-51071985D01*
X97688479Y-50968121D01*
X97703005Y-50940945D01*
X97739643Y-50872400D01*
X97808499Y-50788499D01*
X97892400Y-50719643D01*
X97960945Y-50683005D01*
X97988121Y-50668479D01*
X98091985Y-50636973D01*
X98172933Y-50629000D01*
X98227067Y-50629000D01*
X98308015Y-50636973D01*
X98308015Y-50636973D01*
G37*
G36*
X52351000Y-51701000D02*
G01*
X52122735Y-51701000D01*
X52098349Y-51703402D01*
X52074900Y-51710515D01*
X52053289Y-51722066D01*
X52034347Y-51737611D01*
X52018802Y-51756553D01*
X52007251Y-51778164D01*
X52000138Y-51801613D01*
X51997736Y-51825999D01*
X52000138Y-51850385D01*
X52007251Y-51873834D01*
X52018802Y-51895445D01*
X52034347Y-51914387D01*
X52053289Y-51929932D01*
X52063802Y-51936233D01*
X52107600Y-51959644D01*
X52154016Y-51997736D01*
X52191501Y-52028499D01*
X52260357Y-52112400D01*
X52276392Y-52142400D01*
X52311521Y-52208121D01*
X52343027Y-52311985D01*
X52353666Y-52420000D01*
X52343027Y-52528015D01*
X52311521Y-52631879D01*
X52311519Y-52631882D01*
X52260357Y-52727600D01*
X52191501Y-52811501D01*
X52107600Y-52880357D01*
X52039055Y-52916995D01*
X52011879Y-52931521D01*
X51999131Y-52935388D01*
X51976504Y-52944760D01*
X51956130Y-52958374D01*
X51938803Y-52975701D01*
X51925189Y-52996075D01*
X51915812Y-53018714D01*
X51911031Y-53042747D01*
X51911031Y-53067251D01*
X51915811Y-53091285D01*
X51925188Y-53113924D01*
X51938802Y-53134298D01*
X51956129Y-53151625D01*
X51976503Y-53165239D01*
X51999131Y-53174612D01*
X52011879Y-53178479D01*
X52039055Y-53193005D01*
X52107600Y-53229643D01*
X52191501Y-53298499D01*
X52260357Y-53382400D01*
X52276392Y-53412400D01*
X52311521Y-53478121D01*
X52343027Y-53581985D01*
X52353666Y-53690000D01*
X52343027Y-53798015D01*
X52311521Y-53901879D01*
X52311519Y-53901882D01*
X52260357Y-53997600D01*
X52191501Y-54081501D01*
X52107600Y-54150357D01*
X52039055Y-54186995D01*
X52011879Y-54201521D01*
X51999131Y-54205388D01*
X51976504Y-54214760D01*
X51956130Y-54228374D01*
X51938803Y-54245701D01*
X51925189Y-54266075D01*
X51915812Y-54288714D01*
X51911031Y-54312747D01*
X51911031Y-54337251D01*
X51915811Y-54361285D01*
X51925188Y-54383924D01*
X51938802Y-54404298D01*
X51956129Y-54421625D01*
X51976503Y-54435239D01*
X51999131Y-54444612D01*
X52011879Y-54448479D01*
X52039055Y-54463005D01*
X52107600Y-54499643D01*
X52191501Y-54568499D01*
X52260357Y-54652400D01*
X52276392Y-54682400D01*
X52311521Y-54748121D01*
X52343027Y-54851985D01*
X52353666Y-54960000D01*
X52343027Y-55068015D01*
X52311521Y-55171879D01*
X52311519Y-55171882D01*
X52260357Y-55267600D01*
X52191501Y-55351501D01*
X52107600Y-55420357D01*
X52039055Y-55456995D01*
X52011879Y-55471521D01*
X51999131Y-55475388D01*
X51976504Y-55484760D01*
X51956130Y-55498374D01*
X51938803Y-55515701D01*
X51925189Y-55536075D01*
X51915812Y-55558714D01*
X51911031Y-55582747D01*
X51911031Y-55607251D01*
X51915811Y-55631285D01*
X51925188Y-55653924D01*
X51938802Y-55674298D01*
X51956129Y-55691625D01*
X51976503Y-55705239D01*
X51999131Y-55714612D01*
X52011879Y-55718479D01*
X52039055Y-55733005D01*
X52107600Y-55769643D01*
X52191501Y-55838499D01*
X52260357Y-55922400D01*
X52276392Y-55952400D01*
X52311521Y-56018121D01*
X52343027Y-56121985D01*
X52353666Y-56230000D01*
X52343027Y-56338015D01*
X52311521Y-56441879D01*
X52311519Y-56441882D01*
X52260357Y-56537600D01*
X52191501Y-56621501D01*
X52107600Y-56690357D01*
X52039055Y-56726995D01*
X52011879Y-56741521D01*
X51999131Y-56745388D01*
X51976504Y-56754760D01*
X51956130Y-56768374D01*
X51938803Y-56785701D01*
X51925189Y-56806075D01*
X51915812Y-56828714D01*
X51911031Y-56852747D01*
X51911031Y-56877251D01*
X51915811Y-56901285D01*
X51925188Y-56923924D01*
X51938802Y-56944298D01*
X51956129Y-56961625D01*
X51976503Y-56975239D01*
X51999131Y-56984612D01*
X52011879Y-56988479D01*
X52039055Y-57003005D01*
X52107600Y-57039643D01*
X52191501Y-57108499D01*
X52260357Y-57192400D01*
X52276392Y-57222400D01*
X52311521Y-57288121D01*
X52343027Y-57391985D01*
X52353666Y-57500000D01*
X52343027Y-57608015D01*
X52311521Y-57711879D01*
X52311519Y-57711882D01*
X52260357Y-57807600D01*
X52191501Y-57891501D01*
X52107600Y-57960357D01*
X52039055Y-57996995D01*
X52011879Y-58011521D01*
X51999131Y-58015388D01*
X51976504Y-58024760D01*
X51956130Y-58038374D01*
X51938803Y-58055701D01*
X51925189Y-58076075D01*
X51915812Y-58098714D01*
X51911031Y-58122747D01*
X51911031Y-58147251D01*
X51915811Y-58171285D01*
X51925188Y-58193924D01*
X51938802Y-58214298D01*
X51956129Y-58231625D01*
X51976503Y-58245239D01*
X51999131Y-58254612D01*
X52011879Y-58258479D01*
X52039055Y-58273005D01*
X52107600Y-58309643D01*
X52191501Y-58378499D01*
X52260357Y-58462400D01*
X52276392Y-58492400D01*
X52311521Y-58558121D01*
X52343027Y-58661985D01*
X52353666Y-58770000D01*
X52343027Y-58878015D01*
X52311521Y-58981879D01*
X52311519Y-58981882D01*
X52260357Y-59077600D01*
X52191501Y-59161501D01*
X52107600Y-59230357D01*
X52039055Y-59266995D01*
X52011879Y-59281521D01*
X51999131Y-59285388D01*
X51976504Y-59294760D01*
X51956130Y-59308374D01*
X51938803Y-59325701D01*
X51925189Y-59346075D01*
X51915812Y-59368714D01*
X51911031Y-59392747D01*
X51911031Y-59417251D01*
X51915811Y-59441285D01*
X51925188Y-59463924D01*
X51938802Y-59484298D01*
X51956129Y-59501625D01*
X51976503Y-59515239D01*
X51999131Y-59524612D01*
X52011879Y-59528479D01*
X52039055Y-59543005D01*
X52107600Y-59579643D01*
X52191501Y-59648499D01*
X52260357Y-59732400D01*
X52276392Y-59762400D01*
X52311521Y-59828121D01*
X52343027Y-59931985D01*
X52353666Y-60040000D01*
X52343027Y-60148015D01*
X52311521Y-60251879D01*
X52311519Y-60251882D01*
X52260357Y-60347600D01*
X52191501Y-60431501D01*
X52107600Y-60500357D01*
X52039055Y-60536995D01*
X52011879Y-60551521D01*
X51999131Y-60555388D01*
X51976504Y-60564760D01*
X51956130Y-60578374D01*
X51938803Y-60595701D01*
X51925189Y-60616075D01*
X51915812Y-60638714D01*
X51911031Y-60662747D01*
X51911031Y-60687251D01*
X51915811Y-60711285D01*
X51925188Y-60733924D01*
X51938802Y-60754298D01*
X51956129Y-60771625D01*
X51976503Y-60785239D01*
X51999131Y-60794612D01*
X52011879Y-60798479D01*
X52039055Y-60813005D01*
X52107600Y-60849643D01*
X52191501Y-60918499D01*
X52260357Y-61002400D01*
X52276392Y-61032400D01*
X52311521Y-61098121D01*
X52343027Y-61201985D01*
X52353666Y-61310000D01*
X52343027Y-61418015D01*
X52311521Y-61521879D01*
X52311519Y-61521882D01*
X52260357Y-61617600D01*
X52191501Y-61701501D01*
X52107600Y-61770357D01*
X52039055Y-61806995D01*
X52011879Y-61821521D01*
X51999131Y-61825388D01*
X51976504Y-61834760D01*
X51956130Y-61848374D01*
X51938803Y-61865701D01*
X51925189Y-61886075D01*
X51915812Y-61908714D01*
X51911031Y-61932747D01*
X51911031Y-61957251D01*
X51915811Y-61981285D01*
X51925188Y-62003924D01*
X51938802Y-62024298D01*
X51956129Y-62041625D01*
X51976503Y-62055239D01*
X51999131Y-62064612D01*
X52011879Y-62068479D01*
X52039055Y-62083005D01*
X52107600Y-62119643D01*
X52191501Y-62188499D01*
X52260357Y-62272400D01*
X52276392Y-62302400D01*
X52311521Y-62368121D01*
X52343027Y-62471985D01*
X52353666Y-62580000D01*
X52343027Y-62688015D01*
X52311521Y-62791879D01*
X52311519Y-62791882D01*
X52260357Y-62887600D01*
X52191501Y-62971501D01*
X52107600Y-63040357D01*
X52039055Y-63076995D01*
X52011879Y-63091521D01*
X51999131Y-63095388D01*
X51976504Y-63104760D01*
X51956130Y-63118374D01*
X51938803Y-63135701D01*
X51925189Y-63156075D01*
X51915812Y-63178714D01*
X51911031Y-63202747D01*
X51911031Y-63227251D01*
X51915811Y-63251285D01*
X51925188Y-63273924D01*
X51938802Y-63294298D01*
X51956129Y-63311625D01*
X51976503Y-63325239D01*
X51999131Y-63334612D01*
X52011879Y-63338479D01*
X52039055Y-63353005D01*
X52107600Y-63389643D01*
X52191501Y-63458499D01*
X52260357Y-63542400D01*
X52276392Y-63572400D01*
X52311521Y-63638121D01*
X52343027Y-63741985D01*
X52353666Y-63850000D01*
X52343027Y-63958015D01*
X52311521Y-64061879D01*
X52311519Y-64061882D01*
X52260357Y-64157600D01*
X52191501Y-64241501D01*
X52107600Y-64310357D01*
X52039055Y-64346995D01*
X52011879Y-64361521D01*
X51999131Y-64365388D01*
X51976504Y-64374760D01*
X51956130Y-64388374D01*
X51938803Y-64405701D01*
X51925189Y-64426075D01*
X51915812Y-64448714D01*
X51911031Y-64472747D01*
X51911031Y-64497251D01*
X51915811Y-64521285D01*
X51925188Y-64543924D01*
X51938802Y-64564298D01*
X51956129Y-64581625D01*
X51976503Y-64595239D01*
X51999131Y-64604612D01*
X52011879Y-64608479D01*
X52039055Y-64623005D01*
X52107600Y-64659643D01*
X52191501Y-64728499D01*
X52260357Y-64812400D01*
X52276392Y-64842400D01*
X52311521Y-64908121D01*
X52343027Y-65011985D01*
X52353666Y-65120000D01*
X52343027Y-65228015D01*
X52311521Y-65331879D01*
X52311519Y-65331882D01*
X52260357Y-65427600D01*
X52191501Y-65511501D01*
X52107600Y-65580357D01*
X52039055Y-65616995D01*
X52011879Y-65631521D01*
X51999131Y-65635388D01*
X51976504Y-65644760D01*
X51956130Y-65658374D01*
X51938803Y-65675701D01*
X51925189Y-65696075D01*
X51915812Y-65718714D01*
X51911031Y-65742747D01*
X51911031Y-65767251D01*
X51915811Y-65791285D01*
X51925188Y-65813924D01*
X51938802Y-65834298D01*
X51956129Y-65851625D01*
X51976503Y-65865239D01*
X51999131Y-65874612D01*
X52011879Y-65878479D01*
X52039055Y-65893005D01*
X52107600Y-65929643D01*
X52191501Y-65998499D01*
X52260357Y-66082400D01*
X52276392Y-66112400D01*
X52311521Y-66178121D01*
X52343027Y-66281985D01*
X52353666Y-66390000D01*
X52343027Y-66498015D01*
X52311521Y-66601879D01*
X52311519Y-66601882D01*
X52260357Y-66697600D01*
X52191501Y-66781501D01*
X52107600Y-66850357D01*
X52039055Y-66886995D01*
X52011879Y-66901521D01*
X51999131Y-66905388D01*
X51976504Y-66914760D01*
X51956130Y-66928374D01*
X51938803Y-66945701D01*
X51925189Y-66966075D01*
X51915812Y-66988714D01*
X51911031Y-67012747D01*
X51911031Y-67037251D01*
X51915811Y-67061285D01*
X51925188Y-67083924D01*
X51938802Y-67104298D01*
X51956129Y-67121625D01*
X51976503Y-67135239D01*
X51999131Y-67144612D01*
X52011879Y-67148479D01*
X52039055Y-67163005D01*
X52107600Y-67199643D01*
X52191501Y-67268499D01*
X52260357Y-67352400D01*
X52276392Y-67382400D01*
X52311521Y-67448121D01*
X52343027Y-67551985D01*
X52353666Y-67660000D01*
X52343027Y-67768015D01*
X52311521Y-67871879D01*
X52311519Y-67871882D01*
X52260357Y-67967600D01*
X52191501Y-68051501D01*
X52107600Y-68120357D01*
X52039055Y-68156995D01*
X52011879Y-68171521D01*
X51999131Y-68175388D01*
X51976504Y-68184760D01*
X51956130Y-68198374D01*
X51938803Y-68215701D01*
X51925189Y-68236075D01*
X51915812Y-68258714D01*
X51911031Y-68282747D01*
X51911031Y-68307251D01*
X51915811Y-68331285D01*
X51925188Y-68353924D01*
X51938802Y-68374298D01*
X51956129Y-68391625D01*
X51976503Y-68405239D01*
X51999131Y-68414612D01*
X52011879Y-68418479D01*
X52039055Y-68433005D01*
X52107600Y-68469643D01*
X52191501Y-68538499D01*
X52260357Y-68622400D01*
X52276392Y-68652400D01*
X52311521Y-68718121D01*
X52343027Y-68821985D01*
X52353666Y-68930000D01*
X52343027Y-69038015D01*
X52311521Y-69141879D01*
X52311519Y-69141882D01*
X52260357Y-69237600D01*
X52191501Y-69321501D01*
X52107600Y-69390357D01*
X52039055Y-69426995D01*
X52011879Y-69441521D01*
X51999131Y-69445388D01*
X51976504Y-69454760D01*
X51956130Y-69468374D01*
X51938803Y-69485701D01*
X51925189Y-69506075D01*
X51915812Y-69528714D01*
X51911031Y-69552747D01*
X51911031Y-69577251D01*
X51915811Y-69601285D01*
X51925188Y-69623924D01*
X51938802Y-69644298D01*
X51956129Y-69661625D01*
X51976503Y-69675239D01*
X51999131Y-69684612D01*
X52011879Y-69688479D01*
X52039055Y-69703005D01*
X52107600Y-69739643D01*
X52191501Y-69808499D01*
X52260357Y-69892400D01*
X52276392Y-69922400D01*
X52311521Y-69988121D01*
X52343027Y-70091985D01*
X52353666Y-70200000D01*
X52343027Y-70308015D01*
X52311521Y-70411879D01*
X52311519Y-70411882D01*
X52260357Y-70507600D01*
X52191501Y-70591501D01*
X52107600Y-70660357D01*
X52039055Y-70696995D01*
X52011879Y-70711521D01*
X51999131Y-70715388D01*
X51976504Y-70724760D01*
X51956130Y-70738374D01*
X51938803Y-70755701D01*
X51925189Y-70776075D01*
X51915812Y-70798714D01*
X51911031Y-70822747D01*
X51911031Y-70847251D01*
X51915811Y-70871285D01*
X51925188Y-70893924D01*
X51938802Y-70914298D01*
X51956129Y-70931625D01*
X51976503Y-70945239D01*
X51999131Y-70954612D01*
X52011879Y-70958479D01*
X52039055Y-70973005D01*
X52107600Y-71009643D01*
X52191501Y-71078499D01*
X52260357Y-71162400D01*
X52276392Y-71192400D01*
X52311521Y-71258121D01*
X52343027Y-71361985D01*
X52353666Y-71470000D01*
X52343027Y-71578015D01*
X52311521Y-71681879D01*
X52311519Y-71681882D01*
X52260357Y-71777600D01*
X52191501Y-71861501D01*
X52107600Y-71930357D01*
X52039055Y-71966995D01*
X52011879Y-71981521D01*
X51999131Y-71985388D01*
X51976504Y-71994760D01*
X51956130Y-72008374D01*
X51938803Y-72025701D01*
X51925189Y-72046075D01*
X51915812Y-72068714D01*
X51911031Y-72092747D01*
X51911031Y-72117251D01*
X51915811Y-72141285D01*
X51925188Y-72163924D01*
X51938802Y-72184298D01*
X51956129Y-72201625D01*
X51976503Y-72215239D01*
X51999131Y-72224612D01*
X52011879Y-72228479D01*
X52039055Y-72243005D01*
X52107600Y-72279643D01*
X52191501Y-72348499D01*
X52260357Y-72432400D01*
X52276392Y-72462400D01*
X52311521Y-72528121D01*
X52343027Y-72631985D01*
X52353666Y-72740000D01*
X52343027Y-72848015D01*
X52311521Y-72951879D01*
X52311519Y-72951882D01*
X52260357Y-73047600D01*
X52191501Y-73131501D01*
X52107600Y-73200357D01*
X52039055Y-73236995D01*
X52011879Y-73251521D01*
X51999131Y-73255388D01*
X51976504Y-73264760D01*
X51956130Y-73278374D01*
X51938803Y-73295701D01*
X51925189Y-73316075D01*
X51915812Y-73338714D01*
X51911031Y-73362747D01*
X51911031Y-73387251D01*
X51915811Y-73411285D01*
X51925188Y-73433924D01*
X51938802Y-73454298D01*
X51956129Y-73471625D01*
X51976503Y-73485239D01*
X51999131Y-73494612D01*
X52011879Y-73498479D01*
X52039055Y-73513005D01*
X52107600Y-73549643D01*
X52191501Y-73618499D01*
X52260357Y-73702400D01*
X52276392Y-73732400D01*
X52311521Y-73798121D01*
X52343027Y-73901985D01*
X52353666Y-74010000D01*
X52343027Y-74118015D01*
X52311521Y-74221879D01*
X52311519Y-74221882D01*
X52260357Y-74317600D01*
X52191501Y-74401501D01*
X52107600Y-74470357D01*
X52047917Y-74502258D01*
X52011879Y-74521521D01*
X51999131Y-74525388D01*
X51976504Y-74534760D01*
X51956130Y-74548374D01*
X51938803Y-74565701D01*
X51925189Y-74586075D01*
X51915812Y-74608714D01*
X51911031Y-74632747D01*
X51911031Y-74657251D01*
X51915811Y-74681285D01*
X51925188Y-74703924D01*
X51938802Y-74724298D01*
X51956129Y-74741625D01*
X51976503Y-74755239D01*
X51999131Y-74764612D01*
X52011879Y-74768479D01*
X52039055Y-74783005D01*
X52107600Y-74819643D01*
X52191501Y-74888499D01*
X52260357Y-74972400D01*
X52276392Y-75002400D01*
X52311521Y-75068121D01*
X52343027Y-75171985D01*
X52353666Y-75280000D01*
X52343027Y-75388015D01*
X52311521Y-75491879D01*
X52311519Y-75491882D01*
X52260357Y-75587600D01*
X52191501Y-75671501D01*
X52107600Y-75740357D01*
X52039055Y-75776995D01*
X52011879Y-75791521D01*
X51999131Y-75795388D01*
X51976504Y-75804760D01*
X51956130Y-75818374D01*
X51938803Y-75835701D01*
X51925189Y-75856075D01*
X51915812Y-75878714D01*
X51911031Y-75902747D01*
X51911031Y-75927251D01*
X51915811Y-75951285D01*
X51925188Y-75973924D01*
X51938802Y-75994298D01*
X51956129Y-76011625D01*
X51976503Y-76025239D01*
X51999131Y-76034612D01*
X52011879Y-76038479D01*
X52039055Y-76053005D01*
X52107600Y-76089643D01*
X52191501Y-76158499D01*
X52260357Y-76242400D01*
X52276392Y-76272400D01*
X52311521Y-76338121D01*
X52343027Y-76441985D01*
X52353666Y-76550000D01*
X52343027Y-76658015D01*
X52311521Y-76761879D01*
X52311519Y-76761882D01*
X52260357Y-76857600D01*
X52191501Y-76941501D01*
X52107600Y-77010357D01*
X52048454Y-77041971D01*
X52011879Y-77061521D01*
X51999131Y-77065388D01*
X51976504Y-77074760D01*
X51956130Y-77088374D01*
X51938803Y-77105701D01*
X51925189Y-77126075D01*
X51915812Y-77148714D01*
X51911031Y-77172747D01*
X51911031Y-77197251D01*
X51915811Y-77221285D01*
X51925188Y-77243924D01*
X51938802Y-77264298D01*
X51956129Y-77281625D01*
X51976503Y-77295239D01*
X51999131Y-77304612D01*
X52011879Y-77308479D01*
X52033171Y-77319860D01*
X52107600Y-77359643D01*
X52191501Y-77428499D01*
X52260357Y-77512400D01*
X52276392Y-77542400D01*
X52311521Y-77608121D01*
X52343027Y-77711985D01*
X52353666Y-77820000D01*
X52343027Y-77928015D01*
X52311521Y-78031879D01*
X52296995Y-78059055D01*
X52260357Y-78127600D01*
X52191501Y-78211501D01*
X52107600Y-78280357D01*
X52041105Y-78315899D01*
X52011879Y-78331521D01*
X51999131Y-78335388D01*
X51976504Y-78344760D01*
X51956130Y-78358374D01*
X51938803Y-78375701D01*
X51925189Y-78396075D01*
X51915812Y-78418714D01*
X51911031Y-78442747D01*
X51911031Y-78467251D01*
X51915811Y-78491285D01*
X51925188Y-78513924D01*
X51938802Y-78534298D01*
X51956129Y-78551625D01*
X51976503Y-78565239D01*
X51999131Y-78574612D01*
X52011879Y-78578479D01*
X52039055Y-78593005D01*
X52107600Y-78629643D01*
X52191501Y-78698499D01*
X52260357Y-78782400D01*
X52276392Y-78812400D01*
X52311521Y-78878121D01*
X52343027Y-78981985D01*
X52353666Y-79090000D01*
X52343027Y-79198015D01*
X52311521Y-79301879D01*
X52311519Y-79301882D01*
X52260357Y-79397600D01*
X52191501Y-79481501D01*
X52107600Y-79550357D01*
X52039055Y-79586995D01*
X52011879Y-79601521D01*
X51999131Y-79605388D01*
X51976504Y-79614760D01*
X51956130Y-79628374D01*
X51938803Y-79645701D01*
X51925189Y-79666075D01*
X51915812Y-79688714D01*
X51911031Y-79712747D01*
X51911031Y-79737251D01*
X51915811Y-79761285D01*
X51925188Y-79783924D01*
X51938802Y-79804298D01*
X51956129Y-79821625D01*
X51976503Y-79835239D01*
X51999131Y-79844612D01*
X52011879Y-79848479D01*
X52033895Y-79860247D01*
X52107600Y-79899643D01*
X52191501Y-79968499D01*
X52260357Y-80052400D01*
X52276392Y-80082400D01*
X52311521Y-80148121D01*
X52343027Y-80251985D01*
X52353666Y-80360000D01*
X52343027Y-80468015D01*
X52311521Y-80571879D01*
X52311519Y-80571882D01*
X52260357Y-80667600D01*
X52191501Y-80751501D01*
X52107600Y-80820357D01*
X52039055Y-80856995D01*
X52011879Y-80871521D01*
X51999131Y-80875388D01*
X51976504Y-80884760D01*
X51956130Y-80898374D01*
X51938803Y-80915701D01*
X51925189Y-80936075D01*
X51915812Y-80958714D01*
X51911031Y-80982747D01*
X51911031Y-81007251D01*
X51915811Y-81031285D01*
X51925188Y-81053924D01*
X51938802Y-81074298D01*
X51956129Y-81091625D01*
X51976503Y-81105239D01*
X51999131Y-81114612D01*
X52011879Y-81118479D01*
X52039055Y-81133005D01*
X52107600Y-81169643D01*
X52191501Y-81238499D01*
X52260357Y-81322400D01*
X52276392Y-81352400D01*
X52311521Y-81418121D01*
X52343027Y-81521985D01*
X52353666Y-81630000D01*
X52343027Y-81738015D01*
X52311521Y-81841879D01*
X52311519Y-81841882D01*
X52260357Y-81937600D01*
X52191501Y-82021501D01*
X52107600Y-82090357D01*
X52039055Y-82126995D01*
X52011879Y-82141521D01*
X51999131Y-82145388D01*
X51976504Y-82154760D01*
X51956130Y-82168374D01*
X51938803Y-82185701D01*
X51925189Y-82206075D01*
X51915812Y-82228714D01*
X51911031Y-82252747D01*
X51911031Y-82277251D01*
X51915811Y-82301285D01*
X51925188Y-82323924D01*
X51938802Y-82344298D01*
X51956129Y-82361625D01*
X51976503Y-82375239D01*
X51999131Y-82384612D01*
X52011879Y-82388479D01*
X52039055Y-82403005D01*
X52107600Y-82439643D01*
X52191501Y-82508499D01*
X52260357Y-82592400D01*
X52276392Y-82622400D01*
X52311521Y-82688121D01*
X52343027Y-82791985D01*
X52353666Y-82900000D01*
X52343027Y-83008015D01*
X52311521Y-83111879D01*
X52311519Y-83111882D01*
X52260357Y-83207600D01*
X52191501Y-83291501D01*
X52107600Y-83360357D01*
X52039055Y-83396995D01*
X52011879Y-83411521D01*
X51999131Y-83415388D01*
X51976504Y-83424760D01*
X51956130Y-83438374D01*
X51938803Y-83455701D01*
X51925189Y-83476075D01*
X51915812Y-83498714D01*
X51911031Y-83522747D01*
X51911031Y-83547251D01*
X51915811Y-83571285D01*
X51925188Y-83593924D01*
X51938802Y-83614298D01*
X51956129Y-83631625D01*
X51976503Y-83645239D01*
X51999131Y-83654612D01*
X52011879Y-83658479D01*
X52039055Y-83673005D01*
X52107600Y-83709643D01*
X52191501Y-83778499D01*
X52260357Y-83862400D01*
X52276392Y-83892400D01*
X52311521Y-83958121D01*
X52343027Y-84061985D01*
X52353666Y-84170000D01*
X52343027Y-84278015D01*
X52311521Y-84381879D01*
X52311519Y-84381882D01*
X52260357Y-84477600D01*
X52191501Y-84561501D01*
X52107600Y-84630357D01*
X52039055Y-84666995D01*
X52011879Y-84681521D01*
X51999131Y-84685388D01*
X51976504Y-84694760D01*
X51956130Y-84708374D01*
X51938803Y-84725701D01*
X51925189Y-84746075D01*
X51915812Y-84768714D01*
X51911031Y-84792747D01*
X51911031Y-84817251D01*
X51915811Y-84841285D01*
X51925188Y-84863924D01*
X51938802Y-84884298D01*
X51956129Y-84901625D01*
X51976503Y-84915239D01*
X51999131Y-84924612D01*
X52011879Y-84928479D01*
X52039055Y-84943005D01*
X52107600Y-84979643D01*
X52191501Y-85048499D01*
X52260357Y-85132400D01*
X52276392Y-85162400D01*
X52311521Y-85228121D01*
X52343027Y-85331985D01*
X52353666Y-85440000D01*
X52343027Y-85548015D01*
X52311521Y-85651879D01*
X52311519Y-85651882D01*
X52260357Y-85747600D01*
X52191501Y-85831501D01*
X52107600Y-85900357D01*
X52039055Y-85936995D01*
X52011879Y-85951521D01*
X51999131Y-85955388D01*
X51976504Y-85964760D01*
X51956130Y-85978374D01*
X51938803Y-85995701D01*
X51925189Y-86016075D01*
X51915812Y-86038714D01*
X51911031Y-86062747D01*
X51911031Y-86087251D01*
X51915811Y-86111285D01*
X51925188Y-86133924D01*
X51938802Y-86154298D01*
X51956129Y-86171625D01*
X51976503Y-86185239D01*
X51999131Y-86194612D01*
X52011879Y-86198479D01*
X52039055Y-86213005D01*
X52107600Y-86249643D01*
X52191501Y-86318499D01*
X52260357Y-86402400D01*
X52276392Y-86432400D01*
X52311521Y-86498121D01*
X52343027Y-86601985D01*
X52353666Y-86710000D01*
X52343027Y-86818015D01*
X52311521Y-86921879D01*
X52311519Y-86921882D01*
X52260357Y-87017600D01*
X52191501Y-87101501D01*
X52107600Y-87170357D01*
X52039055Y-87206995D01*
X52011879Y-87221521D01*
X51999131Y-87225388D01*
X51976504Y-87234760D01*
X51956130Y-87248374D01*
X51938803Y-87265701D01*
X51925189Y-87286075D01*
X51915812Y-87308714D01*
X51911031Y-87332747D01*
X51911031Y-87357251D01*
X51915811Y-87381285D01*
X51925188Y-87403924D01*
X51938802Y-87424298D01*
X51956129Y-87441625D01*
X51976503Y-87455239D01*
X51999131Y-87464612D01*
X52011879Y-87468479D01*
X52039055Y-87483005D01*
X52107600Y-87519643D01*
X52191501Y-87588499D01*
X52260357Y-87672400D01*
X52276392Y-87702400D01*
X52311521Y-87768121D01*
X52343027Y-87871985D01*
X52353666Y-87980000D01*
X52343027Y-88088015D01*
X52311521Y-88191879D01*
X52311519Y-88191882D01*
X52260357Y-88287600D01*
X52191501Y-88371501D01*
X52107600Y-88440357D01*
X52039055Y-88476995D01*
X52011879Y-88491521D01*
X51999131Y-88495388D01*
X51976504Y-88504760D01*
X51956130Y-88518374D01*
X51938803Y-88535701D01*
X51925189Y-88556075D01*
X51915812Y-88578714D01*
X51911031Y-88602747D01*
X51911031Y-88627251D01*
X51915811Y-88651285D01*
X51925188Y-88673924D01*
X51938802Y-88694298D01*
X51956129Y-88711625D01*
X51976503Y-88725239D01*
X51999131Y-88734612D01*
X52011879Y-88738479D01*
X52039055Y-88753005D01*
X52107600Y-88789643D01*
X52191501Y-88858499D01*
X52260357Y-88942400D01*
X52276392Y-88972400D01*
X52311521Y-89038121D01*
X52343027Y-89141985D01*
X52353666Y-89250000D01*
X52343027Y-89358015D01*
X52311521Y-89461879D01*
X52311519Y-89461882D01*
X52260357Y-89557600D01*
X52191501Y-89641501D01*
X52107600Y-89710357D01*
X52051477Y-89740355D01*
X52011879Y-89761521D01*
X51999131Y-89765388D01*
X51976504Y-89774760D01*
X51956130Y-89788374D01*
X51938803Y-89805701D01*
X51925189Y-89826075D01*
X51915812Y-89848714D01*
X51911031Y-89872747D01*
X51911031Y-89897251D01*
X51915811Y-89921285D01*
X51925188Y-89943924D01*
X51938802Y-89964298D01*
X51956129Y-89981625D01*
X51976503Y-89995239D01*
X51999131Y-90004612D01*
X52011879Y-90008479D01*
X52039055Y-90023005D01*
X52107600Y-90059643D01*
X52191501Y-90128499D01*
X52260357Y-90212400D01*
X52296995Y-90280945D01*
X52311521Y-90308121D01*
X52343027Y-90411985D01*
X52353666Y-90520000D01*
X52343027Y-90628015D01*
X52311521Y-90731879D01*
X52311519Y-90731882D01*
X52260357Y-90827600D01*
X52191501Y-90911501D01*
X52107600Y-90980357D01*
X52039055Y-91016995D01*
X52011879Y-91031521D01*
X51908015Y-91063027D01*
X51827067Y-91071000D01*
X51772933Y-91071000D01*
X51691985Y-91063027D01*
X51588121Y-91031521D01*
X51560945Y-91016995D01*
X51492400Y-90980357D01*
X51408499Y-90911501D01*
X51339643Y-90827600D01*
X51288481Y-90731882D01*
X51288479Y-90731879D01*
X51256973Y-90628015D01*
X51246334Y-90520000D01*
X51256973Y-90411985D01*
X51288479Y-90308121D01*
X51303005Y-90280945D01*
X51339643Y-90212400D01*
X51408499Y-90128499D01*
X51492400Y-90059643D01*
X51560945Y-90023005D01*
X51588121Y-90008479D01*
X51600869Y-90004612D01*
X51623496Y-89995240D01*
X51643870Y-89981626D01*
X51661197Y-89964299D01*
X51674811Y-89943925D01*
X51684188Y-89921286D01*
X51688969Y-89897253D01*
X51688969Y-89872749D01*
X51684189Y-89848715D01*
X51674812Y-89826076D01*
X51661198Y-89805702D01*
X51643871Y-89788375D01*
X51623497Y-89774761D01*
X51600869Y-89765388D01*
X51588121Y-89761521D01*
X51548523Y-89740355D01*
X51492400Y-89710357D01*
X51408499Y-89641501D01*
X51339643Y-89557600D01*
X51288481Y-89461882D01*
X51288479Y-89461879D01*
X51256973Y-89358015D01*
X51246334Y-89250000D01*
X51256973Y-89141985D01*
X51288479Y-89038121D01*
X51323608Y-88972400D01*
X51339643Y-88942400D01*
X51408499Y-88858499D01*
X51492400Y-88789643D01*
X51560945Y-88753005D01*
X51588121Y-88738479D01*
X51600869Y-88734612D01*
X51623496Y-88725240D01*
X51643870Y-88711626D01*
X51661197Y-88694299D01*
X51674811Y-88673925D01*
X51684188Y-88651286D01*
X51688969Y-88627253D01*
X51688969Y-88602749D01*
X51684189Y-88578715D01*
X51674812Y-88556076D01*
X51661198Y-88535702D01*
X51643871Y-88518375D01*
X51623497Y-88504761D01*
X51600869Y-88495388D01*
X51588121Y-88491521D01*
X51560945Y-88476995D01*
X51492400Y-88440357D01*
X51408499Y-88371501D01*
X51339643Y-88287600D01*
X51288481Y-88191882D01*
X51288479Y-88191879D01*
X51256973Y-88088015D01*
X51246334Y-87980000D01*
X51256973Y-87871985D01*
X51288479Y-87768121D01*
X51323608Y-87702400D01*
X51339643Y-87672400D01*
X51408499Y-87588499D01*
X51492400Y-87519643D01*
X51560945Y-87483005D01*
X51588121Y-87468479D01*
X51600869Y-87464612D01*
X51623496Y-87455240D01*
X51643870Y-87441626D01*
X51661197Y-87424299D01*
X51674811Y-87403925D01*
X51684188Y-87381286D01*
X51688969Y-87357253D01*
X51688969Y-87332749D01*
X51684189Y-87308715D01*
X51674812Y-87286076D01*
X51661198Y-87265702D01*
X51643871Y-87248375D01*
X51623497Y-87234761D01*
X51600869Y-87225388D01*
X51588121Y-87221521D01*
X51560945Y-87206995D01*
X51492400Y-87170357D01*
X51408499Y-87101501D01*
X51339643Y-87017600D01*
X51288481Y-86921882D01*
X51288479Y-86921879D01*
X51256973Y-86818015D01*
X51246334Y-86710000D01*
X51256973Y-86601985D01*
X51288479Y-86498121D01*
X51323608Y-86432400D01*
X51339643Y-86402400D01*
X51408499Y-86318499D01*
X51492400Y-86249643D01*
X51560945Y-86213005D01*
X51588121Y-86198479D01*
X51600869Y-86194612D01*
X51623496Y-86185240D01*
X51643870Y-86171626D01*
X51661197Y-86154299D01*
X51674811Y-86133925D01*
X51684188Y-86111286D01*
X51688969Y-86087253D01*
X51688969Y-86062749D01*
X51684189Y-86038715D01*
X51674812Y-86016076D01*
X51661198Y-85995702D01*
X51643871Y-85978375D01*
X51623497Y-85964761D01*
X51600869Y-85955388D01*
X51588121Y-85951521D01*
X51560945Y-85936995D01*
X51492400Y-85900357D01*
X51408499Y-85831501D01*
X51339643Y-85747600D01*
X51288481Y-85651882D01*
X51288479Y-85651879D01*
X51256973Y-85548015D01*
X51246334Y-85440000D01*
X51256973Y-85331985D01*
X51288479Y-85228121D01*
X51323608Y-85162400D01*
X51339643Y-85132400D01*
X51408499Y-85048499D01*
X51492400Y-84979643D01*
X51560945Y-84943005D01*
X51588121Y-84928479D01*
X51600869Y-84924612D01*
X51623496Y-84915240D01*
X51643870Y-84901626D01*
X51661197Y-84884299D01*
X51674811Y-84863925D01*
X51684188Y-84841286D01*
X51688969Y-84817253D01*
X51688969Y-84792749D01*
X51684189Y-84768715D01*
X51674812Y-84746076D01*
X51661198Y-84725702D01*
X51643871Y-84708375D01*
X51623497Y-84694761D01*
X51600869Y-84685388D01*
X51588121Y-84681521D01*
X51560945Y-84666995D01*
X51492400Y-84630357D01*
X51408499Y-84561501D01*
X51339643Y-84477600D01*
X51288481Y-84381882D01*
X51288479Y-84381879D01*
X51256973Y-84278015D01*
X51246334Y-84170000D01*
X51256973Y-84061985D01*
X51288479Y-83958121D01*
X51323608Y-83892400D01*
X51339643Y-83862400D01*
X51408499Y-83778499D01*
X51492400Y-83709643D01*
X51560945Y-83673005D01*
X51588121Y-83658479D01*
X51600869Y-83654612D01*
X51623496Y-83645240D01*
X51643870Y-83631626D01*
X51661197Y-83614299D01*
X51674811Y-83593925D01*
X51684188Y-83571286D01*
X51688969Y-83547253D01*
X51688969Y-83522749D01*
X51684189Y-83498715D01*
X51674812Y-83476076D01*
X51661198Y-83455702D01*
X51643871Y-83438375D01*
X51623497Y-83424761D01*
X51600869Y-83415388D01*
X51588121Y-83411521D01*
X51560945Y-83396995D01*
X51492400Y-83360357D01*
X51408499Y-83291501D01*
X51339643Y-83207600D01*
X51288481Y-83111882D01*
X51288479Y-83111879D01*
X51256973Y-83008015D01*
X51246334Y-82900000D01*
X51256973Y-82791985D01*
X51288479Y-82688121D01*
X51323608Y-82622400D01*
X51339643Y-82592400D01*
X51408499Y-82508499D01*
X51492400Y-82439643D01*
X51560945Y-82403005D01*
X51588121Y-82388479D01*
X51600869Y-82384612D01*
X51623496Y-82375240D01*
X51643870Y-82361626D01*
X51661197Y-82344299D01*
X51674811Y-82323925D01*
X51684188Y-82301286D01*
X51688969Y-82277253D01*
X51688969Y-82252749D01*
X51684189Y-82228715D01*
X51674812Y-82206076D01*
X51661198Y-82185702D01*
X51643871Y-82168375D01*
X51623497Y-82154761D01*
X51600869Y-82145388D01*
X51588121Y-82141521D01*
X51560945Y-82126995D01*
X51492400Y-82090357D01*
X51408499Y-82021501D01*
X51339643Y-81937600D01*
X51288481Y-81841882D01*
X51288479Y-81841879D01*
X51256973Y-81738015D01*
X51246334Y-81630000D01*
X51256973Y-81521985D01*
X51288479Y-81418121D01*
X51323608Y-81352400D01*
X51339643Y-81322400D01*
X51408499Y-81238499D01*
X51492400Y-81169643D01*
X51560945Y-81133005D01*
X51588121Y-81118479D01*
X51600869Y-81114612D01*
X51623496Y-81105240D01*
X51643870Y-81091626D01*
X51661197Y-81074299D01*
X51674811Y-81053925D01*
X51684188Y-81031286D01*
X51688969Y-81007253D01*
X51688969Y-80982749D01*
X51684189Y-80958715D01*
X51674812Y-80936076D01*
X51661198Y-80915702D01*
X51643871Y-80898375D01*
X51623497Y-80884761D01*
X51600869Y-80875388D01*
X51588121Y-80871521D01*
X51560945Y-80856995D01*
X51492400Y-80820357D01*
X51408499Y-80751501D01*
X51339643Y-80667600D01*
X51288481Y-80571882D01*
X51288479Y-80571879D01*
X51256973Y-80468015D01*
X51246334Y-80360000D01*
X51256973Y-80251985D01*
X51288479Y-80148121D01*
X51323608Y-80082400D01*
X51339643Y-80052400D01*
X51408499Y-79968499D01*
X51492400Y-79899643D01*
X51566105Y-79860247D01*
X51588121Y-79848479D01*
X51600869Y-79844612D01*
X51623496Y-79835240D01*
X51643870Y-79821626D01*
X51661197Y-79804299D01*
X51674811Y-79783925D01*
X51684188Y-79761286D01*
X51688969Y-79737253D01*
X51688969Y-79712749D01*
X51684189Y-79688715D01*
X51674812Y-79666076D01*
X51661198Y-79645702D01*
X51643871Y-79628375D01*
X51623497Y-79614761D01*
X51600869Y-79605388D01*
X51588121Y-79601521D01*
X51560945Y-79586995D01*
X51492400Y-79550357D01*
X51408499Y-79481501D01*
X51339643Y-79397600D01*
X51288481Y-79301882D01*
X51288479Y-79301879D01*
X51256973Y-79198015D01*
X51246334Y-79090000D01*
X51256973Y-78981985D01*
X51288479Y-78878121D01*
X51323608Y-78812400D01*
X51339643Y-78782400D01*
X51408499Y-78698499D01*
X51492400Y-78629643D01*
X51560945Y-78593005D01*
X51588121Y-78578479D01*
X51600869Y-78574612D01*
X51623496Y-78565240D01*
X51643870Y-78551626D01*
X51661197Y-78534299D01*
X51674811Y-78513925D01*
X51684188Y-78491286D01*
X51688969Y-78467253D01*
X51688969Y-78442749D01*
X51684189Y-78418715D01*
X51674812Y-78396076D01*
X51661198Y-78375702D01*
X51643871Y-78358375D01*
X51623497Y-78344761D01*
X51600869Y-78335388D01*
X51588121Y-78331521D01*
X51558895Y-78315899D01*
X51492400Y-78280357D01*
X51408499Y-78211501D01*
X51339643Y-78127600D01*
X51303005Y-78059055D01*
X51288479Y-78031879D01*
X51256973Y-77928015D01*
X51246334Y-77820000D01*
X51256973Y-77711985D01*
X51288479Y-77608121D01*
X51323608Y-77542400D01*
X51339643Y-77512400D01*
X51408499Y-77428499D01*
X51492400Y-77359643D01*
X51566829Y-77319860D01*
X51588121Y-77308479D01*
X51600869Y-77304612D01*
X51623496Y-77295240D01*
X51643870Y-77281626D01*
X51661197Y-77264299D01*
X51674811Y-77243925D01*
X51684188Y-77221286D01*
X51688969Y-77197253D01*
X51688969Y-77172749D01*
X51684189Y-77148715D01*
X51674812Y-77126076D01*
X51661198Y-77105702D01*
X51643871Y-77088375D01*
X51623497Y-77074761D01*
X51600869Y-77065388D01*
X51588121Y-77061521D01*
X51551546Y-77041971D01*
X51492400Y-77010357D01*
X51408499Y-76941501D01*
X51339643Y-76857600D01*
X51288481Y-76761882D01*
X51288479Y-76761879D01*
X51256973Y-76658015D01*
X51246334Y-76550000D01*
X51256973Y-76441985D01*
X51288479Y-76338121D01*
X51323608Y-76272400D01*
X51339643Y-76242400D01*
X51408499Y-76158499D01*
X51492400Y-76089643D01*
X51560945Y-76053005D01*
X51588121Y-76038479D01*
X51600869Y-76034612D01*
X51623496Y-76025240D01*
X51643870Y-76011626D01*
X51661197Y-75994299D01*
X51674811Y-75973925D01*
X51684188Y-75951286D01*
X51688969Y-75927253D01*
X51688969Y-75902749D01*
X51684189Y-75878715D01*
X51674812Y-75856076D01*
X51661198Y-75835702D01*
X51643871Y-75818375D01*
X51623497Y-75804761D01*
X51600869Y-75795388D01*
X51588121Y-75791521D01*
X51560945Y-75776995D01*
X51492400Y-75740357D01*
X51408499Y-75671501D01*
X51339643Y-75587600D01*
X51288481Y-75491882D01*
X51288479Y-75491879D01*
X51256973Y-75388015D01*
X51246334Y-75280000D01*
X51256973Y-75171985D01*
X51288479Y-75068121D01*
X51323608Y-75002400D01*
X51339643Y-74972400D01*
X51408499Y-74888499D01*
X51492400Y-74819643D01*
X51560945Y-74783005D01*
X51588121Y-74768479D01*
X51600869Y-74764612D01*
X51623496Y-74755240D01*
X51643870Y-74741626D01*
X51661197Y-74724299D01*
X51674811Y-74703925D01*
X51684188Y-74681286D01*
X51688969Y-74657253D01*
X51688969Y-74632749D01*
X51684189Y-74608715D01*
X51674812Y-74586076D01*
X51661198Y-74565702D01*
X51643871Y-74548375D01*
X51623497Y-74534761D01*
X51600869Y-74525388D01*
X51588121Y-74521521D01*
X51552083Y-74502258D01*
X51492400Y-74470357D01*
X51408499Y-74401501D01*
X51339643Y-74317600D01*
X51288481Y-74221882D01*
X51288479Y-74221879D01*
X51256973Y-74118015D01*
X51246334Y-74010000D01*
X51256973Y-73901985D01*
X51288479Y-73798121D01*
X51323608Y-73732400D01*
X51339643Y-73702400D01*
X51408499Y-73618499D01*
X51492400Y-73549643D01*
X51560945Y-73513005D01*
X51588121Y-73498479D01*
X51600869Y-73494612D01*
X51623496Y-73485240D01*
X51643870Y-73471626D01*
X51661197Y-73454299D01*
X51674811Y-73433925D01*
X51684188Y-73411286D01*
X51688969Y-73387253D01*
X51688969Y-73362749D01*
X51684189Y-73338715D01*
X51674812Y-73316076D01*
X51661198Y-73295702D01*
X51643871Y-73278375D01*
X51623497Y-73264761D01*
X51600869Y-73255388D01*
X51588121Y-73251521D01*
X51560945Y-73236995D01*
X51492400Y-73200357D01*
X51408499Y-73131501D01*
X51339643Y-73047600D01*
X51288481Y-72951882D01*
X51288479Y-72951879D01*
X51256973Y-72848015D01*
X51246334Y-72740000D01*
X51256973Y-72631985D01*
X51288479Y-72528121D01*
X51323608Y-72462400D01*
X51339643Y-72432400D01*
X51408499Y-72348499D01*
X51492400Y-72279643D01*
X51560945Y-72243005D01*
X51588121Y-72228479D01*
X51600869Y-72224612D01*
X51623496Y-72215240D01*
X51643870Y-72201626D01*
X51661197Y-72184299D01*
X51674811Y-72163925D01*
X51684188Y-72141286D01*
X51688969Y-72117253D01*
X51688969Y-72092749D01*
X51684189Y-72068715D01*
X51674812Y-72046076D01*
X51661198Y-72025702D01*
X51643871Y-72008375D01*
X51623497Y-71994761D01*
X51600869Y-71985388D01*
X51588121Y-71981521D01*
X51560945Y-71966995D01*
X51492400Y-71930357D01*
X51408499Y-71861501D01*
X51339643Y-71777600D01*
X51288481Y-71681882D01*
X51288479Y-71681879D01*
X51256973Y-71578015D01*
X51246334Y-71470000D01*
X51256973Y-71361985D01*
X51288479Y-71258121D01*
X51323608Y-71192400D01*
X51339643Y-71162400D01*
X51408499Y-71078499D01*
X51492400Y-71009643D01*
X51560945Y-70973005D01*
X51588121Y-70958479D01*
X51600869Y-70954612D01*
X51623496Y-70945240D01*
X51643870Y-70931626D01*
X51661197Y-70914299D01*
X51674811Y-70893925D01*
X51684188Y-70871286D01*
X51688969Y-70847253D01*
X51688969Y-70822749D01*
X51684189Y-70798715D01*
X51674812Y-70776076D01*
X51661198Y-70755702D01*
X51643871Y-70738375D01*
X51623497Y-70724761D01*
X51600869Y-70715388D01*
X51588121Y-70711521D01*
X51560945Y-70696995D01*
X51492400Y-70660357D01*
X51408499Y-70591501D01*
X51339643Y-70507600D01*
X51288481Y-70411882D01*
X51288479Y-70411879D01*
X51256973Y-70308015D01*
X51246334Y-70200000D01*
X51256973Y-70091985D01*
X51288479Y-69988121D01*
X51323608Y-69922400D01*
X51339643Y-69892400D01*
X51408499Y-69808499D01*
X51492400Y-69739643D01*
X51560945Y-69703005D01*
X51588121Y-69688479D01*
X51600869Y-69684612D01*
X51623496Y-69675240D01*
X51643870Y-69661626D01*
X51661197Y-69644299D01*
X51674811Y-69623925D01*
X51684188Y-69601286D01*
X51688969Y-69577253D01*
X51688969Y-69552749D01*
X51684189Y-69528715D01*
X51674812Y-69506076D01*
X51661198Y-69485702D01*
X51643871Y-69468375D01*
X51623497Y-69454761D01*
X51600869Y-69445388D01*
X51588121Y-69441521D01*
X51560945Y-69426995D01*
X51492400Y-69390357D01*
X51408499Y-69321501D01*
X51339643Y-69237600D01*
X51288481Y-69141882D01*
X51288479Y-69141879D01*
X51256973Y-69038015D01*
X51246334Y-68930000D01*
X51256973Y-68821985D01*
X51288479Y-68718121D01*
X51323608Y-68652400D01*
X51339643Y-68622400D01*
X51408499Y-68538499D01*
X51492400Y-68469643D01*
X51560945Y-68433005D01*
X51588121Y-68418479D01*
X51600869Y-68414612D01*
X51623496Y-68405240D01*
X51643870Y-68391626D01*
X51661197Y-68374299D01*
X51674811Y-68353925D01*
X51684188Y-68331286D01*
X51688969Y-68307253D01*
X51688969Y-68282749D01*
X51684189Y-68258715D01*
X51674812Y-68236076D01*
X51661198Y-68215702D01*
X51643871Y-68198375D01*
X51623497Y-68184761D01*
X51600869Y-68175388D01*
X51588121Y-68171521D01*
X51560945Y-68156995D01*
X51492400Y-68120357D01*
X51408499Y-68051501D01*
X51339643Y-67967600D01*
X51288481Y-67871882D01*
X51288479Y-67871879D01*
X51256973Y-67768015D01*
X51246334Y-67660000D01*
X51256973Y-67551985D01*
X51288479Y-67448121D01*
X51323608Y-67382400D01*
X51339643Y-67352400D01*
X51408499Y-67268499D01*
X51492400Y-67199643D01*
X51560945Y-67163005D01*
X51588121Y-67148479D01*
X51600869Y-67144612D01*
X51623496Y-67135240D01*
X51643870Y-67121626D01*
X51661197Y-67104299D01*
X51674811Y-67083925D01*
X51684188Y-67061286D01*
X51688969Y-67037253D01*
X51688969Y-67012749D01*
X51684189Y-66988715D01*
X51674812Y-66966076D01*
X51661198Y-66945702D01*
X51643871Y-66928375D01*
X51623497Y-66914761D01*
X51600869Y-66905388D01*
X51588121Y-66901521D01*
X51560945Y-66886995D01*
X51492400Y-66850357D01*
X51408499Y-66781501D01*
X51339643Y-66697600D01*
X51288481Y-66601882D01*
X51288479Y-66601879D01*
X51256973Y-66498015D01*
X51246334Y-66390000D01*
X51256973Y-66281985D01*
X51288479Y-66178121D01*
X51323608Y-66112400D01*
X51339643Y-66082400D01*
X51408499Y-65998499D01*
X51492400Y-65929643D01*
X51560945Y-65893005D01*
X51588121Y-65878479D01*
X51600869Y-65874612D01*
X51623496Y-65865240D01*
X51643870Y-65851626D01*
X51661197Y-65834299D01*
X51674811Y-65813925D01*
X51684188Y-65791286D01*
X51688969Y-65767253D01*
X51688969Y-65742749D01*
X51684189Y-65718715D01*
X51674812Y-65696076D01*
X51661198Y-65675702D01*
X51643871Y-65658375D01*
X51623497Y-65644761D01*
X51600869Y-65635388D01*
X51588121Y-65631521D01*
X51560945Y-65616995D01*
X51492400Y-65580357D01*
X51408499Y-65511501D01*
X51339643Y-65427600D01*
X51288481Y-65331882D01*
X51288479Y-65331879D01*
X51256973Y-65228015D01*
X51246334Y-65120000D01*
X51256973Y-65011985D01*
X51288479Y-64908121D01*
X51323608Y-64842400D01*
X51339643Y-64812400D01*
X51408499Y-64728499D01*
X51492400Y-64659643D01*
X51560945Y-64623005D01*
X51588121Y-64608479D01*
X51600869Y-64604612D01*
X51623496Y-64595240D01*
X51643870Y-64581626D01*
X51661197Y-64564299D01*
X51674811Y-64543925D01*
X51684188Y-64521286D01*
X51688969Y-64497253D01*
X51688969Y-64472749D01*
X51684189Y-64448715D01*
X51674812Y-64426076D01*
X51661198Y-64405702D01*
X51643871Y-64388375D01*
X51623497Y-64374761D01*
X51600869Y-64365388D01*
X51588121Y-64361521D01*
X51560945Y-64346995D01*
X51492400Y-64310357D01*
X51408499Y-64241501D01*
X51339643Y-64157600D01*
X51288481Y-64061882D01*
X51288479Y-64061879D01*
X51256973Y-63958015D01*
X51246334Y-63850000D01*
X51256973Y-63741985D01*
X51288479Y-63638121D01*
X51323608Y-63572400D01*
X51339643Y-63542400D01*
X51408499Y-63458499D01*
X51492400Y-63389643D01*
X51560945Y-63353005D01*
X51588121Y-63338479D01*
X51600869Y-63334612D01*
X51623496Y-63325240D01*
X51643870Y-63311626D01*
X51661197Y-63294299D01*
X51674811Y-63273925D01*
X51684188Y-63251286D01*
X51688969Y-63227253D01*
X51688969Y-63202749D01*
X51684189Y-63178715D01*
X51674812Y-63156076D01*
X51661198Y-63135702D01*
X51643871Y-63118375D01*
X51623497Y-63104761D01*
X51600869Y-63095388D01*
X51588121Y-63091521D01*
X51560945Y-63076995D01*
X51492400Y-63040357D01*
X51408499Y-62971501D01*
X51339643Y-62887600D01*
X51288481Y-62791882D01*
X51288479Y-62791879D01*
X51256973Y-62688015D01*
X51246334Y-62580000D01*
X51256973Y-62471985D01*
X51288479Y-62368121D01*
X51323608Y-62302400D01*
X51339643Y-62272400D01*
X51408499Y-62188499D01*
X51492400Y-62119643D01*
X51560945Y-62083005D01*
X51588121Y-62068479D01*
X51600869Y-62064612D01*
X51623496Y-62055240D01*
X51643870Y-62041626D01*
X51661197Y-62024299D01*
X51674811Y-62003925D01*
X51684188Y-61981286D01*
X51688969Y-61957253D01*
X51688969Y-61932749D01*
X51684189Y-61908715D01*
X51674812Y-61886076D01*
X51661198Y-61865702D01*
X51643871Y-61848375D01*
X51623497Y-61834761D01*
X51600869Y-61825388D01*
X51588121Y-61821521D01*
X51560945Y-61806995D01*
X51492400Y-61770357D01*
X51408499Y-61701501D01*
X51339643Y-61617600D01*
X51288481Y-61521882D01*
X51288479Y-61521879D01*
X51256973Y-61418015D01*
X51246334Y-61310000D01*
X51256973Y-61201985D01*
X51288479Y-61098121D01*
X51323608Y-61032400D01*
X51339643Y-61002400D01*
X51408499Y-60918499D01*
X51492400Y-60849643D01*
X51560945Y-60813005D01*
X51588121Y-60798479D01*
X51600869Y-60794612D01*
X51623496Y-60785240D01*
X51643870Y-60771626D01*
X51661197Y-60754299D01*
X51674811Y-60733925D01*
X51684188Y-60711286D01*
X51688969Y-60687253D01*
X51688969Y-60662749D01*
X51684189Y-60638715D01*
X51674812Y-60616076D01*
X51661198Y-60595702D01*
X51643871Y-60578375D01*
X51623497Y-60564761D01*
X51600869Y-60555388D01*
X51588121Y-60551521D01*
X51560945Y-60536995D01*
X51492400Y-60500357D01*
X51408499Y-60431501D01*
X51339643Y-60347600D01*
X51288481Y-60251882D01*
X51288479Y-60251879D01*
X51256973Y-60148015D01*
X51246334Y-60040000D01*
X51256973Y-59931985D01*
X51288479Y-59828121D01*
X51323608Y-59762400D01*
X51339643Y-59732400D01*
X51408499Y-59648499D01*
X51492400Y-59579643D01*
X51560945Y-59543005D01*
X51588121Y-59528479D01*
X51600869Y-59524612D01*
X51623496Y-59515240D01*
X51643870Y-59501626D01*
X51661197Y-59484299D01*
X51674811Y-59463925D01*
X51684188Y-59441286D01*
X51688969Y-59417253D01*
X51688969Y-59392749D01*
X51684189Y-59368715D01*
X51674812Y-59346076D01*
X51661198Y-59325702D01*
X51643871Y-59308375D01*
X51623497Y-59294761D01*
X51600869Y-59285388D01*
X51588121Y-59281521D01*
X51560945Y-59266995D01*
X51492400Y-59230357D01*
X51408499Y-59161501D01*
X51339643Y-59077600D01*
X51288481Y-58981882D01*
X51288479Y-58981879D01*
X51256973Y-58878015D01*
X51246334Y-58770000D01*
X51256973Y-58661985D01*
X51288479Y-58558121D01*
X51323608Y-58492400D01*
X51339643Y-58462400D01*
X51408499Y-58378499D01*
X51492400Y-58309643D01*
X51560945Y-58273005D01*
X51588121Y-58258479D01*
X51600869Y-58254612D01*
X51623496Y-58245240D01*
X51643870Y-58231626D01*
X51661197Y-58214299D01*
X51674811Y-58193925D01*
X51684188Y-58171286D01*
X51688969Y-58147253D01*
X51688969Y-58122749D01*
X51684189Y-58098715D01*
X51674812Y-58076076D01*
X51661198Y-58055702D01*
X51643871Y-58038375D01*
X51623497Y-58024761D01*
X51600869Y-58015388D01*
X51588121Y-58011521D01*
X51560945Y-57996995D01*
X51492400Y-57960357D01*
X51408499Y-57891501D01*
X51339643Y-57807600D01*
X51288481Y-57711882D01*
X51288479Y-57711879D01*
X51256973Y-57608015D01*
X51246334Y-57500000D01*
X51256973Y-57391985D01*
X51288479Y-57288121D01*
X51323608Y-57222400D01*
X51339643Y-57192400D01*
X51408499Y-57108499D01*
X51492400Y-57039643D01*
X51560945Y-57003005D01*
X51588121Y-56988479D01*
X51600869Y-56984612D01*
X51623496Y-56975240D01*
X51643870Y-56961626D01*
X51661197Y-56944299D01*
X51674811Y-56923925D01*
X51684188Y-56901286D01*
X51688969Y-56877253D01*
X51688969Y-56852749D01*
X51684189Y-56828715D01*
X51674812Y-56806076D01*
X51661198Y-56785702D01*
X51643871Y-56768375D01*
X51623497Y-56754761D01*
X51600869Y-56745388D01*
X51588121Y-56741521D01*
X51560945Y-56726995D01*
X51492400Y-56690357D01*
X51408499Y-56621501D01*
X51339643Y-56537600D01*
X51288481Y-56441882D01*
X51288479Y-56441879D01*
X51256973Y-56338015D01*
X51246334Y-56230000D01*
X51256973Y-56121985D01*
X51288479Y-56018121D01*
X51323608Y-55952400D01*
X51339643Y-55922400D01*
X51408499Y-55838499D01*
X51492400Y-55769643D01*
X51560945Y-55733005D01*
X51588121Y-55718479D01*
X51600869Y-55714612D01*
X51623496Y-55705240D01*
X51643870Y-55691626D01*
X51661197Y-55674299D01*
X51674811Y-55653925D01*
X51684188Y-55631286D01*
X51688969Y-55607253D01*
X51688969Y-55582749D01*
X51684189Y-55558715D01*
X51674812Y-55536076D01*
X51661198Y-55515702D01*
X51643871Y-55498375D01*
X51623497Y-55484761D01*
X51600869Y-55475388D01*
X51588121Y-55471521D01*
X51560945Y-55456995D01*
X51492400Y-55420357D01*
X51408499Y-55351501D01*
X51339643Y-55267600D01*
X51288481Y-55171882D01*
X51288479Y-55171879D01*
X51256973Y-55068015D01*
X51246334Y-54960000D01*
X51256973Y-54851985D01*
X51288479Y-54748121D01*
X51323608Y-54682400D01*
X51339643Y-54652400D01*
X51408499Y-54568499D01*
X51492400Y-54499643D01*
X51560945Y-54463005D01*
X51588121Y-54448479D01*
X51600869Y-54444612D01*
X51623496Y-54435240D01*
X51643870Y-54421626D01*
X51661197Y-54404299D01*
X51674811Y-54383925D01*
X51684188Y-54361286D01*
X51688969Y-54337253D01*
X51688969Y-54312749D01*
X51684189Y-54288715D01*
X51674812Y-54266076D01*
X51661198Y-54245702D01*
X51643871Y-54228375D01*
X51623497Y-54214761D01*
X51600869Y-54205388D01*
X51588121Y-54201521D01*
X51560945Y-54186995D01*
X51492400Y-54150357D01*
X51408499Y-54081501D01*
X51339643Y-53997600D01*
X51288481Y-53901882D01*
X51288479Y-53901879D01*
X51256973Y-53798015D01*
X51246334Y-53690000D01*
X51256973Y-53581985D01*
X51288479Y-53478121D01*
X51323608Y-53412400D01*
X51339643Y-53382400D01*
X51408499Y-53298499D01*
X51492400Y-53229643D01*
X51560945Y-53193005D01*
X51588121Y-53178479D01*
X51600869Y-53174612D01*
X51623496Y-53165240D01*
X51643870Y-53151626D01*
X51661197Y-53134299D01*
X51674811Y-53113925D01*
X51684188Y-53091286D01*
X51688969Y-53067253D01*
X51688969Y-53042749D01*
X51684189Y-53018715D01*
X51674812Y-52996076D01*
X51661198Y-52975702D01*
X51643871Y-52958375D01*
X51623497Y-52944761D01*
X51600869Y-52935388D01*
X51588121Y-52931521D01*
X51560945Y-52916995D01*
X51492400Y-52880357D01*
X51408499Y-52811501D01*
X51339643Y-52727600D01*
X51288481Y-52631882D01*
X51288479Y-52631879D01*
X51256973Y-52528015D01*
X51246334Y-52420000D01*
X51256973Y-52311985D01*
X51288479Y-52208121D01*
X51323608Y-52142400D01*
X51339643Y-52112400D01*
X51408499Y-52028499D01*
X51445984Y-51997736D01*
X51492400Y-51959644D01*
X51536193Y-51936236D01*
X51556563Y-51922625D01*
X51573890Y-51905298D01*
X51587504Y-51884924D01*
X51596881Y-51862285D01*
X51601662Y-51838252D01*
X51601662Y-51813748D01*
X51596882Y-51789714D01*
X51587505Y-51767076D01*
X51573891Y-51746701D01*
X51556564Y-51729374D01*
X51536190Y-51715760D01*
X51513551Y-51706383D01*
X51489518Y-51701602D01*
X51477265Y-51701000D01*
X51249000Y-51701000D01*
X51249000Y-50599000D01*
X52351000Y-50599000D01*
X52351000Y-51701000D01*
X52351000Y-51701000D01*
G37*
G36*
X83734999Y-79474737D02*
G01*
X83749528Y-79479145D01*
X83762711Y-79484606D01*
X83786745Y-79489388D01*
X83811249Y-79489389D01*
X83835282Y-79484609D01*
X83857921Y-79475232D01*
X83859765Y-79474000D01*
X85091050Y-79474000D01*
X85103164Y-79480475D01*
X85126613Y-79487588D01*
X85150999Y-79489990D01*
X85175385Y-79487588D01*
X85198834Y-79480475D01*
X85203746Y-79478152D01*
X85215001Y-79474737D01*
X85231140Y-79473148D01*
X85768861Y-79473148D01*
X85787199Y-79474954D01*
X85799450Y-79475556D01*
X85817869Y-79475556D01*
X85840149Y-79477750D01*
X85924233Y-79494476D01*
X85945660Y-79500976D01*
X86024858Y-79533780D01*
X86030303Y-79536691D01*
X86030309Y-79536693D01*
X86039169Y-79541429D01*
X86039173Y-79541432D01*
X86044614Y-79544340D01*
X86115899Y-79591971D01*
X86133204Y-79606172D01*
X86193828Y-79666796D01*
X86208029Y-79684101D01*
X86255660Y-79755386D01*
X86258568Y-79760827D01*
X86258571Y-79760831D01*
X86263307Y-79769691D01*
X86263309Y-79769697D01*
X86266220Y-79775142D01*
X86299024Y-79854340D01*
X86305524Y-79875767D01*
X86322250Y-79959851D01*
X86324444Y-79982131D01*
X86324444Y-80000550D01*
X86325046Y-80012801D01*
X86326852Y-80031139D01*
X86326852Y-80518862D01*
X86325046Y-80537199D01*
X86324444Y-80549450D01*
X86324444Y-80567869D01*
X86322250Y-80590149D01*
X86305524Y-80674233D01*
X86299024Y-80695660D01*
X86266220Y-80774858D01*
X86263309Y-80780303D01*
X86263307Y-80780309D01*
X86258571Y-80789169D01*
X86258568Y-80789173D01*
X86255660Y-80794614D01*
X86208029Y-80865899D01*
X86193828Y-80883204D01*
X86133204Y-80943828D01*
X86115899Y-80958029D01*
X86044614Y-81005660D01*
X86039173Y-81008568D01*
X86039169Y-81008571D01*
X86030309Y-81013307D01*
X86030303Y-81013309D01*
X86024858Y-81016220D01*
X85945660Y-81049024D01*
X85924233Y-81055524D01*
X85840149Y-81072250D01*
X85817869Y-81074444D01*
X85799450Y-81074444D01*
X85787199Y-81075046D01*
X85768862Y-81076852D01*
X85231140Y-81076852D01*
X85215001Y-81075263D01*
X85200472Y-81070855D01*
X85187289Y-81065394D01*
X85163255Y-81060612D01*
X85138751Y-81060611D01*
X85114718Y-81065391D01*
X85092079Y-81074768D01*
X85090235Y-81076000D01*
X83858950Y-81076000D01*
X83846836Y-81069525D01*
X83823387Y-81062412D01*
X83799001Y-81060010D01*
X83774615Y-81062412D01*
X83751166Y-81069525D01*
X83746254Y-81071848D01*
X83734999Y-81075263D01*
X83718860Y-81076852D01*
X83181138Y-81076852D01*
X83162801Y-81075046D01*
X83150550Y-81074444D01*
X83132131Y-81074444D01*
X83109851Y-81072250D01*
X83025767Y-81055524D01*
X83004340Y-81049024D01*
X82925142Y-81016220D01*
X82919697Y-81013309D01*
X82919691Y-81013307D01*
X82910831Y-81008571D01*
X82910827Y-81008568D01*
X82905386Y-81005660D01*
X82834101Y-80958029D01*
X82816796Y-80943828D01*
X82756172Y-80883204D01*
X82741971Y-80865899D01*
X82694340Y-80794614D01*
X82691432Y-80789173D01*
X82691429Y-80789169D01*
X82686693Y-80780309D01*
X82686691Y-80780303D01*
X82683780Y-80774858D01*
X82650976Y-80695660D01*
X82644476Y-80674233D01*
X82627750Y-80590149D01*
X82625556Y-80567869D01*
X82625556Y-80549450D01*
X82624954Y-80537199D01*
X82623148Y-80518862D01*
X82623148Y-80031139D01*
X82624954Y-80012801D01*
X82625556Y-80000550D01*
X82625556Y-79982131D01*
X82627750Y-79959851D01*
X82644476Y-79875767D01*
X82650976Y-79854340D01*
X82683780Y-79775142D01*
X82686691Y-79769697D01*
X82686693Y-79769691D01*
X82691429Y-79760831D01*
X82691432Y-79760827D01*
X82694340Y-79755386D01*
X82741971Y-79684101D01*
X82756172Y-79666796D01*
X82816796Y-79606172D01*
X82834101Y-79591971D01*
X82905386Y-79544340D01*
X82910827Y-79541432D01*
X82910831Y-79541429D01*
X82919691Y-79536693D01*
X82919697Y-79536691D01*
X82925142Y-79533780D01*
X83004340Y-79500976D01*
X83025767Y-79494476D01*
X83109851Y-79477750D01*
X83132131Y-79475556D01*
X83150550Y-79475556D01*
X83162801Y-79474954D01*
X83181139Y-79473148D01*
X83718860Y-79473148D01*
X83734999Y-79474737D01*
X83734999Y-79474737D01*
G37*
G36*
X83734999Y-76924737D02*
G01*
X83749528Y-76929145D01*
X83762711Y-76934606D01*
X83786745Y-76939388D01*
X83811249Y-76939389D01*
X83835282Y-76934609D01*
X83857921Y-76925232D01*
X83859765Y-76924000D01*
X85091050Y-76924000D01*
X85103164Y-76930475D01*
X85126613Y-76937588D01*
X85150999Y-76939990D01*
X85175385Y-76937588D01*
X85198834Y-76930475D01*
X85203746Y-76928152D01*
X85215001Y-76924737D01*
X85231140Y-76923148D01*
X85768861Y-76923148D01*
X85787199Y-76924954D01*
X85799450Y-76925556D01*
X85817869Y-76925556D01*
X85840149Y-76927750D01*
X85924233Y-76944476D01*
X85945660Y-76950976D01*
X86024858Y-76983780D01*
X86030303Y-76986691D01*
X86030309Y-76986693D01*
X86039169Y-76991429D01*
X86039173Y-76991432D01*
X86044614Y-76994340D01*
X86115899Y-77041971D01*
X86133204Y-77056172D01*
X86193828Y-77116796D01*
X86208029Y-77134101D01*
X86255660Y-77205386D01*
X86258568Y-77210827D01*
X86258571Y-77210831D01*
X86263307Y-77219691D01*
X86263309Y-77219697D01*
X86266220Y-77225142D01*
X86299024Y-77304340D01*
X86305524Y-77325767D01*
X86322250Y-77409851D01*
X86324444Y-77432131D01*
X86324444Y-77450550D01*
X86325046Y-77462801D01*
X86326852Y-77481139D01*
X86326852Y-77968862D01*
X86325046Y-77987199D01*
X86324444Y-77999450D01*
X86324444Y-78017869D01*
X86322250Y-78040149D01*
X86305524Y-78124233D01*
X86299024Y-78145660D01*
X86266220Y-78224858D01*
X86263309Y-78230303D01*
X86263307Y-78230309D01*
X86258571Y-78239169D01*
X86258568Y-78239173D01*
X86255660Y-78244614D01*
X86208029Y-78315899D01*
X86193828Y-78333204D01*
X86133204Y-78393828D01*
X86115899Y-78408029D01*
X86044614Y-78455660D01*
X86039173Y-78458568D01*
X86039169Y-78458571D01*
X86030309Y-78463307D01*
X86030303Y-78463309D01*
X86024858Y-78466220D01*
X85945660Y-78499024D01*
X85924233Y-78505524D01*
X85840149Y-78522250D01*
X85817869Y-78524444D01*
X85799450Y-78524444D01*
X85787199Y-78525046D01*
X85768862Y-78526852D01*
X85231140Y-78526852D01*
X85215001Y-78525263D01*
X85200472Y-78520855D01*
X85187289Y-78515394D01*
X85163255Y-78510612D01*
X85138751Y-78510611D01*
X85114718Y-78515391D01*
X85092079Y-78524768D01*
X85090235Y-78526000D01*
X83858950Y-78526000D01*
X83846836Y-78519525D01*
X83823387Y-78512412D01*
X83799001Y-78510010D01*
X83774615Y-78512412D01*
X83751166Y-78519525D01*
X83746254Y-78521848D01*
X83734999Y-78525263D01*
X83718860Y-78526852D01*
X83181138Y-78526852D01*
X83162801Y-78525046D01*
X83150550Y-78524444D01*
X83132131Y-78524444D01*
X83109851Y-78522250D01*
X83025767Y-78505524D01*
X83004340Y-78499024D01*
X82925142Y-78466220D01*
X82919697Y-78463309D01*
X82919691Y-78463307D01*
X82910831Y-78458571D01*
X82910827Y-78458568D01*
X82905386Y-78455660D01*
X82834101Y-78408029D01*
X82816796Y-78393828D01*
X82756172Y-78333204D01*
X82741971Y-78315899D01*
X82694340Y-78244614D01*
X82691432Y-78239173D01*
X82691429Y-78239169D01*
X82686693Y-78230309D01*
X82686691Y-78230303D01*
X82683780Y-78224858D01*
X82650976Y-78145660D01*
X82644476Y-78124233D01*
X82627750Y-78040149D01*
X82625556Y-78017869D01*
X82625556Y-77999450D01*
X82624954Y-77987199D01*
X82623148Y-77968862D01*
X82623148Y-77481139D01*
X82624954Y-77462801D01*
X82625556Y-77450550D01*
X82625556Y-77432131D01*
X82627750Y-77409851D01*
X82644476Y-77325767D01*
X82650976Y-77304340D01*
X82683780Y-77225142D01*
X82686691Y-77219697D01*
X82686693Y-77219691D01*
X82691429Y-77210831D01*
X82691432Y-77210827D01*
X82694340Y-77205386D01*
X82741971Y-77134101D01*
X82756172Y-77116796D01*
X82816796Y-77056172D01*
X82834101Y-77041971D01*
X82905386Y-76994340D01*
X82910827Y-76991432D01*
X82910831Y-76991429D01*
X82919691Y-76986693D01*
X82919697Y-76986691D01*
X82925142Y-76983780D01*
X83004340Y-76950976D01*
X83025767Y-76944476D01*
X83109851Y-76927750D01*
X83132131Y-76925556D01*
X83150550Y-76925556D01*
X83162801Y-76924954D01*
X83181139Y-76923148D01*
X83718860Y-76923148D01*
X83734999Y-76924737D01*
X83734999Y-76924737D01*
G37*
G36*
X83734999Y-74374737D02*
G01*
X83749528Y-74379145D01*
X83762711Y-74384606D01*
X83786745Y-74389388D01*
X83811249Y-74389389D01*
X83835282Y-74384609D01*
X83857921Y-74375232D01*
X83859765Y-74374000D01*
X85091050Y-74374000D01*
X85103164Y-74380475D01*
X85126613Y-74387588D01*
X85150999Y-74389990D01*
X85175385Y-74387588D01*
X85198834Y-74380475D01*
X85203746Y-74378152D01*
X85215001Y-74374737D01*
X85231140Y-74373148D01*
X85768861Y-74373148D01*
X85787199Y-74374954D01*
X85799450Y-74375556D01*
X85817869Y-74375556D01*
X85840149Y-74377750D01*
X85924233Y-74394476D01*
X85945660Y-74400976D01*
X86024858Y-74433780D01*
X86030303Y-74436691D01*
X86030309Y-74436693D01*
X86039169Y-74441429D01*
X86039173Y-74441432D01*
X86044614Y-74444340D01*
X86115899Y-74491971D01*
X86133204Y-74506172D01*
X86193828Y-74566796D01*
X86208029Y-74584101D01*
X86255660Y-74655386D01*
X86258568Y-74660827D01*
X86258571Y-74660831D01*
X86263307Y-74669691D01*
X86263309Y-74669697D01*
X86266220Y-74675142D01*
X86299024Y-74754340D01*
X86305524Y-74775767D01*
X86322250Y-74859851D01*
X86324444Y-74882131D01*
X86324444Y-74900550D01*
X86325046Y-74912801D01*
X86326852Y-74931139D01*
X86326852Y-75418862D01*
X86325046Y-75437199D01*
X86324444Y-75449450D01*
X86324444Y-75467869D01*
X86322250Y-75490149D01*
X86305524Y-75574233D01*
X86299024Y-75595660D01*
X86266220Y-75674858D01*
X86263309Y-75680303D01*
X86263307Y-75680309D01*
X86258571Y-75689169D01*
X86258568Y-75689173D01*
X86255660Y-75694614D01*
X86208029Y-75765899D01*
X86193828Y-75783204D01*
X86133204Y-75843828D01*
X86115899Y-75858029D01*
X86044614Y-75905660D01*
X86039173Y-75908568D01*
X86039169Y-75908571D01*
X86030309Y-75913307D01*
X86030303Y-75913309D01*
X86024858Y-75916220D01*
X85945660Y-75949024D01*
X85939754Y-75950816D01*
X85939753Y-75950816D01*
X85934947Y-75952274D01*
X85924233Y-75955524D01*
X85840149Y-75972250D01*
X85817869Y-75974444D01*
X85799450Y-75974444D01*
X85787199Y-75975046D01*
X85768862Y-75976852D01*
X85231140Y-75976852D01*
X85215001Y-75975263D01*
X85200472Y-75970855D01*
X85187289Y-75965394D01*
X85163255Y-75960612D01*
X85138751Y-75960611D01*
X85114718Y-75965391D01*
X85092079Y-75974768D01*
X85090235Y-75976000D01*
X83858950Y-75976000D01*
X83846836Y-75969525D01*
X83823387Y-75962412D01*
X83799001Y-75960010D01*
X83774615Y-75962412D01*
X83751166Y-75969525D01*
X83746254Y-75971848D01*
X83734999Y-75975263D01*
X83718860Y-75976852D01*
X83181138Y-75976852D01*
X83162801Y-75975046D01*
X83150550Y-75974444D01*
X83132131Y-75974444D01*
X83109851Y-75972250D01*
X83025767Y-75955524D01*
X83015054Y-75952274D01*
X83010247Y-75950816D01*
X83010246Y-75950816D01*
X83004340Y-75949024D01*
X82925142Y-75916220D01*
X82919697Y-75913309D01*
X82919691Y-75913307D01*
X82910831Y-75908571D01*
X82910827Y-75908568D01*
X82905386Y-75905660D01*
X82834101Y-75858029D01*
X82816796Y-75843828D01*
X82756172Y-75783204D01*
X82741971Y-75765899D01*
X82694340Y-75694614D01*
X82691432Y-75689173D01*
X82691429Y-75689169D01*
X82686693Y-75680309D01*
X82686691Y-75680303D01*
X82683780Y-75674858D01*
X82650976Y-75595660D01*
X82644476Y-75574233D01*
X82627750Y-75490149D01*
X82625556Y-75467869D01*
X82625556Y-75449450D01*
X82624954Y-75437199D01*
X82623148Y-75418862D01*
X82623148Y-74931139D01*
X82624954Y-74912801D01*
X82625556Y-74900550D01*
X82625556Y-74882131D01*
X82627750Y-74859851D01*
X82644476Y-74775767D01*
X82650976Y-74754340D01*
X82683780Y-74675142D01*
X82686691Y-74669697D01*
X82686693Y-74669691D01*
X82691429Y-74660831D01*
X82691432Y-74660827D01*
X82694340Y-74655386D01*
X82741971Y-74584101D01*
X82756172Y-74566796D01*
X82816796Y-74506172D01*
X82834101Y-74491971D01*
X82905386Y-74444340D01*
X82910827Y-74441432D01*
X82910831Y-74441429D01*
X82919691Y-74436693D01*
X82919697Y-74436691D01*
X82925142Y-74433780D01*
X83004340Y-74400976D01*
X83025767Y-74394476D01*
X83109851Y-74377750D01*
X83132131Y-74375556D01*
X83150550Y-74375556D01*
X83162801Y-74374954D01*
X83181139Y-74373148D01*
X83718860Y-74373148D01*
X83734999Y-74374737D01*
X83734999Y-74374737D01*
G37*
G36*
X55438015Y-51256973D02*
G01*
X55541879Y-51288479D01*
X55569055Y-51303005D01*
X55637600Y-51339643D01*
X55721501Y-51408499D01*
X55790357Y-51492400D01*
X55801662Y-51513551D01*
X55841521Y-51588121D01*
X55845388Y-51600869D01*
X55854760Y-51623496D01*
X55868374Y-51643870D01*
X55885701Y-51661197D01*
X55906075Y-51674811D01*
X55928714Y-51684188D01*
X55952747Y-51688969D01*
X55977251Y-51688969D01*
X56001285Y-51684189D01*
X56023924Y-51674812D01*
X56044298Y-51661198D01*
X56061625Y-51643871D01*
X56075239Y-51623497D01*
X56084612Y-51600869D01*
X56088479Y-51588121D01*
X56128338Y-51513551D01*
X56139643Y-51492400D01*
X56208499Y-51408499D01*
X56292400Y-51339643D01*
X56360945Y-51303005D01*
X56388121Y-51288479D01*
X56491985Y-51256973D01*
X56572933Y-51249000D01*
X56627067Y-51249000D01*
X56708015Y-51256973D01*
X56811879Y-51288479D01*
X56839055Y-51303005D01*
X56907600Y-51339643D01*
X56991501Y-51408499D01*
X57060357Y-51492400D01*
X57071662Y-51513551D01*
X57111521Y-51588121D01*
X57115388Y-51600869D01*
X57124760Y-51623496D01*
X57138374Y-51643870D01*
X57155701Y-51661197D01*
X57176075Y-51674811D01*
X57198714Y-51684188D01*
X57222747Y-51688969D01*
X57247251Y-51688969D01*
X57271285Y-51684189D01*
X57293924Y-51674812D01*
X57314298Y-51661198D01*
X57331625Y-51643871D01*
X57345239Y-51623497D01*
X57354612Y-51600869D01*
X57358479Y-51588121D01*
X57398338Y-51513551D01*
X57409643Y-51492400D01*
X57478499Y-51408499D01*
X57562400Y-51339643D01*
X57630945Y-51303005D01*
X57658121Y-51288479D01*
X57761985Y-51256973D01*
X57842933Y-51249000D01*
X57897067Y-51249000D01*
X57978015Y-51256973D01*
X58081879Y-51288479D01*
X58109055Y-51303005D01*
X58177600Y-51339643D01*
X58261501Y-51408499D01*
X58330357Y-51492400D01*
X58341662Y-51513551D01*
X58381521Y-51588121D01*
X58385388Y-51600869D01*
X58394760Y-51623496D01*
X58408374Y-51643870D01*
X58425701Y-51661197D01*
X58446075Y-51674811D01*
X58468714Y-51684188D01*
X58492747Y-51688969D01*
X58517251Y-51688969D01*
X58541285Y-51684189D01*
X58563924Y-51674812D01*
X58584298Y-51661198D01*
X58601625Y-51643871D01*
X58615239Y-51623497D01*
X58624612Y-51600869D01*
X58628479Y-51588121D01*
X58668338Y-51513551D01*
X58679643Y-51492400D01*
X58748499Y-51408499D01*
X58832400Y-51339643D01*
X58900945Y-51303005D01*
X58928121Y-51288479D01*
X59031985Y-51256973D01*
X59112933Y-51249000D01*
X59167067Y-51249000D01*
X59248015Y-51256973D01*
X59351879Y-51288479D01*
X59379055Y-51303005D01*
X59447600Y-51339643D01*
X59531501Y-51408499D01*
X59600357Y-51492400D01*
X59611662Y-51513551D01*
X59651521Y-51588121D01*
X59655388Y-51600869D01*
X59664760Y-51623496D01*
X59678374Y-51643870D01*
X59695701Y-51661197D01*
X59716075Y-51674811D01*
X59738714Y-51684188D01*
X59762747Y-51688969D01*
X59787251Y-51688969D01*
X59811285Y-51684189D01*
X59833924Y-51674812D01*
X59854298Y-51661198D01*
X59871625Y-51643871D01*
X59885239Y-51623497D01*
X59894612Y-51600869D01*
X59898479Y-51588121D01*
X59938338Y-51513551D01*
X59949643Y-51492400D01*
X60018499Y-51408499D01*
X60102400Y-51339643D01*
X60170945Y-51303005D01*
X60198121Y-51288479D01*
X60301985Y-51256973D01*
X60382933Y-51249000D01*
X60437067Y-51249000D01*
X60518015Y-51256973D01*
X60621879Y-51288479D01*
X60649055Y-51303005D01*
X60717600Y-51339643D01*
X60801501Y-51408499D01*
X60870357Y-51492400D01*
X60881662Y-51513551D01*
X60921521Y-51588121D01*
X60925388Y-51600869D01*
X60934760Y-51623496D01*
X60948374Y-51643870D01*
X60965701Y-51661197D01*
X60986075Y-51674811D01*
X61008714Y-51684188D01*
X61032747Y-51688969D01*
X61057251Y-51688969D01*
X61081285Y-51684189D01*
X61103924Y-51674812D01*
X61124298Y-51661198D01*
X61141625Y-51643871D01*
X61155239Y-51623497D01*
X61164612Y-51600869D01*
X61168479Y-51588121D01*
X61208338Y-51513551D01*
X61219643Y-51492400D01*
X61288499Y-51408499D01*
X61372400Y-51339643D01*
X61440945Y-51303005D01*
X61468121Y-51288479D01*
X61571985Y-51256973D01*
X61652933Y-51249000D01*
X61707067Y-51249000D01*
X61788015Y-51256973D01*
X61891879Y-51288479D01*
X61919055Y-51303005D01*
X61987600Y-51339643D01*
X62071501Y-51408499D01*
X62140357Y-51492400D01*
X62151662Y-51513551D01*
X62191521Y-51588121D01*
X62195388Y-51600869D01*
X62204760Y-51623496D01*
X62218374Y-51643870D01*
X62235701Y-51661197D01*
X62256075Y-51674811D01*
X62278714Y-51684188D01*
X62302747Y-51688969D01*
X62327251Y-51688969D01*
X62351285Y-51684189D01*
X62373924Y-51674812D01*
X62394298Y-51661198D01*
X62411625Y-51643871D01*
X62425239Y-51623497D01*
X62434612Y-51600869D01*
X62438479Y-51588121D01*
X62478338Y-51513551D01*
X62489643Y-51492400D01*
X62558499Y-51408499D01*
X62642400Y-51339643D01*
X62710945Y-51303005D01*
X62738121Y-51288479D01*
X62841985Y-51256973D01*
X62922933Y-51249000D01*
X62977067Y-51249000D01*
X63058015Y-51256973D01*
X63161879Y-51288479D01*
X63189055Y-51303005D01*
X63257600Y-51339643D01*
X63341501Y-51408499D01*
X63410357Y-51492400D01*
X63421662Y-51513551D01*
X63461521Y-51588121D01*
X63465388Y-51600869D01*
X63474760Y-51623496D01*
X63488374Y-51643870D01*
X63505701Y-51661197D01*
X63526075Y-51674811D01*
X63548714Y-51684188D01*
X63572747Y-51688969D01*
X63597251Y-51688969D01*
X63621285Y-51684189D01*
X63643924Y-51674812D01*
X63664298Y-51661198D01*
X63681625Y-51643871D01*
X63695239Y-51623497D01*
X63704612Y-51600869D01*
X63708479Y-51588121D01*
X63748338Y-51513551D01*
X63759643Y-51492400D01*
X63828499Y-51408499D01*
X63912400Y-51339643D01*
X63980945Y-51303005D01*
X64008121Y-51288479D01*
X64111985Y-51256973D01*
X64192933Y-51249000D01*
X64247067Y-51249000D01*
X64328015Y-51256973D01*
X64431879Y-51288479D01*
X64459055Y-51303005D01*
X64527600Y-51339643D01*
X64611501Y-51408499D01*
X64680357Y-51492400D01*
X64691662Y-51513551D01*
X64731521Y-51588121D01*
X64735388Y-51600869D01*
X64744760Y-51623496D01*
X64758374Y-51643870D01*
X64775701Y-51661197D01*
X64796075Y-51674811D01*
X64818714Y-51684188D01*
X64842747Y-51688969D01*
X64867251Y-51688969D01*
X64891285Y-51684189D01*
X64913924Y-51674812D01*
X64934298Y-51661198D01*
X64951625Y-51643871D01*
X64965239Y-51623497D01*
X64974612Y-51600869D01*
X64978479Y-51588121D01*
X65018338Y-51513551D01*
X65029643Y-51492400D01*
X65098499Y-51408499D01*
X65182400Y-51339643D01*
X65250945Y-51303005D01*
X65278121Y-51288479D01*
X65381985Y-51256973D01*
X65462933Y-51249000D01*
X65517067Y-51249000D01*
X65598015Y-51256973D01*
X65701879Y-51288479D01*
X65729055Y-51303005D01*
X65797600Y-51339643D01*
X65881501Y-51408499D01*
X65950357Y-51492400D01*
X65961662Y-51513551D01*
X66001521Y-51588121D01*
X66005388Y-51600869D01*
X66014760Y-51623496D01*
X66028374Y-51643870D01*
X66045701Y-51661197D01*
X66066075Y-51674811D01*
X66088714Y-51684188D01*
X66112747Y-51688969D01*
X66137251Y-51688969D01*
X66161285Y-51684189D01*
X66183924Y-51674812D01*
X66204298Y-51661198D01*
X66221625Y-51643871D01*
X66235239Y-51623497D01*
X66244612Y-51600869D01*
X66248479Y-51588121D01*
X66288338Y-51513551D01*
X66299643Y-51492400D01*
X66368499Y-51408499D01*
X66452400Y-51339643D01*
X66520945Y-51303005D01*
X66548121Y-51288479D01*
X66651985Y-51256973D01*
X66732933Y-51249000D01*
X66787067Y-51249000D01*
X66868015Y-51256973D01*
X66971879Y-51288479D01*
X66999055Y-51303005D01*
X67067600Y-51339643D01*
X67151501Y-51408499D01*
X67220357Y-51492400D01*
X67231662Y-51513551D01*
X67271521Y-51588121D01*
X67275388Y-51600869D01*
X67284760Y-51623496D01*
X67298374Y-51643870D01*
X67315701Y-51661197D01*
X67336075Y-51674811D01*
X67358714Y-51684188D01*
X67382747Y-51688969D01*
X67407251Y-51688969D01*
X67431285Y-51684189D01*
X67453924Y-51674812D01*
X67474298Y-51661198D01*
X67491625Y-51643871D01*
X67505239Y-51623497D01*
X67514612Y-51600869D01*
X67518479Y-51588121D01*
X67558338Y-51513551D01*
X67569643Y-51492400D01*
X67638499Y-51408499D01*
X67722400Y-51339643D01*
X67790945Y-51303005D01*
X67818121Y-51288479D01*
X67921985Y-51256973D01*
X68002933Y-51249000D01*
X68057067Y-51249000D01*
X68138015Y-51256973D01*
X68241879Y-51288479D01*
X68269055Y-51303005D01*
X68337600Y-51339643D01*
X68421501Y-51408499D01*
X68490357Y-51492400D01*
X68501662Y-51513551D01*
X68541521Y-51588121D01*
X68545388Y-51600869D01*
X68554760Y-51623496D01*
X68568374Y-51643870D01*
X68585701Y-51661197D01*
X68606075Y-51674811D01*
X68628714Y-51684188D01*
X68652747Y-51688969D01*
X68677251Y-51688969D01*
X68701285Y-51684189D01*
X68723924Y-51674812D01*
X68744298Y-51661198D01*
X68761625Y-51643871D01*
X68775239Y-51623497D01*
X68784612Y-51600869D01*
X68788479Y-51588121D01*
X68828338Y-51513551D01*
X68839643Y-51492400D01*
X68908499Y-51408499D01*
X68992400Y-51339643D01*
X69060945Y-51303005D01*
X69088121Y-51288479D01*
X69191985Y-51256973D01*
X69272933Y-51249000D01*
X69327067Y-51249000D01*
X69408015Y-51256973D01*
X69511879Y-51288479D01*
X69539055Y-51303005D01*
X69607600Y-51339643D01*
X69691501Y-51408499D01*
X69760357Y-51492400D01*
X69771662Y-51513551D01*
X69811521Y-51588121D01*
X69815388Y-51600869D01*
X69824760Y-51623496D01*
X69838374Y-51643870D01*
X69855701Y-51661197D01*
X69876075Y-51674811D01*
X69898714Y-51684188D01*
X69922747Y-51688969D01*
X69947251Y-51688969D01*
X69971285Y-51684189D01*
X69993924Y-51674812D01*
X70014298Y-51661198D01*
X70031625Y-51643871D01*
X70045239Y-51623497D01*
X70054612Y-51600869D01*
X70058479Y-51588121D01*
X70098338Y-51513551D01*
X70109643Y-51492400D01*
X70178499Y-51408499D01*
X70262400Y-51339643D01*
X70330945Y-51303005D01*
X70358121Y-51288479D01*
X70461985Y-51256973D01*
X70542933Y-51249000D01*
X70597067Y-51249000D01*
X70678015Y-51256973D01*
X70781879Y-51288479D01*
X70809055Y-51303005D01*
X70877600Y-51339643D01*
X70961501Y-51408499D01*
X71030357Y-51492400D01*
X71041662Y-51513551D01*
X71081521Y-51588121D01*
X71085388Y-51600869D01*
X71094760Y-51623496D01*
X71108374Y-51643870D01*
X71125701Y-51661197D01*
X71146075Y-51674811D01*
X71168714Y-51684188D01*
X71192747Y-51688969D01*
X71217251Y-51688969D01*
X71241285Y-51684189D01*
X71263924Y-51674812D01*
X71284298Y-51661198D01*
X71301625Y-51643871D01*
X71315239Y-51623497D01*
X71324612Y-51600869D01*
X71328479Y-51588121D01*
X71368338Y-51513551D01*
X71379643Y-51492400D01*
X71448499Y-51408499D01*
X71532400Y-51339643D01*
X71600945Y-51303005D01*
X71628121Y-51288479D01*
X71731985Y-51256973D01*
X71812933Y-51249000D01*
X71867067Y-51249000D01*
X71948015Y-51256973D01*
X72051879Y-51288479D01*
X72079055Y-51303005D01*
X72147600Y-51339643D01*
X72231501Y-51408499D01*
X72300357Y-51492400D01*
X72311662Y-51513551D01*
X72351521Y-51588121D01*
X72355388Y-51600869D01*
X72364760Y-51623496D01*
X72378374Y-51643870D01*
X72395701Y-51661197D01*
X72416075Y-51674811D01*
X72438714Y-51684188D01*
X72462747Y-51688969D01*
X72487251Y-51688969D01*
X72511285Y-51684189D01*
X72533924Y-51674812D01*
X72554298Y-51661198D01*
X72571625Y-51643871D01*
X72585239Y-51623497D01*
X72594612Y-51600869D01*
X72598479Y-51588121D01*
X72638338Y-51513551D01*
X72649643Y-51492400D01*
X72718499Y-51408499D01*
X72802400Y-51339643D01*
X72870945Y-51303005D01*
X72898121Y-51288479D01*
X73001985Y-51256973D01*
X73082933Y-51249000D01*
X73137067Y-51249000D01*
X73218015Y-51256973D01*
X73321879Y-51288479D01*
X73349055Y-51303005D01*
X73417600Y-51339643D01*
X73501501Y-51408499D01*
X73570357Y-51492400D01*
X73581662Y-51513551D01*
X73621521Y-51588121D01*
X73625388Y-51600869D01*
X73634760Y-51623496D01*
X73648374Y-51643870D01*
X73665701Y-51661197D01*
X73686075Y-51674811D01*
X73708714Y-51684188D01*
X73732747Y-51688969D01*
X73757251Y-51688969D01*
X73781285Y-51684189D01*
X73803924Y-51674812D01*
X73824298Y-51661198D01*
X73841625Y-51643871D01*
X73855239Y-51623497D01*
X73864612Y-51600869D01*
X73868479Y-51588121D01*
X73908338Y-51513551D01*
X73919643Y-51492400D01*
X73988499Y-51408499D01*
X74072400Y-51339643D01*
X74140945Y-51303005D01*
X74168121Y-51288479D01*
X74271985Y-51256973D01*
X74352933Y-51249000D01*
X74407067Y-51249000D01*
X74488015Y-51256973D01*
X74591879Y-51288479D01*
X74619055Y-51303005D01*
X74687600Y-51339643D01*
X74771501Y-51408499D01*
X74840357Y-51492400D01*
X74851662Y-51513551D01*
X74891521Y-51588121D01*
X74895388Y-51600869D01*
X74904760Y-51623496D01*
X74918374Y-51643870D01*
X74935701Y-51661197D01*
X74956075Y-51674811D01*
X74978714Y-51684188D01*
X75002747Y-51688969D01*
X75027251Y-51688969D01*
X75051285Y-51684189D01*
X75073924Y-51674812D01*
X75094298Y-51661198D01*
X75111625Y-51643871D01*
X75125239Y-51623497D01*
X75134612Y-51600869D01*
X75138479Y-51588121D01*
X75178338Y-51513551D01*
X75189643Y-51492400D01*
X75258499Y-51408499D01*
X75342400Y-51339643D01*
X75410945Y-51303005D01*
X75438121Y-51288479D01*
X75541985Y-51256973D01*
X75622933Y-51249000D01*
X75677067Y-51249000D01*
X75758015Y-51256973D01*
X75861879Y-51288479D01*
X75889055Y-51303005D01*
X75957600Y-51339643D01*
X76041501Y-51408499D01*
X76110357Y-51492400D01*
X76121662Y-51513551D01*
X76161521Y-51588121D01*
X76165388Y-51600869D01*
X76174760Y-51623496D01*
X76188374Y-51643870D01*
X76205701Y-51661197D01*
X76226075Y-51674811D01*
X76248714Y-51684188D01*
X76272747Y-51688969D01*
X76297251Y-51688969D01*
X76321285Y-51684189D01*
X76343924Y-51674812D01*
X76364298Y-51661198D01*
X76381625Y-51643871D01*
X76395239Y-51623497D01*
X76404612Y-51600869D01*
X76408479Y-51588121D01*
X76448338Y-51513551D01*
X76459643Y-51492400D01*
X76528499Y-51408499D01*
X76612400Y-51339643D01*
X76680945Y-51303005D01*
X76708121Y-51288479D01*
X76811985Y-51256973D01*
X76892933Y-51249000D01*
X76947067Y-51249000D01*
X77028015Y-51256973D01*
X77131879Y-51288479D01*
X77159055Y-51303005D01*
X77227600Y-51339643D01*
X77311501Y-51408499D01*
X77380357Y-51492400D01*
X77391662Y-51513551D01*
X77431521Y-51588121D01*
X77435388Y-51600869D01*
X77444760Y-51623496D01*
X77458374Y-51643870D01*
X77475701Y-51661197D01*
X77496075Y-51674811D01*
X77518714Y-51684188D01*
X77542747Y-51688969D01*
X77567251Y-51688969D01*
X77591285Y-51684189D01*
X77613924Y-51674812D01*
X77634298Y-51661198D01*
X77651625Y-51643871D01*
X77665239Y-51623497D01*
X77674612Y-51600869D01*
X77678479Y-51588121D01*
X77718338Y-51513551D01*
X77729643Y-51492400D01*
X77798499Y-51408499D01*
X77882400Y-51339643D01*
X77950945Y-51303005D01*
X77978121Y-51288479D01*
X78081985Y-51256973D01*
X78162933Y-51249000D01*
X78217067Y-51249000D01*
X78298015Y-51256973D01*
X78401879Y-51288479D01*
X78429055Y-51303005D01*
X78497600Y-51339643D01*
X78581501Y-51408499D01*
X78650357Y-51492400D01*
X78661662Y-51513551D01*
X78701521Y-51588121D01*
X78705388Y-51600869D01*
X78714760Y-51623496D01*
X78728374Y-51643870D01*
X78745701Y-51661197D01*
X78766075Y-51674811D01*
X78788714Y-51684188D01*
X78812747Y-51688969D01*
X78837251Y-51688969D01*
X78861285Y-51684189D01*
X78883924Y-51674812D01*
X78904298Y-51661198D01*
X78921625Y-51643871D01*
X78935239Y-51623497D01*
X78944612Y-51600869D01*
X78948479Y-51588121D01*
X78988338Y-51513551D01*
X78999643Y-51492400D01*
X79068499Y-51408499D01*
X79152400Y-51339643D01*
X79220945Y-51303005D01*
X79248121Y-51288479D01*
X79351985Y-51256973D01*
X79432933Y-51249000D01*
X79487067Y-51249000D01*
X79568015Y-51256973D01*
X79671879Y-51288479D01*
X79699055Y-51303005D01*
X79767600Y-51339643D01*
X79851501Y-51408499D01*
X79920357Y-51492400D01*
X79931662Y-51513551D01*
X79971521Y-51588121D01*
X79975388Y-51600869D01*
X79984760Y-51623496D01*
X79998374Y-51643870D01*
X80015701Y-51661197D01*
X80036075Y-51674811D01*
X80058714Y-51684188D01*
X80082747Y-51688969D01*
X80107251Y-51688969D01*
X80131285Y-51684189D01*
X80153924Y-51674812D01*
X80174298Y-51661198D01*
X80191625Y-51643871D01*
X80205239Y-51623497D01*
X80214612Y-51600869D01*
X80218479Y-51588121D01*
X80258338Y-51513551D01*
X80269643Y-51492400D01*
X80338499Y-51408499D01*
X80422400Y-51339643D01*
X80490945Y-51303005D01*
X80518121Y-51288479D01*
X80621985Y-51256973D01*
X80702933Y-51249000D01*
X80757067Y-51249000D01*
X80838015Y-51256973D01*
X80941879Y-51288479D01*
X80969055Y-51303005D01*
X81037600Y-51339643D01*
X81121501Y-51408499D01*
X81190357Y-51492400D01*
X81201662Y-51513551D01*
X81241521Y-51588121D01*
X81245388Y-51600869D01*
X81254760Y-51623496D01*
X81268374Y-51643870D01*
X81285701Y-51661197D01*
X81306075Y-51674811D01*
X81328714Y-51684188D01*
X81352747Y-51688969D01*
X81377251Y-51688969D01*
X81401285Y-51684189D01*
X81423924Y-51674812D01*
X81444298Y-51661198D01*
X81461625Y-51643871D01*
X81475239Y-51623497D01*
X81484612Y-51600869D01*
X81488479Y-51588121D01*
X81528338Y-51513551D01*
X81539643Y-51492400D01*
X81608499Y-51408499D01*
X81692400Y-51339643D01*
X81760945Y-51303005D01*
X81788121Y-51288479D01*
X81891985Y-51256973D01*
X81972933Y-51249000D01*
X82027067Y-51249000D01*
X82108015Y-51256973D01*
X82211879Y-51288479D01*
X82239055Y-51303005D01*
X82307600Y-51339643D01*
X82391501Y-51408499D01*
X82460357Y-51492400D01*
X82471662Y-51513551D01*
X82511521Y-51588121D01*
X82515388Y-51600869D01*
X82524760Y-51623496D01*
X82538374Y-51643870D01*
X82555701Y-51661197D01*
X82576075Y-51674811D01*
X82598714Y-51684188D01*
X82622747Y-51688969D01*
X82647251Y-51688969D01*
X82671285Y-51684189D01*
X82693924Y-51674812D01*
X82714298Y-51661198D01*
X82731625Y-51643871D01*
X82745239Y-51623497D01*
X82754612Y-51600869D01*
X82758479Y-51588121D01*
X82798338Y-51513551D01*
X82809643Y-51492400D01*
X82878499Y-51408499D01*
X82962400Y-51339643D01*
X83030945Y-51303005D01*
X83058121Y-51288479D01*
X83161985Y-51256973D01*
X83242933Y-51249000D01*
X83297067Y-51249000D01*
X83378015Y-51256973D01*
X83481879Y-51288479D01*
X83509055Y-51303005D01*
X83577600Y-51339643D01*
X83661501Y-51408499D01*
X83730357Y-51492400D01*
X83741662Y-51513551D01*
X83781521Y-51588121D01*
X83785388Y-51600869D01*
X83794760Y-51623496D01*
X83808374Y-51643870D01*
X83825701Y-51661197D01*
X83846075Y-51674811D01*
X83868714Y-51684188D01*
X83892747Y-51688969D01*
X83917251Y-51688969D01*
X83941285Y-51684189D01*
X83963924Y-51674812D01*
X83984298Y-51661198D01*
X84001625Y-51643871D01*
X84015239Y-51623497D01*
X84024612Y-51600869D01*
X84028479Y-51588121D01*
X84068338Y-51513551D01*
X84079643Y-51492400D01*
X84148499Y-51408499D01*
X84232400Y-51339643D01*
X84300945Y-51303005D01*
X84328121Y-51288479D01*
X84431985Y-51256973D01*
X84512933Y-51249000D01*
X84567067Y-51249000D01*
X84648015Y-51256973D01*
X84751879Y-51288479D01*
X84779055Y-51303005D01*
X84847600Y-51339643D01*
X84931501Y-51408499D01*
X85000357Y-51492400D01*
X85011662Y-51513551D01*
X85051521Y-51588121D01*
X85055388Y-51600869D01*
X85064760Y-51623496D01*
X85078374Y-51643870D01*
X85095701Y-51661197D01*
X85116075Y-51674811D01*
X85138714Y-51684188D01*
X85162747Y-51688969D01*
X85187251Y-51688969D01*
X85211285Y-51684189D01*
X85233924Y-51674812D01*
X85254298Y-51661198D01*
X85271625Y-51643871D01*
X85285239Y-51623497D01*
X85294612Y-51600869D01*
X85298479Y-51588121D01*
X85338338Y-51513551D01*
X85349643Y-51492400D01*
X85418499Y-51408499D01*
X85502400Y-51339643D01*
X85570945Y-51303005D01*
X85598121Y-51288479D01*
X85701985Y-51256973D01*
X85782933Y-51249000D01*
X85837067Y-51249000D01*
X85918015Y-51256973D01*
X86021879Y-51288479D01*
X86049055Y-51303005D01*
X86117600Y-51339643D01*
X86201501Y-51408499D01*
X86270357Y-51492400D01*
X86281662Y-51513551D01*
X86321521Y-51588121D01*
X86325388Y-51600869D01*
X86334760Y-51623496D01*
X86348374Y-51643870D01*
X86365701Y-51661197D01*
X86386075Y-51674811D01*
X86408714Y-51684188D01*
X86432747Y-51688969D01*
X86457251Y-51688969D01*
X86481285Y-51684189D01*
X86503924Y-51674812D01*
X86524298Y-51661198D01*
X86541625Y-51643871D01*
X86555239Y-51623497D01*
X86564612Y-51600869D01*
X86568479Y-51588121D01*
X86608338Y-51513551D01*
X86619643Y-51492400D01*
X86688499Y-51408499D01*
X86772400Y-51339643D01*
X86840945Y-51303005D01*
X86868121Y-51288479D01*
X86971985Y-51256973D01*
X87052933Y-51249000D01*
X87107067Y-51249000D01*
X87188015Y-51256973D01*
X87291879Y-51288479D01*
X87319055Y-51303005D01*
X87387600Y-51339643D01*
X87471501Y-51408499D01*
X87540357Y-51492400D01*
X87551662Y-51513551D01*
X87591521Y-51588121D01*
X87595388Y-51600869D01*
X87604760Y-51623496D01*
X87618374Y-51643870D01*
X87635701Y-51661197D01*
X87656075Y-51674811D01*
X87678714Y-51684188D01*
X87702747Y-51688969D01*
X87727251Y-51688969D01*
X87751285Y-51684189D01*
X87773924Y-51674812D01*
X87794298Y-51661198D01*
X87811625Y-51643871D01*
X87825239Y-51623497D01*
X87834612Y-51600869D01*
X87838479Y-51588121D01*
X87878338Y-51513551D01*
X87889643Y-51492400D01*
X87958499Y-51408499D01*
X88042400Y-51339643D01*
X88110945Y-51303005D01*
X88138121Y-51288479D01*
X88241985Y-51256973D01*
X88322933Y-51249000D01*
X88377067Y-51249000D01*
X88458015Y-51256973D01*
X88561879Y-51288479D01*
X88589055Y-51303005D01*
X88657600Y-51339643D01*
X88741501Y-51408499D01*
X88810357Y-51492400D01*
X88821662Y-51513551D01*
X88861521Y-51588121D01*
X88865388Y-51600869D01*
X88874760Y-51623496D01*
X88888374Y-51643870D01*
X88905701Y-51661197D01*
X88926075Y-51674811D01*
X88948714Y-51684188D01*
X88972747Y-51688969D01*
X88997251Y-51688969D01*
X89021285Y-51684189D01*
X89043924Y-51674812D01*
X89064298Y-51661198D01*
X89081625Y-51643871D01*
X89095239Y-51623497D01*
X89104612Y-51600869D01*
X89108479Y-51588121D01*
X89148338Y-51513551D01*
X89159643Y-51492400D01*
X89228499Y-51408499D01*
X89312400Y-51339643D01*
X89380945Y-51303005D01*
X89408121Y-51288479D01*
X89511985Y-51256973D01*
X89592933Y-51249000D01*
X89647067Y-51249000D01*
X89728015Y-51256973D01*
X89831879Y-51288479D01*
X89859055Y-51303005D01*
X89927600Y-51339643D01*
X90011501Y-51408499D01*
X90080357Y-51492400D01*
X90091662Y-51513551D01*
X90131521Y-51588121D01*
X90135388Y-51600869D01*
X90144760Y-51623496D01*
X90158374Y-51643870D01*
X90175701Y-51661197D01*
X90196075Y-51674811D01*
X90218714Y-51684188D01*
X90242747Y-51688969D01*
X90267251Y-51688969D01*
X90291285Y-51684189D01*
X90313924Y-51674812D01*
X90334298Y-51661198D01*
X90351625Y-51643871D01*
X90365239Y-51623497D01*
X90374612Y-51600869D01*
X90378479Y-51588121D01*
X90418338Y-51513551D01*
X90429643Y-51492400D01*
X90498499Y-51408499D01*
X90582400Y-51339643D01*
X90650945Y-51303005D01*
X90678121Y-51288479D01*
X90781985Y-51256973D01*
X90862933Y-51249000D01*
X90917067Y-51249000D01*
X90998015Y-51256973D01*
X91101879Y-51288479D01*
X91129055Y-51303005D01*
X91197600Y-51339643D01*
X91281501Y-51408499D01*
X91350357Y-51492400D01*
X91361662Y-51513551D01*
X91401521Y-51588121D01*
X91405388Y-51600869D01*
X91414760Y-51623496D01*
X91428374Y-51643870D01*
X91445701Y-51661197D01*
X91466075Y-51674811D01*
X91488714Y-51684188D01*
X91512747Y-51688969D01*
X91537251Y-51688969D01*
X91561285Y-51684189D01*
X91583924Y-51674812D01*
X91604298Y-51661198D01*
X91621625Y-51643871D01*
X91635239Y-51623497D01*
X91644612Y-51600869D01*
X91648479Y-51588121D01*
X91688338Y-51513551D01*
X91699643Y-51492400D01*
X91768499Y-51408499D01*
X91852400Y-51339643D01*
X91920945Y-51303005D01*
X91948121Y-51288479D01*
X92051985Y-51256973D01*
X92132933Y-51249000D01*
X92187067Y-51249000D01*
X92268015Y-51256973D01*
X92371879Y-51288479D01*
X92399055Y-51303005D01*
X92467600Y-51339643D01*
X92551501Y-51408499D01*
X92620357Y-51492400D01*
X92631662Y-51513551D01*
X92671521Y-51588121D01*
X92675388Y-51600869D01*
X92684760Y-51623496D01*
X92698374Y-51643870D01*
X92715701Y-51661197D01*
X92736075Y-51674811D01*
X92758714Y-51684188D01*
X92782747Y-51688969D01*
X92807251Y-51688969D01*
X92831285Y-51684189D01*
X92853924Y-51674812D01*
X92874298Y-51661198D01*
X92891625Y-51643871D01*
X92905239Y-51623497D01*
X92914612Y-51600869D01*
X92918479Y-51588121D01*
X92958338Y-51513551D01*
X92969643Y-51492400D01*
X93038499Y-51408499D01*
X93122400Y-51339643D01*
X93190945Y-51303005D01*
X93218121Y-51288479D01*
X93321985Y-51256973D01*
X93402933Y-51249000D01*
X93457067Y-51249000D01*
X93538015Y-51256973D01*
X93641879Y-51288479D01*
X93669055Y-51303005D01*
X93737600Y-51339643D01*
X93801253Y-51391882D01*
X93821501Y-51408499D01*
X93890356Y-51492400D01*
X93913764Y-51536193D01*
X93927375Y-51556563D01*
X93944702Y-51573890D01*
X93965076Y-51587504D01*
X93987715Y-51596881D01*
X94011748Y-51601662D01*
X94036252Y-51601662D01*
X94060286Y-51596882D01*
X94082924Y-51587505D01*
X94103299Y-51573891D01*
X94120626Y-51556564D01*
X94134240Y-51536190D01*
X94143617Y-51513551D01*
X94148398Y-51489518D01*
X94149000Y-51477265D01*
X94149000Y-51249000D01*
X95251000Y-51249000D01*
X95251000Y-52351000D01*
X94149000Y-52351000D01*
X94149000Y-52122735D01*
X94146598Y-52098349D01*
X94139485Y-52074900D01*
X94127934Y-52053289D01*
X94112389Y-52034347D01*
X94093447Y-52018802D01*
X94071836Y-52007251D01*
X94048387Y-52000138D01*
X94024001Y-51997736D01*
X93999615Y-52000138D01*
X93976166Y-52007251D01*
X93954555Y-52018802D01*
X93935613Y-52034347D01*
X93920068Y-52053289D01*
X93913767Y-52063802D01*
X93890356Y-52107600D01*
X93890355Y-52107601D01*
X93821501Y-52191501D01*
X93737600Y-52260357D01*
X93669055Y-52296995D01*
X93641879Y-52311521D01*
X93538015Y-52343027D01*
X93457067Y-52351000D01*
X93402933Y-52351000D01*
X93321985Y-52343027D01*
X93218121Y-52311521D01*
X93190945Y-52296995D01*
X93122400Y-52260357D01*
X93038499Y-52191501D01*
X92969643Y-52107600D01*
X92927363Y-52028499D01*
X92918479Y-52011879D01*
X92914612Y-51999131D01*
X92905240Y-51976504D01*
X92891626Y-51956130D01*
X92874299Y-51938803D01*
X92853925Y-51925189D01*
X92831286Y-51915812D01*
X92807253Y-51911031D01*
X92782749Y-51911031D01*
X92758715Y-51915811D01*
X92736076Y-51925188D01*
X92715702Y-51938802D01*
X92698375Y-51956129D01*
X92684761Y-51976503D01*
X92675388Y-51999131D01*
X92671521Y-52011879D01*
X92662637Y-52028499D01*
X92620357Y-52107600D01*
X92551501Y-52191501D01*
X92467600Y-52260357D01*
X92399055Y-52296995D01*
X92371879Y-52311521D01*
X92268015Y-52343027D01*
X92187067Y-52351000D01*
X92132933Y-52351000D01*
X92051985Y-52343027D01*
X91948121Y-52311521D01*
X91920945Y-52296995D01*
X91852400Y-52260357D01*
X91768499Y-52191501D01*
X91699643Y-52107600D01*
X91657363Y-52028499D01*
X91648479Y-52011879D01*
X91644612Y-51999131D01*
X91635240Y-51976504D01*
X91621626Y-51956130D01*
X91604299Y-51938803D01*
X91583925Y-51925189D01*
X91561286Y-51915812D01*
X91537253Y-51911031D01*
X91512749Y-51911031D01*
X91488715Y-51915811D01*
X91466076Y-51925188D01*
X91445702Y-51938802D01*
X91428375Y-51956129D01*
X91414761Y-51976503D01*
X91405388Y-51999131D01*
X91401521Y-52011879D01*
X91392637Y-52028499D01*
X91350357Y-52107600D01*
X91281501Y-52191501D01*
X91197600Y-52260357D01*
X91129055Y-52296995D01*
X91101879Y-52311521D01*
X90998015Y-52343027D01*
X90917067Y-52351000D01*
X90862933Y-52351000D01*
X90781985Y-52343027D01*
X90678121Y-52311521D01*
X90650945Y-52296995D01*
X90582400Y-52260357D01*
X90498499Y-52191501D01*
X90429643Y-52107600D01*
X90387363Y-52028499D01*
X90378479Y-52011879D01*
X90374612Y-51999131D01*
X90365240Y-51976504D01*
X90351626Y-51956130D01*
X90334299Y-51938803D01*
X90313925Y-51925189D01*
X90291286Y-51915812D01*
X90267253Y-51911031D01*
X90242749Y-51911031D01*
X90218715Y-51915811D01*
X90196076Y-51925188D01*
X90175702Y-51938802D01*
X90158375Y-51956129D01*
X90144761Y-51976503D01*
X90135388Y-51999131D01*
X90131521Y-52011879D01*
X90122637Y-52028499D01*
X90080357Y-52107600D01*
X90011501Y-52191501D01*
X89927600Y-52260357D01*
X89859055Y-52296995D01*
X89831879Y-52311521D01*
X89728015Y-52343027D01*
X89647067Y-52351000D01*
X89592933Y-52351000D01*
X89511985Y-52343027D01*
X89408121Y-52311521D01*
X89380945Y-52296995D01*
X89312400Y-52260357D01*
X89228499Y-52191501D01*
X89159643Y-52107600D01*
X89117363Y-52028499D01*
X89108479Y-52011879D01*
X89104612Y-51999131D01*
X89095240Y-51976504D01*
X89081626Y-51956130D01*
X89064299Y-51938803D01*
X89043925Y-51925189D01*
X89021286Y-51915812D01*
X88997253Y-51911031D01*
X88972749Y-51911031D01*
X88948715Y-51915811D01*
X88926076Y-51925188D01*
X88905702Y-51938802D01*
X88888375Y-51956129D01*
X88874761Y-51976503D01*
X88865388Y-51999131D01*
X88861521Y-52011879D01*
X88852637Y-52028499D01*
X88810357Y-52107600D01*
X88741501Y-52191501D01*
X88657600Y-52260357D01*
X88589055Y-52296995D01*
X88561879Y-52311521D01*
X88458015Y-52343027D01*
X88377067Y-52351000D01*
X88322933Y-52351000D01*
X88241985Y-52343027D01*
X88138121Y-52311521D01*
X88110945Y-52296995D01*
X88042400Y-52260357D01*
X87958499Y-52191501D01*
X87889643Y-52107600D01*
X87847363Y-52028499D01*
X87838479Y-52011879D01*
X87834612Y-51999131D01*
X87825240Y-51976504D01*
X87811626Y-51956130D01*
X87794299Y-51938803D01*
X87773925Y-51925189D01*
X87751286Y-51915812D01*
X87727253Y-51911031D01*
X87702749Y-51911031D01*
X87678715Y-51915811D01*
X87656076Y-51925188D01*
X87635702Y-51938802D01*
X87618375Y-51956129D01*
X87604761Y-51976503D01*
X87595388Y-51999131D01*
X87591521Y-52011879D01*
X87582637Y-52028499D01*
X87540357Y-52107600D01*
X87471501Y-52191501D01*
X87387600Y-52260357D01*
X87319055Y-52296995D01*
X87291879Y-52311521D01*
X87188015Y-52343027D01*
X87107067Y-52351000D01*
X87052933Y-52351000D01*
X86971985Y-52343027D01*
X86868121Y-52311521D01*
X86840945Y-52296995D01*
X86772400Y-52260357D01*
X86688499Y-52191501D01*
X86619643Y-52107600D01*
X86577363Y-52028499D01*
X86568479Y-52011879D01*
X86564612Y-51999131D01*
X86555240Y-51976504D01*
X86541626Y-51956130D01*
X86524299Y-51938803D01*
X86503925Y-51925189D01*
X86481286Y-51915812D01*
X86457253Y-51911031D01*
X86432749Y-51911031D01*
X86408715Y-51915811D01*
X86386076Y-51925188D01*
X86365702Y-51938802D01*
X86348375Y-51956129D01*
X86334761Y-51976503D01*
X86325388Y-51999131D01*
X86321521Y-52011879D01*
X86312637Y-52028499D01*
X86270357Y-52107600D01*
X86201501Y-52191501D01*
X86117600Y-52260357D01*
X86049055Y-52296995D01*
X86021879Y-52311521D01*
X85918015Y-52343027D01*
X85837067Y-52351000D01*
X85782933Y-52351000D01*
X85701985Y-52343027D01*
X85598121Y-52311521D01*
X85570945Y-52296995D01*
X85502400Y-52260357D01*
X85418499Y-52191501D01*
X85349643Y-52107600D01*
X85307363Y-52028499D01*
X85298479Y-52011879D01*
X85294612Y-51999131D01*
X85285240Y-51976504D01*
X85271626Y-51956130D01*
X85254299Y-51938803D01*
X85233925Y-51925189D01*
X85211286Y-51915812D01*
X85187253Y-51911031D01*
X85162749Y-51911031D01*
X85138715Y-51915811D01*
X85116076Y-51925188D01*
X85095702Y-51938802D01*
X85078375Y-51956129D01*
X85064761Y-51976503D01*
X85055388Y-51999131D01*
X85051521Y-52011879D01*
X85042637Y-52028499D01*
X85000357Y-52107600D01*
X84931501Y-52191501D01*
X84847600Y-52260357D01*
X84779055Y-52296995D01*
X84751879Y-52311521D01*
X84648015Y-52343027D01*
X84567067Y-52351000D01*
X84512933Y-52351000D01*
X84431985Y-52343027D01*
X84328121Y-52311521D01*
X84300945Y-52296995D01*
X84232400Y-52260357D01*
X84148499Y-52191501D01*
X84079643Y-52107600D01*
X84037363Y-52028499D01*
X84028479Y-52011879D01*
X84024612Y-51999131D01*
X84015240Y-51976504D01*
X84001626Y-51956130D01*
X83984299Y-51938803D01*
X83963925Y-51925189D01*
X83941286Y-51915812D01*
X83917253Y-51911031D01*
X83892749Y-51911031D01*
X83868715Y-51915811D01*
X83846076Y-51925188D01*
X83825702Y-51938802D01*
X83808375Y-51956129D01*
X83794761Y-51976503D01*
X83785388Y-51999131D01*
X83781521Y-52011879D01*
X83772637Y-52028499D01*
X83730357Y-52107600D01*
X83661501Y-52191501D01*
X83577600Y-52260357D01*
X83509055Y-52296995D01*
X83481879Y-52311521D01*
X83378015Y-52343027D01*
X83297067Y-52351000D01*
X83242933Y-52351000D01*
X83161985Y-52343027D01*
X83058121Y-52311521D01*
X83030945Y-52296995D01*
X82962400Y-52260357D01*
X82878499Y-52191501D01*
X82809643Y-52107600D01*
X82767363Y-52028499D01*
X82758479Y-52011879D01*
X82754612Y-51999131D01*
X82745240Y-51976504D01*
X82731626Y-51956130D01*
X82714299Y-51938803D01*
X82693925Y-51925189D01*
X82671286Y-51915812D01*
X82647253Y-51911031D01*
X82622749Y-51911031D01*
X82598715Y-51915811D01*
X82576076Y-51925188D01*
X82555702Y-51938802D01*
X82538375Y-51956129D01*
X82524761Y-51976503D01*
X82515388Y-51999131D01*
X82511521Y-52011879D01*
X82502637Y-52028499D01*
X82460357Y-52107600D01*
X82391501Y-52191501D01*
X82307600Y-52260357D01*
X82239055Y-52296995D01*
X82211879Y-52311521D01*
X82108015Y-52343027D01*
X82027067Y-52351000D01*
X81972933Y-52351000D01*
X81891985Y-52343027D01*
X81788121Y-52311521D01*
X81760945Y-52296995D01*
X81692400Y-52260357D01*
X81608499Y-52191501D01*
X81539643Y-52107600D01*
X81497363Y-52028499D01*
X81488479Y-52011879D01*
X81484612Y-51999131D01*
X81475240Y-51976504D01*
X81461626Y-51956130D01*
X81444299Y-51938803D01*
X81423925Y-51925189D01*
X81401286Y-51915812D01*
X81377253Y-51911031D01*
X81352749Y-51911031D01*
X81328715Y-51915811D01*
X81306076Y-51925188D01*
X81285702Y-51938802D01*
X81268375Y-51956129D01*
X81254761Y-51976503D01*
X81245388Y-51999131D01*
X81241521Y-52011879D01*
X81232637Y-52028499D01*
X81190357Y-52107600D01*
X81121501Y-52191501D01*
X81037600Y-52260357D01*
X80969055Y-52296995D01*
X80941879Y-52311521D01*
X80838015Y-52343027D01*
X80757067Y-52351000D01*
X80702933Y-52351000D01*
X80621985Y-52343027D01*
X80518121Y-52311521D01*
X80490945Y-52296995D01*
X80422400Y-52260357D01*
X80338499Y-52191501D01*
X80269643Y-52107600D01*
X80227363Y-52028499D01*
X80218479Y-52011879D01*
X80214612Y-51999131D01*
X80205240Y-51976504D01*
X80191626Y-51956130D01*
X80174299Y-51938803D01*
X80153925Y-51925189D01*
X80131286Y-51915812D01*
X80107253Y-51911031D01*
X80082749Y-51911031D01*
X80058715Y-51915811D01*
X80036076Y-51925188D01*
X80015702Y-51938802D01*
X79998375Y-51956129D01*
X79984761Y-51976503D01*
X79975388Y-51999131D01*
X79971521Y-52011879D01*
X79962637Y-52028499D01*
X79920357Y-52107600D01*
X79851501Y-52191501D01*
X79767600Y-52260357D01*
X79699055Y-52296995D01*
X79671879Y-52311521D01*
X79568015Y-52343027D01*
X79487067Y-52351000D01*
X79432933Y-52351000D01*
X79351985Y-52343027D01*
X79248121Y-52311521D01*
X79220945Y-52296995D01*
X79152400Y-52260357D01*
X79068499Y-52191501D01*
X78999643Y-52107600D01*
X78957363Y-52028499D01*
X78948479Y-52011879D01*
X78944612Y-51999131D01*
X78935240Y-51976504D01*
X78921626Y-51956130D01*
X78904299Y-51938803D01*
X78883925Y-51925189D01*
X78861286Y-51915812D01*
X78837253Y-51911031D01*
X78812749Y-51911031D01*
X78788715Y-51915811D01*
X78766076Y-51925188D01*
X78745702Y-51938802D01*
X78728375Y-51956129D01*
X78714761Y-51976503D01*
X78705388Y-51999131D01*
X78701521Y-52011879D01*
X78692637Y-52028499D01*
X78650357Y-52107600D01*
X78581501Y-52191501D01*
X78497600Y-52260357D01*
X78429055Y-52296995D01*
X78401879Y-52311521D01*
X78298015Y-52343027D01*
X78217067Y-52351000D01*
X78162933Y-52351000D01*
X78081985Y-52343027D01*
X77978121Y-52311521D01*
X77950945Y-52296995D01*
X77882400Y-52260357D01*
X77798499Y-52191501D01*
X77729643Y-52107600D01*
X77687363Y-52028499D01*
X77678479Y-52011879D01*
X77674612Y-51999131D01*
X77665240Y-51976504D01*
X77651626Y-51956130D01*
X77634299Y-51938803D01*
X77613925Y-51925189D01*
X77591286Y-51915812D01*
X77567253Y-51911031D01*
X77542749Y-51911031D01*
X77518715Y-51915811D01*
X77496076Y-51925188D01*
X77475702Y-51938802D01*
X77458375Y-51956129D01*
X77444761Y-51976503D01*
X77435388Y-51999131D01*
X77431521Y-52011879D01*
X77422637Y-52028499D01*
X77380357Y-52107600D01*
X77311501Y-52191501D01*
X77227600Y-52260357D01*
X77159055Y-52296995D01*
X77131879Y-52311521D01*
X77028015Y-52343027D01*
X76947067Y-52351000D01*
X76892933Y-52351000D01*
X76811985Y-52343027D01*
X76708121Y-52311521D01*
X76680945Y-52296995D01*
X76612400Y-52260357D01*
X76528499Y-52191501D01*
X76459643Y-52107600D01*
X76417363Y-52028499D01*
X76408479Y-52011879D01*
X76404612Y-51999131D01*
X76395240Y-51976504D01*
X76381626Y-51956130D01*
X76364299Y-51938803D01*
X76343925Y-51925189D01*
X76321286Y-51915812D01*
X76297253Y-51911031D01*
X76272749Y-51911031D01*
X76248715Y-51915811D01*
X76226076Y-51925188D01*
X76205702Y-51938802D01*
X76188375Y-51956129D01*
X76174761Y-51976503D01*
X76165388Y-51999131D01*
X76161521Y-52011879D01*
X76152637Y-52028499D01*
X76110357Y-52107600D01*
X76041501Y-52191501D01*
X75957600Y-52260357D01*
X75889055Y-52296995D01*
X75861879Y-52311521D01*
X75758015Y-52343027D01*
X75677067Y-52351000D01*
X75622933Y-52351000D01*
X75541985Y-52343027D01*
X75438121Y-52311521D01*
X75410945Y-52296995D01*
X75342400Y-52260357D01*
X75258499Y-52191501D01*
X75189643Y-52107600D01*
X75147363Y-52028499D01*
X75138479Y-52011879D01*
X75134612Y-51999131D01*
X75125240Y-51976504D01*
X75111626Y-51956130D01*
X75094299Y-51938803D01*
X75073925Y-51925189D01*
X75051286Y-51915812D01*
X75027253Y-51911031D01*
X75002749Y-51911031D01*
X74978715Y-51915811D01*
X74956076Y-51925188D01*
X74935702Y-51938802D01*
X74918375Y-51956129D01*
X74904761Y-51976503D01*
X74895388Y-51999131D01*
X74891521Y-52011879D01*
X74882637Y-52028499D01*
X74840357Y-52107600D01*
X74771501Y-52191501D01*
X74687600Y-52260357D01*
X74619055Y-52296995D01*
X74591879Y-52311521D01*
X74488015Y-52343027D01*
X74407067Y-52351000D01*
X74352933Y-52351000D01*
X74271985Y-52343027D01*
X74168121Y-52311521D01*
X74140945Y-52296995D01*
X74072400Y-52260357D01*
X73988499Y-52191501D01*
X73919643Y-52107600D01*
X73877363Y-52028499D01*
X73868479Y-52011879D01*
X73864612Y-51999131D01*
X73855240Y-51976504D01*
X73841626Y-51956130D01*
X73824299Y-51938803D01*
X73803925Y-51925189D01*
X73781286Y-51915812D01*
X73757253Y-51911031D01*
X73732749Y-51911031D01*
X73708715Y-51915811D01*
X73686076Y-51925188D01*
X73665702Y-51938802D01*
X73648375Y-51956129D01*
X73634761Y-51976503D01*
X73625388Y-51999131D01*
X73621521Y-52011879D01*
X73612637Y-52028499D01*
X73570357Y-52107600D01*
X73501501Y-52191501D01*
X73417600Y-52260357D01*
X73349055Y-52296995D01*
X73321879Y-52311521D01*
X73218015Y-52343027D01*
X73137067Y-52351000D01*
X73082933Y-52351000D01*
X73001985Y-52343027D01*
X72898121Y-52311521D01*
X72870945Y-52296995D01*
X72802400Y-52260357D01*
X72718499Y-52191501D01*
X72649643Y-52107600D01*
X72607363Y-52028499D01*
X72598479Y-52011879D01*
X72594612Y-51999131D01*
X72585240Y-51976504D01*
X72571626Y-51956130D01*
X72554299Y-51938803D01*
X72533925Y-51925189D01*
X72511286Y-51915812D01*
X72487253Y-51911031D01*
X72462749Y-51911031D01*
X72438715Y-51915811D01*
X72416076Y-51925188D01*
X72395702Y-51938802D01*
X72378375Y-51956129D01*
X72364761Y-51976503D01*
X72355388Y-51999131D01*
X72351521Y-52011879D01*
X72342637Y-52028499D01*
X72300357Y-52107600D01*
X72231501Y-52191501D01*
X72147600Y-52260357D01*
X72079055Y-52296995D01*
X72051879Y-52311521D01*
X71948015Y-52343027D01*
X71867067Y-52351000D01*
X71812933Y-52351000D01*
X71731985Y-52343027D01*
X71628121Y-52311521D01*
X71600945Y-52296995D01*
X71532400Y-52260357D01*
X71448499Y-52191501D01*
X71379643Y-52107600D01*
X71337363Y-52028499D01*
X71328479Y-52011879D01*
X71324612Y-51999131D01*
X71315240Y-51976504D01*
X71301626Y-51956130D01*
X71284299Y-51938803D01*
X71263925Y-51925189D01*
X71241286Y-51915812D01*
X71217253Y-51911031D01*
X71192749Y-51911031D01*
X71168715Y-51915811D01*
X71146076Y-51925188D01*
X71125702Y-51938802D01*
X71108375Y-51956129D01*
X71094761Y-51976503D01*
X71085388Y-51999131D01*
X71081521Y-52011879D01*
X71072637Y-52028499D01*
X71030357Y-52107600D01*
X70961501Y-52191501D01*
X70877600Y-52260357D01*
X70809055Y-52296995D01*
X70781879Y-52311521D01*
X70678015Y-52343027D01*
X70597067Y-52351000D01*
X70542933Y-52351000D01*
X70461985Y-52343027D01*
X70358121Y-52311521D01*
X70330945Y-52296995D01*
X70262400Y-52260357D01*
X70178499Y-52191501D01*
X70109643Y-52107600D01*
X70067363Y-52028499D01*
X70058479Y-52011879D01*
X70054612Y-51999131D01*
X70045240Y-51976504D01*
X70031626Y-51956130D01*
X70014299Y-51938803D01*
X69993925Y-51925189D01*
X69971286Y-51915812D01*
X69947253Y-51911031D01*
X69922749Y-51911031D01*
X69898715Y-51915811D01*
X69876076Y-51925188D01*
X69855702Y-51938802D01*
X69838375Y-51956129D01*
X69824761Y-51976503D01*
X69815388Y-51999131D01*
X69811521Y-52011879D01*
X69802637Y-52028499D01*
X69760357Y-52107600D01*
X69691501Y-52191501D01*
X69607600Y-52260357D01*
X69539055Y-52296995D01*
X69511879Y-52311521D01*
X69408015Y-52343027D01*
X69327067Y-52351000D01*
X69272933Y-52351000D01*
X69191985Y-52343027D01*
X69088121Y-52311521D01*
X69060945Y-52296995D01*
X68992400Y-52260357D01*
X68908499Y-52191501D01*
X68839643Y-52107600D01*
X68797363Y-52028499D01*
X68788479Y-52011879D01*
X68784612Y-51999131D01*
X68775240Y-51976504D01*
X68761626Y-51956130D01*
X68744299Y-51938803D01*
X68723925Y-51925189D01*
X68701286Y-51915812D01*
X68677253Y-51911031D01*
X68652749Y-51911031D01*
X68628715Y-51915811D01*
X68606076Y-51925188D01*
X68585702Y-51938802D01*
X68568375Y-51956129D01*
X68554761Y-51976503D01*
X68545388Y-51999131D01*
X68541521Y-52011879D01*
X68532637Y-52028499D01*
X68490357Y-52107600D01*
X68421501Y-52191501D01*
X68337600Y-52260357D01*
X68269055Y-52296995D01*
X68241879Y-52311521D01*
X68138015Y-52343027D01*
X68057067Y-52351000D01*
X68002933Y-52351000D01*
X67921985Y-52343027D01*
X67818121Y-52311521D01*
X67790945Y-52296995D01*
X67722400Y-52260357D01*
X67638499Y-52191501D01*
X67569643Y-52107600D01*
X67527363Y-52028499D01*
X67518479Y-52011879D01*
X67514612Y-51999131D01*
X67505240Y-51976504D01*
X67491626Y-51956130D01*
X67474299Y-51938803D01*
X67453925Y-51925189D01*
X67431286Y-51915812D01*
X67407253Y-51911031D01*
X67382749Y-51911031D01*
X67358715Y-51915811D01*
X67336076Y-51925188D01*
X67315702Y-51938802D01*
X67298375Y-51956129D01*
X67284761Y-51976503D01*
X67275388Y-51999131D01*
X67271521Y-52011879D01*
X67262637Y-52028499D01*
X67220357Y-52107600D01*
X67151501Y-52191501D01*
X67067600Y-52260357D01*
X66999055Y-52296995D01*
X66971879Y-52311521D01*
X66868015Y-52343027D01*
X66787067Y-52351000D01*
X66732933Y-52351000D01*
X66651985Y-52343027D01*
X66548121Y-52311521D01*
X66520945Y-52296995D01*
X66452400Y-52260357D01*
X66368499Y-52191501D01*
X66299643Y-52107600D01*
X66257363Y-52028499D01*
X66248479Y-52011879D01*
X66244612Y-51999131D01*
X66235240Y-51976504D01*
X66221626Y-51956130D01*
X66204299Y-51938803D01*
X66183925Y-51925189D01*
X66161286Y-51915812D01*
X66137253Y-51911031D01*
X66112749Y-51911031D01*
X66088715Y-51915811D01*
X66066076Y-51925188D01*
X66045702Y-51938802D01*
X66028375Y-51956129D01*
X66014761Y-51976503D01*
X66005388Y-51999131D01*
X66001521Y-52011879D01*
X65992637Y-52028499D01*
X65950357Y-52107600D01*
X65881501Y-52191501D01*
X65797600Y-52260357D01*
X65729055Y-52296995D01*
X65701879Y-52311521D01*
X65598015Y-52343027D01*
X65517067Y-52351000D01*
X65462933Y-52351000D01*
X65381985Y-52343027D01*
X65278121Y-52311521D01*
X65250945Y-52296995D01*
X65182400Y-52260357D01*
X65098499Y-52191501D01*
X65029643Y-52107600D01*
X64987363Y-52028499D01*
X64978479Y-52011879D01*
X64974612Y-51999131D01*
X64965240Y-51976504D01*
X64951626Y-51956130D01*
X64934299Y-51938803D01*
X64913925Y-51925189D01*
X64891286Y-51915812D01*
X64867253Y-51911031D01*
X64842749Y-51911031D01*
X64818715Y-51915811D01*
X64796076Y-51925188D01*
X64775702Y-51938802D01*
X64758375Y-51956129D01*
X64744761Y-51976503D01*
X64735388Y-51999131D01*
X64731521Y-52011879D01*
X64722637Y-52028499D01*
X64680357Y-52107600D01*
X64611501Y-52191501D01*
X64527600Y-52260357D01*
X64459055Y-52296995D01*
X64431879Y-52311521D01*
X64328015Y-52343027D01*
X64247067Y-52351000D01*
X64192933Y-52351000D01*
X64111985Y-52343027D01*
X64008121Y-52311521D01*
X63980945Y-52296995D01*
X63912400Y-52260357D01*
X63828499Y-52191501D01*
X63759643Y-52107600D01*
X63717363Y-52028499D01*
X63708479Y-52011879D01*
X63704612Y-51999131D01*
X63695240Y-51976504D01*
X63681626Y-51956130D01*
X63664299Y-51938803D01*
X63643925Y-51925189D01*
X63621286Y-51915812D01*
X63597253Y-51911031D01*
X63572749Y-51911031D01*
X63548715Y-51915811D01*
X63526076Y-51925188D01*
X63505702Y-51938802D01*
X63488375Y-51956129D01*
X63474761Y-51976503D01*
X63465388Y-51999131D01*
X63461521Y-52011879D01*
X63452637Y-52028499D01*
X63410357Y-52107600D01*
X63341501Y-52191501D01*
X63257600Y-52260357D01*
X63189055Y-52296995D01*
X63161879Y-52311521D01*
X63058015Y-52343027D01*
X62977067Y-52351000D01*
X62922933Y-52351000D01*
X62841985Y-52343027D01*
X62738121Y-52311521D01*
X62710945Y-52296995D01*
X62642400Y-52260357D01*
X62558499Y-52191501D01*
X62489643Y-52107600D01*
X62447363Y-52028499D01*
X62438479Y-52011879D01*
X62434612Y-51999131D01*
X62425240Y-51976504D01*
X62411626Y-51956130D01*
X62394299Y-51938803D01*
X62373925Y-51925189D01*
X62351286Y-51915812D01*
X62327253Y-51911031D01*
X62302749Y-51911031D01*
X62278715Y-51915811D01*
X62256076Y-51925188D01*
X62235702Y-51938802D01*
X62218375Y-51956129D01*
X62204761Y-51976503D01*
X62195388Y-51999131D01*
X62191521Y-52011879D01*
X62182637Y-52028499D01*
X62140357Y-52107600D01*
X62071501Y-52191501D01*
X61987600Y-52260357D01*
X61919055Y-52296995D01*
X61891879Y-52311521D01*
X61788015Y-52343027D01*
X61707067Y-52351000D01*
X61652933Y-52351000D01*
X61571985Y-52343027D01*
X61468121Y-52311521D01*
X61440945Y-52296995D01*
X61372400Y-52260357D01*
X61288499Y-52191501D01*
X61219643Y-52107600D01*
X61177363Y-52028499D01*
X61168479Y-52011879D01*
X61164612Y-51999131D01*
X61155240Y-51976504D01*
X61141626Y-51956130D01*
X61124299Y-51938803D01*
X61103925Y-51925189D01*
X61081286Y-51915812D01*
X61057253Y-51911031D01*
X61032749Y-51911031D01*
X61008715Y-51915811D01*
X60986076Y-51925188D01*
X60965702Y-51938802D01*
X60948375Y-51956129D01*
X60934761Y-51976503D01*
X60925388Y-51999131D01*
X60921521Y-52011879D01*
X60912637Y-52028499D01*
X60870357Y-52107600D01*
X60801501Y-52191501D01*
X60717600Y-52260357D01*
X60649055Y-52296995D01*
X60621879Y-52311521D01*
X60518015Y-52343027D01*
X60437067Y-52351000D01*
X60382933Y-52351000D01*
X60301985Y-52343027D01*
X60198121Y-52311521D01*
X60170945Y-52296995D01*
X60102400Y-52260357D01*
X60018499Y-52191501D01*
X59949643Y-52107600D01*
X59907363Y-52028499D01*
X59898479Y-52011879D01*
X59894612Y-51999131D01*
X59885240Y-51976504D01*
X59871626Y-51956130D01*
X59854299Y-51938803D01*
X59833925Y-51925189D01*
X59811286Y-51915812D01*
X59787253Y-51911031D01*
X59762749Y-51911031D01*
X59738715Y-51915811D01*
X59716076Y-51925188D01*
X59695702Y-51938802D01*
X59678375Y-51956129D01*
X59664761Y-51976503D01*
X59655388Y-51999131D01*
X59651521Y-52011879D01*
X59642637Y-52028499D01*
X59600357Y-52107600D01*
X59531501Y-52191501D01*
X59447600Y-52260357D01*
X59379055Y-52296995D01*
X59351879Y-52311521D01*
X59248015Y-52343027D01*
X59167067Y-52351000D01*
X59112933Y-52351000D01*
X59031985Y-52343027D01*
X58928121Y-52311521D01*
X58900945Y-52296995D01*
X58832400Y-52260357D01*
X58748499Y-52191501D01*
X58679643Y-52107600D01*
X58637363Y-52028499D01*
X58628479Y-52011879D01*
X58624612Y-51999131D01*
X58615240Y-51976504D01*
X58601626Y-51956130D01*
X58584299Y-51938803D01*
X58563925Y-51925189D01*
X58541286Y-51915812D01*
X58517253Y-51911031D01*
X58492749Y-51911031D01*
X58468715Y-51915811D01*
X58446076Y-51925188D01*
X58425702Y-51938802D01*
X58408375Y-51956129D01*
X58394761Y-51976503D01*
X58385388Y-51999131D01*
X58381521Y-52011879D01*
X58372637Y-52028499D01*
X58330357Y-52107600D01*
X58261501Y-52191501D01*
X58177600Y-52260357D01*
X58109055Y-52296995D01*
X58081879Y-52311521D01*
X57978015Y-52343027D01*
X57897067Y-52351000D01*
X57842933Y-52351000D01*
X57761985Y-52343027D01*
X57658121Y-52311521D01*
X57630945Y-52296995D01*
X57562400Y-52260357D01*
X57478499Y-52191501D01*
X57409643Y-52107600D01*
X57367363Y-52028499D01*
X57358479Y-52011879D01*
X57354612Y-51999131D01*
X57345240Y-51976504D01*
X57331626Y-51956130D01*
X57314299Y-51938803D01*
X57293925Y-51925189D01*
X57271286Y-51915812D01*
X57247253Y-51911031D01*
X57222749Y-51911031D01*
X57198715Y-51915811D01*
X57176076Y-51925188D01*
X57155702Y-51938802D01*
X57138375Y-51956129D01*
X57124761Y-51976503D01*
X57115388Y-51999131D01*
X57111521Y-52011879D01*
X57102637Y-52028499D01*
X57060357Y-52107600D01*
X56991501Y-52191501D01*
X56907600Y-52260357D01*
X56839055Y-52296995D01*
X56811879Y-52311521D01*
X56708015Y-52343027D01*
X56627067Y-52351000D01*
X56572933Y-52351000D01*
X56491985Y-52343027D01*
X56388121Y-52311521D01*
X56360945Y-52296995D01*
X56292400Y-52260357D01*
X56208499Y-52191501D01*
X56139643Y-52107600D01*
X56097363Y-52028499D01*
X56088479Y-52011879D01*
X56084612Y-51999131D01*
X56075240Y-51976504D01*
X56061626Y-51956130D01*
X56044299Y-51938803D01*
X56023925Y-51925189D01*
X56001286Y-51915812D01*
X55977253Y-51911031D01*
X55952749Y-51911031D01*
X55928715Y-51915811D01*
X55906076Y-51925188D01*
X55885702Y-51938802D01*
X55868375Y-51956129D01*
X55854761Y-51976503D01*
X55845388Y-51999131D01*
X55841521Y-52011879D01*
X55832637Y-52028499D01*
X55790357Y-52107600D01*
X55721501Y-52191501D01*
X55637600Y-52260357D01*
X55569055Y-52296995D01*
X55541879Y-52311521D01*
X55438015Y-52343027D01*
X55357067Y-52351000D01*
X55302933Y-52351000D01*
X55221985Y-52343027D01*
X55118121Y-52311521D01*
X55090945Y-52296995D01*
X55022400Y-52260357D01*
X54938499Y-52191501D01*
X54869643Y-52107600D01*
X54827363Y-52028499D01*
X54818479Y-52011879D01*
X54786973Y-51908015D01*
X54776334Y-51800000D01*
X54786973Y-51691985D01*
X54818479Y-51588121D01*
X54858338Y-51513551D01*
X54869643Y-51492400D01*
X54938499Y-51408499D01*
X55022400Y-51339643D01*
X55090945Y-51303005D01*
X55118121Y-51288479D01*
X55221985Y-51256973D01*
X55302933Y-51249000D01*
X55357067Y-51249000D01*
X55438015Y-51256973D01*
X55438015Y-51256973D01*
G37*
M02*
